<svg id="Layer_2" data-name="Layer 2" xmlns="http://www.w3.org/2000/svg" width="100.17" height="67" viewBox="0 0 100.17 67">
  <g id="Layer_1" data-name="Layer 1">
    <g id="g302">
      <g id="g36" transform="translate(0.027)">
        <rect id="rect2" width="1.12" height="1.12" transform="translate(58.992 1.215)" fill="#fff"/>
        <rect id="rect4" width="1.12" height="1.12" transform="translate(82.407 15.195)" fill="#fff"/>
        <path id="path6" d="M73.384,13.155a1.647,1.647,0,0,0,.672-.567,2.279,2.279,0,0,0,.356-.9,5.521,5.521,0,0,0,.105-1.186V2.6H73.4v7.906a4.729,4.729,0,0,1,0,.8,1.45,1.45,0,0,1-.171.54.738.738,0,0,1-.316.29,1.318,1.318,0,0,1-.527.092h-.277l-.3-.079-.3,1.094a3.769,3.769,0,0,0,.922.119A2.359,2.359,0,0,0,73.384,13.155Z" transform="translate(22.714 0.828)" fill="#fff"/>
        <path id="path8" d="M70.6,1.476H69.044V1.213a.488.488,0,0,1,.092-.329.435.435,0,0,1,.343-.105h.777V0h-.791a1.4,1.4,0,0,0-1,.343,1.476,1.476,0,0,0-.343,1.08v.909H70.6Z" transform="translate(21.639 0.002)" fill="#fff"/>
        <rect id="rect10" width="1.12" height="1.12" transform="translate(80.154 15.195)" fill="#fff"/>
        <rect id="rect12" width="1.12" height="1.12" transform="translate(61.245 1.215)" fill="#fff"/>
        <path id="path14" d="M66.48,9.363a4.52,4.52,0,0,0,1.489.672,7.181,7.181,0,0,0,1.792.224h.29l.382-.8v1.12a1.489,1.489,0,0,1-.5,1.318,2.372,2.372,0,0,1-1.423.382,3.953,3.953,0,0,1-.9-.158,5.969,5.969,0,0,1-.962-.329l-.356,1.08a10.789,10.789,0,0,0,1.146.356,4.335,4.335,0,0,0,1,.119,3.215,3.215,0,0,0,2.4-.777,2.886,2.886,0,0,0,.725-2.1V2.63H69.761a5.732,5.732,0,0,0-1.9.29,4.533,4.533,0,0,0-1.476.8A3.584,3.584,0,0,0,65.07,6.491a3.716,3.716,0,0,0,.369,1.7A3.36,3.36,0,0,0,66.48,9.363Zm0-3.953a2.82,2.82,0,0,1,.7-.87,3.083,3.083,0,0,1,.975-.553,3.162,3.162,0,0,1,1.107-.2h1.818l-.646.316v5.02H69.287A3.847,3.847,0,0,1,68.1,8.955a2.991,2.991,0,0,1-.975-.567,2.4,2.4,0,0,1-.659-.83A2.543,2.543,0,0,1,66.3,6.491a2.358,2.358,0,0,1,.184-1.107Z" transform="translate(20.671 0.838)" fill="#fff"/>
        <path id="path16" d="M46.271,13.185h2.345v-.843a.963.963,0,0,0,0,.119,1.687,1.687,0,0,0,.672.58,2.635,2.635,0,0,0,1.028.184h20.6V2.683H69.779V12.1H50.422a1.186,1.186,0,0,1-.527-.092.646.646,0,0,1-.329-.29,1.634,1.634,0,0,1-.171-.54,6.8,6.8,0,0,1,0-.8V2.63H46.271A5.165,5.165,0,0,0,41,7.9h0a5.113,5.113,0,0,0,5.271,5.284ZM42.318,7.914a4.019,4.019,0,0,1,3.953-4.19h2.635l-.685.356v6.3a6.51,6.51,0,0,0,.105,1.186,3.189,3.189,0,0,0,.171.567H46.271A4.058,4.058,0,0,1,42.318,7.9Z" transform="translate(13.024 0.838)" fill="#fff"/>
        <path id="polygon18" d="M38.654,10.407l.488,1.291L32,2.62H30.88V13.175h1.16V5.216l-.659-1.542,7.484,9.5h.949V2.62h-1.16Z" transform="translate(9.81 0.835)" fill="#fff"/>
        <path id="path20" d="M52,25.933l6.5-6.18V15.51H41.079v4.823h8.894l3.347-2.121-8.235,8.275.883,3.584h2.345c3.149,0,5.02,1.173,5.02,3.268V33.4c0,1.911-1.5,3.11-3.624,3.11a7.906,7.906,0,0,1-6.206-3.07L39.55,37.133a12.439,12.439,0,0,0,10.014,4.441c5.719,0,9.224-3.558,9.224-8.394v-.066C58.828,28.357,55.428,26.526,52,25.933Z" transform="translate(12.564 4.93)" fill="#fff"/>
        <path id="path22" d="M26.613,2.48a5.35,5.35,0,0,0-5.4,5.455h0a5.389,5.389,0,1,0,10.779,0h0A5.271,5.271,0,0,0,26.613,2.48ZM30.75,7.962A4.151,4.151,0,0,1,26.613,12.3a4.2,4.2,0,0,1-4.164-4.361h0a4.154,4.154,0,1,1,8.3.026Z" transform="translate(6.738 0.79)" fill="#fff"/>
        <path id="path24" d="M68.967,15.172A13.269,13.269,0,0,0,55.29,28.428v.066A13.177,13.177,0,0,0,68.9,41.67,13.269,13.269,0,0,0,82.579,28.428v-.079A13.177,13.177,0,0,0,68.967,15.172Zm7.708,13.322a7.682,7.682,0,0,1-7.708,7.985,7.787,7.787,0,0,1-7.774-8.051v-.079A7.669,7.669,0,0,1,68.9,20.377a7.787,7.787,0,0,1,7.774,8.051Z" transform="translate(17.564 4.82)" fill="#fff"/>
        <rect id="rect26" width="1.199" height="10.555" transform="translate(24.693 3.455)" fill="#fff"/>
        <path id="path28" d="M5.464,38.289l1.067-.843,5.613-4.322c4.546-3.505,6.746-5.64,6.746-9.922v-.066c0-4.8-3.518-7.906-8.842-7.906-4.585,0-7.036,1.858-9.566,5.271l3.953,3.176c1.911-2.345,3.268-3.439,5.271-3.439A3.149,3.149,0,0,1,13.12,23.61c0,2.121-1.252,3.518-4.441,6.154L.18,36.748V41.28h19V36.352H9.391Z" transform="translate(0.057 4.841)" fill="#fff"/>
        <path id="polygon30" d="M5.6,13.24,10.146,2.62H8.868l-3.6,8.644.119,1.16-.3-.712L1.977,4.188,1.331,2.62H0L4.546,13.24Z" transform="translate(0 0.835)" fill="#fff"/>
        <rect id="rect32" width="1.199" height="10.555" transform="translate(11.767 3.455)" fill="#fff"/>
        <path id="path34" d="M15.71,7.371c-2.319-.5-2.859-1.054-2.859-2.056h0c0-.949.87-1.7,2.24-1.7a4.691,4.691,0,0,1,3.057,1.133l.685-.935A5.5,5.5,0,0,0,15.117,2.5a3.123,3.123,0,0,0-3.479,2.886h0c0,1.739,1.12,2.517,3.545,3.044s2.754,1.028,2.754,2h0c0,1.041-.936,1.792-2.359,1.792a5.073,5.073,0,0,1-3.61-1.41l-.738.87a6.18,6.18,0,0,0,4.322,1.687c2.1,0,3.61-1.173,3.61-2.978h0C19.162,8.741,18.069,7.884,15.71,7.371Z" transform="translate(3.567 0.788)" fill="#fff"/>
      </g>
      <path id="polygon38" d="M26.539,13.89l1.3,1.252-1.252,1.291L25.3,15.194Z" transform="translate(8.064 4.415)" fill="#fff"/>
      <path id="polygon40" d="M28.5,15.194l1.3,1.239,1.252-1.291-1.3-1.252Z" transform="translate(9.08 4.415)" fill="#fff"/>
      <path id="polygon42" d="M27.11,16.365l1.015.975.975-1.015-1.015-.975Z" transform="translate(8.639 4.879)" fill="#fff"/>
      <path id="polygon44" d="M29.93,16.785l1.015.975.962-1.015-1-.975Z" transform="translate(9.535 5.012)" fill="#fff"/>
      <path id="polygon46" d="M25.86,17.535l1,.975.975-1.015-1.015-.975Z" transform="translate(8.242 5.25)" fill="#fff"/>
      <path id="polygon48" d="M28.43,17.625l1.015.975.975-1.015-1.015-.975Z" transform="translate(9.058 5.279)" fill="#fff"/>
      <path id="polygon50" d="M27.43,18.432l.712.685.672-.712-.7-.685Z" transform="translate(8.741 5.632)" fill="#fff"/>
      <path id="polygon52" d="M29.46,18.842l.712.685.685-.712-.712-.685Z" transform="translate(9.385 5.762)" fill="#fff"/>
      <rect id="rect54" width="2.24" height="2.24" transform="translate(44.72 19.189) rotate(-10.39)" fill="#fff"/>
      <rect id="rect56" width="1.805" height="1.805" transform="translate(41.83 20.117) rotate(-10.38)" fill="#fff"/>
      <rect id="rect58" width="1.805" height="1.805" transform="translate(45.264 22.587) rotate(-10.39)" fill="#fff"/>
      <rect id="rect60" width="1.397" height="1.397" transform="translate(42.814 22.839) rotate(-10.38)" fill="#fff"/>
      <rect id="rect62" width="1.397" height="1.397" transform="translate(45.508 25.461) rotate(-10.38)" fill="#fff"/>
      <rect id="rect64" width="1.41" height="1.397" transform="translate(40.747 23.401) rotate(-10.38)" fill="#fff"/>
      <rect id="rect66" width="1.397" height="1.397" transform="translate(43.245 25.2) rotate(-10.38)" fill="#fff"/>
      <rect id="rect68" width="0.988" height="0.988" transform="translate(41.497 25.366) rotate(-10.39)" fill="#fff"/>
      <rect id="rect70" width="0.985" height="0.985" transform="matrix(0.984, -0.181, 0.181, 0.984, 43.203, 27.258)" fill="#fff"/>
      <path id="polygon72" d="M39.132,20.05l-.962,2.029,2.029.962.962-2.029Z" transform="translate(12.152 6.372)" fill="#fff"/>
      <path id="polygon74" d="M36.907,19.34l-.777,1.621,1.634.777.764-1.634Z" transform="translate(11.504 6.146)" fill="#fff"/>
      <path id="polygon76" d="M37.917,22.37,37.14,24l1.634.764.764-1.621Z" transform="translate(11.825 7.109)" fill="#fff"/>
      <path id="polygon78" d="M36.256,21.45l-.606,1.265,1.278.606.593-1.265Z" transform="translate(11.352 6.817)" fill="#fff"/>
      <path id="polygon80" d="M36.746,24.25l-.606,1.265,1.265.606.606-1.265Z" transform="translate(11.507 7.706)" fill="#fff"/>
      <path id="polygon82" d="M34.736,20.88l-.606,1.265,1.265.606L36,21.486Z" transform="translate(10.869 6.635)" fill="#fff"/>
      <path id="polygon84" d="M35.476,23.1l-.606,1.265,1.265.606.606-1.278Z" transform="translate(11.104 7.341)" fill="#fff"/>
      <path id="polygon86" d="M34.272,22.42l-.422.9.9.422.422-.9Z" transform="translate(10.78 7.125)" fill="#fff"/>
      <rect id="rect88" width="0.988" height="0.988" transform="translate(44.962 33.146) rotate(-64.55)" fill="#fff"/>
      <path id="polygon90" d="M40.2,27.41,38.24,28.477l1.08,1.963,1.963-1.067Z" transform="translate(12.175 8.71)" fill="#fff"/>
      <path id="polygon92" d="M38.761,25.55l-1.581.87L38.05,28l1.568-.87Z" transform="translate(11.838 8.119)" fill="#fff"/>
      <path id="polygon94" d="M37.8,28.61l-1.581.856.87,1.581,1.581-.87Z" transform="translate(11.533 9.091)" fill="#fff"/>
      <path id="polygon96" d="M36.949,26.91l-1.239.672.685,1.225,1.225-.672Z" transform="translate(11.371 8.551)" fill="#fff"/>
      <path id="polygon98" d="M35.7,29.47l-1.225.672.672,1.225,1.225-.672Z" transform="translate(10.977 9.364)" fill="#fff"/>
      <path id="polygon100" d="M36.049,25.56l-1.239.672.685,1.225,1.225-.672Z" transform="translate(11.085 8.122)" fill="#fff"/>
      <path id="polygon102" d="M35.349,27.79l-1.239.672.672,1.225,1.239-.672Z" transform="translate(10.863 8.831)" fill="#fff"/>
      <path id="polygon104" d="M34.706,26.57l-.856.474.474.856.856-.474Z" transform="translate(10.78 8.443)" fill="#fff"/>
      <path id="polygon106" d="M33.706,28.39l-.856.474.474.856.856-.474Z" transform="translate(10.462 9.021)" fill="#fff"/>
      <rect id="rect108" width="2.24" height="2.24" transform="translate(45.076 46.561) rotate(-82.96)" fill="#fff"/>
      <rect id="rect110" width="1.792" height="1.805" transform="matrix(0.123, -0.992, 0.992, 0.123, 45.556, 43.165)" fill="#fff"/>
      <rect id="rect112" width="1.805" height="1.805" transform="matrix(0.123, -0.992, 0.992, 0.123, 42.184, 45.677)" fill="#fff"/>
      <rect id="rect114" width="1.397" height="1.397" transform="matrix(0.123, -0.992, 0.992, 0.123, 43.116, 42.939)" fill="#fff"/>
      <rect id="rect116" width="1.397" height="1.397" transform="matrix(0.123, -0.992, 0.992, 0.123, 39.798, 44.712)" fill="#fff"/>
      <rect id="rect118" width="1.397" height="1.41" transform="matrix(0.123, -0.992, 0.992, 0.123, 43.183, 40.793)" fill="#fff"/>
      <rect id="rect120" width="1.397" height="1.41" transform="matrix(0.123, -0.992, 0.992, 0.123, 40.716, 42.636)" fill="#fff"/>
      <rect id="rect122" width="0.988" height="0.988" transform="matrix(0.123, -0.992, 0.992, 0.123, 41.553, 40.548)" fill="#fff"/>
      <rect id="rect124" width="0.988" height="0.988" transform="matrix(0.123, -0.992, 0.992, 0.123, 39.079, 41.727)" fill="#fff"/>
      <path id="polygon126" d="M30.126,37.328,28.478,35.8,26.95,37.447,28.6,38.976Z" transform="translate(8.588 11.375)" fill="#fff"/>
      <path id="polygon128" d="M29.9,13.5,28.248,11.97,26.72,13.617l1.647,1.528Z" transform="translate(8.515 3.805)" fill="#fff"/>
      <path id="polygon130" d="M31.3,35.385,29.985,34.16,28.76,35.478,30.078,36.7Z" transform="translate(9.163 10.854)" fill="#fff"/>
      <path id="polygon132" d="M28.106,35.445,26.775,34.22,25.55,35.538l1.331,1.225Z" transform="translate(8.143 10.873)" fill="#fff"/>
      <path id="polygon134" d="M29.34,34.109,28.3,33.16l-.949,1.028,1.028.949Z" transform="translate(8.715 10.536)" fill="#fff"/>
      <path id="polygon136" d="M26.507,33.742l-1.028-.962-.949,1.028,1.028.962Z" transform="translate(7.819 10.416)" fill="#fff"/>
      <path id="polygon138" d="M30.34,32.829l-1.028-.949-.962,1.028,1.028.949Z" transform="translate(9.033 10.13)" fill="#fff"/>
      <path id="polygon140" d="M27.987,32.869l-1.028-.949-.949,1.028,1.028.949Z" transform="translate(8.289 10.143)" fill="#fff"/>
      <path id="polygon142" d="M28.847,31.9l-.725-.672-.672.725.725.672Z" transform="translate(8.747 9.923)" fill="#fff"/>
      <path id="polygon144" d="M26.8,31.532l-.725-.672-.672.725.725.672Z" transform="translate(8.096 9.806)" fill="#fff"/>
      <rect id="rect146" width="2.24" height="2.24" transform="translate(26.474 45.086) rotate(-11.33)" fill="#fff"/>
      <rect id="rect148" width="1.805" height="1.805" transform="translate(29.866 44.45) rotate(-11.33)" fill="#fff"/>
      <rect id="rect150" width="1.805" height="1.805" transform="translate(26.396 42.049) rotate(-11.34)" fill="#fff"/>
      <rect id="rect152" width="1.397" height="1.397" transform="translate(29.298 42.072) rotate(-11.33)" fill="#fff"/>
      <rect id="rect154" width="1.397" height="1.397" transform="translate(31.368 41.479) rotate(-11.33)" fill="#fff"/>
      <rect id="rect156" width="1.397" height="1.397" transform="translate(28.831 39.707) rotate(-11.33)" fill="#fff"/>
      <rect id="rect158" width="0.988" height="0.988" transform="translate(31.077 39.836) rotate(-11.31)" fill="#fff"/>
      <rect id="rect160" width="0.988" height="0.988" transform="translate(29.177 37.882) rotate(-11.34)" fill="#fff"/>
      <path id="polygon162" d="M17.492,30.868l.936-2.042-2.042-.936-.936,2.042Z" transform="translate(4.935 8.862)" fill="#fff"/>
      <path id="polygon164" d="M19.6,31.392l.751-1.634L18.7,29.02l-.751,1.634Z" transform="translate(5.729 9.221)" fill="#fff"/>
      <path id="polygon166" d="M18.537,28.372l.738-1.634L17.641,26l-.751,1.634Z" transform="translate(5.392 8.262)" fill="#fff"/>
      <rect id="rect168" width="1.397" height="1.397" transform="translate(24.793 37.241) rotate(-65.49)" fill="#fff"/>
      <path id="polygon170" d="M21.378,31.568l.58-1.278-1.278-.58-.58,1.278Z" transform="translate(6.412 9.44)" fill="#fff"/>
      <rect id="rect172" width="1.397" height="1.397" transform="translate(24.099 33.559) rotate(-65.47)" fill="#fff"/>
      <rect id="rect174" width="1.397" height="1.397" transform="translate(26.824 37.965) rotate(-65.47)" fill="#fff"/>
      <rect id="rect176" width="1.397" height="1.397" transform="matrix(0.415, -0.91, 0.91, 0.415, 25.794, 35.057)" fill="#fff"/>
      <path id="polygon178" d="M21.906,28.014l.408-.9-.9-.408-.408.9Z" transform="translate(6.701 8.487)" fill="#fff"/>
      <path id="polygon180" d="M21.616,25.954l.408-.9-.9-.408-.408.9Z" transform="translate(6.609 7.833)" fill="#fff"/>
      <path id="polygon182" d="M16.32,23.547l1.95-1.12L17.15,20.49,15.2,21.6Z" transform="translate(4.855 6.512)" fill="#fff"/>
      <path id="polygon184" d="M17.656,25.234l1.555-.9-.883-1.568-1.568.9Z" transform="translate(5.351 7.236)" fill="#fff"/>
      <path id="polygon186" d="M18.553,22.164l1.568-.9L19.238,19.7l-1.568.9Z" transform="translate(5.64 6.261)" fill="#fff"/>
      <path id="polygon188" d="M19.305,23.711l1.225-.7-.7-1.212-1.212.7Z" transform="translate(5.942 6.928)" fill="#fff"/>
      <path id="polygon190" d="M20.518,21.131l1.212-.685-.685-1.225-1.225.7Z" transform="translate(6.323 6.108)" fill="#fff"/>
      <path id="polygon192" d="M20.238,25.051l1.212-.7-.7-1.212-1.212.685Z" transform="translate(6.234 7.353)" fill="#fff"/>
      <path id="polygon194" d="M20.9,22.8l1.225-.685-.7-1.225-1.225.7Z" transform="translate(6.444 6.639)" fill="#fff"/>
      <path id="polygon196" d="M21.408,23.884l.856-.488-.488-.856-.856.488Z" transform="translate(6.672 7.163)" fill="#fff"/>
      <path id="polygon198" d="M22.378,22.044l.856-.488-.488-.856-.856.488Z" transform="translate(6.981 6.578)" fill="#fff"/>
      <rect id="rect200" width="2.24" height="2.24" transform="matrix(0.106, -0.994, 0.994, 0.106, 25.836, 21.47)" fill="#fff"/>
      <rect id="rect202" width="1.792" height="1.805" transform="matrix(0.106, -0.994, 0.994, 0.106, 25.904, 24.502)" fill="#fff"/>
      <rect id="rect204" width="1.792" height="1.805" transform="matrix(0.106, -0.994, 0.994, 0.106, 29.24, 21.914)" fill="#fff"/>
      <rect id="rect206" width="1.397" height="1.397" transform="matrix(0.106, -0.994, 0.994, 0.106, 28.793, 24.33)" fill="#fff"/>
      <rect id="rect208" width="1.397" height="1.397" transform="translate(32.066 22.498) rotate(-83.91)" fill="#fff"/>
      <rect id="rect210" width="1.397" height="1.397" transform="matrix(0.106, -0.994, 0.994, 0.106, 28.749, 26.468)" fill="#fff"/>
      <rect id="rect212" width="1.397" height="1.397" transform="matrix(0.106, -0.994, 0.994, 0.106, 31.193, 24.581)" fill="#fff"/>
      <rect id="rect214" width="0.988" height="0.988" transform="matrix(0.106, -0.994, 0.994, 0.106, 30.853, 26.32)" fill="#fff"/>
      <rect id="rect216" width="0.988" height="0.988" transform="translate(33.313 25.106) rotate(-83.93)" fill="#fff"/>
      <path id="path218" d="M36.74,28.164a4.032,4.032,0,0,0-.9-.4,5.455,5.455,0,0,0-2.451-.171,5.864,5.864,0,0,0-1.054.264h-.105l-.567.25-.474.264a11.858,11.858,0,0,0-1.067.738,22.717,22.717,0,0,1-.105-5.692h0c.843.54.606,2.029.422,2.451h0a2.635,2.635,0,0,0,.329-2.965h0a2.635,2.635,0,0,1,.382.4,2.227,2.227,0,0,1,.474,1.318,2.7,2.7,0,0,1,0,.567v.158h0a2.451,2.451,0,0,0,0-2.227,2.635,2.635,0,0,0-.474-.659c-.066,0-.119-.119-.2-.171h.184a1.318,1.318,0,0,1,.474.25,1.924,1.924,0,0,1,.672.9,2.359,2.359,0,0,1,.158.817h0a2.056,2.056,0,0,0-.053-1.7,1.95,1.95,0,0,0-.672-.646,1.647,1.647,0,0,0-.474-.211.777.777,0,0,0-.224,0h.224a1.819,1.819,0,0,1,.474,0,1.66,1.66,0,0,1,.672.264,1.5,1.5,0,0,1,.448.474h0a1.318,1.318,0,0,0-.461-.909,1.805,1.805,0,0,0-.672-.343,1.99,1.99,0,0,0-.474-.079,1.7,1.7,0,0,0-.593.105h0a1.133,1.133,0,0,1,.606-.422,1.2,1.2,0,0,1,.474,0,.922.922,0,0,1,.4.092h0a1.318,1.318,0,0,0-.408-.329,1.067,1.067,0,0,0-.474-.158,1.2,1.2,0,0,0-1.16.567h0c0-.092-.105-.211-.158-.316a4.124,4.124,0,0,1-.264-.87h0a3.32,3.32,0,0,1-.264.87,1.186,1.186,0,0,1-.158.316h0a1.225,1.225,0,0,0-2.108-.2h0a1.318,1.318,0,0,1,1.476.382h0a1.752,1.752,0,0,0-1.9.474,1.318,1.318,0,0,0-.3.751h0a1.318,1.318,0,0,1,.29-.356,1.937,1.937,0,0,1,1.529-.408h0a2.042,2.042,0,0,0-1.528,1.225,2.135,2.135,0,0,0,0,1.318h0a2.042,2.042,0,0,1,1.489-1.99h0a2.477,2.477,0,0,0-.659,3.189h0a2.5,2.5,0,0,1,.922-2.425h0a2.635,2.635,0,0,0,.316,2.965h0c-.171-.435-.408-1.911.435-2.451h0a22.717,22.717,0,0,1-.105,5.692,8.789,8.789,0,0,0-2.108-1.252l-.264-.092a5.561,5.561,0,0,0-1.99-.277,5.165,5.165,0,0,0-2.056.514l-.2.105h.184a5.837,5.837,0,0,1,4.045.329,10.686,10.686,0,0,1,2.372,1.555A24.828,24.828,0,0,1,26.7,32.024h-.079a.54.54,0,0,0-.567-.224.593.593,0,0,0-.422.408.553.553,0,0,0,.119.488.777.777,0,0,0,.949.132,12.768,12.768,0,0,0,2.635-2.187l.277-.237.264.237,1.318,1.239c.158.158.329.29.474.422a5.613,5.613,0,0,0,.672.461.87.87,0,0,0,1.054,0h0a.659.659,0,0,0,.105-.488.422.422,0,0,0-.158-.264.593.593,0,0,0-.25-.145.567.567,0,0,0-.58.224l-.119-.158a6.338,6.338,0,0,1-.672-.54l-.474-.422c-.329-.3-.685-.632-1.067-.962a9.5,9.5,0,0,1,1.067-.817l.474-.3.672-.356a7.906,7.906,0,0,1,1.054-.408,6.048,6.048,0,0,1,3.334,0h0" transform="translate(7.165 6.283)" fill="#fff"/>
      <g id="g300" transform="translate(0 52.327)">
        <rect id="rect220" width="0.659" height="0.659" transform="translate(5.245 6.536)" fill="#fff"/>
        <path id="path222" d="M40.159,45.145V40.77h-.646V44.5H37.075V40.77h-.646V44.5H33.886V40.77H32.872a3.531,3.531,0,0,0-1.094.171,2.477,2.477,0,0,0-.843.461,2.161,2.161,0,0,0-.54.7,2.082,2.082,0,0,0-.184.856,2.108,2.108,0,0,0,.224.988,1.792,1.792,0,0,0,.58.672,2.174,2.174,0,0,0,.843.4,3.637,3.637,0,0,0,1.015.132Zm-8.249-.751a1.608,1.608,0,0,1-.553-.3,1.476,1.476,0,0,1-.382-.474,1.726,1.726,0,0,1-.132-.659,1.318,1.318,0,0,1,.145-.567,1.845,1.845,0,0,1,.4-.5,2.108,2.108,0,0,1,1.212-.422h.632V44.5h-.659A2.266,2.266,0,0,1,31.91,44.394Z" transform="translate(9.624 -39.373)" fill="#fff"/>
        <rect id="rect224" width="0.646" height="5.771" transform="translate(35.999)" fill="#fff"/>
        <rect id="rect226" width="0.659" height="0.659" transform="translate(42.825)" fill="#fff"/>
        <rect id="rect228" width="0.659" height="0.659" transform="translate(49.123 6.522)" fill="#fff"/>
        <rect id="rect230" width="0.659" height="0.659" transform="translate(6.365 6.536)" fill="#fff"/>
        <path id="path232" d="M30.428,44.836H29.374a2.029,2.029,0,0,1-.883-.158,1.318,1.318,0,0,1-.514-.488,2.635,2.635,0,0,0,.066-.606V41.515H27.4v2.174a1.318,1.318,0,0,1-.3.9,1.133,1.133,0,0,1-.9.329,1.318,1.318,0,0,1-.527-.092,1.094,1.094,0,0,1-.4-.237,1.133,1.133,0,0,1-.264-.356,1,1,0,0,1-.105-.435v-2.28h-.646v2.227a1.133,1.133,0,0,1-.092.5,1.067,1.067,0,0,1-.237.343,1.147,1.147,0,0,1-.356.184,1.317,1.317,0,0,1-.408.066H21.916V41.515h-.632v3.321H17.9l1.12-2.635a5.575,5.575,0,0,0-.54-.435c-.2-.132-.4-.237-.593-.343a4.033,4.033,0,0,0-.632-.224,1.963,1.963,0,0,0-.619-.092,2.016,2.016,0,0,0-.619.092,4.032,4.032,0,0,0-.58.211,4.573,4.573,0,0,0-.593.343l-.54.422,1.133,2.662h-2.24V41.107H12.165a3.584,3.584,0,0,0-1.094.171,2.635,2.635,0,0,0-.83.461,2.161,2.161,0,0,0-.553.7,2.28,2.28,0,0,0,0,1.858,1.792,1.792,0,0,0,.58.672,2.464,2.464,0,0,0,.843.382,3.8,3.8,0,0,0,1.028.132h.382v.184a.843.843,0,0,1-.29.725,1.318,1.318,0,0,1-.8.211,2.214,2.214,0,0,1-.54,0,3.057,3.057,0,0,1-.54-.2l-.211.619.659.211a2.9,2.9,0,0,0,.58,0,1.805,1.805,0,0,0,1.318-.448,1.687,1.687,0,0,0,.422-1.2v-.119H23.128a1.634,1.634,0,0,0,.843-.211,1.752,1.752,0,0,0,.593-.527,1.528,1.528,0,0,0,.632.593,1.963,1.963,0,0,0,.962.224,2.279,2.279,0,0,0,.988-.2,1.476,1.476,0,0,0,.619-.619,1.713,1.713,0,0,0,.2.264.935.935,0,0,0,.3.237,1.766,1.766,0,0,0,.448.171,2.346,2.346,0,0,0,.461,0h1.858V39.71h-.646v5.126Zm-17.92,0h-.646a2.267,2.267,0,0,1-.685-.105,1.581,1.581,0,0,1-.553-.29,1.318,1.318,0,0,1-.382-.474,1.41,1.41,0,0,1-.145-.646,1.478,1.478,0,0,1,.553-1.12,1.674,1.674,0,0,1,.553-.329,2.227,2.227,0,0,1,.659-.105h.646Zm3.558,0-1-2.464a2.411,2.411,0,0,1,.751-.461,2.477,2.477,0,0,1,.817-.145,2.267,2.267,0,0,1,.87.171,2.78,2.78,0,0,1,.725.435l-1.015,2.464Z" transform="translate(3.041 -39.71)" fill="#fff"/>
        <rect id="rect234" width="0.659" height="0.659" transform="translate(3.031)" fill="#fff"/>
        <rect id="rect236" width="0.659" height="0.659" transform="translate(68.23)" fill="#fff"/>
        <rect id="rect238" width="0.646" height="5.771" transform="translate(62.524)" fill="#fff"/>
        <rect id="rect240" width="0.659" height="0.659" transform="translate(41.705)" fill="#fff"/>
        <path id="path242" d="M9.573,42.615a2.438,2.438,0,0,0-.105-.712,1.555,1.555,0,0,0-.3-.567,1.766,1.766,0,0,0-.58-.422,1.95,1.95,0,0,0-.777-.145H7.346v.646h.567a.962.962,0,0,1,.435.105,1.041,1.041,0,0,1,.356.264.975.975,0,0,1,.184.369,1.687,1.687,0,0,1,0,.474V44.5H5.91v.646H9.573Z" transform="translate(1.904 -39.373)" fill="#fff"/>
        <rect id="rect244" width="0.646" height="5.771" transform="translate(96.612)" fill="#fff"/>
        <rect id="rect246" width="0.659" height="0.659" transform="translate(69.35)" fill="#fff"/>
        <path id="path248" d="M78.726,39.71H78.08v5.126H75.867a2.266,2.266,0,0,0,.2-.949,2.24,2.24,0,0,0-.184-.936,2.319,2.319,0,0,0-.488-.738,2.24,2.24,0,0,0-.751-.488,2.174,2.174,0,0,0-.922-.184,2.082,2.082,0,0,0-.909.184,2.161,2.161,0,0,0-.725.5,2.319,2.319,0,0,0-.488.738,2.4,2.4,0,0,0-.184.922,2.766,2.766,0,0,0,0,.488,2.359,2.359,0,0,0,.145.461h-1.9a2.082,2.082,0,0,0,.211-.949,2.464,2.464,0,0,0-.185-.936,2.359,2.359,0,0,0-.5-.738,2.187,2.187,0,0,0-.738-.488,2.24,2.24,0,0,0-.936-.184,2.056,2.056,0,0,0-.9.184,2.214,2.214,0,0,0-.738.5,2.636,2.636,0,0,0-.488.738,2.4,2.4,0,0,0-.171.922,1.911,1.911,0,0,0,0,.488,1.713,1.713,0,0,0,.145.461H63.309V39.71h-.646v5.126H60.608v-.988a2.412,2.412,0,0,0-.092-.7,1.555,1.555,0,0,0-.3-.567,1.726,1.726,0,0,0-.567-.422,2.016,2.016,0,0,0-.8-.132H56l1.212-2.319h-.725l-1.239,2.306a1.318,1.318,0,0,0,.105.369.923.923,0,0,0,.184.277h3.281a1.317,1.317,0,0,1,.54.105.87.87,0,0,1,.356.25.883.883,0,0,1,.184.369,2.413,2.413,0,0,1,0,.461v.988h-5.89V41.107H52.992a3.531,3.531,0,0,0-1.094.171,2.477,2.477,0,0,0-.843.461,1.963,1.963,0,0,0-.527.7,1.9,1.9,0,0,0-.2.856,2.108,2.108,0,0,0,.224.988,1.792,1.792,0,0,0,.58.672,2.174,2.174,0,0,0,.843.4,3.637,3.637,0,0,0,1.015.132H65.773a2.346,2.346,0,0,0,.751.527,2.2,2.2,0,0,0,.936.2,2.556,2.556,0,0,0,.962-.184,2.49,2.49,0,0,0,.777-.54h2.833a2.437,2.437,0,0,0,.738.527,2.266,2.266,0,0,0,.949.2,2.636,2.636,0,0,0,.962-.184,2.438,2.438,0,0,0,.764-.54h3.281V39.71ZM53.361,44.836h-.632a2.267,2.267,0,0,1-.685-.105,1.608,1.608,0,0,1-.553-.3,1.476,1.476,0,0,1-.382-.474,1.726,1.726,0,0,1-.132-.659,1.489,1.489,0,0,1,.145-.632,2,2,0,0,1,.4-.488,2.161,2.161,0,0,1,.567-.316,2.135,2.135,0,0,1,.646-.105h.632v3.083Zm15.68-.29a1.581,1.581,0,0,1-.369.54,1.515,1.515,0,0,1-.54.343,1.647,1.647,0,0,1-.672.132,1.542,1.542,0,0,1-1.173-.5,1.621,1.621,0,0,1-.356-.527,1.832,1.832,0,0,1-.119-.659,1.752,1.752,0,0,1,.119-.646,1.726,1.726,0,0,1,.343-.54,1.515,1.515,0,0,1,.527-.369,1.555,1.555,0,0,1,.659-.132,1.924,1.924,0,0,1,.685.119,2.135,2.135,0,0,1,.54.356,1.924,1.924,0,0,1,.356.54,1.845,1.845,0,0,1,.132.672,1.792,1.792,0,0,1-.132.672Zm6.246,0a1.752,1.752,0,0,1-.356.54,1.792,1.792,0,0,1-.54.343,1.647,1.647,0,0,1-.672.132,1.555,1.555,0,0,1-.659-.132,1.516,1.516,0,0,1-.527-.369,1.726,1.726,0,0,1-.474-1.186,1.792,1.792,0,0,1,.474-1.186,1.594,1.594,0,0,1,.514-.369,1.568,1.568,0,0,1,.672-.132,1.845,1.845,0,0,1,.672.119,1.753,1.753,0,0,1,.54.422,1.489,1.489,0,0,1,.356.54,1.608,1.608,0,0,1,.132.672,1.568,1.568,0,0,1-.132.606Z" transform="translate(16.015 -39.71)" fill="#fff"/>
        <path id="path250" d="M1.654,45.026a3.637,3.637,0,0,0,1.015.132H6.885V40.77H6.239V44.5H3.683V40.77H2.642a3.531,3.531,0,0,0-1.094.171A2.477,2.477,0,0,0,.7,41.4a2.161,2.161,0,0,0-.54.7,2.082,2.082,0,0,0-.184.856,2.108,2.108,0,0,0,.224.988,1.792,1.792,0,0,0,.58.672,2.174,2.174,0,0,0,.87.408Zm-1-2.069A1.489,1.489,0,0,1,.8,42.391a2,2,0,0,1,.4-.488,2.161,2.161,0,0,1,.567-.316,2.135,2.135,0,0,1,.646-.105h.632V44.5H2.4a2.267,2.267,0,0,1-.685-.105,1.608,1.608,0,0,1-.553-.3,1.476,1.476,0,0,1-.382-.474A1.515,1.515,0,0,1,.652,42.957Z" transform="translate(0.02 -39.373)" fill="#fff"/>
        <rect id="rect252" width="0.659" height="0.659" transform="translate(46.765 6.536)" fill="#fff"/>
        <rect id="rect254" width="0.659" height="0.659" transform="translate(45.645 6.536)" fill="#fff"/>
        <path id="path256" d="M40.06,46.3a3.663,3.663,0,0,0,.066-.685v-.132h8.288V39.71h-.646v5.126H45.028L46.161,42.2a4.468,4.468,0,0,0-.553-.435,6.365,6.365,0,0,0-.593-.343,3.479,3.479,0,0,0-.553-.277,2.169,2.169,0,0,0-1.252,0,3.953,3.953,0,0,0-.619.224,3.308,3.308,0,0,0-.593.343,4.336,4.336,0,0,0-.54.435l1.133,2.635H40.126V41.107H39.48v4.506a4.163,4.163,0,0,1,0,.461,1.041,1.041,0,0,1-.092.3.408.408,0,0,1-.2.171.606.606,0,0,1-.29,0h-.343l-.158.619a2.292,2.292,0,0,0,.514,0,1.318,1.318,0,0,0,.593-.119.883.883,0,0,0,.382-.316,1.489,1.489,0,0,0,.171-.435Zm2.135-3.953a2.464,2.464,0,0,1,.764-.461,2.424,2.424,0,0,1,.817-.145,2.161,2.161,0,0,1,.856.171,2.636,2.636,0,0,1,.725.435l-1,2.464H43.144Z" transform="translate(12.225 -39.71)" fill="#fff"/>
        <rect id="rect258" width="0.659" height="0.659" transform="translate(1.911)" fill="#fff"/>
        <path id="polygon260" d="M4.473,47.3h-1L1.284,49.606V47.3H.48v4.586h.8V50.555l.725-.738,1.568,2.069h.975l-1.99-2.609Z" transform="translate(0.179 -37.299)" fill="#fff"/>
        <rect id="rect262" width="0.804" height="4.599" transform="translate(5.469 10.001)" fill="#fff"/>
        <path id="polygon264" d="M8.905,50.476,6.441,47.3H5.69v4.586h.8V48.618l2.53,3.268h.685V47.3h-.8Z" transform="translate(1.834 -37.299)" fill="#fff"/>
        <path id="path266" d="M11.846,50.057h1.173v.83a1.845,1.845,0,0,1-1.107.343,1.528,1.528,0,0,1-1.568-1.66h0a1.555,1.555,0,0,1,1.5-1.621,1.779,1.779,0,0,1,1.318.488l.514-.606a2.5,2.5,0,0,0-1.766-.619A2.332,2.332,0,0,0,9.5,49.569h0a2.28,2.28,0,0,0,2.385,2.359,2.991,2.991,0,0,0,1.924-.712V49.358H11.846Z" transform="translate(3.044 -37.328)" fill="#fff"/>
        <path id="path268" d="M15.336,47.3H13.61v4.585h1.726a2.293,2.293,0,0,0,2.438-2.345h0a2.28,2.28,0,0,0-2.438-2.24Zm1.594,2.306a1.5,1.5,0,0,1-1.594,1.555h-.909V48.026h.909a1.515,1.515,0,0,1,1.594,1.515Z" transform="translate(4.35 -37.3)" fill="#fff"/>
        <path id="path270" d="M19.761,47.24a2.359,2.359,0,0,0-2.411,2.319h0a2.411,2.411,0,0,0,4.81,0h0a2.332,2.332,0,0,0-2.4-2.319Zm1.555,2.385a1.555,1.555,0,0,1-1.555,1.621,1.581,1.581,0,0,1-1.555-1.687h0a1.555,1.555,0,0,1,1.555-1.621,1.581,1.581,0,0,1,1.555,1.621Z" transform="translate(5.538 -37.318)" fill="#fff"/>
        <path id="polygon272" d="M24.023,49.474l-1.4-2.174H21.77v4.586h.791V48.6L24,50.765h.026l1.463-2.174v3.294h.8V47.3h-.856Z" transform="translate(6.943 -37.299)" fill="#fff"/>
        <path id="path274" d="M29.851,47.24a2.359,2.359,0,0,0-2.411,2.319h0a2.332,2.332,0,0,0,2.4,2.359,2.359,2.359,0,0,0,2.425-2.359h0a2.332,2.332,0,0,0-2.411-2.319Zm1.555,2.385a1.558,1.558,0,1,1-3.11-.066h0a1.542,1.542,0,0,1,1.542-1.621,1.568,1.568,0,0,1,1.568,1.621Z" transform="translate(8.744 -37.318)" fill="#fff"/>
        <path id="polygon276" d="M31.86,51.885h.8V50.014h2.319V49.29H32.664V48.025h2.622V47.3H31.86Z" transform="translate(10.148 -37.299)" fill="#fff"/>
        <path id="path278" d="M38.486,49.239c-.883-.211-1.094-.369-1.094-.725h0c0-.3.277-.54.751-.54a2.069,2.069,0,0,1,1.318.474l.435-.619a2.635,2.635,0,0,0-1.673-.567,1.41,1.41,0,0,0-1.568,1.318h0c0,.843.553,1.133,1.529,1.318s1.041.369,1.041.7h0c0,.356-.316.58-.817.58a2.082,2.082,0,0,1-1.449-.593l-.488.58a2.833,2.833,0,0,0,1.911.725c.975,0,1.647-.514,1.647-1.318h0C39.935,49.818,39.435,49.476,38.486,49.239Z" transform="translate(11.612 -37.314)" fill="#fff"/>
        <path id="path280" d="M41.486,47.27,39.47,51.9h.83l.461-1.107h2.187L43.41,51.9h.856L42.237,47.27Zm-.422,2.807.791-1.845.791,1.845Z" transform="translate(12.565 -37.308)" fill="#fff"/>
        <path id="path282" d="M46.589,49.945c0,.856-.448,1.318-1.16,1.318s-1.173-.461-1.173-1.318V47.31h-.8v2.635a1.818,1.818,0,0,0,1.963,2.029,1.845,1.845,0,0,0,1.977-2.069V47.27h-.8v2.675Z" transform="translate(13.826 -37.308)" fill="#fff"/>
        <path id="path284" d="M49.053,47.3H47.34v4.586h1.713A2.306,2.306,0,0,0,51.5,49.541h0a2.293,2.293,0,0,0-2.451-2.24Zm1.594,2.306a1.5,1.5,0,0,1-1.594,1.555H48.21V48.026h.909a1.5,1.5,0,0,1,1.529,1.515Z" transform="translate(15.065 -37.3)" fill="#fff"/>
        <rect id="rect286" width="0.804" height="4.599" transform="translate(67.597 10.001)" fill="#fff"/>
        <path id="path288" d="M56.056,47.27,54,51.9h.83l.474-1.107h2.174l.474,1.107h.856L56.78,47.27Zm-.435,2.807.791-1.845.8,1.845Z" transform="translate(17.181 -37.308)" fill="#fff"/>
        <path id="path290" d="M62.005,48.76h0a1.318,1.318,0,0,0-.382-1,1.9,1.9,0,0,0-1.318-.448H58.25V51.9h.8V50.288h1.015L61.2,51.883h.949l-1.239-1.739A1.318,1.318,0,0,0,62.005,48.76Zm-2.952.777V48.022h1.173c.606,0,.962.277.962.764h0c0,.474-.369.764-.949.764Z" transform="translate(18.531 -37.296)" fill="#fff"/>
        <path id="path292" d="M63.689,47.27,61.66,51.9h.83l.474-1.107h2.174l.474,1.107h.856L64.44,47.27Zm-.435,2.807.791-1.845.8,1.845Z" transform="translate(19.614 -37.308)" fill="#fff"/>
        <path id="path294" d="M68.8,49.528a1.094,1.094,0,0,0,.659-1.028h0a1.028,1.028,0,0,0-.3-.751,1.687,1.687,0,0,0-1.212-.408H65.89v4.585h2.121c1.028,0,1.713-.435,1.713-1.318h0A1.133,1.133,0,0,0,68.8,49.528Zm-2.121-1.489h1.16c.527,0,.817.224.817.58h0c0,.422-.356.632-.87.632H66.681V48.026Zm2.227,2.53c0,.422-.329.632-.883.632H66.707V49.884h1.318c.646,0,.949.237.949.619Z" transform="translate(20.958 -37.287)" fill="#fff"/>
        <rect id="rect296" width="0.804" height="4.599" transform="translate(91.684 10.001)" fill="#fff"/>
        <path id="path298" d="M73.527,47.27h-.751L70.76,51.9h.817l.474-1.107h2.187L74.7,51.9h.856Zm-1.133,2.807.791-1.845.791,1.845Z" transform="translate(22.505 -37.308)" fill="#fff"/>
      </g>
    </g>
  </g>
</svg>
