<?xml version="1.0" encoding="UTF-8"?>
<svg xmlns="http://www.w3.org/2000/svg" xmlns:xlink="http://www.w3.org/1999/xlink" width="150px" height="48px" viewBox="0 0 150 48" version="1.1">
<g id="surface1">
<path style=" stroke:none;fill-rule:nonzero;fill:rgb(79.215686%,79.215686%,79.215686%);fill-opacity:1;" d="M 10.949219 26.550781 L 10.949219 43.050781 L 25.050781 43.050781 L 30 35.101562 L 32.25 35.101562 L 30.300781 45.898438 L 0 45.898438 L 0 43.949219 L 5.101562 42.601562 L 5.101562 9.449219 L 0 7.800781 L 0 5.851562 L 24.898438 5.851562 L 30.148438 5.550781 L 30.148438 16.199219 L 28.050781 16.199219 L 24.75 8.398438 L 10.949219 8.398438 L 10.949219 23.699219 L 18.75 23.699219 L 20.398438 18.75 L 22.5 18.75 L 22.5 31.050781 L 20.398438 31.050781 L 18.75 26.398438 L 10.949219 26.398438 Z M 10.949219 26.550781 "/>
<path style=" stroke:none;fill-rule:nonzero;fill:rgb(79.215686%,79.215686%,79.215686%);fill-opacity:1;" d="M 41.851562 45.75 L 39.601562 44.851562 L 39.601562 6.148438 L 35.851562 5.101562 L 35.851562 3 L 44.699219 0.898438 L 44.699219 21.449219 C 45.75 19.949219 48.601562 16.800781 53.550781 16.800781 C 59.25 16.800781 65.101562 20.699219 65.101562 30.449219 C 65.101562 39.898438 57.300781 46.949219 48.898438 46.949219 C 45.75 46.949219 43.351562 46.5 41.851562 45.75 Z M 44.851562 23.550781 L 44.851562 41.851562 C 44.851562 41.851562 47.550781 44.25 51.148438 44.25 C 55.5 44.25 60.148438 40.050781 60.148438 32.101562 C 60.148438 25.199219 56.398438 20.550781 51.300781 20.550781 C 48.148438 20.699219 45.75 22.648438 44.851562 23.550781 Z M 44.851562 23.550781 "/>
<path style=" stroke:none;fill-rule:nonzero;fill:rgb(51.764706%,79.607843%,77.254902%);fill-opacity:1;" d="M 81.148438 17.550781 L 84.148438 17.550781 L 84.148438 20.699219 L 81.148438 20.699219 Z M 81.148438 17.550781 "/>
<path style=" stroke:none;fill-rule:nonzero;fill:rgb(79.215686%,79.215686%,79.215686%);fill-opacity:1;" d="M 86.550781 43.949219 C 86.550781 43.949219 83.101562 46.800781 78.601562 46.800781 C 73.800781 46.800781 72.449219 43.949219 72.449219 40.199219 L 72.601562 20.699219 L 68.398438 20.699219 L 68.398438 18 L 72.75 16.949219 L 75.449219 9.75 L 77.398438 9.75 L 77.398438 17.550781 L 80.25 17.550781 L 80.25 20.699219 L 77.550781 20.699219 L 77.550781 37.648438 C 77.550781 42.449219 79.351562 42.75 81.601562 42.75 C 83.550781 42.75 86.101562 42.300781 86.101562 42.300781 Z M 86.550781 43.949219 "/>
<path style=" stroke:none;fill-rule:nonzero;fill:rgb(79.215686%,79.215686%,79.215686%);fill-opacity:1;" d="M 104.101562 2.550781 L 114.75 0.898438 L 114.75 42.449219 L 119.699219 43.648438 L 119.699219 45.601562 L 111.601562 46.648438 L 110.101562 42.601562 C 107.851562 44.851562 105.300781 46.800781 101.550781 46.800781 C 93 46.800781 89.398438 39.898438 89.398438 33.148438 C 89.398438 23.398438 95.699219 16.648438 104.398438 16.648438 C 106.648438 16.648438 108.300781 16.949219 109.5 17.25 L 109.5 5.25 L 104.101562 4.5 Z M 109.5 41.25 L 109.5 23.25 C 109.5 23.25 107.25 19.351562 102.898438 19.351562 C 98.101562 19.351562 94.199219 23.25 94.199219 30.300781 C 94.199219 36.148438 96.601562 42.898438 104.398438 42.898438 C 106.648438 42.898438 108.300781 42.148438 109.5 41.25 Z M 109.5 41.25 "/>
<path style=" stroke:none;fill-rule:nonzero;fill:rgb(79.215686%,79.215686%,79.215686%);fill-opacity:1;" d="M 123.898438 39.898438 C 123.898438 35.101562 127.5 33 133.648438 31.199219 L 139.800781 29.550781 L 139.800781 26.398438 C 139.800781 21.75 137.25 19.351562 134.101562 19.351562 C 132.300781 19.351562 130.800781 20.101562 130.351562 20.398438 L 130.050781 26.398438 C 130.050781 26.398438 128.550781 26.550781 127.648438 26.550781 C 125.699219 26.550781 124.648438 25.5 124.648438 24 C 124.648438 21.148438 130.050781 16.800781 136.199219 16.800781 C 142.351562 16.800781 144.898438 19.648438 144.898438 25.648438 L 144.898438 42 C 144.898438 43.199219 145.199219 43.648438 146.851562 43.648438 L 149.851562 43.648438 L 149.851562 45.300781 C 149.851562 45.300781 146.25 46.800781 144.148438 46.800781 C 141.148438 46.800781 139.800781 44.699219 139.800781 42 L 139.648438 42 C 136.199219 45.148438 134.851562 46.800781 130.949219 46.800781 C 127.949219 46.949219 123.898438 44.699219 123.898438 39.898438 Z M 139.800781 39.601562 L 139.800781 31.648438 L 134.101562 33.601562 C 131.25 34.648438 129.449219 35.699219 129.449219 38.25 C 129.449219 41.25 131.851562 42.898438 134.398438 42.898438 C 137.25 42.75 139.199219 40.648438 139.800781 39.601562 Z M 139.800781 39.601562 "/>
<path style=" stroke:none;fill-rule:nonzero;fill:rgb(51.764706%,79.607843%,77.254902%);fill-opacity:1;" d="M 46.800781 25.949219 L 59.101562 32.101562 L 46.800781 39.449219 "/>
</g>
</svg>
