<svg xmlns="http://www.w3.org/2000/svg" xmlns:xlink="http://www.w3.org/1999/xlink" width="148.834" height="42.291" viewBox="0 0 148.834 42.291">
  <defs>
    <linearGradient id="linear-gradient" x1="-1.593" y1="-4.095" x2="-4.049" y2="-3.985" gradientUnits="objectBoundingBox">
      <stop offset="0.13" stop-color="#ddd9d7"/>
      <stop offset="0.16" stop-color="#cecbc9"/>
      <stop offset="0.24" stop-color="#a7a7a6"/>
      <stop offset="0.25" stop-color="#a2a2a1"/>
      <stop offset="0.28" stop-color="#a9a9a9"/>
      <stop offset="0.32" stop-color="#bbb"/>
      <stop offset="0.35" stop-color="#acacac"/>
      <stop offset="0.42" stop-color="#848585"/>
      <stop offset="0.42" stop-color="#808181"/>
      <stop offset="0.48" stop-color="#8d8e8e"/>
      <stop offset="0.6" stop-color="#b1b1b1"/>
      <stop offset="0.7" stop-color="#d6d6d6"/>
      <stop offset="0.72" stop-color="#cccdcd"/>
      <stop offset="0.77" stop-color="#b2b4b4"/>
      <stop offset="0.83" stop-color="#878b8c"/>
      <stop offset="0.9" stop-color="#4d5455"/>
      <stop offset="0.92" stop-color="#707475"/>
      <stop offset="0.96" stop-color="#9fa1a1"/>
      <stop offset="0.98" stop-color="#bdbdbd"/>
      <stop offset="1" stop-color="#c8c7c7"/>
    </linearGradient>
    <linearGradient id="linear-gradient-2" x1="-2.542" y1="-2.51" x2="-0.667" y2="0.709" gradientUnits="objectBoundingBox">
      <stop offset="0.03" stop-color="#4e4d4d"/>
      <stop offset="0.04" stop-color="#636363"/>
      <stop offset="0.06" stop-color="#737474"/>
      <stop offset="0.08" stop-color="#7f7f80"/>
      <stop offset="0.11" stop-color="#858687"/>
      <stop offset="0.18" stop-color="#878889"/>
      <stop offset="0.35" stop-color="#4e4d4d"/>
      <stop offset="0.39" stop-color="#6b6a6a"/>
      <stop offset="0.45" stop-color="#888787"/>
      <stop offset="0.51" stop-color="#9f9e9e"/>
      <stop offset="0.58" stop-color="#b2b1b1"/>
      <stop offset="0.66" stop-color="#bebdbd"/>
      <stop offset="0.77" stop-color="#c6c5c5"/>
      <stop offset="1" stop-color="#c8c7c7"/>
    </linearGradient>
    <linearGradient id="linear-gradient-3" x1="-653.86" y1="-72.507" x2="-1383.515" y2="-100.404" gradientUnits="objectBoundingBox">
      <stop offset="0" stop-color="#ddd9d7"/>
      <stop offset="0.04" stop-color="#b3b2b1"/>
      <stop offset="0.12" stop-color="#6a6f6f"/>
      <stop offset="0.16" stop-color="#4d5455"/>
      <stop offset="0.73" stop-color="#7d8386"/>
      <stop offset="0.82" stop-color="#868b8f"/>
      <stop offset="0.84" stop-color="#8b9093"/>
      <stop offset="0.86" stop-color="#9a9da0"/>
      <stop offset="0.88" stop-color="#b3b4b5"/>
      <stop offset="0.9" stop-color="#c8c7c7"/>
    </linearGradient>
    <linearGradient id="linear-gradient-4" x1="-0.892" y1="-2.044" x2="-2.166" y2="-3.215" gradientUnits="objectBoundingBox">
      <stop offset="0.03" stop-color="#676767"/>
      <stop offset="0.09" stop-color="#7e7e7d"/>
      <stop offset="0.16" stop-color="#929291"/>
      <stop offset="0.23" stop-color="#9e9e9d"/>
      <stop offset="0.29" stop-color="#a2a2a1"/>
      <stop offset="0.35" stop-color="#9a9a99"/>
      <stop offset="0.44" stop-color="#838383"/>
      <stop offset="0.52" stop-color="#676767"/>
      <stop offset="0.53" stop-color="#6d6d6d"/>
      <stop offset="0.59" stop-color="#979797"/>
      <stop offset="0.64" stop-color="#b1b1b1"/>
      <stop offset="0.67" stop-color="#bbb"/>
      <stop offset="0.71" stop-color="#b9b9b9"/>
      <stop offset="0.73" stop-color="#b2b3b4"/>
      <stop offset="0.74" stop-color="#a6a8aa"/>
      <stop offset="0.75" stop-color="#95999c"/>
      <stop offset="0.76" stop-color="#868b8f"/>
      <stop offset="0.79" stop-color="#8b9093"/>
      <stop offset="0.83" stop-color="#9a9da0"/>
      <stop offset="0.87" stop-color="#b3b4b5"/>
      <stop offset="0.9" stop-color="#c8c7c7"/>
      <stop offset="0.92" stop-color="#c3c2c3"/>
      <stop offset="0.95" stop-color="#b4b4b6"/>
      <stop offset="0.98" stop-color="#9b9ea0"/>
      <stop offset="1" stop-color="#868b8f"/>
    </linearGradient>
  </defs>
  <g id="MOI_S4__regular_version_V1" data-name="MOI_S4_ regular version_V1" transform="translate(0 -0.107)">
    <path id="Path_44598" data-name="Path 44598" d="M2.953,10.645l.657-.7.7.7h.116l.8-.831L4.383,8.99h-.1l-.67.676-.7-.676h-.1L2,9.814l.837.831Z" transform="translate(-0.712 -3.163)" fill="#1e1e1c"/>
    <path id="Path_44599" data-name="Path 44599" d="M1.713,18.1a2.4,2.4,0,0,0,1.224-.335c.077-.27.129-.541.18-.8h0c.206,1.43.708,2.009,1.874,2.009H27.343a16.511,16.511,0,0,0,4.334-.644l1.03-.3.322-1.288-.064-.052-1.017.258c-1.636.412-3.31-.129-3.31-1.121,0-.8.824-1.159,1.623-1.159a3.316,3.316,0,0,1,1.983.644l.245-.3c-.5-1.082-1.146-1.661-1.983-1.661A2.7,2.7,0,0,0,28.161,16.1a2.035,2.035,0,0,0,.708,1.546c-.425.039-.927.052-1.481.052H5.306c-1,0-1.288-.386-1.4-1.546L3.5,12.74H3.143l-.425,1.069-1.056.7C.464,15.316,0,15.87,0,16.668A1.534,1.534,0,0,0,1.713,18.1Zm-.335-2.653,1.442-.708.258,1.777a3.117,3.117,0,0,1-1.365.258c-.721,0-1.2-.18-1.2-.489s.283-.554.863-.837Z" transform="translate(0 -4.498)" fill="#1e1e1c"/>
    <path id="Path_44600" data-name="Path 44600" d="M56.027,17.132h9.582a2.305,2.305,0,0,0,1.288-.47c.09-.245.142-.477.206-.708h0A1.761,1.761,0,0,0,69,17.138h2.788a2.074,2.074,0,0,0,1.442-.676,5.673,5.673,0,0,0,3.117.889,9.479,9.479,0,0,0,3.619-.644,4.205,4.205,0,0,0,1.932.425h0a4.282,4.282,0,0,0,2.209-.644,4.733,4.733,0,0,0,.348-1.8V9.765l.644-.489V9.237l-.644-.779V7.53h-.27c-.818.554-1,1.2-.573,1.874l.193,6.118a4.4,4.4,0,0,1-1.546.283,9.015,9.015,0,0,1-1.185-.09,3.806,3.806,0,0,0,.283-1.365,2.041,2.041,0,0,0-2.048-2.1c-1.339,0-2.666,1.056-4.366,3.555a5.261,5.261,0,0,1-.9-.335l.644-.914-.335-.245-.47.605a2.112,2.112,0,0,1-2,.914H69.37c-1.121,0-1.481-.232-1.481-1.017V13.628h-.451L67.129,15.5a2.949,2.949,0,0,1-1.481.309H56.31c-1.108,0-1.494-.3-1.494-1.133V7.53H54.4L53.76,8.779l.167,5.918C54,16.5,54.559,17.132,56.027,17.132ZM78.72,13.577A2.325,2.325,0,0,1,80.807,15.2a11.34,11.34,0,0,1-4.353.824,5.454,5.454,0,0,1-1.017-.1C76.685,14.272,77.638,13.577,78.72,13.577Z" transform="translate(-19.14 -2.643)" fill="#1e1e1c"/>
    <path id="Path_44601" data-name="Path 44601" d="M74.9,14.561l.8-.837-.837-.824h-.1l-.811.824.837.837Z" transform="translate(-26.328 -4.555)" fill="#1e1e1c"/>
    <path id="Path_44602" data-name="Path 44602" d="M105.621,17.132l.4-1.468V7.53h-.412l-.618,1.243.219,8.359Z" transform="translate(-37.38 -2.643)" fill="#1e1e1c"/>
    <path id="Path_44603" data-name="Path 44603" d="M114.323,12.381l.657-.7.689.7h.122l.792-.837-.837-.824h-.1l-.67.683-.7-.683h-.1l-.811.824.837.837Z" transform="translate(-40.363 -3.779)" fill="#1e1e1c"/>
    <path id="Path_44604" data-name="Path 44604" d="M114.715,19.762c1.288,0,2.029-.94,2.029-2.383,0-1.288-.605-2.035-2.879-3.04l-.052.039v1.288a3.793,3.793,0,0,0-1,2.318,1.7,1.7,0,0,0,1.906,1.777Zm-.374-3.709c1.4.644,1.932,1.146,1.932,1.584s-.547.8-1.475.8-1.481-.309-1.481-.811a2.447,2.447,0,0,1,1.024-1.571Z" transform="translate(-40.162 -5.068)" fill="#1e1e1c"/>
    <path id="Path_44605" data-name="Path 44605" d="M118.9,21.884v.4l2.434.786a7.985,7.985,0,0,0,1.816-4.7,5.5,5.5,0,0,0-.927-2.808h-.361l-.451,1.121c.927,1.133,1.236,1.7,1.236,2.408C122.648,20.287,121.3,21.291,118.9,21.884Z" transform="translate(-42.332 -5.502)" fill="#1e1e1c"/>
    <path id="Path_44606" data-name="Path 44606" d="M128.651,17.132l.4-1.468V7.53h-.412l-.618,1.243.219,8.359Z" transform="translate(-45.579 -2.643)" fill="#1e1e1c"/>
    <path id="Path_44607" data-name="Path 44607" d="M133.724,18.388a5.5,5.5,0,0,0-.927-2.808h-.361l-.451,1.121c.927,1.133,1.236,1.7,1.236,2.408,0,1.185-1.346,2.189-3.741,2.782v.4l2.434.786A8.017,8.017,0,0,0,133.724,18.388Z" transform="translate(-46.099 -5.509)" fill="#1e1e1c"/>
    <path id="Path_44608" data-name="Path 44608" d="M133.667,13.141l.8-.837-.837-.824h-.1l-.8.824.831.837Z" transform="translate(-47.252 -4.049)" fill="#1e1e1c"/>
    <path id="Path_44609" data-name="Path 44609" d="M141.48,18c0-1.726-.863-3.143-1.932-3.143-.94,0-1.932,1.378-1.932,2.679a1.565,1.565,0,0,0,1.7,1.713,2.441,2.441,0,0,0,1.2-.27l.374-.966a2.673,2.673,0,0,1,.077.644c0,1.468-1.571,2.5-4.315,2.975v.4l2.421.786A7.084,7.084,0,0,0,141.48,18Zm-2.029-.077c-.837,0-1.327-.193-1.327-.644a1.121,1.121,0,0,1,1.069-1.108c.644,0,1.327.708,1.623,1.571A4.218,4.218,0,0,1,139.451,17.925Z" transform="translate(-48.652 -5.253)" fill="#1e1e1c"/>
    <path id="Path_44610" data-name="Path 44610" d="M4.28,31.74l-.67.683-.7-.683h-.1L2,32.564l.837.837h.116l.657-.7.7.7h.116l.8-.837-.837-.824Z" transform="translate(-0.712 -11.262)" fill="#1e1e1c"/>
    <path id="Path_44611" data-name="Path 44611" d="M27.983,46.99h-.1l-.67.683-.7-.683h-.1l-.811.824.837.837h.116l.657-.7.7.7h.116l.8-.837Z" transform="translate(-9.114 -16.692)" fill="#1e1e1c"/>
    <path id="Path_44612" data-name="Path 44612" d="M25.07,41.719h2.576a5.364,5.364,0,0,0,2.363-.592,4.907,4.907,0,0,0,.335-1.822,3.954,3.954,0,0,0-.644-2h-.361l-.451,1.121a4.585,4.585,0,0,1,.953,1.584,5.635,5.635,0,0,1-2.177.386H20.027c-1.121,0-1.481-.232-1.481-1.017V38.222h-.412l-.309,1.868a2.949,2.949,0,0,1-1.481.309H5.306c-1,0-1.288-.386-1.4-1.546L3.5,35.44H3.143l-.425,1.069-1.056.734C.464,38.055,0,38.608,0,39.407a1.534,1.534,0,0,0,1.713,1.43A2.4,2.4,0,0,0,2.937,40.5c.077-.27.129-.541.18-.8h0c.206,1.423.708,2,1.874,2H16.3a2.26,2.26,0,0,0,1.32-.47c.09-.238.142-.47.206-.7h0a1.75,1.75,0,0,0,1.893,1.178h5.326ZM1.713,39.51c-.721,0-1.2-.18-1.2-.489s.283-.554.863-.837l1.442-.708.258,1.777a3.117,3.117,0,0,1-1.365.258Z" transform="translate(0 -12.58)" fill="#1e1e1c"/>
    <path id="Path_44613" data-name="Path 44613" d="M44.25,35.064l.837.837H45.2l.8-.837-.837-.824h-.1Z" transform="translate(-15.754 -12.153)" fill="#1e1e1c"/>
    <path id="Path_44614" data-name="Path 44614" d="M74.461,30.28H74.1c-.824.554-1,1.2-.58,1.88l.193,6.118a4.366,4.366,0,0,1-1.539.283,1.288,1.288,0,0,1-1.352-.811l-.283-.567c-.515-.979-.863-1.288-1.417-1.288-.85,0-1.649,1.017-1.932,2.344a2.576,2.576,0,0,1-1.236.3,3.033,3.033,0,0,1-2.061-.644c.644-.554.953-.966.953-1.4,0-.747-.592-1.159-1.533-1.159a3.516,3.516,0,0,0-1.629.464l-.361,1.146.155.335a1.443,1.443,0,0,1,1.288.644l.039.064a4.566,4.566,0,0,1-2.222.554H55.451c-.979,0-1.455-.464-1.932-1.932l-.934-2.718h-.348l-.451,1.121.908,2.254c.155.374.3.7.438.979a3.181,3.181,0,0,1-1.8.489c-1.159,0-1.468-.206-1.52-1v-.206H49.43a4.772,4.772,0,0,0-.18,1.082c0,.96.567,1.436,1.829,1.436a3.168,3.168,0,0,0,2.016-.644,6.772,6.772,0,0,0,.18-.8h.052a2.016,2.016,0,0,0,1.855,1.288h5.339a4.463,4.463,0,0,0,2.7-1.288,3.007,3.007,0,0,0,2.5,1.288h0a2.453,2.453,0,0,0,1.52-.554,10.716,10.716,0,0,0,2.924.914,10.08,10.08,0,0,0,.322-.972,1.661,1.661,0,0,0,1.43.612h0a4.34,4.34,0,0,0,2.222-.612,4.733,4.733,0,0,0,.348-1.8V32.547l.644-.489v-.026l-.644-.786Zm-6.768,7.882a1.2,1.2,0,0,1,1.056-.979c.374,0,.644.219,1,.863l.3.554a3.541,3.541,0,0,0,.193.322,10.844,10.844,0,0,1-2.55-.76Z" transform="translate(-17.535 -10.743)" fill="#1e1e1c"/>
    <path id="Path_44615" data-name="Path 44615" d="M92.471,39.882l.4-1.462V30.28h-.412l-.618,1.249.219,8.352Z" transform="translate(-32.698 -10.743)" fill="#1e1e1c"/>
    <path id="Path_44616" data-name="Path 44616" d="M101.558,42.516c1.288,0,2.035-.934,2.035-2.376,0-1.288-.605-2.035-2.879-3.04l-.052.039v1.288a3.793,3.793,0,0,0-1,2.305,1.694,1.694,0,0,0,1.9,1.784Zm-.393-3.7c1.4.644,1.932,1.146,1.932,1.584s-.554.8-1.481.8-1.475-.309-1.475-.811A2.447,2.447,0,0,1,101.165,38.813Z" transform="translate(-35.48 -13.171)" fill="#1e1e1c"/>
    <path id="Path_44617" data-name="Path 44617" d="M101.031,33.48l-.811.824.837.837h.116l.657-.7.689.7h.116l.8-.837-.837-.824h-.1l-.663.683-.7-.683Z" transform="translate(-35.681 -11.882)" fill="#1e1e1c"/>
    <path id="Path_44618" data-name="Path 44618" d="M109.228,37.62c-.94,0-1.932,1.378-1.932,2.679a1.565,1.565,0,0,0,1.7,1.707,2.505,2.505,0,0,0,1.2-.264l.373-.966a2.672,2.672,0,0,1,.077.644c0,1.462-1.571,2.492-4.315,2.969V44.8l2.434.792a7.084,7.084,0,0,0,2.4-4.823C111.16,39.037,110.3,37.62,109.228,37.62Zm-.1,3.065c-.837,0-1.327-.193-1.327-.644a1.121,1.121,0,0,1,1.069-1.108c.644,0,1.327.708,1.623,1.571A4.218,4.218,0,0,1,109.125,40.685Z" transform="translate(-37.857 -13.356)" fill="#1e1e1c"/>
    <path id="Path_44619" data-name="Path 44619" d="M123.289,32.786l.76-.773-.786-.773h-.1l-.76.773.786.773Z" transform="translate(-43.578 -11.084)" fill="#1e1e1c"/>
    <path id="Path_44620" data-name="Path 44620" d="M123.5,33.52l-.67.683-.7-.683h-.1l-.811.824.837.837h.116l.657-.7.7.7h.116l.8-.837-.837-.824Z" transform="translate(-43.158 -11.896)" fill="#1e1e1c"/>
    <path id="Path_44621" data-name="Path 44621" d="M122.067,39.882h0a4.334,4.334,0,0,0,2.215-.612,4.733,4.733,0,0,0,.348-1.8v-4.92l.644-.489v-.026l-.644-.786V30.28h-.38c-.824.554-1,1.2-.58,1.88l.193,6.118a4.4,4.4,0,0,1-1.546.283c-.992,0-1.339-.386-1.533-1.546l-.322-2.009h-.348l-.167.464c-.374,1.095-.837,1.378-1.365,1.378a1.932,1.932,0,0,1-1.417-.953h-.354l-.451,1.133c.831.786,1.23,1.417,1.23,1.983,0,1.153-1.346,2.157-3.741,2.737v.412l2.421.818a8.011,8.011,0,0,0,1.81-4.695v-.142a1.629,1.629,0,0,0,.361.039c.683,0,1.224-.464,1.468-1.494l.142.811c.335,1.816.786,2.389,2.009,2.389h0Z" transform="translate(-40.534 -10.743)" fill="#1e1e1c"/>
    <path id="Path_44622" data-name="Path 44622" d="M135.064,38.42V30.28h-.406l-.618,1.249.219,8.352h.406Z" transform="translate(-47.722 -10.743)" fill="#1e1e1c"/>
    <path id="Path_44623" data-name="Path 44623" d="M136.89,44.392V44.8l2.421.792a7.084,7.084,0,0,0,2.4-4.823c0-1.726-.863-3.143-1.932-3.143-.94,0-1.932,1.378-1.932,2.679a1.565,1.565,0,0,0,1.694,1.7,2.505,2.505,0,0,0,1.2-.264l.373-.966a2.672,2.672,0,0,1,.077.644C141.2,42.885,139.633,43.915,136.89,44.392Zm2.782-3.7c-.837,0-1.327-.193-1.327-.644a1.12,1.12,0,0,1,1.069-1.108c.644,0,1.327.708,1.623,1.571A4.218,4.218,0,0,1,139.672,40.689Z" transform="translate(-48.737 -13.359)" fill="#1e1e1c"/>
    <path id="Path_44624" data-name="Path 44624" d="M3.752,54.826l.412-.122V54.53H3.05l-.026.232-.856,2.112L1.131,54.53H.049V54.7l.419.122L.449,57.512l-.419.116v.18H1.3v-.18l-.554-.174V54.981l1.069,2.376.1.3h.2l.1-.309,1.017-2.434-.013,2.6-.438.1v.187h1.4v-.18l-.419-.109Z" transform="translate(-0.011 -19.376)" fill="#1e1e1c"/>
    <path id="Path_44625" data-name="Path 44625" d="M7.735,55.88l-.773.155v.2l.29.09V58l-.322.1v.187H8.089V58.1l-.354-.1Z" transform="translate(-2.467 -19.857)" fill="#1e1e1c"/>
    <path id="Path_44626" data-name="Path 44626" d="M7.913,54.218a.335.335,0,0,0-.328-.328.341.341,0,0,0-.335.328.335.335,0,0,0,.644,0Z" transform="translate(-2.581 -19.149)" fill="#1e1e1c"/>
    <path id="Path_44627" data-name="Path 44627" d="M11.441,56.711c0-.644-.219-.831-.689-.831a1.185,1.185,0,0,0-.8.444h0l-.1-.444h0l-.644.245v.148l.322.077v1.655l-.3.1v.187h1.114V58.1l-.322-.09v-1.52a.85.85,0,0,1,.554-.251c.322,0,.431.193.451.535v1.236l-.277.09v.187h1.082v-.18l-.322-.1Z" transform="translate(-3.275 -19.857)" fill="#1e1e1c"/>
    <path id="Path_44628" data-name="Path 44628" d="M14.385,55.88l-.773.155v.2l.29.09V58l-.322.1v.187h1.159V58.1l-.354-.1Z" transform="translate(-4.835 -19.857)" fill="#1e1e1c"/>
    <path id="Path_44629" data-name="Path 44629" d="M14.574,54.266a.335.335,0,1,0-.322.243A.335.335,0,0,0,14.574,54.266Z" transform="translate(-4.96 -19.196)" fill="#1e1e1c"/>
    <path id="Path_44630" data-name="Path 44630" d="M17.017,56.926l-.225-.1c-.3-.129-.386-.245-.386-.431a.335.335,0,0,1,.361-.335.547.547,0,0,1,.341.122l.2.438h.161v-.644a1.417,1.417,0,0,0-.644-.155.8.8,0,0,0-.863.76c0,.316.155.5.509.644l.213.1c.354.161.464.3.464.489a.374.374,0,0,1-.419.354.554.554,0,0,1-.4-.142l-.258-.554h-.18l.071.7a1.41,1.41,0,0,0,.683.187.882.882,0,0,0,.96-.747C17.6,57.332,17.455,57.113,17.017,56.926Z" transform="translate(-5.657 -19.834)" fill="#1e1e1c"/>
    <path id="Path_44631" data-name="Path 44631" d="M20.106,57.692c-.187,0-.335,0-.335-.412V55.914h.644v-.27h-.644V55h-.18l-.27.612-.361.1v.213h.348v1.584c0,.316.109.56.515.56a1.288,1.288,0,0,0,.689-.232l-.039-.142A2.976,2.976,0,0,1,20.106,57.692Z" transform="translate(-6.75 -19.544)" fill="#1e1e1c"/>
    <path id="Path_44632" data-name="Path 44632" d="M23.1,55.866c-.187,0-.309.122-.489.361l-.18.245h0l-.045-.6h0l-.715.245v.161l.328.064v1.649l-.309.1v.187h1.23v-.187l-.438-.077V56.664a1.617,1.617,0,0,1,.335-.316l.406.148a.567.567,0,0,0,.18-.361.245.245,0,0,0-.3-.27Z" transform="translate(-7.715 -19.849)" fill="#1e1e1c"/>
    <path id="Path_44633" data-name="Path 44633" d="M26.025,56.167l.335.109-.612,1.655h0l-.592-1.681.354-.084V56H24.37v.174l.225.084.9,2.318-.27.644h0a.3.3,0,0,0-.264-.206.258.258,0,0,0-.264.277.316.316,0,0,0,.328.309c.27,0,.393-.2.554-.644l1.069-2.7.225-.09V56h-.844Z" transform="translate(-8.676 -19.9)" fill="#1e1e1c"/>
    <path id="Path_44634" data-name="Path 44634" d="M31.141,55.869a1.224,1.224,0,0,0-1.172,1.288,1.127,1.127,0,0,0,1.172,1.2,1.217,1.217,0,0,0,1.172-1.288,1.1,1.1,0,0,0-1.172-1.2Zm.071,2.26c-.489,0-.708-.567-.728-1.114s.213-.908.592-.914.708.4.715,1.1C31.81,57.723,31.585,58.122,31.211,58.129Z" transform="translate(-10.669 -19.852)" fill="#1e1e1c"/>
    <path id="Path_44635" data-name="Path 44635" d="M35.513,53.89a1.23,1.23,0,0,0-1.082,1.288h0l-.341.1v.213h.341v1.8l-.3.1v.187h1.236v-.187l-.444-.1V55.506h.644v-.258h-.644v-.386c0-.547.225-.734.5-.734a.554.554,0,0,1,.219.052l.122.431a.354.354,0,0,0,.129,0,.258.258,0,0,0,.277-.277C36.164,54.128,35.919,53.89,35.513,53.89Z" transform="translate(-12.137 -19.149)" fill="#1e1e1c"/>
    <path id="Path_44636" data-name="Path 44636" d="M39.37,54.826l.419-.122V54.53H38.41V54.7l.419.122v2.692l-.419.1v.187h1.385v-.18l-.425-.109Z" transform="translate(-13.675 -19.376)" fill="#1e1e1c"/>
    <path id="Path_44637" data-name="Path 44637" d="M43.371,56.711c0-.644-.219-.831-.689-.831a1.185,1.185,0,0,0-.8.444h0l-.1-.444h0l-.644.245v.148l.322.077v1.655l-.3.1v.187h1.108V58.1l-.316-.09v-1.52a.831.831,0,0,1,.554-.251c.322,0,.431.193.451.535v1.236l-.277.09v.187h1.082v-.18l-.322-.1Z" transform="translate(-14.644 -19.857)" fill="#1e1e1c"/>
    <path id="Path_44638" data-name="Path 44638" d="M47.7,53.9l-.947.129V54.2l.464.09v.96a1.571,1.571,0,0,0-.412-.052,1.288,1.288,0,0,0-1.249,1.339,1.017,1.017,0,0,0,.992,1.127.972.972,0,0,0,.715-.354l.129.341.7-.1v-.174l-.386-.1Zm-.483,3.284a.689.689,0,0,1-.386.116c-.586,0-.792-.509-.792-1.017s.3-.869.644-.869a.644.644,0,0,1,.522.322Z" transform="translate(-16.217 -19.152)" fill="#1e1e1c"/>
    <path id="Path_44639" data-name="Path 44639" d="M52.085,55.916l-.876.09v.187l.386.084V57.81a.753.753,0,0,1-.489.206c-.328,0-.489-.18-.5-.573V55.91l-.831.058v.193l.348.09v1.243c0,.567.251.863.644.863a1.1,1.1,0,0,0,.818-.412l.161.4.747-.084v-.18l-.386-.09Z" transform="translate(-17.723 -19.868)" fill="#1e1e1c"/>
    <path id="Path_44640" data-name="Path 44640" d="M55.53,56.926l-.225-.1c-.3-.129-.393-.245-.393-.431a.341.341,0,0,1,.367-.335.515.515,0,0,1,.335.122l.206.438h.155v-.644a1.4,1.4,0,0,0-.644-.155.811.811,0,0,0-.876.76c0,.316.161.5.509.644l.219.1c.348.161.457.3.457.489a.367.367,0,0,1-.412.354.586.586,0,0,1-.406-.142l-.251-.554h-.18l.084.715a1.41,1.41,0,0,0,.683.187.882.882,0,0,0,.953-.747C56.109,57.332,55.968,57.113,55.53,56.926Z" transform="translate(-19.364 -19.834)" fill="#1e1e1c"/>
    <path id="Path_44641" data-name="Path 44641" d="M58.616,57.692c-.187,0-.335,0-.335-.412V55.914h.644v-.27h-.644V55H58.1l-.277.612-.354.1v.213h.341v1.584c0,.316.109.56.515.56a1.288,1.288,0,0,0,.689-.232l-.032-.142A3.162,3.162,0,0,1,58.616,57.692Z" transform="translate(-20.461 -19.544)" fill="#1e1e1c"/>
    <path id="Path_44642" data-name="Path 44642" d="M61.61,55.867c-.18,0-.3.122-.483.361l-.187.245h0l-.045-.6h0l-.715.245v.161l.322.064v1.649l-.3.1v.187h1.23v-.187l-.438-.077V56.665a1.61,1.61,0,0,1,.328-.316l.412.148a.567.567,0,0,0,.174-.361.245.245,0,0,0-.3-.27Z" transform="translate(-21.426 -19.85)" fill="#1e1e1c"/>
    <path id="Path_44643" data-name="Path 44643" d="M64.535,56.167l.335.109-.625,1.655h0l-.586-1.681.354-.084V56H62.88v.174l.225.084.9,2.318-.27.644h0a.3.3,0,0,0-.264-.206.258.258,0,0,0-.264.277.316.316,0,0,0,.328.309c.27,0,.393-.2.56-.644l1.075-2.711.225-.09V56h-.856Z" transform="translate(-22.387 -19.9)" fill="#1e1e1c"/>
    <path id="Path_44644" data-name="Path 44644" d="M70.366,57.907v-1.32c0-.5-.213-.747-.741-.747s-.985.367-.985.612c0,.135.09.219.251.219a.928.928,0,0,0,.219,0v-.5a.593.593,0,0,1,.29-.084c.277,0,.444.187.457.58v.238l-.515.135c-.5.129-.792.309-.792.708a.586.586,0,0,0,.605.592c.322,0,.451-.155.7-.406h0a.36.36,0,0,0,.38.4,1.558,1.558,0,0,0,.5-.135v-.148h-.232C70.4,58.055,70.366,58.017,70.366,57.907Zm-.489-.155a.509.509,0,0,1-.406.232.361.361,0,0,1-.393-.374c0-.2.135-.3.38-.38l.419-.142Z" transform="translate(-24.406 -19.843)" fill="#1e1e1c"/>
    <path id="Path_44645" data-name="Path 44645" d="M74.671,56.711c0-.644-.219-.831-.689-.831a1.185,1.185,0,0,0-.8.444h0l-.1-.444h0l-.644.245v.148l.328.077v1.655l-.309.1v.187h1.056V58.1l-.322-.09v-1.52a.85.85,0,0,1,.554-.251c.322,0,.438.193.451.535v1.236l-.277.09v.187h1.082v-.18l-.322-.1Z" transform="translate(-25.787 -19.857)" fill="#1e1e1c"/>
    <path id="Path_44646" data-name="Path 44646" d="M79,53.9l-.94.129V54.2l.457.09v.96a1.571,1.571,0,0,0-.412-.052,1.288,1.288,0,0,0-1.249,1.339,1.017,1.017,0,0,0,.992,1.127.966.966,0,0,0,.715-.354l.129.341.7-.1v-.174l-.386-.1Zm-.483,3.284a.689.689,0,0,1-.386.116c-.586,0-.786-.509-.786-1.017s.3-.869.644-.869a.644.644,0,0,1,.522.322Z" transform="translate(-27.361 -19.152)" fill="#1e1e1c"/>
    <path id="Path_44647" data-name="Path 44647" d="M86.526,54.826l.419-.122V54.53H85.83l-.026.232-.863,2.112L83.9,54.53H82.823V54.7l.419.122-.013,2.685-.419.116v.18h1.262v-.18l-.554-.174.006-2.473,1.063,2.376.109.3h.193l.1-.309,1.017-2.434-.019,2.6-.431.1v.187h1.4v-.18l-.412-.109Z" transform="translate(-29.483 -19.376)" fill="#1e1e1c"/>
    <path id="Path_44648" data-name="Path 44648" d="M90,54.218a.328.328,0,0,0,.328.328.335.335,0,0,0,.335-.328.341.341,0,0,0-.335-.328A.335.335,0,0,0,90,54.218Z" transform="translate(-32.043 -19.149)" fill="#1e1e1c"/>
    <path id="Path_44649" data-name="Path 44649" d="M90.5,55.88l-.766.155v.2l.29.09V58l-.328.1v.187h1.166V58.1l-.361-.1Z" transform="translate(-31.936 -19.857)" fill="#1e1e1c"/>
    <path id="Path_44650" data-name="Path 44650" d="M94.222,56.711c0-.644-.219-.831-.689-.831a1.185,1.185,0,0,0-.8.444h0l-.084-.444h0L92,56.125v.148l.328.077v1.655l-.309.1v.187h1.114V58.1l-.322-.09v-1.52a.85.85,0,0,1,.554-.251c.322,0,.438.193.451.535v1.236l-.277.09v.187h1.037v-.18l-.322-.1Z" transform="translate(-32.755 -19.857)" fill="#1e1e1c"/>
    <path id="Path_44651" data-name="Path 44651" d="M97.715,57.96c-.5,0-.856-.367-.856-1h1.629c0-.676-.322-1.082-.9-1.082a1.224,1.224,0,0,0-1.178,1.327,1.082,1.082,0,0,0,2.086.477l-.1-.071a.953.953,0,0,1-.683.348Zm-.238-1.842c.316,0,.457.3.464.644H96.878A.644.644,0,0,1,97.477,56.118Z" transform="translate(-34.322 -19.857)" fill="#1e1e1c"/>
    <path id="Path_44652" data-name="Path 44652" d="M101.706,55.867c-.187,0-.309.122-.483.361l-.187.245h0l-.052-.6h0l-.715.245v.161l.328.064v1.649l-.3.1v.187h1.23v-.187l-.444-.077V56.665a1.79,1.79,0,0,1,.335-.316l.406.148a.541.541,0,0,0,.18-.361.245.245,0,0,0-.3-.27Z" transform="translate(-35.699 -19.85)" fill="#1e1e1c"/>
    <path id="Path_44653" data-name="Path 44653" d="M105,57.907v-1.32c0-.5-.213-.747-.741-.747s-.985.367-.985.612c0,.135.09.219.251.219a1.043,1.043,0,0,0,.219,0v-.5a.593.593,0,0,1,.29-.084c.27,0,.444.187.457.58v.238l-.515.135c-.5.129-.792.309-.792.708a.586.586,0,0,0,.605.592c.322,0,.451-.155.7-.406h0a.36.36,0,0,0,.38.4,1.558,1.558,0,0,0,.5-.135v-.148h-.232C105.035,58.055,105,58.017,105,57.907Zm-.489-.155a.509.509,0,0,1-.406.232.361.361,0,0,1-.393-.374c0-.2.135-.3.38-.38l.419-.142Z" transform="translate(-36.735 -19.843)" fill="#1e1e1c"/>
    <path id="Path_44654" data-name="Path 44654" d="M107.775,53.9l-.8.167v.174l.322.09V57.3l-.316.1v.187h1.133V57.4l-.335-.09Z" transform="translate(-38.085 -19.152)" fill="#1e1e1c"/>
    <path id="Path_44655" data-name="Path 44655" d="M112.654,56.178h0a.908.908,0,0,0,.728-.844c0-.522-.483-.837-1.41-.824H110.78v.174l.419.122V57.5l-.419.1v.187h1.365v-.18l-.406-.109V56.339h.4l.206.322.818,1.159h.85v-.18l-.425-.1Zm-.534-.052h-.38V54.7c.689,0,1.075.27,1.075.741a.721.721,0,0,1-.7.676Z" transform="translate(-39.441 -19.369)" fill="#1e1e1c"/>
    <path id="Path_44656" data-name="Path 44656" d="M117.152,57.96c-.5,0-.856-.367-.856-1h1.629c0-.676-.322-1.082-.9-1.082a1.23,1.23,0,0,0-1.185,1.327,1.088,1.088,0,0,0,2.093.477l-.1-.071a.953.953,0,0,1-.683.348Zm-.238-1.842c.316,0,.457.3.464.644h-1.063a.644.644,0,0,1,.6-.644Z" transform="translate(-41.24 -19.857)" fill="#1e1e1c"/>
    <path id="Path_44657" data-name="Path 44657" d="M120.88,56.926l-.225-.1c-.3-.129-.386-.245-.386-.431a.335.335,0,0,1,.361-.335.547.547,0,0,1,.341.122l.2.438h.161v-.644a1.417,1.417,0,0,0-.644-.155.8.8,0,0,0-.876.708c0,.316.155.5.509.644l.213.1c.354.161.464.3.464.489a.374.374,0,0,1-.419.354.554.554,0,0,1-.4-.142l-.258-.554h-.18l.084.715a1.41,1.41,0,0,0,.683.187.876.876,0,0,0,.953-.747C121.459,57.331,121.318,57.112,120.88,56.926Z" transform="translate(-42.631 -19.834)" fill="#1e1e1c"/>
    <path id="Path_44658" data-name="Path 44658" d="M124.211,55.869a1.224,1.224,0,0,0-1.172,1.288,1.127,1.127,0,0,0,1.172,1.2,1.217,1.217,0,0,0,1.172-1.288,1.1,1.1,0,0,0-1.172-1.2Zm.071,2.26c-.489,0-.715-.567-.728-1.114s.213-.908.592-.914.7.4.715,1.1c.013.522-.213.921-.56.927Z" transform="translate(-43.805 -19.852)" fill="#1e1e1c"/>
    <path id="Path_44659" data-name="Path 44659" d="M129.331,55.916l-.882.09v.187l.393.084V57.81a.773.773,0,0,1-.489.206c-.328,0-.489-.18-.5-.573V55.91l-.856.058v.193l.341.09v1.243c0,.567.258.863.676.863a1.1,1.1,0,0,0,.818-.412l.155.4.7-.109v-.18l-.386-.09Z" transform="translate(-45.216 -19.868)" fill="#1e1e1c"/>
    <path id="Path_44660" data-name="Path 44660" d="M132.97,55.867c-.18,0-.3.122-.483.361l-.187.245h0l-.045-.6h0l-.715.245v.161l.328.064v1.649l-.309.1v.187h1.23v-.187l-.438-.077V56.665a1.61,1.61,0,0,1,.328-.316l.412.148a.567.567,0,0,0,.174-.361.245.245,0,0,0-.3-.27Z" transform="translate(-46.832 -19.85)" fill="#1e1e1c"/>
    <path id="Path_44661" data-name="Path 44661" d="M135.754,57.972a.908.908,0,0,1-.837-1c0-.483.277-.876.676-.876a.412.412,0,0,1,.277.077l.071.483a1.5,1.5,0,0,0,.187,0,.27.27,0,0,0,.277-.29c0-.277-.3-.509-.728-.509a1.288,1.288,0,0,0-1.249,1.327,1.063,1.063,0,0,0,1.069,1.159,1.03,1.03,0,0,0,.927-.605l-.1-.077A.792.792,0,0,1,135.754,57.972Z" transform="translate(-47.859 -19.85)" fill="#1e1e1c"/>
    <path id="Path_44662" data-name="Path 44662" d="M139.318,57.96c-.509,0-.856-.367-.856-1h1.623c0-.676-.322-1.082-.9-1.082A1.23,1.23,0,0,0,138,57.207a1.095,1.095,0,0,0,1.095,1.159,1.121,1.121,0,0,0,1-.683l-.1-.071A.934.934,0,0,1,139.318,57.96Zm-.245-1.842c.322,0,.464.3.47.644h-1.063A.644.644,0,0,1,139.073,56.118Z" transform="translate(-49.13 -19.857)" fill="#1e1e1c"/>
    <path id="Path_44663" data-name="Path 44663" d="M143.046,56.926l-.225-.1c-.3-.129-.386-.245-.386-.431a.335.335,0,0,1,.361-.335.515.515,0,0,1,.335.122l.206.438h.155v-.644a1.391,1.391,0,0,0-.644-.155.811.811,0,0,0-.882.76c0,.316.161.5.509.644l.219.1c.348.161.457.3.457.489a.367.367,0,0,1-.412.354.586.586,0,0,1-.406-.142l-.251-.554h-.18l.084.715a1.41,1.41,0,0,0,.683.187.882.882,0,0,0,.953-.747C143.626,57.332,143.484,57.113,143.046,56.926Z" transform="translate(-50.521 -19.834)" fill="#1e1e1c"/>
    <path id="Path_44664" data-name="Path 44664" d="M164.31,21.48a.045.045,0,0,1,0,.032h0Z" transform="translate(-58.499 -7.61)" fill="#404040"/>
    <path id="Path_44665" data-name="Path 44665" d="M225.53,31.78h0" transform="translate(-80.296 -11.277)" fill="none"/>
    <path id="Path_44666" data-name="Path 44666" d="M225.53,31.78h0" transform="translate(-80.296 -11.277)" fill="none"/>
    <path id="Path_44667" data-name="Path 44667" d="M209.53,65.292c.142-.039.3-.09.444-.142Z" transform="translate(-74.599 -23.157)" fill="#9e9b9c"/>
    <path id="Path_44668" data-name="Path 44668" d="M218,36.06c-.2,2.943-1.43,8.3-3.04,10.844-1.378,2.164-5.95,6.118-9.814,7.67h-.109c-1.925.766-4.276-.328-5.628-1.166h-.052c-.238-.142-.444-.277-.612-.393-.283-.193-.444-.316-.444-.316-.374-.277-.741-.56-1.095-.863l-.283-.245c-.116-.09-.232-.193-.341-.29l-.5-.457-.5-.47-.535-.509-.773-.766c5.8-1.256,14.889-4.843,19.963-8.513,2.119-1.526,3.542-3.065,3.741-4.45A.267.267,0,0,0,218,36.06Z" transform="translate(-69.166 -12.801)" fill="url(#linear-gradient)"/>
    <path id="Path_44669" data-name="Path 44669" d="M231.09,36v0Z" transform="translate(-82.275 -12.779)" fill="#9e9b9c"/>
    <path id="Path_44670" data-name="Path 44670" d="M194.3,46.343c-.109.039-.251.1-.431.155l-.444.142a3.072,3.072,0,0,1-.348.1l-.161.039-.167.039h-.193a1.694,1.694,0,0,1-.251.039c-2.949.322-11.212-.914-16.325-3.278l-.219-.1-.225-.109a11.662,11.662,0,0,1-3.574-2.769c-3.529-4.392-7.8-15.017-7.728-21.109h0a6.3,6.3,0,0,1,.921-2.827l.064-.1c.039-.071.084-.135.129-.206a12.789,12.789,0,0,1,3.671-3.593c1.655,8.191,7.084,20.42,14.567,28.026.258.258.515.515.779.766s.683.644,1.03.979l.5.457c.116.1.225.2.341.29l.283.245c.361.3.728.586,1.095.863,0,0,.161.122.444.316a5.935,5.935,0,0,0,.644.393.116.116,0,0,0,.045,0C190.066,45.95,192.416,47.045,194.3,46.343Z" transform="translate(-58.47 -4.505)" fill="url(#linear-gradient-2)"/>
    <path id="Path_44671" data-name="Path 44671" d="M164.254,21.58c-.039.328-.052.644-.064.876C164.2,22.211,164.216,21.908,164.254,21.58Z" transform="translate(-58.457 -7.645)" fill="url(#linear-gradient-3)"/>
    <path id="Path_44672" data-name="Path 44672" d="M164.18,23.11v0Z" transform="translate(-58.453 -8.19)" fill="#fff"/>
    <path id="Path_44673" data-name="Path 44673" d="M164.3,21.55Z" transform="translate(-58.496 -7.635)" fill="#fff"/>
    <path id="Path_44674" data-name="Path 44674" d="M231.09,36v0Z" transform="translate(-82.275 -12.779)" fill="#fff"/>
    <path id="Path_44675" data-name="Path 44675" d="M207.279,23.253v.084c-.2,1.385-1.623,2.924-3.741,4.45a38.555,38.555,0,0,1-9.563-5.152c-7.953-5.751-13.06-15.307-19.744-15.8a8.6,8.6,0,0,0-5.235,1.449,12.706,12.706,0,0,0-3.671,3.593c-.045.071-.09.135-.129.206l-.064.09a6.324,6.324,0,0,0-.921,2.833v-.18a4.412,4.412,0,0,1,.064-.876h0a.045.045,0,0,0,0-.032V13.8h0c.947-6.44,7.689-13.839,13.156-13.691,6.626.18,12.293,8.075,17.439,12.828a57.6,57.6,0,0,0,10.213,7.251h0c1.449.927,2.254,1.758,2.17,3.091Z" transform="translate(-58.464 0)" fill="url(#linear-gradient-4)"/>
  </g>
</svg>
