<?xml version="1.0" encoding="UTF-8"?>
<svg width="64px" height="40px" viewBox="0 0 64 40" version="1.1" xmlns="http://www.w3.org/2000/svg" xmlns:xlink="http://www.w3.org/1999/xlink">
    <title>modon-new</title>
    <g id="Home-page" stroke="none" stroke-width="1" fill="none" fill-rule="evenodd">
        <g id="assets" transform="translate(-924.000000, -321.000000)" fill-rule="nonzero">
            <g id="Group" transform="translate(924.000000, 321.000000)">
                <path d="M19.2160549,25.7970344 C18.5265137,25.7970344 17.9677474,25.21317 17.9677474,24.244906 C17.9677474,23.2766421 18.5265137,22.6940986 19.2160549,22.6940986 C19.9055962,22.6940986 20.4630415,23.2911727 20.4630415,24.244906 C20.4630415,25.2237377 19.9042753,25.7970344 19.2160549,25.7970344 M19.2068082,21.7020574 C17.8092322,21.7020574 16.6758482,22.6267296 16.6758482,24.2620785 C16.6758482,25.8974274 17.8092322,26.8154949 19.2068082,26.8154949 C20.6043843,26.8154949 21.7377682,25.8313794 21.7377682,24.2554737 C21.7377682,22.6188039 20.6043843,21.6954526 19.2068082,21.6954526" id="Shape" fill="#296A90"></path>
                <path d="M8.33794656,25.7970344 C7.64840527,25.7970344 7.08963904,25.21317 7.08963904,24.244906 C7.08963904,23.2766421 7.64840527,22.6940986 8.33794656,22.6940986 C9.02748786,22.6940986 9.58493312,23.2911727 9.58493312,24.244906 C9.58493312,25.2237377 9.02748786,25.7970344 8.33794656,25.7970344 M8.32869984,21.7020574 C6.9311238,21.7020574 5.79773983,22.6267296 5.79773983,24.2620785 C5.79773983,25.8974274 6.9311238,26.8154949 8.32869984,26.8154949 C9.72627588,26.8154949 10.8609808,25.8313794 10.8609808,24.2554737 C10.8609808,22.6188039 9.72759684,21.6954526 8.32869984,21.6954526" id="Shape" fill="#296A90"></path>
                <path d="M4.28127736,21.7086622 L2.55610316,23.6768931 L2.55610316,23.6768931 L0.829608001,21.7086622 L4.49083381e-05,21.716588 C4.49083381e-05,21.716588 0.010612591,25.3056372 0.010612591,26.6900036 L0.010612591,26.8088901 L1.16116905,26.8088901 L1.16116905,23.8657904 L2.55214028,25.3730062 L2.55214028,25.3730062 L2.55214028,25.3730062 L2.55214028,25.3730062 L2.55214028,25.3730062 L3.94971632,23.8657904 L3.94971632,26.8154949 L5.09895181,26.8154949 L5.09895181,26.6966084 C5.09895181,25.312242 5.1095195,21.7231928 5.1095195,21.7231928 L4.28127736,21.7086622 Z" id="Path" fill="#296A90"></path>
                <polygon id="Path" fill="#296A90" points="26.6160748 21.716588 25.4668393 21.716588 25.4694812 24.6702553 23.1551587 21.716588 22.3255956 21.716588 22.3361633 26.8088901 23.4853988 26.8088901 23.4853988 23.8657904 25.775944 26.8088901 26.6266424 26.8088901"></polygon>
                <path d="M14.5781632,24.9265216 C14.410942,25.4740903 13.8893294,25.8349544 13.317967,25.7983554 C13.1700195,25.7983554 12.9613077,25.7719362 12.8160021,25.7521218 L12.8160021,22.7205178 C13.1433001,22.6961566 13.4722551,22.7338026 13.785587,22.8314785 C14.1914536,22.9665996 14.4993273,23.3009196 14.6006195,23.7165219 C14.7181177,24.1147579 14.7102777,24.5394978 14.5781632,24.9331264 M14.9268967,22.1313695 C14.4824888,21.8578438 13.9705776,21.7137402 13.4487421,21.715267 C13.0838171,21.7119718 12.7190215,21.7304983 12.3563079,21.7707473 C12.0921158,21.7958456 11.8450963,21.8618936 11.5927928,21.9028434 L11.5927928,26.6160299 C11.9600198,26.6688683 12.3219629,26.7335953 12.686548,26.7719032 C13.264849,26.8525545 13.8537431,26.8074976 14.4130432,26.6398071 C15.084769,26.4444486 15.6170051,25.9304973 15.8357174,25.2660084 C16.0252812,24.6985519 16.0463867,24.0883287 15.8964816,23.5091311 C15.7728356,22.9376849 15.4230602,22.4406607 14.9268967,22.1313695" id="Shape" fill="#296A90"></path>
                <polygon id="Path" fill="#5BB5D9" points="39.5575232 10.7856412 39.5575232 23.514415 32.6555054 26.9158879 32.6555054 14.1778673"></polygon>
                <polygon id="Path" fill="#5BB5D9" points="57.3931297 15.18576 57.3931297 25.3307354 59.2609676 24.4219147 59.2609676 16.1038275"></polygon>
                <polygon id="Path" fill="#296A90" points="45.8862442 0 40.8243242 3.38562135 40.8243242 10.2532941 44.3512883 11.9837522 44.3512883 32.3463558 45.8862442 32.807371"></polygon>
                <polygon id="Path" fill="#94C749" points="55.8925187 10.1344077 55.8925187 14.4301707 54.052421 13.5292758 54.052421 25.3571547 49.2982847 23.0600046 49.2982847 14.2016446 52.3655546 12.6957498 52.3655546 8.40659159"></polygon>
                <polygon id="Path" fill="#296A90" points="46.5969208 37.0886034 53.4157181 40 63.6901476 40 50.0248129 35.6236584"></polygon>
                <polygon id="Path" fill="#5BB5D9" points="34.8615092 31.1112579 32.5987041 31.1112579 41.8678828 35.0688551 45.0130894 34.1322942"></polygon>
                <polygon id="Path" fill="#94C749" points="56.9941997 31.1112579 47.0143443 34.0807767 45.9271939 34.404412 42.6181883 35.3898484 42.3037997 35.4823156 28.1906595 40 38.4386698 40 45.4529692 37.0053829 45.9271939 36.801955 49.2375206 35.3898484 50.1687976 34.9909184 59.2570047 31.1112579"></polygon>
                <path d="M22.1921786,16.5608798 C22.0256771,16.1950825 21.9499976,15.7944794 21.9715782,15.3931508 C21.9669027,14.972523 22.0929076,14.5608146 22.3322004,14.2148542 C22.6196125,13.8250943 23.0823092,13.6041351 23.566104,13.6256076 C24.0498989,13.6470801 24.4912008,13.9081621 24.742953,14.321852 C24.986526,14.7448651 25.090528,15.2339057 25.0401691,15.719428 C25.0262691,16.0358039 24.9452172,16.3456022 24.8023962,16.6282487 C24.5686921,17.1298511 24.0568504,17.4422672 23.5038922,17.4208249 C22.8922876,17.4208249 22.4629755,17.1051154 22.1961415,16.5635217 M24.7059661,18.4564578 C25.517358,18.1871989 26.1539556,17.5506013 26.4232146,16.7392094 C26.6599057,16.0681057 26.6979742,15.3429693 26.5328543,14.6507711 C26.3806549,13.8525188 25.8750174,13.1661923 25.1577345,12.7842542 C24.6542743,12.5238384 24.0944475,12.3913672 23.5276695,12.3985337 C23.111561,12.3964268 22.6980601,12.4643016 22.3044602,12.5993197 C21.4980983,12.8663435 20.8662664,13.5001361 20.6017423,14.3073214 C20.5166238,14.551152 20.4564328,14.8029806 20.4220917,15.0589479 C20.4218404,15.062025 20.4218404,15.0651175 20.4220917,15.0681946 C20.4122103,15.2639124 20.3852483,15.4583927 20.3415132,15.6494171 C20.2967236,15.7934118 20.2254974,15.927801 20.1314805,16.0457052 C20.0558157,16.1362999 19.9598779,16.2078007 19.8514369,16.254417 C19.7549094,16.3004261 19.650397,16.3273392 19.5436531,16.3336746 L13.81729,16.3336746 L13.81729,15.2478452 C13.822065,14.8419764 13.7777107,14.4370209 13.685194,14.0418084 C13.6083878,13.7021676 13.44502,13.3881738 13.2109693,13.1303458 C12.952172,12.8554355 12.6302479,12.6477717 12.2730874,12.5253459 C11.844925,12.3960124 11.3993454,12.3336313 10.9521271,12.3404115 L9.11467124,12.3404115 L9.11467124,13.8159242 L11.1634807,13.8159242 C11.3428917,13.8140259 11.520541,13.8514494 11.6839391,13.9255639 C11.8305671,13.990193 11.9589755,14.0900158 12.0577709,14.2161752 C12.1581144,14.3383144 12.2318961,14.4800294 12.2744084,14.6322777 C12.3226525,14.8122843 12.3457681,14.9980986 12.3430983,15.1844391 L12.3430983,16.3336746 L7.72898385,16.3336746 L7.72898385,17.8078663 L13.8569189,17.8078663 L13.8569189,17.8078663 L15.917617,17.8078663 C15.9448989,17.8092638 15.9722346,17.8092638 15.9995165,17.8078663 L19.1539698,17.8078663 C19.2944278,17.8072378 19.4347143,17.7979736 19.5740352,17.7801262 C19.7220416,17.7616691 19.8674265,17.7262094 20.0073102,17.6744493 C20.1524242,17.6205393 20.2893501,17.5467416 20.414166,17.4551699 C20.546287,17.3593046 20.6584581,17.2386086 20.7444061,17.0998316 C21.0504762,17.7396728 21.6036333,18.2275001 22.2767201,18.451174 C23.0607666,18.7371434 23.9205986,18.7371434 24.7046452,18.451174" id="Shape" fill="#296A90"></path>
                <rect id="Rectangle" fill="#296A90" x="2.51383243" y="10.8847132" width="1.45305637" height="1.45437733"></rect>
                <path d="M5.05139724,12.3496582 L5.05139724,15.4420264 C5.05727729,15.7140736 5.02345718,15.9855245 4.95100426,16.2478122 C4.89100409,16.4573033 4.772284,16.6452386 4.60887553,16.7894059 C4.41115012,16.9518592 4.17513421,17.0609995 3.92329711,17.1064364 C3.70614813,17.1528509 3.48486286,17.1771923 3.26281694,17.1790892 C3.04077422,17.1771383 2.81949437,17.1527975 2.60233677,17.1064364 C2.3509827,17.0607292 2.11545958,16.9516065 1.91807932,16.7894059 C1.75384263,16.6457044 1.6345845,16.4576435 1.57462963,16.2478122 C1.50333122,15.9853191 1.46996895,15.7139727 1.47555761,15.4420264 L1.47555761,12.3496582 L-1.33226763e-15,12.3496582 L-1.33226763e-15,15.620356 C-0.00177172631,16.034633 0.0515343019,16.4473105 0.158560149,16.8475282 C0.247612246,17.2108087 0.43767054,17.5414643 0.706758689,17.8012615 C0.861921393,17.9519273 1.03338223,18.0848426 1.21797034,18.1975496 C1.40480261,18.3091333 1.60438063,18.3978346 1.81240249,18.4617417 C2.0439703,18.5349733 2.28190907,18.5862761 2.52307915,18.6149731 C2.71065552,18.6387504 2.91936726,18.6493181 3.13996763,18.6559229 L3.38566626,18.6559229 C3.60494567,18.6493181 3.81497836,18.6387504 4.00255473,18.6149731 C4.24374808,18.5864156 4.48169986,18.53511 4.71323139,18.4617417 C4.92167325,18.3978374 5.1216889,18.3091387 5.30898451,18.1975496 C5.49333971,18.0845053 5.66476482,17.9516176 5.82019616,17.8012615 C6.08860126,17.5409323 6.27853908,17.2104862 6.3683947,16.8475282 C6.47432088,16.4471224 6.5271714,16.0345331 6.52562348,15.620356 L6.52562348,12.3496582 L5.05139724,12.3496582 Z" id="Path" fill="#296A90"></path>
            </g>
        </g>
    </g>
</svg>