<?xml version="1.0" encoding="UTF-8"?>
<svg width="75px" height="70px" viewBox="0 0 75 70" version="1.1" xmlns="http://www.w3.org/2000/svg" xmlns:xlink="http://www.w3.org/1999/xlink">
    <title>noun_Online Document_4288675 Copy</title>
    <g id="Home-page" stroke="none" stroke-width="1" fill="none" fill-rule="evenodd">
        <g id="Ibtdaa--Home-Page" transform="translate(-449.000000, -646.000000)">
            <g id="Group-8" transform="translate(165.000000, 558.000000)">
                <g id="Group-5-Copy" transform="translate(16.000000, 24.000000)">
                    <g id="Services-Card-Copy-5" transform="translate(0.000000, 64.000000)">
                        <g id="noun_Online-Document_4288675-Copy" transform="translate(268.000000, 0.000000)">
                            <path d="M69.278125,12.5671875 C69.278125,9.865625 67.0796875,7.678125 64.3890625,7.678125 L50.6953125,7.678125 L43.3234375,1.2796875 C42.6125,0.6671875 41.7484375,0.2515625 40.81875,0.0765625 C40.81875,0.0765625 40.81875,0.0765625 40.8078125,0.0765625 C40.490625,0.021875 40.184375,0 39.8890625,0 L19.075,0 C16.1984375,0 13.846875,2.340625 13.846875,5.228125 L13.846875,7.678125 L4.878125,7.678125 C2.1875,7.678125 0,9.8765625 0,12.5671875 L0,54.1734375 C0,56.875 2.1875,59.0625 4.878125,59.0625 L25.3421875,59.0625 L23.05625,67.221875 L19.009375,67.221875 C18.24375,67.221875 17.6203125,67.8453125 17.6203125,68.6109375 C17.6203125,69.3765625 18.24375,70 19.009375,70 L50.2796875,70 C51.0453125,70 51.66875,69.3765625 51.66875,68.6109375 C51.66875,67.8453125 51.0453125,67.221875 50.2796875,67.221875 L46.2328125,67.221875 L43.946875,59.0625 L64.3890625,59.0625 C65.0671875,59.0625 65.7125,58.9203125 66.303125,58.66875 C68.053125,57.925 69.2890625,56.1859375 69.2890625,54.1734375 L69.278125,12.5671875 Z M25.9328125,67.2328125 L28.175,59.2265625 L41.1140625,59.2265625 L43.35625,67.2328125 L25.9328125,67.2328125 Z M64.4,56.2953125 L4.878125,56.2953125 C3.71875,56.2953125 2.7671875,55.3546875 2.7671875,54.184375 L2.7671875,46.9109375 L66.5,46.9109375 L66.5,54.184375 C66.5,55.059375 65.9640625,55.803125 65.209375,56.13125 C64.96875,56.2296875 64.6953125,56.2953125 64.4,56.2953125 Z M41.934375,3.7515625 L49.240625,10.0953125 C49.2515625,10.0953125 49.2515625,10.10625 49.2515625,10.1171875 L50.8484375,11.4953125 L51.1,11.7140625 L42.546875,11.7140625 C42.2078125,11.7140625 41.9234375,11.41875 41.9234375,11.0796875 L41.9234375,3.7515625 L41.934375,3.7515625 Z M64.3890625,10.4453125 C65.559375,10.4453125 66.5109375,11.396875 66.5109375,12.5671875 L66.5109375,44.1328125 L55.43125,44.1328125 L55.43125,14.175 C55.43125,13.6828125 55.365625,13.2015625 55.2234375,12.6984375 C55.2234375,12.6875 55.2125,12.665625 55.2015625,12.6546875 C55.0921875,12.2828125 54.928125,11.9328125 54.7421875,11.6046875 C54.709375,11.55 54.6875,11.4953125 54.64375,11.4296875 C54.446875,11.1125 54.20625,10.8171875 53.94375,10.54375 C53.9109375,10.5109375 53.9,10.478125 53.8671875,10.4453125 L64.3890625,10.4453125 Z M19.075,2.7671875 L39.1671875,2.7671875 L39.1671875,11.06875 C39.1671875,12.95 40.6875,14.48125 42.5578125,14.48125 L52.6640625,14.48125 L52.6640625,44.1328125 L16.625,44.1328125 L16.625,9.0671875 C16.625,9.0671875 16.625,9.05625 16.625,9.05625 C16.625,9.05625 16.625,9.0453125 16.625,9.0453125 L16.625,5.2171875 C16.625,3.871875 17.71875,2.7671875 19.075,2.7671875 Z M4.878125,10.4453125 L13.8578125,10.4453125 L13.8578125,44.1328125 L2.7671875,44.1328125 L2.7671875,12.5671875 C2.7671875,11.396875 3.7078125,10.4453125 4.878125,10.4453125 Z" id="Shape" fill="#413157" fill-rule="nonzero"></path>
                            <path d="M36.61875,50.2140625 L32.6703125,50.2140625 C31.9046875,50.2140625 31.28125,50.8375 31.28125,51.603125 C31.28125,52.36875 31.9046875,52.9921875 32.6703125,52.9921875 L36.61875,52.9921875 C37.384375,52.9921875 38.0078125,52.36875 38.0078125,51.603125 C38.0078125,50.8375 37.384375,50.2140625 36.61875,50.2140625 Z" id="Path" fill="#413157" fill-rule="nonzero"></path>
                            <path d="M23.209375,22.6734375 L46.0796875,22.6734375 C46.8453125,22.6734375 47.46875,22.05 47.46875,21.284375 C47.46875,20.51875 46.8453125,19.8953125 46.0796875,19.8953125 L23.209375,19.8953125 C22.44375,19.8953125 21.8203125,20.51875 21.8203125,21.284375 C21.8203125,22.0609375 22.44375,22.6734375 23.209375,22.6734375 Z" id="Path" fill="#413157" fill-rule="nonzero"></path>
                            <path d="M23.209375,30.034375 L46.0796875,30.034375 C46.8453125,30.034375 47.46875,29.4109375 47.46875,28.6453125 C47.46875,27.8796875 46.8453125,27.25625 46.0796875,27.25625 L23.209375,27.25625 C22.44375,27.25625 21.8203125,27.8796875 21.8203125,28.6453125 C21.8203125,29.421875 22.44375,30.034375 23.209375,30.034375 Z" id="Path" fill="#413157" fill-rule="nonzero"></path>
                            <path d="M23.209375,15.3234375 L34.0375,15.3234375 C34.803125,15.3234375 35.4265625,14.7 35.4265625,13.934375 C35.4265625,13.16875 34.803125,12.5453125 34.0375,12.5453125 L23.209375,12.5453125 C22.44375,12.5453125 21.8203125,13.16875 21.8203125,13.934375 C21.8203125,14.7 22.44375,15.3234375 23.209375,15.3234375 Z" id="Path" fill="#413157" fill-rule="nonzero"></path>
                            <path d="M23.209375,37.3953125 L46.0796875,37.3953125 C46.8453125,37.3953125 47.46875,36.771875 47.46875,36.00625 C47.46875,35.240625 46.8453125,34.6171875 46.0796875,34.6171875 L23.209375,34.6171875 C22.44375,34.6171875 21.8203125,35.240625 21.8203125,36.00625 C21.8203125,36.7828125 22.44375,37.3953125 23.209375,37.3953125 Z" id="Path" fill="#413157" fill-rule="nonzero"></path>
                            <g id="Group-15" transform="translate(57.000000, 0.000000)">
                                <circle id="Oval" fill="#5EE4D7" cx="9" cy="9" r="9"></circle>
                                <path d="M12.8941877,5.32043867 C12.4669361,4.89318711 11.7748002,4.89318711 11.3475596,5.32043867 L7.25027363,9.41772461 L5.8670627,8.03451367 C5.43981113,7.60726211 4.7476752,7.60726211 4.32043457,8.03451367 C3.89319395,8.46176523 3.89318301,9.15390117 4.32043457,9.5811418 L6.47695957,11.7376668 C6.69057988,11.9512871 6.97042676,12.0581027 7.25027363,12.0581027 C7.53012051,12.0581027 7.80996738,11.9512871 8.0235877,11.7376668 L12.8941986,6.86705586 C13.3214393,6.43982617 13.3214393,5.7476793 12.8941877,5.32043867 Z" id="Path" fill="#F9F9F9"></path>
                            </g>
                        </g>
                    </g>
                </g>
            </g>
        </g>
    </g>
</svg>