<?xml version="1.0" encoding="UTF-8"?>
<svg width="54px" height="35px" viewBox="0 0 54 35" version="1.1" xmlns="http://www.w3.org/2000/svg" xmlns:xlink="http://www.w3.org/1999/xlink">
    <title>saudi-industrial-development-fund -Icon</title>
    <g id="Home-page" stroke="none" stroke-width="1" fill="none" fill-rule="evenodd">
        <g id="assets" transform="translate(-1139.000000, -323.000000)" fill="#59BA48" fill-rule="nonzero">
            <g id="Group" transform="translate(1136.000000, 323.000000)">
                <g id="Path" transform="translate(3.125554, 0.000000)">
                    <polygon points="43.3174905 -1.07126217e-15 23.1245806 -1.07126217e-15 13.0300828 17.5 18.2006263 26.4633192 25.0111832 26.4633192 19.8406397 17.5 26.5455155 5.92205323 39.9004697 5.92205323 46.6014314 17.5 39.9004697 29.0740327 36.7496086 29.0740327 33.3286737 35 43.3174905 35 53.4159025 17.5"></polygon>
                    <polygon points="35.242675 8.53276672 28.4047193 8.53276672 33.5713487 17.5 26.8938716 29.0740327 13.5154328 29.0740327 6.83795571 17.5 13.5154328 5.92205323 16.6897786 5.92205323 20.0833147 -1.07126217e-15 10.1218967 -1.07126217e-15 0 17.5 10.1218967 35 30.3148065 35 40.4093044 17.5"></polygon>
                </g>
            </g>
        </g>
    </g>
</svg>