<?xml version="1.0" encoding="UTF-8"?>
<svg width="180px" height="40px" viewBox="0 0 180 40" version="1.1" xmlns="http://www.w3.org/2000/svg" xmlns:xlink="http://www.w3.org/1999/xlink">
    <title>The Industrial Valley</title>
    <g id="Home-page" stroke="none" stroke-width="1" fill="none" fill-rule="evenodd">
        <g id="assets" transform="translate(-1045.000000, -538.000000)" fill-rule="nonzero">
            <g id="Group" transform="translate(1045.000000, 538.000000)">
                <path d="M32.6161223,21.9118969 C32.6161223,20.6293078 33.5271202,19.6703626 35.1213665,19.6703626 C35.3730896,19.6703626 35.5768654,19.6943362 35.732694,19.706323 L36.2840875,18.0041954 C35.6248127,17.9442613 33.9586455,17.8963141 32.6880432,18.6275097 C31.6092298,19.2508241 31.0698232,20.293677 31.0698232,21.7560683 C31.0698232,22.7749476 31.5133353,23.4821696 31.5133353,23.4821696 L31.1777045,23.4821696 L30.7341924,23.4821696 C29.8591549,23.4821696 29.1159724,22.6550794 28.2529218,21.6841474 C28.0131855,21.4084507 27.7614624,21.132754 27.4977525,20.8690441 L26.2271501,22.0077914 C26.622715,22.4153431 27.8693437,23.7938268 27.8333833,25.0044951 L27.8213965,25.1483368 L21.0848067,25.1483368 C19.9820198,25.1483368 19.4905604,24.6688642 19.4905604,23.5900509 L19.4905604,20.2337429 L17.9562481,21.0488463 L17.9562481,23.8297872 C17.9562481,25.13635 18.4956548,26.6826491 21.0608331,26.6826491 L29.1399461,26.6826491 C29.3197483,25.9634402 29.3796823,24.8606533 29.0200779,24.2732994 L28.948157,24.165418 L29.0919988,24.0335631 L29.1878933,24.1774049 C29.595445,24.7887324 30.1228648,25.0284687 30.7102188,25.0284687 L31.0098891,25.0284687 L31.0098891,25.0284687 L36.835481,25.0284687 L36.835481,23.4701828 L33.0716212,23.4701828 C33.083608,23.4701828 32.6161223,23.0146838 32.6161223,21.9118969" id="Path" fill="#58595B"></path>
                <polygon id="Path" fill="#58595B" points="113.694936 15.3071621 113.694936 25.0044951 115.157327 25.0044951 115.157327 14.9235841"></polygon>
                <polygon id="Path" fill="#58595B" points="98.9032065 25.0164819 100.401558 25.0164819 100.401558 14.9235841 98.9032065 15.3071621"></polygon>
                <path d="M110.386575,23.4701828 L107.941265,23.4701828 L107.941265,18.5196284 C107.665568,18.4357207 106.814504,18.219958 105.412047,18.219958 C104.225352,18.219958 101.971831,18.9511537 101.971831,21.7201079 C101.971831,24.6089302 104.261313,25.0404555 105.615823,25.0404555 C105.987414,25.0404555 106.22715,25.0044951 106.22715,25.0044951 L106.442913,24.9685346 L106.394966,25.1842973 C106.299071,25.6757567 105.915493,26.2631106 104.704825,26.2631106 C104.537009,26.2631106 104.393168,26.2511238 104.273299,26.2391369 L104.692838,27.7614624 L104.920587,27.7614624 C106.562781,27.7614624 107.533713,26.8744381 107.833383,25.13635 L107.857357,25.0164819 L107.989212,25.0164819 C108.348816,25.0164819 109.295775,25.0164819 109.931076,25.0164819 C111.129757,25.0164819 111.87294,24.7048247 111.87294,23.2064729 L111.87294,15.3910698 L110.374588,15.7746479 L110.374588,23.4701828 L110.386575,23.4701828 Z M106.4549,23.4701828 L105.184297,23.4701828 C104.153431,23.4701828 103.422236,22.7509739 103.422236,21.7081211 C103.422236,20.3895715 104.393168,19.8621516 105.304165,19.7902307 C105.687743,19.7662571 106.179203,19.8261912 106.323045,19.8501648 L106.4549,19.8741384 L106.4549,23.4701828 Z" id="Shape" fill="#58595B"></path>
                <polygon id="Path" fill="#58595B" points="71.597243 25.0164819 73.0955948 25.0164819 73.0955948 14.9235841 71.597243 15.3071621"></polygon>
                <path d="M67.8094096,25.0164819 C69.3676955,25.0164819 69.7512736,24.6568774 69.7512736,23.2064729 L69.7512736,15.3910698 L68.2529218,15.7746479 L68.2529218,23.4701828 L65.4959545,23.4701828 L65.4959545,21.516332 C65.4959545,18.4716812 63.5421037,18.028169 62.3793827,18.028169 C59.7302967,18.028169 57.7764459,20.7851364 57.7764459,20.7851364 L57.7764459,19.0710219 L56.2900809,19.6344022 L56.2900809,23.458196 L53.6050345,23.4462092 L53.6050345,19.0830087 L52.1066826,19.5025472 L52.1066826,23.458196 L39.5804615,23.458196 L39.5804615,15.3910698 L38.0940965,15.9544501 L38.0940965,23.1824993 C38.0940965,24.6448906 38.4776746,25.0044951 40.0359604,25.0044951 L51.5433024,25.0044951 C52.1905904,25.0044951 52.6341025,24.7767456 52.8498651,24.3452203 C52.8498651,24.3452203 53.1015883,25.0044951 54.2882829,25.0044951 L67.8094096,25.0044951 L67.8094096,25.0164819 Z M64.0215763,23.4701828 L57.7644591,23.4701828 L57.7644591,22.5232245 C57.7644591,22.5232245 60.0059934,19.5864549 62.295475,19.5864549 C63.8058136,19.5864549 64.0095895,20.7851364 64.0095895,21.9598442 L64.0095895,23.4701828 L64.0215763,23.4701828 Z" id="Shape" fill="#58595B"></path>
                <path d="M93.4132454,18.2319449 L92.6221157,18.2319449 L92.3703926,19.8142044 L93.2694037,19.8142044 C94.9115972,19.8142044 95.247228,20.7491759 95.247228,22.1396464 L95.247228,23.458196 L91.6631705,23.458196 L91.2795924,25.0044951 L96.7336445,25.0044951 L96.7336445,21.7081211 C96.7455799,18.6874438 94.6598741,18.2319449 93.4132454,18.2319449" id="Path" fill="#58595B"></path>
                <path d="M85.7416841,19.9340725 L85.6098292,19.9340725 L85.5858556,19.8142044 C85.5618819,19.7183099 85.6577764,19.4665868 85.8495655,19.2508241 C86.1492358,18.8912197 86.7725502,18.4716812 88.0431525,18.4716812 C88.5465987,18.4716812 89.0020977,18.6035361 89.241834,18.6874438 L89.5175307,17.4048547 C89.3017681,17.2729997 88.6784537,16.9613425 87.8753371,16.9613425 C86.6047348,16.9613425 85.4779742,17.4767755 84.7587654,18.3757866 C83.8957147,19.4545999 83.9676356,20.7851364 84.0155829,21.1807012 C85.7776446,21.192688 87.0362601,21.516332 87.7794426,22.1276596 C88.3907702,22.6311058 88.4387174,23.1705124 88.4387174,23.3143542 L88.4387174,23.4701828 L88.2948756,23.4941564 L79.1968834,23.4941564 C78.8612526,23.4941564 77.8423734,23.4941564 77.8423734,22.2115673 L77.8423734,19.9220857 L76.3440216,20.8330836 L76.3440216,22.0077914 C76.3440216,24.2253521 77.2070722,25.0404555 79.544501,25.0404555 L89.4096494,25.0404555 C89.5175307,24.8606533 89.8291879,24.2852862 89.8291879,23.4701828 C89.8172011,21.0248726 87.431825,19.9340725 85.7416841,19.9340725" id="Path" fill="#58595B"></path>
                <path d="M84.4351214,25.6997303 C83.9796224,25.6997303 83.6080312,26.0713215 83.6080312,26.5268205 C83.6080312,26.9823194 83.9796224,27.3539107 84.4351214,27.3539107 C84.8906203,27.3539107 85.2622116,26.9823194 85.2622116,26.5268205 C85.2502248,26.0713215 84.8786335,25.6997303 84.4351214,25.6997303" id="Path" fill="#58595B"></path>
                <path d="M82.2535211,25.6997303 C81.7980222,25.6997303 81.4264309,26.0713215 81.4264309,26.5268205 C81.4264309,26.9823194 81.7980222,27.3539107 82.2535211,27.3539107 C82.7090201,27.3539107 83.0806113,26.9823194 83.0806113,26.5268205 C83.0806113,26.0713215 82.7090201,25.6997303 82.2535211,25.6997303" id="Path" fill="#58595B"></path>
                <path d="M24.5370093,27.3539107 C24.0815103,27.3539107 23.7099191,27.7255019 23.7099191,28.1810009 C23.7099191,28.6364999 24.0815103,29.0080911 24.5370093,29.0080911 C24.9925082,29.0080911 25.3640995,28.6364999 25.3640995,28.1810009 C25.3521127,27.7255019 24.9925082,27.3539107 24.5370093,27.3539107" id="Path" fill="#58595B"></path>
                <path d="M22.3554091,27.3539107 C21.8999101,27.3539107 21.5283188,27.7255019 21.5283188,28.1810009 C21.5283188,28.6364999 21.8999101,29.0080911 22.3554091,29.0080911 C22.810908,29.0080911 23.1824993,28.6364999 23.1824993,28.1810009 C23.1824993,27.7255019 22.810908,27.3539107 22.3554091,27.3539107" id="Path" fill="#58595B"></path>
                <path d="M52.8019179,18.3278394 C53.2574168,18.3278394 53.6290081,17.9562481 53.6290081,17.5007492 C53.6290081,17.0452502 53.2574168,16.673659 52.8019179,16.673659 C52.3464189,16.673659 51.9748277,17.0452502 51.9748277,17.5007492 C51.9868145,17.9562481 52.3464189,18.3278394 52.8019179,18.3278394" id="Path" fill="#58595B"></path>
                <polygon id="Path" fill="#58595B" points="39.4006593 32.5561882 39.4006593 39.868145 38.0341624 39.868145 38.0341624 32.5561882 35.67276 32.5561882 35.67276 31.405454 41.7620617 31.405454 41.7620617 32.5561882"></polygon>
                <polygon id="Path" fill="#58595B" points="6.77236045e-15 39.868145 6.77236045e-15 31.8489661 1.35451004 31.3814804 1.35451004 39.868145"></polygon>
                <path d="M34.8336829,37.3029667 C34.8336829,38.9091999 33.8028169,40 31.3455199,40 C30.4225352,40 29.2837878,39.7243033 28.6604735,39.4246329 L29.0560384,38.321846 C29.5594846,38.5256218 30.374588,38.8013185 31.273599,38.8013185 C32.9277794,38.8013185 33.5271202,38.2858855 33.5271202,37.482769 C33.5271202,36.5477974 32.9877135,36.2241534 31.7530716,36.0683248 C29.5115373,35.8166017 28.6364999,35.2532215 28.6364999,33.7189092 C28.6364999,32.4842673 29.3916692,31.273599 31.8969134,31.273599 C33.083608,31.273599 33.8387773,31.5852562 34.246329,31.729098 L33.7548696,32.7839377 C33.3593048,32.6520827 32.8798322,32.4722805 31.9808211,32.4722805 C30.5424034,32.4722805 30.050944,33.0116871 30.050944,33.730896 C30.050944,34.6418939 30.6143242,34.7977225 31.8249925,34.9535511 C33.7069224,35.1813006 34.8336829,35.5768654 34.8336829,37.3029667" id="Path" fill="#58595B"></path>
                <path d="M110.110878,39.8561582 L108.708421,39.8561582 L110.350614,36.6916392 C110.350614,36.6916392 109.69134,36.8714414 108.90021,35.2891819 C108.276895,34.05454 108.528619,34.4980521 107.030267,31.405454 L108.588553,31.405454 C108.588553,31.405454 110.038957,34.6179203 110.230746,34.9415643 C110.626311,35.6367995 110.973929,35.5768654 110.973929,35.5768654 L113.131555,31.405454 L114.689841,31.405454 L110.110878,39.8561582 Z" id="Path" fill="#58595B"></path>
                <path d="M9.03805814,31.405454 L9.03805814,37.4108481 C9.03805814,37.4108481 5.75367096,33.0596344 5.26221157,32.3524123 C4.74677854,31.6212167 4.25531915,31.405454 3.65597842,31.405454 L3.3922685,31.405454 L3.02067726,32.5202277 C3.02067726,32.5202277 3.46418939,32.5202277 3.46418939,33.2034762 L3.46418939,39.868145 L4.80671262,39.868145 L4.80671262,33.862751 L9.09799221,39.868145 L10.3446209,39.868145 L10.3446209,31.4174408 L9.03805814,31.4174408 L9.03805814,31.405454 Z" id="Path" fill="#58595B"></path>
                <path d="M48.9421636,38.2379383 C48.5346119,37.8303866 47.8034162,37.1111777 47.1801019,36.379982 C48.7503746,36.3679952 49.6373989,35.2771951 49.6373989,33.922685 C49.6373989,32.3883728 48.8822295,31.405454 46.4968535,31.405454 L46.4728798,31.405454 L43.4761762,31.405454 L42.9247827,32.3044651 C42.9247827,32.3044651 43.4282289,32.4602937 43.5001498,33.2634102 L43.5001498,39.8561582 L44.8786335,39.8561582 L44.8786335,33.4192388 L44.8666467,33.4192388 C44.8306862,32.8198981 44.6269104,32.568175 44.6269104,32.568175 L46.6886425,32.568175 C47.9592448,32.568175 48.1270602,33.2274498 48.1270602,33.922685 C48.1270602,34.6059335 47.9592448,35.2771951 46.8444711,35.2771951 L45.9094996,35.2771951 L45.3700929,36.3320348 C45.3700929,36.3320348 47.240036,38.3098592 47.7314954,38.9331735 C48.2948756,39.6403956 48.9421636,39.868145 49.3377285,39.868145 L49.8531615,39.868145 L49.8531615,38.64549 C49.8651483,38.6215163 49.3497153,38.6694636 48.9421636,38.2379383" id="Path" fill="#58595B"></path>
                <path d="M81.3664969,37.9502547 C80.3835781,37.9502547 80.0599341,38.8732394 80.0599341,38.8732394 L79.6883428,39.8561582 L78.189991,39.8561582 L81.4743782,31.405454 L82.9847168,31.405454 L86.1132754,39.8561582 L84.6628708,39.8561582 L84.0875037,37.9502547 L81.3664969,37.9502547 Z M83.5480971,36.7635601 L82.1576266,33.1195685 L80.6113275,37.0512436 C80.6113275,37.0512436 80.839077,36.7635601 81.5582859,36.7635601 L83.5480971,36.7635601 L83.5480971,36.7635601 Z" id="Shape" fill="#58595B"></path>
                <path d="M57.8723404,37.9502547 C56.8894216,37.9502547 56.5657776,38.8732394 56.5657776,38.8732394 L56.1941864,39.8561582 L54.6958346,39.8561582 L57.9682349,31.405454 L59.4905604,31.405454 L62.6071322,39.8561582 L61.1567276,39.8561582 L60.5693737,37.9502547 L57.8723404,37.9502547 Z M60.0659275,36.7635601 L58.675457,33.1195685 L57.1411447,37.0512436 C57.1411447,37.0512436 57.3688942,36.7635601 58.0881031,36.7635601 L60.0659275,36.7635601 L60.0659275,36.7635601 Z" id="Shape" fill="#58595B"></path>
                <path d="M15.4390171,31.405454 L12.4543003,31.405454 L11.9029068,32.3044651 C11.9029068,32.3044651 12.5022475,32.4842673 12.5022475,33.4432125 L12.5022475,39.8561582 L15.3910698,39.8561582 C18.4357207,39.8561582 19.2867845,38.0341624 19.2867845,35.6248127 C19.2747977,33.2394366 18.4357207,31.405454 15.4390171,31.405454 M13.8447708,33.6110279 C13.8447708,32.8438717 13.5930476,32.568175 13.5930476,32.568175 L15.4030566,32.568175 C17.2370393,32.568175 17.83638,33.8028169 17.83638,35.6367995 C17.83638,37.482769 17.2490261,38.705424 15.4030566,38.705424 L13.8447708,38.705424 L13.8447708,33.6110279 Z" id="Shape" fill="#58595B"></path>
                <polygon id="Path" fill="#58595B" points="51.7830387 39.8561582 51.7830387 31.8849266 53.1615223 31.405454 53.1615223 39.8561582"></polygon>
                <polygon id="Path" fill="#58595B" points="65.3640995 38.6934372 69.3557087 38.6934372 69.3557087 39.8561582 63.9976026 39.8561582 63.9976026 31.8849266 65.3640995 31.405454"></polygon>
                <polygon id="Path" fill="#58595B" points="88.4866647 38.6934372 92.4782739 38.6934372 92.4782739 39.8561582 87.1201678 39.8561582 87.1201678 31.8849266 88.4866647 31.405454"></polygon>
                <polygon id="Path" fill="#58595B" points="95.2951753 38.6934372 99.2867845 38.6934372 99.2867845 39.8561582 93.9166916 39.8561582 93.9166916 31.8849266 95.2951753 31.405454"></polygon>
                <path d="M25.8555589,32.0167815 L25.8555589,37.0872041 C25.8555589,38.6814504 24.6568774,38.8492658 23.8897213,38.8492658 C23.134552,38.8492658 21.9358705,38.6814504 21.9358705,37.0872041 L21.9358705,31.405454 L20.5573869,31.8849266 L20.5573869,37.1950854 C20.5573869,39.5684747 22.6430926,39.9880132 23.8897213,39.9880132 C25.13635,39.9880132 27.2220557,39.5564879 27.2220557,37.1950854 L27.2220557,31.405454 L25.8555589,32.0167815 Z" id="Path" fill="#58595B"></path>
                <polygon id="Path" fill="#58595B" points="105.10039 36.056338 102.079712 36.056338 102.079712 38.6934372 106.299071 38.6934372 105.519928 39.8561582 100.713215 39.8561582 100.713215 31.405454 106.299071 31.405454 105.69973 32.568175 102.079712 32.568175 102.079712 34.9056038 105.10039 34.9056038"></polygon>
                <path d="M77.5546898,31.405454 C77.0032964,34.5220258 75.7806413,37.6505844 75.4450105,38.2379383 C75.1093797,37.6505844 73.8867246,34.5220258 73.3353311,31.405454 L71.8489661,31.405454 C72.2325442,34.5459994 74.7258016,39.8561582 74.7258016,39.8561582 L76.1522325,39.8561582 C76.1522325,39.8561582 78.6814504,34.5459994 79.029068,31.405454 L77.5546898,31.405454 Z" id="Path" fill="#58595B"></path>
                <polygon id="Path" fill="#009EDB" points="150.913995 39.8441714 179.49056 39.8441714 150.913995 33.2634102"></polygon>
                <polygon id="Path" fill="#009EDB" points="150.913995 28.7443812 179.49056 39.8441714 150.913995 22.1756068"></polygon>
                <polygon id="Path" fill="#009EDB" points="150.913995 17.6565778 179.49056 39.8441714 150.913995 11.0878034"></polygon>
                <polygon id="Path" fill="#009EDB" points="150.913995 6.56877435 179.49056 39.8441714 150.913995 0"></polygon>
                <polygon id="Path" fill="#00B07C" points="150.913995 39.8441714 122.325442 39.8441714 150.913995 33.2634102"></polygon>
                <polygon id="Path" fill="#00B07C" points="150.913995 28.7443812 122.325442 39.8441714 150.913995 22.1756068"></polygon>
                <polygon id="Path" fill="#00B07C" points="150.913995 17.6565778 122.325442 39.8441714 150.913995 11.0878034"></polygon>
                <polygon id="Path" fill="#00B07C" points="150.913995 6.56877435 122.325442 39.8441714 150.913995 0"></polygon>
            </g>
        </g>
    </g>
</svg>