<?xml version="1.0" standalone="no"?>
<!DOCTYPE svg PUBLIC "-//W3C//DTD SVG 1.1//EN" "http://www.w3.org/Graphics/SVG/1.1/DTD/svg11.dtd" >
<svg xmlns="http://www.w3.org/2000/svg" xmlns:xlink="http://www.w3.org/1999/xlink" version="1.1">
<metadata>
Created by FontForge 20170731 at Thu Sep 30 09:31:27 2021
 By Aleksey,,,
(C)2009 Kai Bernau and Commercial Type.
</metadata>
<defs>
<font id="LyonArabicText-Bold" horiz-adv-x="1179" >
  <font-face 
    font-family="Lyon Arabic Text Bold"
    font-weight="700"
    font-stretch="normal"
    units-per-em="2048"
    panose-1="2 0 5 5 8 0 0 2 0 4"
    ascent="1556"
    descent="-492"
    x-height="963"
    cap-height="1305"
    bbox="-371 -1126 3095 2210"
    underline-thickness="102"
    underline-position="-307"
    unicode-range="U+0020-FEFC"
  />
<missing-glyph horiz-adv-x="1024" 
d="M102 -492v2048h820v-2048h-820zM205 -389h614v1843h-614v-1843z" />
    <glyph glyph-name="f_f" unicode="ff" horiz-adv-x="1470" 
d="M737 0v102l123 25v715h-375v-715l125 -27v-100h-571v100l133 27v717h-135v100l137 43q31 199 177 327t347 128q109 0 189.5 -32.5t120.5 -86.5q73 72 167 114t195 42q133 0 216 -67t83 -152q0 -64 -34 -98t-113 -34q-18 0 -36 3t-27 5l-9 3l-57 204q-43 19 -82 19
q-144 0 -144 -248v-151h250v-121h-248v-715l183 -25v-102h-615zM860 989q0 71 19 127l-78 174q-73 41 -127 41q-44 0 -77 -16.5t-60 -54.5t-41 -109t-13 -172v-16h377v26z" />
    <glyph glyph-name="f_i" unicode="fi" horiz-adv-x="1339" 
d="M729 0v102l131 25v715h-375v-713l144 -27v-102h-590v102l133 25v717h-135v100l135 43q12 119 67 215t136.5 154.5t177 89.5t195.5 31q178 0 271 -64.5t93 -155.5q0 -59 -38.5 -94t-108.5 -35q-19 0 -37 3t-26 5l-9 3l-72 178q-51 51 -135 51q-98 0 -149.5 -65.5
t-51.5 -227.5v-112h488l198 38v-874l125 -25v-102h-567z" />
    <glyph glyph-name="f_l" unicode="fl" horiz-adv-x="1347" 
d="M729 0v102l131 25v715h-375v-715l144 -25v-102h-590v102l133 25v717h-135v100l135 43q15 211 166.5 351.5t368.5 140.5q132 0 229 -56l238 43v-1339l141 -27v-100h-586zM647 1368q-90 0 -129 -64.5t-35 -222.5v-118h377v258q-42 71 -89.5 109t-123.5 38z" />
    <glyph glyph-name="f_f_i" unicode="ffi" horiz-adv-x="2025" 
d="M1413 0v102l131 25v715h-373v-713l144 -27v-102h-580v102l123 25v715h-373v-715l125 -27v-100h-571v100l133 27v717h-135v100l137 43q31 199 177 327t347 128q113 0 193 -34t119 -91q85 77 198.5 118.5t225.5 41.5q178 0 271 -64.5t93 -155.5q0 -59 -38.5 -94t-108.5 -35
q-19 0 -37 3t-26 5l-9 3l-72 178q-55 51 -143 51q-36 0 -63.5 -9t-53.5 -33t-42.5 -63t-26.5 -102.5t-9 -148.5v-49h502l187 38v-874l124 -25v-102h-569zM858 963q0 86 23 151l-80 176q-73 41 -127 41q-44 0 -77 -16.5t-60 -54.5t-41 -109t-13 -172v-16h375z" />
    <glyph glyph-name="f_f_l" unicode="ffl" horiz-adv-x="2033" 
d="M1413 0v102l133 25v715h-375v-715l144 -25v-102h-578v100l121 27v715h-373v-715l125 -27v-100h-571v100l133 27v717h-135v100l137 43q31 199 177 327t347 128q106 0 186 -31.5t122 -83.5q73 72 172.5 112t210.5 40q134 0 231 -56l238 43v-1339l143 -27v-100h-588z
M1331 1368q-89 0 -127 -64t-37 -223l2 -118h377v258q-41 70 -90 108.5t-125 38.5zM858 985q0 79 19 137l-76 168q-73 41 -127 41q-44 0 -77 -16.5t-60 -54.5t-41 -109t-13 -172v-16h375v22z" />
    <glyph glyph-name="uniFDF2" unicode="&#x627;&#xfedf;&#xfee0;&#xfeea;" horiz-adv-x="2607" arabic-form="isolated" 
d="M1260 2126l83 84h21v-297l-59 -84h-25zM1143 1425q-63 0 -96 40t-33 98q0 41 17 91t42 87l43 -17q-16 -50 -16 -84q0 -79 65 -79q32 0 52 25.5t34 78.5l29 98h47v-80q92 -55 162 -61q-14 42 -88 139l67 119h23q57 -88 57 -174q0 -117 -71 -205q-94 0 -183 64
q-17 -66 -57 -103t-94 -37zM356 141q-147 0 -227 73t-80 204q0 121 83 224t286 220l121 72l98 221h82l74 -631q15 -118 58.5 -159t152.5 -41q133 0 217 41q-1 17 -4.5 57t-4.5 63l-30 609l127 272h80v-864q0 -100 54.5 -139t192.5 -39q94 0 174 26l-36 791
q-75 100 -45 206.5t159 180.5h80v-185l121 -149v-18l-121 -95v-606q0 -209 -80 -389q-68 -43 -137.5 -64.5t-173.5 -21.5q-159 0 -235 59.5t-105 202.5h-8q-15 -76 -47 -180q-112 -82 -238 -82q-141 0 -219 86t-117 293h-4q-17 -94 -51 -197q-93 -41 -197 -41zM2243 1255
l127 273h81v-1235l-71 -293h-82zM168 530q0 -30 48 -47.5t140 -17.5q137 0 232 35l-43 231l-221 -78q-156 -55 -156 -123z" />
    <glyph glyph-name="uniFEF5" unicode="&#xfedf;&#xfe82;" horiz-adv-x="1130" arabic-form="isolated" 
d="M168 1307l41 245l12 9l285 -62q60 -13 90 -2.5t45 47.5l14 35l60 -16q-19 -139 -73.5 -184.5t-170.5 -22.5l-195 43l-49 -109zM172 324l154 94q176 108 272 186q-6 4 -24.5 17.5t-28.5 21.5l-252 191h-227v376l73 43l400 -315q69 -53 206 -166q41 80 31 205l-12 164
q-73 99 -43 206t158 181h82v-185l120 -149v-18l-120 -93v-96q0 -94 -25 -167.5t-86 -143.5q75 -76 105 -136t30 -126q0 -79 -17.5 -178t-43.5 -177q-206 -59 -461 -59h-291v324zM522 324q211 0 357 26q-44 65 -187 180q-120 -89 -311 -204l-4 -2h145z" />
    <glyph glyph-name="uniFEF6" unicode="&#xfee0;&#xfe82;" horiz-adv-x="1241" arabic-form="final" 
d="M197 1325l41 246l12 8l285 -61q60 -13 90 -2.5t45 47.5l14 34l59 -16q-19 -139 -73 -184.5t-170 -22.5l-195 43l-49 -108zM86 82q358 136 516 240q-7 142 -60 236.5t-184 205.5l-82 70h-210v376l73 43l219 -194q126 -111 196 -206.5t103 -205.5t35 -260q93 81 128.5 178
t27.5 234l-29 456l127 273h82v-1026q0 -100 46.5 -139t166.5 -39v-267l-59 -57q-172 0 -241.5 94t-78.5 312l-2 38h-4q-45 -243 -194 -444h-576v82z" />
    <glyph glyph-name="uniFEF7" unicode="&#xfedf;&#xfe84;" horiz-adv-x="1130" arabic-form="isolated" 
d="M213 1313l117 86q-32 24 -54 58.5t-22 70.5q0 81 76 161t157 80q57 0 87 -28.5t30 -69.5q0 -56 -29 -102l-141 53q-42 -8 -75 -27.5t-33 -38.5q0 -36 86 -54.5t172 -6.5l82 12l6 -8l-31 -162l-428 -69v45zM172 324l154 94q176 108 272 186q-6 4 -24.5 17.5t-28.5 21.5
l-252 191h-227v376l73 43l400 -315q69 -53 206 -166q41 80 31 205l-12 164q-73 99 -43 206t158 181h82v-185l120 -149v-18l-120 -93v-96q0 -94 -25 -167.5t-86 -143.5q75 -76 105 -136t30 -126q0 -79 -17.5 -178t-43.5 -177q-206 -59 -461 -59h-291v324zM522 324
q211 0 357 26q-44 65 -187 180q-120 -89 -311 -204l-4 -2h145z" />
    <glyph glyph-name="uniFEF8" unicode="&#xfee0;&#xfe84;" horiz-adv-x="1241" arabic-form="final" 
d="M242 1331l116 86q-32 24 -53.5 58.5t-21.5 70.5q0 81 76 161.5t157 80.5q57 0 87 -28.5t30 -69.5q0 -57 -29 -103l-141 53q-42 -8 -75.5 -27t-33.5 -38q0 -36 86 -55t172 -7l82 13l6 -8l-30 -162l-428 -70v45zM86 82q358 136 516 240q-7 142 -60 236.5t-184 205.5l-82 70
h-210v376l73 43l219 -194q126 -111 196 -206.5t103 -205.5t35 -260q93 81 128.5 178t27.5 234l-29 456l127 273h82v-1026q0 -100 46.5 -139t166.5 -39v-267l-59 -57q-172 0 -241.5 94t-78.5 312l-2 38h-4q-45 -243 -194 -444h-576v82z" />
    <glyph glyph-name="uniFEF9" unicode="&#xfedf;&#xfe88;" horiz-adv-x="1130" arabic-form="isolated" 
d="M172 324l154 94q176 108 272 186q-6 4 -24.5 17.5t-28.5 21.5l-252 191h-227v376l73 43l400 -315q69 -53 206 -166q41 80 31 205l-12 164q-73 99 -43 206t158 181h82v-185l120 -149v-18l-120 -93v-96q0 -94 -25 -167.5t-86 -143.5q75 -76 105 -136t30 -126
q0 -79 -17.5 -178t-43.5 -177q-206 -59 -461 -59h-291v324zM522 324q211 0 357 26q-44 65 -187 180q-120 -89 -311 -204l-4 -2h145zM289 -524l117 86q-32 24 -54 58.5t-22 70.5q0 81 76 161t157 80q57 0 87 -28.5t30 -69.5q0 -56 -29 -102l-141 53q-42 -8 -75.5 -27.5
t-33.5 -38.5q0 -36 86 -54.5t172 -6.5l82 12l7 -8l-31 -162l-428 -69v45z" />
    <glyph glyph-name="uniFEFA" unicode="&#xfee0;&#xfe88;" horiz-adv-x="1241" arabic-form="final" 
d="M86 82q358 136 516 240q-7 142 -60 236.5t-184 205.5l-82 70h-210v376l73 43l219 -194q126 -111 196 -206.5t103 -205.5t35 -260q93 81 128.5 178t27.5 234l-29 456l127 273h82v-1026q0 -100 46.5 -139t166.5 -39v-267l-59 -57q-172 0 -241.5 94t-78.5 312l-2 38h-4
q-45 -243 -194 -444h-576v82zM279 -524l116 86q-32 24 -54 58.5t-22 70.5q0 81 76.5 161t157.5 80q57 0 87 -28.5t30 -69.5q0 -56 -29 -102l-141 53q-42 -8 -75.5 -27.5t-33.5 -38.5q0 -36 86 -54.5t172 -6.5l82 12l6 -8l-30 -162l-428 -69v45z" />
    <glyph glyph-name="uniFEFB" unicode="&#xfedf;&#xfe8e;" horiz-adv-x="1130" arabic-form="isolated" 
d="M172 324l154 94q176 108 272 186q-6 4 -24.5 17.5t-28.5 21.5l-252 191h-227v376l73 43l400 -315q69 -53 206 -166q41 80 31 205l-12 164q-73 99 -43 206t158 181h82v-185l120 -149v-18l-120 -93v-96q0 -94 -25 -167.5t-86 -143.5q75 -76 105 -136t30 -126
q0 -79 -17.5 -178t-43.5 -177q-206 -59 -461 -59h-291v324zM522 324q211 0 357 26q-44 65 -187 180q-120 -89 -311 -204l-4 -2h145z" />
    <glyph glyph-name="uniFEFC" unicode="&#xfee0;&#xfe8e;" horiz-adv-x="1241" arabic-form="final" 
d="M86 82q358 136 516 240q-7 142 -60 236.5t-184 205.5l-82 70h-210v376l73 43l219 -194q126 -111 196 -206.5t103 -205.5t35 -260q93 81 128.5 178t27.5 234l-29 456l127 273h82v-1026q0 -100 46.5 -139t166.5 -39v-267l-59 -57q-172 0 -241.5 94t-78.5 312l-2 38h-4
q-45 -243 -194 -444h-576v82z" />
    <glyph glyph-name="f_b" unicode="fb" horiz-adv-x="1925" 
d="M39 0v102l133 25v717h-135v100l135 43q15 212 162 352t364 140q134 0 234 -56l242 43v-614q114 141 290 141q80 0 151 -26t129.5 -78.5t93 -142.5t34.5 -207q0 -120 -54 -227t-142 -181t-203 -117t-236 -43q-72 0 -160 17.5t-151 40.5l-66 26v1166q-42 71 -89.5 109
t-123.5 38q-80 0 -122 -66.5t-42 -220.5v-118h248v-132h-246v-704l152 -25v-102h-598zM1300 807q-59 0 -126 -37v-625q7 -7 19.5 -17.5t53 -28t82.5 -17.5q99 0 165.5 97t66.5 272q0 162 -70.5 259t-190.5 97z" />
    <glyph glyph-name="f_f_b" unicode="ffb" horiz-adv-x="2611" 
d="M739 102l119 25v715h-373v-715l125 -27v-100h-571v100l133 27v717h-135v100l137 43q31 199 177 327t347 128q110 0 190 -32t120 -87q153 156 374 156q138 0 236 -58l240 45v-616q120 143 290 143q81 0 152 -26t130 -78.5t93.5 -142.5t34.5 -207q0 -120 -54 -227
t-142 -181t-203 -117t-236 -43q-74 0 -162.5 17t-150.5 41l-64 26v1166q-42 72 -85 109.5t-109 37.5q-43 0 -75 -16t-57.5 -54t-38.5 -108t-12 -172v-55h248v-121h-246v-715l150 -25v-102h-582v102zM858 963q3 74 25 145l-82 182q-73 41 -127 41q-44 0 -77 -16.5t-60 -54.5
t-41 -109t-13 -172v-16h375zM1987 807q-62 0 -129 -37v-625q7 -7 20 -17.5t54 -28t83 -17.5q99 0 165.5 97t66.5 272q0 162 -70.5 259t-189.5 97z" />
    <glyph glyph-name="f_f_h" unicode="ffh" horiz-adv-x="2658" 
d="M1425 0v100l121 27v1094q-42 72 -85 109.5t-109 37.5q-43 0 -75 -16t-57.5 -54t-38.5 -108t-12 -172v-55h248v-121h-246v-715l132 -25v-102h-564v102l119 25v715h-373v-715l125 -27v-100h-571v100l133 27v717h-135v100l137 43q31 199 177 327t347 128q110 0 190 -32
t120 -87q153 156 374 156q138 0 236 -58l240 45v-624q144 159 319 159q159 0 239.5 -81t80.5 -250v-543l133 -27v-100h-551v102l104 25v463q0 220 -186 217q-69 -2 -139 -43v-637l112 -27v-100h-545zM858 963q3 74 25 145l-82 182q-73 41 -127 41q-44 0 -77 -16.5t-60 -54.5
t-41 -109t-13 -172v-16h375z" />
    <glyph glyph-name="f_f_j" unicode="ffj" horiz-adv-x="2009" 
d="M858 127v715h-373v-715l125 -27v-100h-571v100l133 27v717h-135v100l137 43q31 199 177 327t347 128q113 0 193 -34t119 -91q85 77 198.5 118.5t225.5 41.5q178 0 271 -64.5t93 -155.5q0 -59 -38.5 -94t-108.5 -35q-19 0 -37 3t-26 5l-9 3l-72 178q-55 51 -143 51
q-36 0 -63.5 -9t-53.5 -33t-42.5 -63t-26.5 -102.5t-9 -148.5v-49h488l201 38v-872q0 -246 -105 -410q-41 -62 -96.5 -105t-109 -61t-83.5 -24t-55 -8h-4l-39 94q40 21 70.5 54.5t55.5 88.5t38.5 141t13.5 201v742h-373v-713l150 -27v-102h-586v102zM674 1331
q-44 0 -77 -16.5t-60 -54.5t-41 -109t-13 -172v-16h375q0 86 23 151l-80 176q-73 41 -127 41z" />
    <glyph glyph-name="f_f_k" unicode="ffk" horiz-adv-x="2605" 
d="M1425 0v100l121 27v1094q-42 72 -85 109.5t-109 37.5q-43 0 -75 -16t-57.5 -54t-38.5 -108t-12 -172v-55h248v-121h-246v-715l132 -25v-102h-564v102l119 25v715h-373v-715l125 -27v-100h-571v100l133 27v717h-135v100l137 43q31 199 177 327t347 128q110 0 190 -32
t120 -87q153 156 374 156q138 0 236 -58l240 45v-1339l112 -27v-100h-545zM858 963q3 74 25 145l-82 182q-73 41 -127 41q-44 0 -77 -16.5t-60 -54.5t-41 -109t-13 -172v-16h375zM2421 -37q-95 -1 -149 34t-111 120l-281 428v18l113 29l217 235l-176 41v95h534v-93l-149 -39
l-248 -233l430 -555q-2 -3 -5 -8t-17 -18.5t-32.5 -24t-52 -19.5t-73.5 -10z" />
    <glyph glyph-name="f_h" unicode="fh" horiz-adv-x="1974" 
d="M729 0v100l131 27v1094q-42 71 -89.5 109t-123.5 38q-80 0 -122 -66.5t-42 -220.5v-118h248v-132h-246v-704l144 -25v-102h-590v102l133 25v717h-135v100l135 43q15 212 162 352t364 140q134 0 234 -56l242 43v-622q56 62 137.5 109.5t179.5 47.5q159 0 239 -81t80 -250
v-543l136 -27v-100h-553v102l104 25v463q0 220 -184 217q-69 -2 -139 -43v-637l110 -27v-100h-555z" />
    <glyph glyph-name="f_j" unicode="fj" horiz-adv-x="1323" 
d="M719 -479l-39 94q40 21 70.5 54.5t56.5 88.5t39.5 141t13.5 201v742h-375v-713l152 -27v-102h-598v102l133 25v717h-135v100l135 43q12 119 67 215t136.5 154.5t177 89.5t195.5 31q178 0 271 -64.5t93 -155.5q0 -59 -38.5 -94t-108.5 -35q-19 0 -37 3t-26 5l-9 3l-72 178
q-51 51 -135 51q-98 0 -149.5 -65.5t-51.5 -227.5v-112h488l198 38v-872q0 -253 -104 -410q-41 -62 -96.5 -105t-109 -61t-83.5 -24t-55 -8h-4z" />
    <glyph glyph-name="f_k" unicode="fk" horiz-adv-x="1921" 
d="M729 0v100l131 27v1094q-42 71 -89.5 109t-123.5 38q-80 0 -122 -66.5t-42 -220.5v-118h248v-132h-246v-704l144 -25v-102h-590v102l133 25v717h-135v100l135 43q15 212 162 352t364 140q134 0 234 -56l242 43v-1339l120 -27v-100h-565zM1735 -37q-95 -1 -149 34
t-111 120l-281 428v18l113 29l217 235l-176 41v95h534v-93l-149 -39l-248 -233l432 -555q-2 -3 -5.5 -8t-17.5 -18.5t-33 -24t-52.5 -19.5t-73.5 -10z" />
    <glyph glyph-name="uniFEDFFB51" unicode="&#xfedf;&#xfb51;" horiz-adv-x="1130" 
d="M158 1303l43 241l12 10l106 -24q66 115 123.5 163t128.5 48q63 0 107.5 -46t44.5 -106q0 -81 -45 -176q-68 -41 -142.5 -50t-181.5 13l-88 17l-49 -107zM526 1599q-40 0 -72 -19t-67 -64q160 -36 268 4q-8 41 -45.5 60t-83.5 19zM172 324l154 94q176 108 272 186
q-6 4 -24.5 17.5t-28.5 21.5l-252 191h-227v376l73 43l400 -315q69 -53 206 -166q41 80 31 205l-12 164q-73 99 -43 206t158 181h82v-185l120 -149v-18l-120 -93v-96q0 -94 -25 -167.5t-86 -143.5q75 -76 105 -136t30 -126q0 -79 -17.5 -178t-43.5 -177q-206 -59 -461 -59
h-291v324zM522 324q211 0 357 26q-44 65 -187 180q-120 -89 -311 -204l-4 -2h145z" />
    <glyph glyph-name="uniFD13.rlig" unicode="&#xfecc;&#xfef0;" horiz-adv-x="2103" 
d="M666 -559q-130 0 -232.5 30.5t-168.5 82.5t-109.5 124.5t-61.5 152t-18 169.5q0 220 96 477l84 -24q-51 -173 -51 -283q0 -385 493 -385q181 0 363 47.5t293 122.5q-64 49 -242 76l-246 35l-6 14l74 301q345 86 465 149q-85 95 -197 95l-35 71l76 203q67 42 149.5 66
t161.5 24q126 0 206.5 -56.5t80.5 -162.5q0 -117 -158 -262q103 -101 199 -142.5t221 -41.5v-267l-57 -57q-156 0 -280.5 90t-280.5 318q-109 -68 -238 -115q97 -31 149 -86.5t52 -130.5q0 -84 -15 -188.5t-42 -182.5q-99 -112 -298.5 -188t-426.5 -76z" />
    <glyph glyph-name="uniFD14.rlig" unicode="&#xfecc;&#xfef2;" horiz-adv-x="2103" 
d="M666 -559q-130 0 -232.5 30.5t-168.5 82.5t-109.5 124.5t-61.5 152t-18 169.5q0 220 96 477l84 -24q-51 -173 -51 -283q0 -385 493 -385q181 0 363 47.5t293 122.5q-64 49 -242 76l-246 35l-6 14l74 301q345 86 465 149q-85 95 -197 95l-35 71l76 203q67 42 149.5 66
t161.5 24q126 0 206.5 -56.5t80.5 -162.5q0 -117 -158 -262q103 -101 199 -142.5t221 -41.5v-267l-57 -57q-156 0 -280.5 90t-280.5 318q-109 -68 -238 -115q97 -31 149 -86.5t52 -130.5q0 -84 -15 -188.5t-42 -182.5q-99 -112 -298.5 -188t-426.5 -76zM432 -858l160 166h22
l138 -137l131 137h22l166 -166l-160 -164h-22l-137 135l-131 -135h-23z" />
    <glyph glyph-name="uniFECCFE8A.rlig" unicode="&#xfecc;&#xfe8a;" horiz-adv-x="2103" 
d="M27 629l116 86q-32 24 -53.5 58.5t-21.5 70.5q0 81 76 161t157 80q57 0 87 -28.5t30 -69.5q0 -56 -29 -102l-141 53q-42 -8 -75.5 -27.5t-33.5 -38.5q0 -36 86 -54.5t172 -6.5l82 12l6 -8l-30 -162l-428 -69v45zM666 -559q-130 0 -232.5 30.5t-168.5 82.5t-109.5 124.5
t-61.5 152t-18 169.5q0 220 96 477l84 -24q-51 -173 -51 -283q0 -385 493 -385q181 0 363 47.5t293 122.5q-64 49 -242 76l-246 35l-6 14l74 301q345 86 465 149q-85 95 -197 95l-35 71l76 203q67 42 149.5 66t161.5 24q126 0 206.5 -56.5t80.5 -162.5q0 -117 -158 -262
q103 -101 199 -142.5t221 -41.5v-267l-57 -57q-156 0 -280.5 90t-280.5 318q-109 -68 -238 -115q97 -31 149 -86.5t52 -130.5q0 -84 -15 -188.5t-42 -182.5q-99 -112 -298.5 -188t-426.5 -76z" />
    <glyph glyph-name="uniFC6E.rlig" unicode="&#xfe92;&#xfef0;" horiz-adv-x="2043" 
d="M664 -559q-129 0 -231 30.5t-168 82.5t-109.5 124.5t-61.5 152t-18 169.5q0 220 96 477l84 -24q-51 -173 -51 -283q0 -385 493 -385q183 0 362 54.5t279 137.5q-51 22 -223 48l-137 22q-124 21 -184 79.5t-60 170.5q0 138 79 272.5t210.5 221t271.5 86.5q112 0 206 -67.5
t194 -223.5l49 -82q63 -101 129.5 -140.5t169.5 -39.5v-267l-59 -57q-143 0 -243 65.5t-204 229.5l-49 82q-69 108 -131 151t-156 43q-72 0 -148.5 -25t-123.5 -59.5t-47 -62.5q0 -23 29.5 -34t117.5 -23l137 -23q166 -27 222.5 -72.5t56.5 -156.5q0 -82 -15.5 -192
t-41.5 -193q-97 -122 -306.5 -205.5t-418.5 -83.5zM1303 -707l159 166h23l166 -166l-160 -163h-23z" />
    <glyph glyph-name="uniFE92FB8B.rlig" unicode="&#xfe92;&#xfb8b;" horiz-adv-x="1357" 
d="M238 1360l141 143h20l144 -143l-142 -146h-20zM80 1069l160 166h22l137 -137l131 137h23l166 -166l-160 -164h-22l-138 135l-131 -135h-22zM-111 -317v81q329 89 488.5 187.5t159.5 212.5q0 63 -65.5 147.5t-184.5 177.5l121 269h81q124 -160 244 -160q69 0 116 51
t95 191l29 80h80l61 -345q26 -148 77.5 -199.5t166.5 -51.5v-267l-58 -57q-88 0 -145.5 19.5t-101 73t-71.5 137t-54 221.5l-13 71q-30 -131 -86.5 -189.5t-142.5 -58.5q-23 0 -51 7q-8 -177 -88.5 -375.5t-231.5 -397.5zM737 -307l160 166h23l165 -166l-159 -164h-23z" />
    <glyph glyph-name="uniFC6D.rlig" unicode="&#xfe92;&#xfee6;" horiz-adv-x="1982" 
d="M571 -397q-233 0 -364 129.5t-131 361.5q0 186 86 424l78 -24q-35 -128 -35 -222q0 -325 401 -325q144 0 276.5 45t231.5 127q-42 141 -205 370l123 269h80q126 -160 248 -160q68 0 113.5 50.5t95.5 191.5l26 80h82l60 -345q26 -148 78 -199.5t167 -51.5v-267l-59 -57
q-116 0 -184 39.5t-110.5 134.5t-76.5 277l-14 73q-29 -132 -84.5 -191t-142.5 -59q-47 0 -88 21q2 -23 2 -64q0 -189 -62 -378q-107 -118 -263.5 -184t-328.5 -66zM395 643l160 166h23l165 -166l-159 -164h-23zM1421 -307l160 166h23l165 -166l-159 -164h-23z" />
    <glyph glyph-name="uniFC6A.rlig" unicode="&#xfe92;&#xfeae;" horiz-adv-x="1357" 
d="M-111 -317v81q329 89 488.5 187.5t159.5 212.5q0 63 -65.5 147.5t-184.5 177.5l121 269h81q124 -160 244 -160q69 0 116 51t95 191l29 80h80l61 -345q26 -148 77.5 -199.5t166.5 -51.5v-267l-58 -57q-88 0 -145.5 19.5t-101 73t-71.5 137t-54 221.5l-13 71
q-30 -131 -86.5 -189.5t-142.5 -58.5q-23 0 -51 7q-8 -177 -88.5 -375.5t-231.5 -397.5zM737 -307l160 166h23l165 -166l-159 -164h-23z" />
    <glyph glyph-name="uniFE92FB8D.rlig" unicode="&#xfe92;&#xfb8d;" horiz-adv-x="1357" 
d="M66 1047v20h139q17 25 55 74l-20 209q-67 99 49 178h41v-76l47 -66v-4l-47 -30v-131q85 88 170 88q66 0 111.5 -45t45.5 -105q0 -73 -45 -174q-120 -53 -307 -53h-80zM459 1169q-51 0 -93 -23.5t-87 -78.5h38q155 0 271 27q-10 39 -46 57t-83 18zM-111 -317v81
q329 89 488.5 187.5t159.5 212.5q0 63 -65.5 147.5t-184.5 177.5l121 269h81q124 -160 244 -160q69 0 116 51t95 191l29 80h80l61 -345q26 -148 77.5 -199.5t166.5 -51.5v-267l-58 -57q-88 0 -145.5 19.5t-101 73t-71.5 137t-54 221.5l-13 71q-30 -131 -86.5 -189.5
t-142.5 -58.5q-23 0 -51 7q-8 -177 -88.5 -375.5t-231.5 -397.5zM737 -307l160 166h23l165 -166l-159 -164h-23z" />
    <glyph glyph-name="uniFC6F.rlig" unicode="&#xfe92;&#xfef2;" horiz-adv-x="2043" 
d="M664 -559q-129 0 -231 30.5t-168 82.5t-109.5 124.5t-61.5 152t-18 169.5q0 220 96 477l84 -24q-51 -173 -51 -283q0 -385 493 -385q183 0 362 54.5t279 137.5q-51 22 -223 48l-137 22q-124 21 -184 79.5t-60 170.5q0 138 79 272.5t210.5 221t271.5 86.5q112 0 206 -67.5
t194 -223.5l49 -82q63 -101 129.5 -140.5t169.5 -39.5v-267l-59 -57q-143 0 -243 65.5t-204 229.5l-49 82q-69 108 -131 151t-156 43q-72 0 -148.5 -25t-123.5 -59.5t-47 -62.5q0 -23 29.5 -34t117.5 -23l137 -23q166 -27 222.5 -72.5t56.5 -156.5q0 -82 -15.5 -192
t-41.5 -193q-97 -122 -306.5 -205.5t-418.5 -83.5zM1303 -707l159 166h23l166 -166l-160 -163h-23zM449 -866l159 166h23l137 -138l131 138h23l165 -166l-159 -164h-23l-137 135l-131 -135h-23z" />
    <glyph glyph-name="uniFE92FE8A.rlig" unicode="&#xfe92;&#xfe8a;" horiz-adv-x="2043" 
d="M27 629l116 86q-32 24 -53.5 58.5t-21.5 70.5q0 81 76 161t157 80q57 0 87 -28.5t30 -69.5q0 -56 -29 -102l-141 53q-42 -8 -75.5 -27.5t-33.5 -38.5q0 -36 86 -54.5t172 -6.5l82 12l6 -8l-30 -162l-428 -69v45zM664 -559q-129 0 -231 30.5t-168 82.5t-109.5 124.5
t-61.5 152t-18 169.5q0 220 96 477l84 -24q-51 -173 -51 -283q0 -385 493 -385q183 0 362 54.5t279 137.5q-51 22 -223 48l-137 22q-124 21 -184 79.5t-60 170.5q0 138 79 272.5t210.5 221t271.5 86.5q112 0 206 -67.5t194 -223.5l49 -82q63 -101 129.5 -140.5t169.5 -39.5
v-267l-59 -57q-143 0 -243 65.5t-204 229.5l-49 82q-69 108 -131 151t-156 43q-72 0 -148.5 -25t-123.5 -59.5t-47 -62.5q0 -23 29.5 -34t117.5 -23l137 -23q166 -27 222.5 -72.5t56.5 -156.5q0 -82 -15.5 -192t-41.5 -193q-97 -122 -306.5 -205.5t-418.5 -83.5zM1303 -707
l159 166h23l166 -166l-160 -163h-23z" />
    <glyph glyph-name="uniFC6B.rlig" unicode="&#xfe92;&#xfeb0;" horiz-adv-x="1357" 
d="M217 1069l160 166h22l166 -166l-159 -164h-23zM-111 -317v81q329 89 488.5 187.5t159.5 212.5q0 63 -65.5 147.5t-184.5 177.5l121 269h81q124 -160 244 -160q69 0 116 51t95 191l29 80h80l61 -345q26 -148 77.5 -199.5t166.5 -51.5v-267l-58 -57q-88 0 -145.5 19.5
t-101 73t-71.5 137t-54 221.5l-13 71q-30 -131 -86.5 -189.5t-142.5 -58.5q-23 0 -51 7q-8 -177 -88.5 -375.5t-231.5 -397.5zM737 -307l160 166h23l165 -166l-159 -164h-23z" />
    <glyph glyph-name="uniFD23.rlig" unicode="&#xfec0;&#xfef0;" horiz-adv-x="3094" 
d="M2105 1231l160 166h23l166 -166l-160 -164h-23zM664 -559q-129 0 -231 30.5t-168 82.5t-109.5 124.5t-61.5 152t-18 169.5q0 220 96 477l84 -24q-51 -173 -51 -283q0 -385 493 -385q183 0 362 54.5t279 137.5q-51 22 -223 48l-121 18q-136 24 -198 83t-62 171
q0 138 79 272.5t210.5 221t271.5 86.5q112 0 206 -67t194 -224l49 -82q69 -106 119 -146q218 307 376 434.5t320 127.5q161 0 271 -109.5t110 -257.5q0 -97 -33 -209q95 -20 187 -20v-269l-60 -55q-143 0 -291 92q-133 -61 -315.5 -95t-380.5 -34q-84 0 -149 14.5t-111.5 37
t-91.5 68.5t-77 90.5t-81 121.5l-49 82q-69 108 -131 151t-156 43q-72 0 -148.5 -25t-123.5 -59.5t-47 -62.5q0 -23 29.5 -34t117.5 -23l137 -23q166 -27 222.5 -72.5t56.5 -156.5q0 -82 -15.5 -192t-41.5 -193q-97 -122 -306.5 -205.5t-418.5 -83.5zM2458 596
q-142 0 -263 -65.5t-258 -219.5q63 -24 170 -24q204 0 396 30.5t331 85.5q-50 86 -158 139.5t-218 53.5z" />
    <glyph glyph-name="uniFEC0FB8B.rlig" unicode="&#xfec0;&#xfb8b;" horiz-adv-x="2459" 
d="M1473 1235l159 166h23l166 -166l-160 -164h-23zM367 1190l141 143h20l144 -143l-142 -146h-20zM209 899l160 166h22l137 -137l131 137h23l166 -166l-160 -164h-22l-138 135l-131 -135h-22zM-111 -317v81q329 91 488.5 198t159.5 237l-105 118l121 271l467 86l14 -6v-277
q61 -57 162 -80q232 336 397.5 473.5t333.5 137.5q105 0 193.5 -51.5t138 -135t49.5 -178.5q0 -101 -33 -213q92 -20 187 -20v-269l-60 -55q-143 0 -291 92q-130 -61 -299 -95t-354 -34q-267 0 -397 79t-187 275l-241 -45q-8 -174 -88 -370t-230 -394zM1827 598
q-149 0 -272 -69t-265 -234q73 -8 193 -8q428 0 717 119q-48 85 -155 138.5t-218 53.5z" />
    <glyph glyph-name="uniFD2C.rlig" unicode="&#xfec0;&#xfeae;" horiz-adv-x="2459" 
d="M1473 1235l159 166h23l166 -166l-160 -164h-23zM-111 -317v81q329 91 488.5 198t159.5 237l-105 118l121 271l467 86l14 -6v-277q61 -57 162 -80q232 336 397.5 473.5t333.5 137.5q105 0 193.5 -51.5t138 -135t49.5 -178.5q0 -101 -33 -213q92 -20 187 -20v-269l-60 -55
q-143 0 -291 92q-130 -61 -299 -95t-354 -34q-267 0 -397 79t-187 275l-241 -45q-8 -174 -88 -370t-230 -394zM1827 598q-149 0 -272 -69t-265 -234q73 -8 193 -8q428 0 717 119q-48 85 -155 138.5t-218 53.5z" />
    <glyph glyph-name="uniFEC0FB8D.rlig" unicode="&#xfec0;&#xfb8d;" horiz-adv-x="2459" 
d="M1473 1235l159 166h23l166 -166l-160 -164h-23zM195 877v20h139q17 25 55 74l-20 209q-67 99 49 178h41v-76l47 -65v-5l-47 -30v-131q85 88 170 88q66 0 111.5 -45t45.5 -105q0 -73 -45 -174q-120 -53 -307 -53h-80zM588 999q-51 0 -93 -23.5t-87 -78.5h38q155 0 271 27
q-10 39 -46 57t-83 18zM-111 -317v81q329 91 488.5 198t159.5 237l-105 118l121 271l467 86l14 -6v-277q61 -57 162 -80q232 336 397.5 473.5t333.5 137.5q105 0 193.5 -51.5t138 -135t49.5 -178.5q0 -101 -33 -213q92 -20 187 -20v-269l-60 -55q-143 0 -291 92
q-130 -61 -299 -95t-354 -34q-267 0 -397 79t-187 275l-241 -45q-8 -174 -88 -370t-230 -394zM1827 598q-149 0 -272 -69t-265 -234q73 -8 193 -8q428 0 717 119q-48 85 -155 138.5t-218 53.5z" />
    <glyph glyph-name="uniFD24.rlig" unicode="&#xfec0;&#xfef2;" horiz-adv-x="3094" 
d="M2105 1231l160 166h23l166 -166l-160 -164h-23zM664 -559q-129 0 -231 30.5t-168 82.5t-109.5 124.5t-61.5 152t-18 169.5q0 220 96 477l84 -24q-51 -173 -51 -283q0 -385 493 -385q183 0 362 54.5t279 137.5q-51 22 -223 48l-121 18q-136 24 -198 83t-62 171
q0 138 79 272.5t210.5 221t271.5 86.5q112 0 206 -67t194 -224l49 -82q69 -106 119 -146q218 307 376 434.5t320 127.5q161 0 271 -109.5t110 -257.5q0 -97 -33 -209q95 -20 187 -20v-269l-60 -55q-143 0 -291 92q-133 -61 -315.5 -95t-380.5 -34q-84 0 -149 14.5t-111.5 37
t-91.5 68.5t-77 90.5t-81 121.5l-49 82q-69 108 -131 151t-156 43q-72 0 -148.5 -25t-123.5 -59.5t-47 -62.5q0 -23 29.5 -34t117.5 -23l137 -23q166 -27 222.5 -72.5t56.5 -156.5q0 -82 -15.5 -192t-41.5 -193q-97 -122 -306.5 -205.5t-418.5 -83.5zM2458 596
q-142 0 -263 -65.5t-258 -219.5q63 -24 170 -24q204 0 396 30.5t331 85.5q-50 86 -158 139.5t-218 53.5zM449 -858l159 166h23l137 -137l131 137h23l165 -166l-159 -164h-23l-137 135l-131 -135h-23z" />
    <glyph glyph-name="uniFEC0FE8A.rlig" unicode="&#xfec0;&#xfe8a;" horiz-adv-x="3094" 
d="M2105 1231l160 166h23l166 -166l-160 -164h-23zM27 629l116 86q-32 24 -53.5 58.5t-21.5 70.5q0 81 76 161t157 80q57 0 87 -28.5t30 -69.5q0 -56 -29 -102l-141 53q-42 -8 -75.5 -27.5t-33.5 -38.5q0 -36 86 -54.5t172 -6.5l82 12l6 -8l-30 -162l-428 -69v45zM664 -559
q-129 0 -231 30.5t-168 82.5t-109.5 124.5t-61.5 152t-18 169.5q0 220 96 477l84 -24q-51 -173 -51 -283q0 -385 493 -385q183 0 362 54.5t279 137.5q-51 22 -223 48l-121 18q-136 24 -198 83t-62 171q0 138 79 272.5t210.5 221t271.5 86.5q112 0 206 -67t194 -224l49 -82
q69 -106 119 -146q218 307 376 434.5t320 127.5q161 0 271 -109.5t110 -257.5q0 -97 -33 -209q95 -20 187 -20v-269l-60 -55q-143 0 -291 92q-133 -61 -315.5 -95t-380.5 -34q-84 0 -149 14.5t-111.5 37t-91.5 68.5t-77 90.5t-81 121.5l-49 82q-69 108 -131 151t-156 43
q-72 0 -148.5 -25t-123.5 -59.5t-47 -62.5q0 -23 29.5 -34t117.5 -23l137 -23q166 -27 222.5 -72.5t56.5 -156.5q0 -82 -15.5 -192t-41.5 -193q-97 -122 -306.5 -205.5t-418.5 -83.5zM2458 596q-142 0 -263 -65.5t-258 -219.5q63 -24 170 -24q204 0 396 30.5t331 85.5
q-50 86 -158 139.5t-218 53.5z" />
    <glyph glyph-name="uniFEC0FEB0.rlig" unicode="&#xfec0;&#xfeb0;" horiz-adv-x="2459" 
d="M1473 1235l159 166h23l166 -166l-160 -164h-23zM344 899l160 166h22l166 -166l-160 -164h-22zM-111 -317v81q329 91 488.5 198t159.5 237l-105 118l121 271l467 86l14 -6v-277q61 -57 162 -80q232 336 397.5 473.5t333.5 137.5q105 0 193.5 -51.5t138 -135t49.5 -178.5
q0 -101 -33 -213q92 -20 187 -20v-269l-60 -55q-143 0 -291 92q-130 -61 -299 -95t-354 -34q-267 0 -397 79t-187 275l-241 -45q-8 -174 -88 -370t-230 -394zM1827 598q-149 0 -272 -69t-265 -234q73 -8 193 -8q428 0 717 119q-48 85 -155 138.5t-218 53.5z" />
    <glyph glyph-name="uniFB95FEF0.rlig" unicode="&#xfb95;&#xfef0;" horiz-adv-x="2209" 
d="M1380 1368l74 158l676 262l45 -117l-786 -309zM645 -559q-124 0 -222.5 30.5t-162.5 82.5t-106 124.5t-60 152t-18 169.5q0 220 96 477l84 -24q-51 -173 -51 -283q0 -385 473 -385q187 0 368.5 43.5t299.5 120.5q-21 11 -58 18.5t-69.5 11t-106.5 9.5l-315 26l-6 13
l75 317q435 37 643 123q-68 93 -145.5 175t-214.5 206l170 366l897 351l31 -80l-123 -195l-738 -286q111 -101 195.5 -197t190.5 -240q108 -147 195 -195t243 -48v-267l-58 -57q-130 0 -219 34t-171.5 114t-194.5 239q-1 2 -4 6t-4 6h-5q-15 -91 -34 -143q-83 -45 -164 -66
q92 -38 92 -114q0 -84 -15 -188.5t-42 -182.5q-98 -110 -302 -187t-444 -77z" />
    <glyph glyph-name="uniFB95FEF2.rlig" unicode="&#xfb95;&#xfef2;" horiz-adv-x="2209" 
d="M1380 1368l74 158l676 262l45 -117l-786 -309zM645 -559q-124 0 -222.5 30.5t-162.5 82.5t-106 124.5t-60 152t-18 169.5q0 220 96 477l84 -24q-51 -173 -51 -283q0 -385 473 -385q187 0 368.5 43.5t299.5 120.5q-21 11 -58 18.5t-69.5 11t-106.5 9.5l-315 26l-6 13
l75 317q435 37 643 123q-68 93 -145.5 175t-214.5 206l170 366l897 351l31 -80l-123 -195l-738 -286q111 -101 195.5 -197t190.5 -240q108 -147 195 -195t243 -48v-267l-58 -57q-130 0 -219 34t-171.5 114t-194.5 239q-1 2 -4 6t-4 6h-5q-15 -91 -34 -143q-83 -45 -164 -66
q92 -38 92 -114q0 -84 -15 -188.5t-42 -182.5q-98 -110 -302 -187t-444 -77zM449 -858l159 166h23l137 -137l131 137h23l165 -166l-159 -164h-23l-137 135l-131 -135h-23z" />
    <glyph glyph-name="uniFB95FE8A.rlig" unicode="&#xfb95;&#xfe8a;" horiz-adv-x="2209" 
d="M1380 1368l74 158l676 262l45 -117l-786 -309zM645 -559q-124 0 -222.5 30.5t-162.5 82.5t-106 124.5t-60 152t-18 169.5q0 220 96 477l84 -24q-51 -173 -51 -283q0 -385 473 -385q187 0 368.5 43.5t299.5 120.5q-21 11 -58 18.5t-69.5 11t-106.5 9.5l-315 26l-6 13
l75 317q435 37 643 123q-68 93 -145.5 175t-214.5 206l170 366l897 351l31 -80l-123 -195l-738 -286q111 -101 195.5 -197t190.5 -240q108 -147 195 -195t243 -48v-267l-58 -57q-130 0 -219 34t-171.5 114t-194.5 239q-1 2 -4 6t-4 6h-5q-15 -91 -34 -143q-83 -45 -164 -66
q92 -38 92 -114q0 -84 -15 -188.5t-42 -182.5q-98 -110 -302 -187t-444 -77zM27 629l116 86q-32 24 -53.5 58.5t-21.5 70.5q0 81 76 161t157 80q57 0 87 -28.5t30 -69.5q0 -56 -29 -102l-141 53q-42 -8 -75.5 -27.5t-33.5 -38.5q0 -36 86 -54.5t172 -6.5l82 12l6 -8
l-30 -162l-428 -69v45z" />
    <glyph glyph-name="uniFD15.rlig" unicode="&#xfed0;&#xfef0;" horiz-adv-x="2103" 
d="M1331 1300l160 166h22l166 -166l-159 -163h-23zM666 -559q-130 0 -232.5 30.5t-168.5 82.5t-109.5 124.5t-61.5 152t-18 169.5q0 220 96 477l84 -24q-51 -173 -51 -283q0 -385 493 -385q181 0 363 47.5t293 122.5q-64 49 -242 76l-246 35l-6 14l74 301q345 86 465 149
q-85 95 -197 95l-35 71l76 203q67 42 149.5 66t161.5 24q126 0 206.5 -56.5t80.5 -162.5q0 -117 -158 -262q103 -101 199 -142.5t221 -41.5v-267l-57 -57q-156 0 -280.5 90t-280.5 318q-109 -68 -238 -115q97 -31 149 -86.5t52 -130.5q0 -84 -15 -188.5t-42 -182.5
q-99 -112 -298.5 -188t-426.5 -76z" />
    <glyph glyph-name="uniFD16.rlig" unicode="&#xfed0;&#xfef2;" horiz-adv-x="2103" 
d="M1331 1300l160 166h22l166 -166l-159 -163h-23zM666 -559q-130 0 -232.5 30.5t-168.5 82.5t-109.5 124.5t-61.5 152t-18 169.5q0 220 96 477l84 -24q-51 -173 -51 -283q0 -385 493 -385q181 0 363 47.5t293 122.5q-64 49 -242 76l-246 35l-6 14l74 301q345 86 465 149
q-85 95 -197 95l-35 71l76 203q67 42 149.5 66t161.5 24q126 0 206.5 -56.5t80.5 -162.5q0 -117 -158 -262q103 -101 199 -142.5t221 -41.5v-267l-57 -57q-156 0 -280.5 90t-280.5 318q-109 -68 -238 -115q97 -31 149 -86.5t52 -130.5q0 -84 -15 -188.5t-42 -182.5
q-99 -112 -298.5 -188t-426.5 -76zM432 -858l160 166h22l138 -137l131 137h22l166 -166l-160 -164h-22l-137 135l-131 -135h-23z" />
    <glyph glyph-name="uniFED0FE8A.rlig" unicode="&#xfed0;&#xfe8a;" horiz-adv-x="2103" 
d="M1331 1300l160 166h22l166 -166l-159 -163h-23zM27 629l116 86q-32 24 -53.5 58.5t-21.5 70.5q0 81 76 161t157 80q57 0 87 -28.5t30 -69.5q0 -56 -29 -102l-141 53q-42 -8 -75.5 -27.5t-33.5 -38.5q0 -36 86 -54.5t172 -6.5l82 12l6 -8l-30 -162l-428 -69v45zM666 -559
q-130 0 -232.5 30.5t-168.5 82.5t-109.5 124.5t-61.5 152t-18 169.5q0 220 96 477l84 -24q-51 -173 -51 -283q0 -385 493 -385q181 0 363 47.5t293 122.5q-64 49 -242 76l-246 35l-6 14l74 301q345 86 465 149q-85 95 -197 95l-35 71l76 203q67 42 149.5 66t161.5 24
q126 0 206.5 -56.5t80.5 -162.5q0 -117 -158 -262q103 -101 199 -142.5t221 -41.5v-267l-57 -57q-156 0 -280.5 90t-280.5 318q-109 -68 -238 -115q97 -31 149 -86.5t52 -130.5q0 -84 -15 -188.5t-42 -182.5q-99 -112 -298.5 -188t-426.5 -76z" />
    <glyph glyph-name="uniFD1B.rlig" unicode="&#xfea4;&#xfef0;" horiz-adv-x="2168" 
d="M664 -559q-129 0 -231 30.5t-168 82.5t-109.5 124.5t-61.5 152t-18 169.5q0 220 96 477l84 -24q-51 -173 -51 -283q0 -385 491 -385q177 0 361.5 47.5t294.5 120.5q-63 51 -244 78l-246 35l-6 14l70 285q386 98 721 145q-93 18 -230 57q-242 64 -291 64q-65 0 -93 -28.5
t-34 -100.5h-88q-6 86 -6 153q0 143 58.5 213t166.5 70q58 0 131 -18.5t273 -81.5q244 -77 318 -93q88 -18 180 -18h86l6 -8l-88 -275q-86 -10 -176 -24q30 -52 103 -74t208 -22v-267l-60 -57q-180 0 -262 88t-104 307q-199 -41 -475 -127q178 -63 178 -192
q0 -84 -15 -188.5t-42 -182.5q-97 -110 -298.5 -187t-428.5 -77z" />
    <glyph glyph-name="uniFD1C.rlig" unicode="&#xfea4;&#xfef2;" horiz-adv-x="2168" 
d="M664 -559q-129 0 -231 30.5t-168 82.5t-109.5 124.5t-61.5 152t-18 169.5q0 220 96 477l84 -24q-51 -173 -51 -283q0 -385 491 -385q177 0 361.5 47.5t294.5 120.5q-63 51 -244 78l-246 35l-6 14l70 285q386 98 721 145q-93 18 -230 57q-242 64 -291 64q-65 0 -93 -28.5
t-34 -100.5h-88q-6 86 -6 153q0 143 58.5 213t166.5 70q58 0 131 -18.5t273 -81.5q244 -77 318 -93q88 -18 180 -18h86l6 -8l-88 -275q-86 -10 -176 -24q30 -52 103 -74t208 -22v-267l-60 -57q-180 0 -262 88t-104 307q-199 -41 -475 -127q178 -63 178 -192
q0 -84 -15 -188.5t-42 -182.5q-97 -110 -298.5 -187t-428.5 -77zM432 -858l160 166h22l138 -137l131 137h22l166 -166l-160 -164h-22l-137 135l-131 -135h-23z" />
    <glyph glyph-name="uniFEA4FE8A.rlig" unicode="&#xfea4;&#xfe8a;" horiz-adv-x="2168" 
d="M27 629l116 86q-32 24 -53.5 58.5t-21.5 70.5q0 81 76 161t157 80q57 0 87 -28.5t30 -69.5q0 -56 -29 -102l-141 53q-42 -8 -75.5 -27.5t-33.5 -38.5q0 -36 86 -54.5t172 -6.5l82 12l6 -8l-30 -162l-428 -69v45zM664 -559q-129 0 -231 30.5t-168 82.5t-109.5 124.5
t-61.5 152t-18 169.5q0 220 96 477l84 -24q-51 -173 -51 -283q0 -385 491 -385q177 0 361.5 47.5t294.5 120.5q-63 51 -244 78l-246 35l-6 14l70 285q386 98 721 145q-93 18 -230 57q-242 64 -291 64q-65 0 -93 -28.5t-34 -100.5h-88q-6 86 -6 153q0 143 58.5 213t166.5 70
q58 0 131 -18.5t273 -81.5q244 -77 318 -93q88 -18 180 -18h86l6 -8l-88 -275q-86 -10 -176 -24q30 -52 103 -74t208 -22v-267l-60 -57q-180 0 -262 88t-104 307q-199 -41 -475 -127q178 -63 178 -192q0 -84 -15 -188.5t-42 -182.5q-97 -110 -298.5 -187t-428.5 -77z" />
    <glyph glyph-name="uniFD1D.rlig" unicode="&#xfea0;&#xfef0;" horiz-adv-x="2168" 
d="M664 -559q-129 0 -231 30.5t-168 82.5t-109.5 124.5t-61.5 152t-18 169.5q0 220 96 477l84 -24q-51 -173 -51 -283q0 -385 491 -385q177 0 361.5 47.5t294.5 120.5q-63 51 -244 78l-246 35l-6 14l70 285q386 98 721 145q-93 18 -230 57q-242 64 -291 64q-65 0 -93 -28.5
t-34 -100.5h-88q-6 86 -6 153q0 143 58.5 213t166.5 70q58 0 131 -18.5t273 -81.5q244 -77 318 -93q88 -18 180 -18h86l6 -8l-88 -275q-86 -10 -176 -24q30 -52 103 -74t208 -22v-267l-60 -57q-180 0 -262 88t-104 307q-199 -41 -475 -127q178 -63 178 -192
q0 -84 -15 -188.5t-42 -182.5q-97 -110 -298.5 -187t-428.5 -77zM1636 -307l160 166h23l166 -166l-160 -164h-23z" />
    <glyph glyph-name="uniFD1E.rlig" unicode="&#xfea0;&#xfef2;" horiz-adv-x="2168" 
d="M664 -559q-129 0 -231 30.5t-168 82.5t-109.5 124.5t-61.5 152t-18 169.5q0 220 96 477l84 -24q-51 -173 -51 -283q0 -385 491 -385q177 0 361.5 47.5t294.5 120.5q-63 51 -244 78l-246 35l-6 14l70 285q386 98 721 145q-93 18 -230 57q-242 64 -291 64q-65 0 -93 -28.5
t-34 -100.5h-88q-6 86 -6 153q0 143 58.5 213t166.5 70q58 0 131 -18.5t273 -81.5q244 -77 318 -93q88 -18 180 -18h86l6 -8l-88 -275q-86 -10 -176 -24q30 -52 103 -74t208 -22v-267l-60 -57q-180 0 -262 88t-104 307q-199 -41 -475 -127q178 -63 178 -192
q0 -84 -15 -188.5t-42 -182.5q-97 -110 -298.5 -187t-428.5 -77zM1636 -307l160 166h23l166 -166l-160 -164h-23zM432 -858l160 166h22l138 -137l131 137h22l166 -166l-160 -164h-22l-137 135l-131 -135h-23z" />
    <glyph glyph-name="uniFEA0FE8A.rlig" unicode="&#xfea0;&#xfe8a;" horiz-adv-x="2168" 
d="M27 629l116 86q-32 24 -53.5 58.5t-21.5 70.5q0 81 76 161t157 80q57 0 87 -28.5t30 -69.5q0 -56 -29 -102l-141 53q-42 -8 -75.5 -27.5t-33.5 -38.5q0 -36 86 -54.5t172 -6.5l82 12l6 -8l-30 -162l-428 -69v45zM664 -559q-129 0 -231 30.5t-168 82.5t-109.5 124.5
t-61.5 152t-18 169.5q0 220 96 477l84 -24q-51 -173 -51 -283q0 -385 491 -385q177 0 361.5 47.5t294.5 120.5q-63 51 -244 78l-246 35l-6 14l70 285q386 98 721 145q-93 18 -230 57q-242 64 -291 64q-65 0 -93 -28.5t-34 -100.5h-88q-6 86 -6 153q0 143 58.5 213t166.5 70
q58 0 131 -18.5t273 -81.5q244 -77 318 -93q88 -18 180 -18h86l6 -8l-88 -275q-86 -10 -176 -24q30 -52 103 -74t208 -22v-267l-60 -57q-180 0 -262 88t-104 307q-199 -41 -475 -127q178 -63 178 -192q0 -84 -15 -188.5t-42 -182.5q-97 -110 -298.5 -187t-428.5 -77z
M1636 -307l160 166h23l166 -166l-160 -164h-23z" />
    <glyph glyph-name="uniFC83.rlig" unicode="&#xfb91;&#xfef0;" horiz-adv-x="2209" 
d="M645 -559q-124 0 -222.5 30.5t-162.5 82.5t-106 124.5t-60 152t-18 169.5q0 220 96 477l84 -24q-51 -173 -51 -283q0 -385 473 -385q187 0 368.5 43.5t299.5 120.5q-21 11 -58 18.5t-69.5 11t-106.5 9.5l-315 26l-6 13l75 317q435 37 643 123q-68 93 -145.5 175
t-214.5 206l170 366l897 351l31 -80l-123 -195l-738 -286q111 -101 195.5 -197t190.5 -240q108 -147 195 -195t243 -48v-267l-58 -57q-130 0 -219 34t-171.5 114t-194.5 239q-1 2 -4 6t-4 6h-5q-15 -91 -34 -143q-83 -45 -164 -66q92 -38 92 -114q0 -84 -15 -188.5
t-42 -182.5q-98 -110 -302 -187t-444 -77z" />
    <glyph glyph-name="uniFC84.rlig" unicode="&#xfb91;&#xfef2;" horiz-adv-x="2209" 
d="M645 -559q-124 0 -222.5 30.5t-162.5 82.5t-106 124.5t-60 152t-18 169.5q0 220 96 477l84 -24q-51 -173 -51 -283q0 -385 473 -385q187 0 368.5 43.5t299.5 120.5q-21 11 -58 18.5t-69.5 11t-106.5 9.5l-315 26l-6 13l75 317q435 37 643 123q-68 93 -145.5 175
t-214.5 206l170 366l897 351l31 -80l-123 -195l-738 -286q111 -101 195.5 -197t190.5 -240q108 -147 195 -195t243 -48v-267l-58 -57q-130 0 -219 34t-171.5 114t-194.5 239q-1 2 -4 6t-4 6h-5q-15 -91 -34 -143q-83 -45 -164 -66q92 -38 92 -114q0 -84 -15 -188.5
t-42 -182.5q-98 -110 -302 -187t-444 -77zM449 -858l159 166h23l137 -137l131 137h23l165 -166l-159 -164h-23l-137 135l-131 -135h-23z" />
    <glyph glyph-name="uniFEDCFE8A.rlig" unicode="&#xfb91;&#xfe8a;" horiz-adv-x="2209" 
d="M645 -559q-124 0 -222.5 30.5t-162.5 82.5t-106 124.5t-60 152t-18 169.5q0 220 96 477l84 -24q-51 -173 -51 -283q0 -385 473 -385q187 0 368.5 43.5t299.5 120.5q-21 11 -58 18.5t-69.5 11t-106.5 9.5l-315 26l-6 13l75 317q435 37 643 123q-68 93 -145.5 175
t-214.5 206l170 366l897 351l31 -80l-123 -195l-738 -286q111 -101 195.5 -197t190.5 -240q108 -147 195 -195t243 -48v-267l-58 -57q-130 0 -219 34t-171.5 114t-194.5 239q-1 2 -4 6t-4 6h-5q-15 -91 -34 -143q-83 -45 -164 -66q92 -38 92 -114q0 -84 -15 -188.5
t-42 -182.5q-98 -110 -302 -187t-444 -77zM27 629l116 86q-32 24 -53.5 58.5t-21.5 70.5q0 81 76 161t157 80q57 0 87 -28.5t30 -69.5q0 -56 -29 -102l-141 53q-42 -8 -75.5 -27.5t-33.5 -38.5q0 -36 86 -54.5t172 -6.5l82 12l6 -8l-30 -162l-428 -69v45z" />
    <glyph glyph-name="uniFD1F.rlig" unicode="&#xfea8;&#xfef0;" horiz-adv-x="2168" 
d="M1262 1247l159 166h23l166 -166l-160 -164h-23zM664 -559q-129 0 -231 30.5t-168 82.5t-109.5 124.5t-61.5 152t-18 169.5q0 220 96 477l84 -24q-51 -173 -51 -283q0 -385 491 -385q177 0 361.5 47.5t294.5 120.5q-63 51 -244 78l-246 35l-6 14l70 285q386 98 721 145
q-93 18 -230 57q-242 64 -291 64q-65 0 -93 -28.5t-34 -100.5h-88q-6 86 -6 153q0 143 58.5 213t166.5 70q58 0 131 -18.5t273 -81.5q244 -77 318 -93q88 -18 180 -18h86l6 -8l-88 -275q-86 -10 -176 -24q30 -52 103 -74t208 -22v-267l-60 -57q-180 0 -262 88t-104 307
q-199 -41 -475 -127q178 -63 178 -192q0 -84 -15 -188.5t-42 -182.5q-97 -110 -298.5 -187t-428.5 -77z" />
    <glyph glyph-name="uniFD20.rlig" unicode="&#xfea8;&#xfef2;" horiz-adv-x="2168" 
d="M1262 1247l159 166h23l166 -166l-160 -164h-23zM664 -559q-129 0 -231 30.5t-168 82.5t-109.5 124.5t-61.5 152t-18 169.5q0 220 96 477l84 -24q-51 -173 -51 -283q0 -385 491 -385q177 0 361.5 47.5t294.5 120.5q-63 51 -244 78l-246 35l-6 14l70 285q386 98 721 145
q-93 18 -230 57q-242 64 -291 64q-65 0 -93 -28.5t-34 -100.5h-88q-6 86 -6 153q0 143 58.5 213t166.5 70q58 0 131 -18.5t273 -81.5q244 -77 318 -93q88 -18 180 -18h86l6 -8l-88 -275q-86 -10 -176 -24q30 -52 103 -74t208 -22v-267l-60 -57q-180 0 -262 88t-104 307
q-199 -41 -475 -127q178 -63 178 -192q0 -84 -15 -188.5t-42 -182.5q-97 -110 -298.5 -187t-428.5 -77zM432 -858l160 166h22l138 -137l131 137h22l166 -166l-160 -164h-22l-137 135l-131 -135h-23z" />
    <glyph glyph-name="uniFEA8FE8A.rlig" unicode="&#xfea8;&#xfe8a;" horiz-adv-x="2168" 
d="M1262 1247l159 166h23l166 -166l-160 -164h-23zM27 629l116 86q-32 24 -53.5 58.5t-21.5 70.5q0 81 76 161t157 80q57 0 87 -28.5t30 -69.5q0 -56 -29 -102l-141 53q-42 -8 -75.5 -27.5t-33.5 -38.5q0 -36 86 -54.5t172 -6.5l82 12l6 -8l-30 -162l-428 -69v45zM664 -559
q-129 0 -231 30.5t-168 82.5t-109.5 124.5t-61.5 152t-18 169.5q0 220 96 477l84 -24q-51 -173 -51 -283q0 -385 491 -385q177 0 361.5 47.5t294.5 120.5q-63 51 -244 78l-246 35l-6 14l70 285q386 98 721 145q-93 18 -230 57q-242 64 -291 64q-65 0 -93 -28.5t-34 -100.5
h-88q-6 86 -6 153q0 143 58.5 213t166.5 70q58 0 131 -18.5t273 -81.5q244 -77 318 -93q88 -18 180 -18h86l6 -8l-88 -275q-86 -10 -176 -24q30 -52 103 -74t208 -22v-267l-60 -57q-180 0 -262 88t-104 307q-199 -41 -475 -127q178 -63 178 -192q0 -84 -15 -188.5
t-42 -182.5q-97 -110 -298.5 -187t-428.5 -77z" />
    <glyph glyph-name="uniFC86.rlig" unicode="&#xfee0;&#xfef0;" horiz-adv-x="1972" 
d="M649 -559q-125 0 -224 30.5t-163.5 82.5t-107 124.5t-60.5 152t-18 169.5q0 220 96 477l84 -24q-51 -173 -51 -283q0 -385 475 -385q195 0 376 43t298 125q-63 52 -242 78l-266 41l-6 12l73 301q232 0 392 37t276 113l-29 720l127 273h80v-1026q0 -100 47 -139t166 -39
v-267l-57 -57q-170 0 -241.5 95t-88.5 339h-4q-13 -55 -39 -127q-106 -50 -213 -76q63 -26 91 -63t28 -92q0 -84 -15 -188.5t-42 -182.5q-100 -113 -302 -188.5t-440 -75.5z" />
    <glyph glyph-name="uniFC87.rlig" unicode="&#xfee0;&#xfef2;" horiz-adv-x="1972" 
d="M649 -559q-125 0 -224 30.5t-163.5 82.5t-107 124.5t-60.5 152t-18 169.5q0 220 96 477l84 -24q-51 -173 -51 -283q0 -385 475 -385q195 0 376 43t298 125q-63 52 -242 78l-266 41l-6 12l73 301q232 0 392 37t276 113l-29 720l127 273h80v-1026q0 -100 47 -139t166 -39
v-267l-57 -57q-170 0 -241.5 95t-88.5 339h-4q-13 -55 -39 -127q-106 -50 -213 -76q63 -26 91 -63t28 -92q0 -84 -15 -188.5t-42 -182.5q-100 -113 -302 -188.5t-440 -75.5zM449 -858l159 166h23l137 -137l131 137h23l165 -166l-159 -164h-23l-137 135l-131 -135h-23z" />
    <glyph glyph-name="uniFEE0FE8A.rlig" unicode="&#xfee0;&#xfe8a;" horiz-adv-x="1972" 
d="M649 -559q-125 0 -224 30.5t-163.5 82.5t-107 124.5t-60.5 152t-18 169.5q0 220 96 477l84 -24q-51 -173 -51 -283q0 -385 475 -385q195 0 376 43t298 125q-63 52 -242 78l-266 41l-6 12l73 301q232 0 392 37t276 113l-29 720l127 273h80v-1026q0 -100 47 -139t166 -39
v-267l-57 -57q-170 0 -241.5 95t-88.5 339h-4q-13 -55 -39 -127q-106 -50 -213 -76q63 -26 91 -63t28 -92q0 -84 -15 -188.5t-42 -182.5q-100 -113 -302 -188.5t-440 -75.5zM27 629l116 86q-32 24 -53.5 58.5t-21.5 70.5q0 81 76 161t157 80q57 0 87 -28.5t30 -69.5
q0 -56 -29 -102l-141 53q-42 -8 -75.5 -27.5t-33.5 -38.5q0 -36 86 -54.5t172 -6.5l82 12l6 -8l-30 -162l-428 -69v45z" />
    <glyph glyph-name="uniFC8E.rlig" unicode="&#xfee8;&#xfef0;" horiz-adv-x="2043" 
d="M1124 1188l160 166h23l166 -166l-160 -164h-23zM664 -559q-129 0 -231 30.5t-168 82.5t-109.5 124.5t-61.5 152t-18 169.5q0 220 96 477l84 -24q-51 -173 -51 -283q0 -385 493 -385q183 0 362 54.5t279 137.5q-51 22 -223 48l-137 22q-124 21 -184 79.5t-60 170.5
q0 138 79 272.5t210.5 221t271.5 86.5q112 0 206 -67.5t194 -223.5l49 -82q63 -101 129.5 -140.5t169.5 -39.5v-267l-59 -57q-143 0 -243 65.5t-204 229.5l-49 82q-69 108 -131 151t-156 43q-72 0 -148.5 -25t-123.5 -59.5t-47 -62.5q0 -23 29.5 -34t117.5 -23l137 -23
q166 -27 222.5 -72.5t56.5 -156.5q0 -82 -15.5 -192t-41.5 -193q-97 -122 -306.5 -205.5t-418.5 -83.5z" />
    <glyph glyph-name="uniFEE8FB8B.rlig" unicode="&#xfee8;&#xfb8b;" horiz-adv-x="1357" 
d="M238 1360l141 143h20l144 -143l-142 -146h-20zM836 1231l159 166h23l166 -166l-160 -164h-23zM80 1069l160 166h22l137 -137l131 137h23l166 -166l-160 -164h-22l-138 135l-131 -135h-22zM-111 -317v81q329 89 488.5 187.5t159.5 212.5q0 63 -65.5 147.5t-184.5 177.5
l121 269h81q124 -160 244 -160q69 0 116 51t95 191l29 80h80l61 -345q26 -148 77.5 -199.5t166.5 -51.5v-267l-58 -57q-88 0 -145.5 19.5t-101 73t-71.5 137t-54 221.5l-13 71q-30 -131 -86.5 -189.5t-142.5 -58.5q-23 0 -51 7q-8 -177 -88.5 -375.5t-231.5 -397.5z" />
    <glyph glyph-name="uniFC8D.rlig" unicode="&#xfee8;&#xfee6;" horiz-adv-x="1982" 
d="M1421 1231l160 166h23l165 -166l-159 -164h-23zM571 -397q-233 0 -364 129.5t-131 361.5q0 186 86 424l78 -24q-35 -128 -35 -222q0 -325 401 -325q144 0 276.5 45t231.5 127q-42 141 -205 370l123 269h80q126 -160 248 -160q68 0 113.5 50.5t95.5 191.5l26 80h82
l60 -345q26 -148 78 -199.5t167 -51.5v-267l-59 -57q-116 0 -184 39.5t-110.5 134.5t-76.5 277l-14 73q-29 -132 -84.5 -191t-142.5 -59q-47 0 -88 21q2 -23 2 -64q0 -189 -62 -378q-107 -118 -263.5 -184t-328.5 -66zM395 643l160 166h23l165 -166l-159 -164h-23z" />
    <glyph glyph-name="uniFC8A.rlig" unicode="&#xfee8;&#xfeae;" horiz-adv-x="1357" 
d="M836 1231l159 166h23l166 -166l-160 -164h-23zM-111 -317v81q329 89 488.5 187.5t159.5 212.5q0 63 -65.5 147.5t-184.5 177.5l121 269h81q124 -160 244 -160q69 0 116 51t95 191l29 80h80l61 -345q26 -148 77.5 -199.5t166.5 -51.5v-267l-58 -57q-88 0 -145.5 19.5
t-101 73t-71.5 137t-54 221.5l-13 71q-30 -131 -86.5 -189.5t-142.5 -58.5q-23 0 -51 7q-8 -177 -88.5 -375.5t-231.5 -397.5z" />
    <glyph glyph-name="uniFEE8FB8D.rlig" unicode="&#xfee8;&#xfb8d;" horiz-adv-x="1357" 
d="M66 1047v20h139q17 25 55 74l-20 209q-67 99 49 178h41v-76l47 -66v-4l-47 -30v-131q85 88 170 88q66 0 111.5 -45t45.5 -105q0 -73 -45 -174q-120 -53 -307 -53h-80zM836 1231l159 166h23l166 -166l-160 -164h-23zM459 1169q-51 0 -93 -23.5t-87 -78.5h38q155 0 271 27
q-10 39 -46 57t-83 18zM-111 -317v81q329 89 488.5 187.5t159.5 212.5q0 63 -65.5 147.5t-184.5 177.5l121 269h81q124 -160 244 -160q69 0 116 51t95 191l29 80h80l61 -345q26 -148 77.5 -199.5t166.5 -51.5v-267l-58 -57q-88 0 -145.5 19.5t-101 73t-71.5 137t-54 221.5
l-13 71q-30 -131 -86.5 -189.5t-142.5 -58.5q-23 0 -51 7q-8 -177 -88.5 -375.5t-231.5 -397.5z" />
    <glyph glyph-name="uniFC8F.rlig" unicode="&#xfee8;&#xfef2;" horiz-adv-x="2043" 
d="M1124 1188l160 166h23l166 -166l-160 -164h-23zM664 -559q-129 0 -231 30.5t-168 82.5t-109.5 124.5t-61.5 152t-18 169.5q0 220 96 477l84 -24q-51 -173 -51 -283q0 -385 493 -385q183 0 362 54.5t279 137.5q-51 22 -223 48l-137 22q-124 21 -184 79.5t-60 170.5
q0 138 79 272.5t210.5 221t271.5 86.5q112 0 206 -67.5t194 -223.5l49 -82q63 -101 129.5 -140.5t169.5 -39.5v-267l-59 -57q-143 0 -243 65.5t-204 229.5l-49 82q-69 108 -131 151t-156 43q-72 0 -148.5 -25t-123.5 -59.5t-47 -62.5q0 -23 29.5 -34t117.5 -23l137 -23
q166 -27 222.5 -72.5t56.5 -156.5q0 -82 -15.5 -192t-41.5 -193q-97 -122 -306.5 -205.5t-418.5 -83.5zM449 -866l159 166h23l137 -138l131 138h23l165 -166l-159 -164h-23l-137 135l-131 -135h-23z" />
    <glyph glyph-name="uniFEE8FE8A.rlig" unicode="&#xfee8;&#xfe8a;" horiz-adv-x="2043" 
d="M1124 1188l160 166h23l166 -166l-160 -164h-23zM27 629l116 86q-32 24 -53.5 58.5t-21.5 70.5q0 81 76 161t157 80q57 0 87 -28.5t30 -69.5q0 -56 -29 -102l-141 53q-42 -8 -75.5 -27.5t-33.5 -38.5q0 -36 86 -54.5t172 -6.5l82 12l6 -8l-30 -162l-428 -69v45zM664 -559
q-129 0 -231 30.5t-168 82.5t-109.5 124.5t-61.5 152t-18 169.5q0 220 96 477l84 -24q-51 -173 -51 -283q0 -385 493 -385q183 0 362 54.5t279 137.5q-51 22 -223 48l-137 22q-124 21 -184 79.5t-60 170.5q0 138 79 272.5t210.5 221t271.5 86.5q112 0 206 -67.5t194 -223.5
l49 -82q63 -101 129.5 -140.5t169.5 -39.5v-267l-59 -57q-143 0 -243 65.5t-204 229.5l-49 82q-69 108 -131 151t-156 43q-72 0 -148.5 -25t-123.5 -59.5t-47 -62.5q0 -23 29.5 -34t117.5 -23l137 -23q166 -27 222.5 -72.5t56.5 -156.5q0 -82 -15.5 -192t-41.5 -193
q-97 -122 -306.5 -205.5t-418.5 -83.5z" />
    <glyph glyph-name="uniFC8B.rlig" unicode="&#xfee8;&#xfeb0;" horiz-adv-x="1357" 
d="M836 1231l159 166h23l166 -166l-160 -164h-23zM217 1069l160 166h22l166 -166l-159 -164h-23zM-111 -317v81q329 89 488.5 187.5t159.5 212.5q0 63 -65.5 147.5t-184.5 177.5l121 269h81q124 -160 244 -160q69 0 116 51t95 191l29 80h80l61 -345q26 -148 77.5 -199.5
t166.5 -51.5v-267l-58 -57q-88 0 -145.5 19.5t-101 73t-71.5 137t-54 221.5l-13 71q-30 -131 -86.5 -189.5t-142.5 -58.5q-23 0 -51 7q-8 -177 -88.5 -375.5t-231.5 -397.5z" />
    <glyph glyph-name="uniFB59FEF0.rlig" unicode="&#xfb59;&#xfef0;" horiz-adv-x="2043" 
d="M664 -559q-129 0 -231 30.5t-168 82.5t-109.5 124.5t-61.5 152t-18 169.5q0 220 96 477l84 -24q-51 -173 -51 -283q0 -385 493 -385q183 0 362 54.5t279 137.5q-51 22 -223 48l-137 22q-124 21 -184 79.5t-60 170.5q0 138 79 272.5t210.5 221t271.5 86.5q112 0 206 -67.5
t194 -223.5l49 -82q63 -101 129.5 -140.5t169.5 -39.5v-267l-59 -57q-143 0 -243 65.5t-204 229.5l-49 82q-69 108 -131 151t-156 43q-72 0 -148.5 -25t-123.5 -59.5t-47 -62.5q0 -23 29.5 -34t117.5 -23l137 -23q166 -27 222.5 -72.5t56.5 -156.5q0 -82 -15.5 -192
t-41.5 -193q-97 -122 -306.5 -205.5t-418.5 -83.5zM1157 -707l160 166h22l138 -137l131 137h22l166 -166l-160 -163h-22l-137 135l-131 -135h-23zM1325 -981l141 145h23l143 -145l-143 -145h-21z" />
    <glyph glyph-name="uniFB59FB8B.rlig" unicode="&#xfb59;&#xfb8b;" horiz-adv-x="1357" 
d="M238 1360l141 143h20l144 -143l-142 -146h-20zM80 1069l160 166h22l137 -137l131 137h23l166 -166l-160 -164h-22l-138 135l-131 -135h-22zM-111 -317v81q329 89 488.5 187.5t159.5 212.5q0 63 -65.5 147.5t-184.5 177.5l121 269h81q124 -160 244 -160q69 0 116 51
t95 191l29 80h80l61 -345q26 -148 77.5 -199.5t166.5 -51.5v-267l-58 -57q-88 0 -145.5 19.5t-101 73t-71.5 137t-54 221.5l-13 71q-30 -131 -86.5 -189.5t-142.5 -58.5q-23 0 -51 7q-8 -177 -88.5 -375.5t-231.5 -397.5zM592 -307l160 166h22l137 -138l131 138h23l166 -166
l-160 -164h-22l-138 135l-131 -135h-22zM760 -582l141 146h23l143 -146l-143 -145h-21z" />
    <glyph glyph-name="uniFB59FEE6.rlig" unicode="&#xfb59;&#xfee6;" horiz-adv-x="1982" 
d="M571 -397q-233 0 -364 129.5t-131 361.5q0 186 86 424l78 -24q-35 -128 -35 -222q0 -325 401 -325q144 0 276.5 45t231.5 127q-42 141 -205 370l123 269h80q126 -160 248 -160q68 0 113.5 50.5t95.5 191.5l26 80h82l60 -345q26 -148 78 -199.5t167 -51.5v-267l-59 -57
q-116 0 -184 39.5t-110.5 134.5t-76.5 277l-14 73q-29 -132 -84.5 -191t-142.5 -59q-47 0 -88 21q2 -23 2 -64q0 -189 -62 -378q-107 -118 -263.5 -184t-328.5 -66zM395 643l160 166h23l165 -166l-159 -164h-23zM1276 -307l160 166h22l137 -138l131 138h23l166 -166
l-160 -164h-22l-138 135l-131 -135h-22zM1444 -582l141 146h23l143 -146l-143 -145h-21z" />
    <glyph glyph-name="uniFB59FEAE.rlig" unicode="&#xfb59;&#xfeae;" horiz-adv-x="1357" 
d="M-111 -317v81q329 89 488.5 187.5t159.5 212.5q0 63 -65.5 147.5t-184.5 177.5l121 269h81q124 -160 244 -160q69 0 116 51t95 191l29 80h80l61 -345q26 -148 77.5 -199.5t166.5 -51.5v-267l-58 -57q-88 0 -145.5 19.5t-101 73t-71.5 137t-54 221.5l-13 71
q-30 -131 -86.5 -189.5t-142.5 -58.5q-23 0 -51 7q-8 -177 -88.5 -375.5t-231.5 -397.5zM592 -307l160 166h22l137 -138l131 138h23l166 -166l-160 -164h-22l-138 135l-131 -135h-22zM760 -582l141 146h23l143 -146l-143 -145h-21z" />
    <glyph glyph-name="uniFB59FB8D.rlig" unicode="&#xfb59;&#xfb8d;" horiz-adv-x="1357" 
d="M66 1047v20h139q17 25 55 74l-20 209q-67 99 49 178h41v-76l47 -66v-4l-47 -30v-131q85 88 170 88q66 0 111.5 -45t45.5 -105q0 -73 -45 -174q-120 -53 -307 -53h-80zM459 1169q-51 0 -93 -23.5t-87 -78.5h38q155 0 271 27q-10 39 -46 57t-83 18zM-111 -317v81
q329 89 488.5 187.5t159.5 212.5q0 63 -65.5 147.5t-184.5 177.5l121 269h81q124 -160 244 -160q69 0 116 51t95 191l29 80h80l61 -345q26 -148 77.5 -199.5t166.5 -51.5v-267l-58 -57q-88 0 -145.5 19.5t-101 73t-71.5 137t-54 221.5l-13 71q-30 -131 -86.5 -189.5
t-142.5 -58.5q-23 0 -51 7q-8 -177 -88.5 -375.5t-231.5 -397.5zM592 -307l160 166h22l137 -138l131 138h23l166 -166l-160 -164h-22l-138 135l-131 -135h-22zM760 -582l141 146h23l143 -146l-143 -145h-21z" />
    <glyph glyph-name="uniFB59FEF2.rlig" unicode="&#xfb59;&#xfef2;" horiz-adv-x="2043" 
d="M664 -559q-129 0 -231 30.5t-168 82.5t-109.5 124.5t-61.5 152t-18 169.5q0 220 96 477l84 -24q-51 -173 -51 -283q0 -385 493 -385q183 0 362 54.5t279 137.5q-51 22 -223 48l-137 22q-124 21 -184 79.5t-60 170.5q0 138 79 272.5t210.5 221t271.5 86.5q112 0 206 -67.5
t194 -223.5l49 -82q63 -101 129.5 -140.5t169.5 -39.5v-267l-59 -57q-143 0 -243 65.5t-204 229.5l-49 82q-69 108 -131 151t-156 43q-72 0 -148.5 -25t-123.5 -59.5t-47 -62.5q0 -23 29.5 -34t117.5 -23l137 -23q166 -27 222.5 -72.5t56.5 -156.5q0 -82 -15.5 -192
t-41.5 -193q-97 -122 -306.5 -205.5t-418.5 -83.5zM1157 -707l160 166h22l138 -137l131 137h22l166 -166l-160 -163h-22l-137 135l-131 -135h-23zM449 -866l159 166h23l137 -138l131 138h23l165 -166l-159 -164h-23l-137 135l-131 -135h-23zM1325 -981l141 145h23l143 -145
l-143 -145h-21z" />
    <glyph glyph-name="uniFB59FE8A.rlig" unicode="&#xfb59;&#xfe8a;" horiz-adv-x="2043" 
d="M27 629l116 86q-32 24 -53.5 58.5t-21.5 70.5q0 81 76 161t157 80q57 0 87 -28.5t30 -69.5q0 -56 -29 -102l-141 53q-42 -8 -75.5 -27.5t-33.5 -38.5q0 -36 86 -54.5t172 -6.5l82 12l6 -8l-30 -162l-428 -69v45zM664 -559q-129 0 -231 30.5t-168 82.5t-109.5 124.5
t-61.5 152t-18 169.5q0 220 96 477l84 -24q-51 -173 -51 -283q0 -385 493 -385q183 0 362 54.5t279 137.5q-51 22 -223 48l-137 22q-124 21 -184 79.5t-60 170.5q0 138 79 272.5t210.5 221t271.5 86.5q112 0 206 -67.5t194 -223.5l49 -82q63 -101 129.5 -140.5t169.5 -39.5
v-267l-59 -57q-143 0 -243 65.5t-204 229.5l-49 82q-69 108 -131 151t-156 43q-72 0 -148.5 -25t-123.5 -59.5t-47 -62.5q0 -23 29.5 -34t117.5 -23l137 -23q166 -27 222.5 -72.5t56.5 -156.5q0 -82 -15.5 -192t-41.5 -193q-97 -122 -306.5 -205.5t-418.5 -83.5zM1157 -707
l160 166h22l138 -137l131 137h22l166 -166l-160 -163h-22l-137 135l-131 -135h-23zM1325 -981l141 145h23l143 -145l-143 -145h-21z" />
    <glyph glyph-name="uniFB59FEB0.rlig" unicode="&#xfb59;&#xfeb0;" horiz-adv-x="1357" 
d="M217 1069l160 166h22l166 -166l-159 -164h-23zM-111 -317v81q329 89 488.5 187.5t159.5 212.5q0 63 -65.5 147.5t-184.5 177.5l121 269h81q124 -160 244 -160q69 0 116 51t95 191l29 80h80l61 -345q26 -148 77.5 -199.5t166.5 -51.5v-267l-58 -57q-88 0 -145.5 19.5
t-101 73t-71.5 137t-54 221.5l-13 71q-30 -131 -86.5 -189.5t-142.5 -58.5q-23 0 -51 7q-8 -177 -88.5 -375.5t-231.5 -397.5zM592 -307l160 166h22l137 -138l131 138h23l166 -166l-160 -164h-22l-138 135l-131 -135h-22zM760 -582l141 146h23l143 -146l-143 -145h-21z" />
    <glyph glyph-name="uniFD21.rlig" unicode="&#xfebc;&#xfef0;" horiz-adv-x="3094" 
d="M664 -559q-129 0 -231 30.5t-168 82.5t-109.5 124.5t-61.5 152t-18 169.5q0 220 96 477l84 -24q-51 -173 -51 -283q0 -385 493 -385q183 0 362 54.5t279 137.5q-51 22 -223 48l-121 18q-136 24 -198 83t-62 171q0 138 79 272.5t210.5 221t271.5 86.5q112 0 206 -67
t194 -224l49 -82q69 -106 119 -146q218 307 376 434.5t320 127.5q161 0 271 -109.5t110 -257.5q0 -97 -33 -209q95 -20 187 -20v-269l-60 -55q-143 0 -291 92q-133 -61 -315.5 -95t-380.5 -34q-84 0 -149 14.5t-111.5 37t-91.5 68.5t-77 90.5t-81 121.5l-49 82
q-69 108 -131 151t-156 43q-72 0 -148.5 -25t-123.5 -59.5t-47 -62.5q0 -23 29.5 -34t117.5 -23l137 -23q166 -27 222.5 -72.5t56.5 -156.5q0 -82 -15.5 -192t-41.5 -193q-97 -122 -306.5 -205.5t-418.5 -83.5zM2458 596q-142 0 -263 -65.5t-258 -219.5q63 -24 170 -24
q204 0 396 30.5t331 85.5q-50 86 -158 139.5t-218 53.5z" />
    <glyph glyph-name="uniFEBCFB8B.rlig" unicode="&#xfebc;&#xfb8b;" horiz-adv-x="2459" 
d="M367 1190l141 143h20l144 -143l-142 -146h-20zM209 899l160 166h22l137 -137l131 137h23l166 -166l-160 -164h-22l-138 135l-131 -135h-22zM-111 -317v81q329 91 488.5 198t159.5 237l-105 118l121 271l467 86l14 -6v-277q61 -57 162 -80q232 336 397.5 473.5
t333.5 137.5q105 0 193.5 -51.5t138 -135t49.5 -178.5q0 -101 -33 -213q92 -20 187 -20v-269l-60 -55q-143 0 -291 92q-130 -61 -299 -95t-354 -34q-267 0 -397 79t-187 275l-241 -45q-8 -174 -88 -370t-230 -394zM1827 598q-149 0 -272 -69t-265 -234q73 -8 193 -8
q428 0 717 119q-48 85 -155 138.5t-218 53.5z" />
    <glyph glyph-name="uniFD2B.rlig" unicode="&#xfebc;&#xfeae;" horiz-adv-x="2459" 
d="M-111 -317v81q329 91 488.5 198t159.5 237l-105 118l121 271l467 86l14 -6v-277q61 -57 162 -80q232 336 397.5 473.5t333.5 137.5q105 0 193.5 -51.5t138 -135t49.5 -178.5q0 -101 -33 -213q92 -20 187 -20v-269l-60 -55q-143 0 -291 92q-130 -61 -299 -95t-354 -34
q-267 0 -397 79t-187 275l-241 -45q-8 -174 -88 -370t-230 -394zM1827 598q-149 0 -272 -69t-265 -234q73 -8 193 -8q428 0 717 119q-48 85 -155 138.5t-218 53.5z" />
    <glyph glyph-name="uniFEBCFB8D.rlig" unicode="&#xfebc;&#xfb8d;" horiz-adv-x="2459" 
d="M195 877v20h139q17 25 55 74l-20 209q-67 99 49 178h41v-76l47 -65v-5l-47 -30v-131q85 88 170 88q66 0 111.5 -45t45.5 -105q0 -73 -45 -174q-120 -53 -307 -53h-80zM588 999q-51 0 -93 -23.5t-87 -78.5h38q155 0 271 27q-10 39 -46 57t-83 18zM-111 -317v81
q329 91 488.5 198t159.5 237l-105 118l121 271l467 86l14 -6v-277q61 -57 162 -80q232 336 397.5 473.5t333.5 137.5q105 0 193.5 -51.5t138 -135t49.5 -178.5q0 -101 -33 -213q92 -20 187 -20v-269l-60 -55q-143 0 -291 92q-130 -61 -299 -95t-354 -34q-267 0 -397 79
t-187 275l-241 -45q-8 -174 -88 -370t-230 -394zM1827 598q-149 0 -272 -69t-265 -234q73 -8 193 -8q428 0 717 119q-48 85 -155 138.5t-218 53.5z" />
    <glyph glyph-name="uniFD22.rlig" unicode="&#xfebc;&#xfef2;" horiz-adv-x="3094" 
d="M664 -559q-129 0 -231 30.5t-168 82.5t-109.5 124.5t-61.5 152t-18 169.5q0 220 96 477l84 -24q-51 -173 -51 -283q0 -385 493 -385q183 0 362 54.5t279 137.5q-51 22 -223 48l-121 18q-136 24 -198 83t-62 171q0 138 79 272.5t210.5 221t271.5 86.5q112 0 206 -67
t194 -224l49 -82q69 -106 119 -146q218 307 376 434.5t320 127.5q161 0 271 -109.5t110 -257.5q0 -97 -33 -209q95 -20 187 -20v-269l-60 -55q-143 0 -291 92q-133 -61 -315.5 -95t-380.5 -34q-84 0 -149 14.5t-111.5 37t-91.5 68.5t-77 90.5t-81 121.5l-49 82
q-69 108 -131 151t-156 43q-72 0 -148.5 -25t-123.5 -59.5t-47 -62.5q0 -23 29.5 -34t117.5 -23l137 -23q166 -27 222.5 -72.5t56.5 -156.5q0 -82 -15.5 -192t-41.5 -193q-97 -122 -306.5 -205.5t-418.5 -83.5zM2458 596q-142 0 -263 -65.5t-258 -219.5q63 -24 170 -24
q204 0 396 30.5t331 85.5q-50 86 -158 139.5t-218 53.5zM449 -858l159 166h23l137 -137l131 137h23l165 -166l-159 -164h-23l-137 135l-131 -135h-23z" />
    <glyph glyph-name="uniFEBCFE8A.rlig" unicode="&#xfebc;&#xfe8a;" horiz-adv-x="3094" 
d="M27 629l116 86q-32 24 -53.5 58.5t-21.5 70.5q0 81 76 161t157 80q57 0 87 -28.5t30 -69.5q0 -56 -29 -102l-141 53q-42 -8 -75.5 -27.5t-33.5 -38.5q0 -36 86 -54.5t172 -6.5l82 12l6 -8l-30 -162l-428 -69v45zM664 -559q-129 0 -231 30.5t-168 82.5t-109.5 124.5
t-61.5 152t-18 169.5q0 220 96 477l84 -24q-51 -173 -51 -283q0 -385 493 -385q183 0 362 54.5t279 137.5q-51 22 -223 48l-121 18q-136 24 -198 83t-62 171q0 138 79 272.5t210.5 221t271.5 86.5q112 0 206 -67t194 -224l49 -82q69 -106 119 -146q218 307 376 434.5
t320 127.5q161 0 271 -109.5t110 -257.5q0 -97 -33 -209q95 -20 187 -20v-269l-60 -55q-143 0 -291 92q-133 -61 -315.5 -95t-380.5 -34q-84 0 -149 14.5t-111.5 37t-91.5 68.5t-77 90.5t-81 121.5l-49 82q-69 108 -131 151t-156 43q-72 0 -148.5 -25t-123.5 -59.5
t-47 -62.5q0 -23 29.5 -34t117.5 -23l137 -23q166 -27 222.5 -72.5t56.5 -156.5q0 -82 -15.5 -192t-41.5 -193q-97 -122 -306.5 -205.5t-418.5 -83.5zM2458 596q-142 0 -263 -65.5t-258 -219.5q63 -24 170 -24q204 0 396 30.5t331 85.5q-50 86 -158 139.5t-218 53.5z" />
    <glyph glyph-name="uniFEBCFEB0.rlig" unicode="&#xfebc;&#xfeb0;" horiz-adv-x="2459" 
d="M344 899l160 166h22l166 -166l-160 -164h-22zM-111 -317v81q329 91 488.5 198t159.5 237l-105 118l121 271l467 86l14 -6v-277q61 -57 162 -80q232 336 397.5 473.5t333.5 137.5q105 0 193.5 -51.5t138 -135t49.5 -178.5q0 -101 -33 -213q92 -20 187 -20v-269l-60 -55
q-143 0 -291 92q-130 -61 -299 -95t-354 -34q-267 0 -397 79t-187 275l-241 -45q-8 -174 -88 -370t-230 -394zM1827 598q-149 0 -272 -69t-265 -234q73 -8 193 -8q428 0 717 119q-48 85 -155 138.5t-218 53.5z" />
    <glyph glyph-name="uniFD17.rlig" unicode="&#xfeb4;&#xfef0;" horiz-adv-x="2990" 
d="M664 -559q-129 0 -231 30.5t-168 82.5t-109.5 124.5t-61.5 152t-18 169.5q0 220 96 477l84 -24q-51 -173 -51 -283q0 -385 493 -385q183 0 362 54.5t279 137.5q-51 22 -223 48l-137 22q-124 21 -184 79.5t-60 170.5q0 138 79 272.5t210.5 221t271.5 86.5q112 0 206 -67
t194 -224l49 -82q69 -111 131 -156t145 -45q81 0 127.5 48t65.5 149l18 98h82v-254q56 -20 137 -20q76 0 125 22l58 332h82v-156q0 -124 53.5 -161t220.5 -37v-269l-57 -55q-140 0 -230.5 67.5t-117.5 182.5h-9q-14 -96 -51 -191q-68 -59 -160 -59q-110 0 -217 98
q-69 -118 -215 -118q-65 0 -114.5 17t-97 60t-86.5 95t-97 143l-49 82q-69 108 -131 151t-156 43q-72 0 -148.5 -25t-123.5 -59.5t-47 -62.5q0 -23 29.5 -34t117.5 -23l137 -23q166 -27 222.5 -72.5t56.5 -156.5q0 -82 -15.5 -192t-41.5 -193q-97 -122 -306.5 -205.5
t-418.5 -83.5z" />
    <glyph glyph-name="uniFEB4FB8B.rlig" unicode="&#xfeb4;&#xfb8b;" horiz-adv-x="2240" 
d="M367 1190l141 143h20l144 -143l-142 -146h-20zM209 899l160 166h22l137 -137l131 137h23l166 -166l-160 -164h-22l-138 135l-131 -135h-22zM-111 -317v81q329 91 488.5 198t159.5 237l-105 118l121 271l467 86l14 -6v-252q104 -113 258 -113q78 0 114.5 41t57.5 156
l19 98h82v-254q56 -20 137 -20q74 0 123 22l57 332h84v-156q0 -124 54 -161t221 -37v-269l-58 -55q-140 0 -231.5 67.5t-118.5 182.5h-6q-14 -96 -51 -191q-68 -59 -160 -59q-113 0 -219 100q-63 -120 -193 -120q-48 0 -93 15.5t-91 51.5t-85 105t-65 165l-237 -45
q-8 -174 -88 -370t-230 -394z" />
    <glyph glyph-name="uniFD2A.rlig" unicode="&#xfeb4;&#xfeae;" horiz-adv-x="2240" 
d="M-111 -317v81q329 91 488.5 198t159.5 237l-105 118l121 271l467 86l14 -6v-252q104 -113 258 -113q78 0 114.5 41t57.5 156l19 98h82v-254q56 -20 137 -20q74 0 123 22l57 332h84v-156q0 -124 54 -161t221 -37v-269l-58 -55q-140 0 -231.5 67.5t-118.5 182.5h-6
q-14 -96 -51 -191q-68 -59 -160 -59q-113 0 -219 100q-63 -120 -193 -120q-48 0 -93 15.5t-91 51.5t-85 105t-65 165l-237 -45q-8 -174 -88 -370t-230 -394z" />
    <glyph glyph-name="uniFEB4FB8D.rlig" unicode="&#xfeb4;&#xfb8d;" horiz-adv-x="2240" 
d="M195 877v20h139q17 25 55 74l-20 209q-67 99 49 178h41v-76l47 -65v-5l-47 -30v-131q85 88 170 88q66 0 111.5 -45t45.5 -105q0 -73 -45 -174q-120 -53 -307 -53h-80zM588 999q-51 0 -93 -23.5t-87 -78.5h38q155 0 271 27q-10 39 -46 57t-83 18zM-111 -317v81
q329 91 488.5 198t159.5 237l-105 118l121 271l467 86l14 -6v-252q104 -113 258 -113q78 0 114.5 41t57.5 156l19 98h82v-254q56 -20 137 -20q74 0 123 22l57 332h84v-156q0 -124 54 -161t221 -37v-269l-58 -55q-140 0 -231.5 67.5t-118.5 182.5h-6q-14 -96 -51 -191
q-68 -59 -160 -59q-113 0 -219 100q-63 -120 -193 -120q-48 0 -93 15.5t-91 51.5t-85 105t-65 165l-237 -45q-8 -174 -88 -370t-230 -394z" />
    <glyph glyph-name="uniFD18.rlig" unicode="&#xfeb4;&#xfef2;" horiz-adv-x="2990" 
d="M664 -559q-129 0 -231 30.5t-168 82.5t-109.5 124.5t-61.5 152t-18 169.5q0 220 96 477l84 -24q-51 -173 -51 -283q0 -385 493 -385q183 0 362 54.5t279 137.5q-51 22 -223 48l-137 22q-124 21 -184 79.5t-60 170.5q0 138 79 272.5t210.5 221t271.5 86.5q112 0 206 -67
t194 -224l49 -82q69 -111 131 -156t145 -45q81 0 127.5 48t65.5 149l18 98h82v-254q56 -20 137 -20q76 0 125 22l58 332h82v-156q0 -124 53.5 -161t220.5 -37v-269l-57 -55q-140 0 -230.5 67.5t-117.5 182.5h-9q-14 -96 -51 -191q-68 -59 -160 -59q-110 0 -217 98
q-69 -118 -215 -118q-65 0 -114.5 17t-97 60t-86.5 95t-97 143l-49 82q-69 108 -131 151t-156 43q-72 0 -148.5 -25t-123.5 -59.5t-47 -62.5q0 -23 29.5 -34t117.5 -23l137 -23q166 -27 222.5 -72.5t56.5 -156.5q0 -82 -15.5 -192t-41.5 -193q-97 -122 -306.5 -205.5
t-418.5 -83.5zM463 -858l160 166h22l137 -137l131 137h23l166 -166l-160 -164h-22l-138 135l-131 -135h-22z" />
    <glyph glyph-name="uniFEB4FE8A.rlig" unicode="&#xfeb4;&#xfe8a;" horiz-adv-x="2990" 
d="M39 629l117 86q-32 24 -54 58.5t-22 70.5q0 81 76 161t157 80q57 0 87 -28.5t30 -69.5q0 -56 -29 -102l-141 53q-42 -8 -75 -27.5t-33 -38.5q0 -36 86 -54.5t172 -6.5l82 12l6 -8l-31 -162l-428 -69v45zM664 -559q-129 0 -231 30.5t-168 82.5t-109.5 124.5t-61.5 152
t-18 169.5q0 220 96 477l84 -24q-51 -173 -51 -283q0 -385 493 -385q183 0 362 54.5t279 137.5q-51 22 -223 48l-137 22q-124 21 -184 79.5t-60 170.5q0 138 79 272.5t210.5 221t271.5 86.5q112 0 206 -67t194 -224l49 -82q69 -111 131 -156t145 -45q81 0 127.5 48t65.5 149
l18 98h82v-254q56 -20 137 -20q76 0 125 22l58 332h82v-156q0 -124 53.5 -161t220.5 -37v-269l-57 -55q-140 0 -230.5 67.5t-117.5 182.5h-9q-14 -96 -51 -191q-68 -59 -160 -59q-110 0 -217 98q-69 -118 -215 -118q-65 0 -114.5 17t-97 60t-86.5 95t-97 143l-49 82
q-69 108 -131 151t-156 43q-72 0 -148.5 -25t-123.5 -59.5t-47 -62.5q0 -23 29.5 -34t117.5 -23l137 -23q166 -27 222.5 -72.5t56.5 -156.5q0 -82 -15.5 -192t-41.5 -193q-97 -122 -306.5 -205.5t-418.5 -83.5z" />
    <glyph glyph-name="uniFEB4FEB0.rlig" unicode="&#xfeb4;&#xfeb0;" horiz-adv-x="2240" 
d="M344 899l160 166h22l166 -166l-160 -164h-22zM-111 -317v81q329 91 488.5 198t159.5 237l-105 118l121 271l467 86l14 -6v-252q104 -113 258 -113q78 0 114.5 41t57.5 156l19 98h82v-254q56 -20 137 -20q74 0 123 22l57 332h84v-156q0 -124 54 -161t221 -37v-269l-58 -55
q-140 0 -231.5 67.5t-118.5 182.5h-6q-14 -96 -51 -191q-68 -59 -160 -59q-113 0 -219 100q-63 -120 -193 -120q-48 0 -93 15.5t-91 51.5t-85 105t-65 165l-237 -45q-8 -174 -88 -370t-230 -394z" />
    <glyph glyph-name="uniFD19.rlig" unicode="&#xfeb8;&#xfef0;" horiz-adv-x="2990" 
d="M2040 1200l141 143h21l143 -143l-141 -145h-21zM1882 909l160 166h22l138 -137l131 137h22l166 -166l-160 -164h-22l-137 136l-131 -136h-23zM664 -559q-129 0 -231 30.5t-168 82.5t-109.5 124.5t-61.5 152t-18 169.5q0 220 96 477l84 -24q-51 -173 -51 -283
q0 -385 493 -385q183 0 362 54.5t279 137.5q-51 22 -223 48l-137 22q-124 21 -184 79.5t-60 170.5q0 138 79 272.5t210.5 221t271.5 86.5q112 0 206 -67t194 -224l49 -82q69 -111 131 -156t145 -45q81 0 127.5 48t65.5 149l18 98h82v-254q56 -20 137 -20q76 0 125 22l58 332
h82v-156q0 -124 53.5 -161t220.5 -37v-269l-57 -55q-140 0 -230.5 67.5t-117.5 182.5h-9q-14 -96 -51 -191q-68 -59 -160 -59q-110 0 -217 98q-69 -118 -215 -118q-65 0 -114.5 17t-97 60t-86.5 95t-97 143l-49 82q-69 108 -131 151t-156 43q-72 0 -148.5 -25t-123.5 -59.5
t-47 -62.5q0 -23 29.5 -34t117.5 -23l137 -23q166 -27 222.5 -72.5t56.5 -156.5q0 -82 -15.5 -192t-41.5 -193q-97 -122 -306.5 -205.5t-418.5 -83.5z" />
    <glyph glyph-name="uniFEB8FB8B.rlig" unicode="&#xfeb8;&#xfb8b;" horiz-adv-x="2240" 
d="M1329 1200l141 143h21l143 -143l-141 -145h-20zM367 1190l141 143h20l144 -143l-142 -146h-20zM1171 909l160 166h23l137 -137l131 137h23l165 -166l-159 -164h-23l-137 136l-131 -136h-23zM209 899l160 166h22l137 -137l131 137h23l166 -166l-160 -164h-22l-138 135
l-131 -135h-22zM-111 -317v81q329 91 488.5 198t159.5 237l-105 118l121 271l467 86l14 -6v-252q104 -113 258 -113q78 0 114.5 41t57.5 156l19 98h82v-254q56 -20 137 -20q74 0 123 22l57 332h84v-156q0 -124 54 -161t221 -37v-269l-58 -55q-140 0 -231.5 67.5
t-118.5 182.5h-6q-14 -96 -51 -191q-68 -59 -160 -59q-113 0 -219 100q-63 -120 -193 -120q-48 0 -93 15.5t-91 51.5t-85 105t-65 165l-237 -45q-8 -174 -88 -370t-230 -394z" />
    <glyph glyph-name="uniFD29.rlig" unicode="&#xfeb8;&#xfeae;" horiz-adv-x="2240" 
d="M1329 1200l141 143h21l143 -143l-141 -145h-20zM1171 909l160 166h23l137 -137l131 137h23l165 -166l-159 -164h-23l-137 136l-131 -136h-23zM-111 -317v81q329 91 488.5 198t159.5 237l-105 118l121 271l467 86l14 -6v-252q104 -113 258 -113q78 0 114.5 41t57.5 156
l19 98h82v-254q56 -20 137 -20q74 0 123 22l57 332h84v-156q0 -124 54 -161t221 -37v-269l-58 -55q-140 0 -231.5 67.5t-118.5 182.5h-6q-14 -96 -51 -191q-68 -59 -160 -59q-113 0 -219 100q-63 -120 -193 -120q-48 0 -93 15.5t-91 51.5t-85 105t-65 165l-237 -45
q-8 -174 -88 -370t-230 -394z" />
    <glyph glyph-name="uniFEB8FB8D.rlig" unicode="&#xfeb8;&#xfb8d;" horiz-adv-x="2240" 
d="M195 877v20h139q17 25 55 74l-20 209q-67 99 49 178h41v-76l47 -65v-5l-47 -30v-131q85 88 170 88q66 0 111.5 -45t45.5 -105q0 -73 -45 -174q-120 -53 -307 -53h-80zM1329 1200l141 143h21l143 -143l-141 -145h-20zM1171 909l160 166h23l137 -137l131 137h23l165 -166
l-159 -164h-23l-137 136l-131 -136h-23zM588 999q-51 0 -93 -23.5t-87 -78.5h38q155 0 271 27q-10 39 -46 57t-83 18zM-111 -317v81q329 91 488.5 198t159.5 237l-105 118l121 271l467 86l14 -6v-252q104 -113 258 -113q78 0 114.5 41t57.5 156l19 98h82v-254
q56 -20 137 -20q74 0 123 22l57 332h84v-156q0 -124 54 -161t221 -37v-269l-58 -55q-140 0 -231.5 67.5t-118.5 182.5h-6q-14 -96 -51 -191q-68 -59 -160 -59q-113 0 -219 100q-63 -120 -193 -120q-48 0 -93 15.5t-91 51.5t-85 105t-65 165l-237 -45q-8 -174 -88 -370
t-230 -394z" />
    <glyph glyph-name="uniFD1A.rlig" unicode="&#xfeb8;&#xfef2;" horiz-adv-x="2990" 
d="M2040 1200l141 143h21l143 -143l-141 -145h-21zM1882 909l160 166h22l138 -137l131 137h22l166 -166l-160 -164h-22l-137 136l-131 -136h-23zM664 -559q-129 0 -231 30.5t-168 82.5t-109.5 124.5t-61.5 152t-18 169.5q0 220 96 477l84 -24q-51 -173 -51 -283
q0 -385 493 -385q183 0 362 54.5t279 137.5q-51 22 -223 48l-137 22q-124 21 -184 79.5t-60 170.5q0 138 79 272.5t210.5 221t271.5 86.5q112 0 206 -67t194 -224l49 -82q69 -111 131 -156t145 -45q81 0 127.5 48t65.5 149l18 98h82v-254q56 -20 137 -20q76 0 125 22l58 332
h82v-156q0 -124 53.5 -161t220.5 -37v-269l-57 -55q-140 0 -230.5 67.5t-117.5 182.5h-9q-14 -96 -51 -191q-68 -59 -160 -59q-110 0 -217 98q-69 -118 -215 -118q-65 0 -114.5 17t-97 60t-86.5 95t-97 143l-49 82q-69 108 -131 151t-156 43q-72 0 -148.5 -25t-123.5 -59.5
t-47 -62.5q0 -23 29.5 -34t117.5 -23l137 -23q166 -27 222.5 -72.5t56.5 -156.5q0 -82 -15.5 -192t-41.5 -193q-97 -122 -306.5 -205.5t-418.5 -83.5zM463 -858l160 166h22l137 -137l131 137h23l166 -166l-160 -164h-22l-138 135l-131 -135h-22z" />
    <glyph glyph-name="uniFEB8FE8A.rlig" unicode="&#xfeb8;&#xfe8a;" horiz-adv-x="2990" 
d="M2040 1200l141 143h21l143 -143l-141 -145h-21zM39 629l117 86q-32 24 -54 58.5t-22 70.5q0 81 76 161t157 80q57 0 87 -28.5t30 -69.5q0 -56 -29 -102l-141 53q-42 -8 -75 -27.5t-33 -38.5q0 -36 86 -54.5t172 -6.5l82 12l6 -8l-31 -162l-428 -69v45zM1882 909l160 166
h22l138 -137l131 137h22l166 -166l-160 -164h-22l-137 136l-131 -136h-23zM664 -559q-129 0 -231 30.5t-168 82.5t-109.5 124.5t-61.5 152t-18 169.5q0 220 96 477l84 -24q-51 -173 -51 -283q0 -385 493 -385q183 0 362 54.5t279 137.5q-51 22 -223 48l-137 22
q-124 21 -184 79.5t-60 170.5q0 138 79 272.5t210.5 221t271.5 86.5q112 0 206 -67t194 -224l49 -82q69 -111 131 -156t145 -45q81 0 127.5 48t65.5 149l18 98h82v-254q56 -20 137 -20q76 0 125 22l58 332h82v-156q0 -124 53.5 -161t220.5 -37v-269l-57 -55
q-140 0 -230.5 67.5t-117.5 182.5h-9q-14 -96 -51 -191q-68 -59 -160 -59q-110 0 -217 98q-69 -118 -215 -118q-65 0 -114.5 17t-97 60t-86.5 95t-97 143l-49 82q-69 108 -131 151t-156 43q-72 0 -148.5 -25t-123.5 -59.5t-47 -62.5q0 -23 29.5 -34t117.5 -23l137 -23
q166 -27 222.5 -72.5t56.5 -156.5q0 -82 -15.5 -192t-41.5 -193q-97 -122 -306.5 -205.5t-418.5 -83.5z" />
    <glyph glyph-name="uniFEB8FEB0.rlig" unicode="&#xfeb8;&#xfeb0;" horiz-adv-x="2240" 
d="M1329 1200l141 143h21l143 -143l-141 -145h-20zM1171 909l160 166h23l137 -137l131 137h23l165 -166l-159 -164h-23l-137 136l-131 -136h-23zM344 899l160 166h22l166 -166l-160 -164h-22zM-111 -317v81q329 91 488.5 198t159.5 237l-105 118l121 271l467 86l14 -6v-252
q104 -113 258 -113q78 0 114.5 41t57.5 156l19 98h82v-254q56 -20 137 -20q74 0 123 22l57 332h84v-156q0 -124 54 -161t221 -37v-269l-58 -55q-140 0 -231.5 67.5t-118.5 182.5h-6q-14 -96 -51 -191q-68 -59 -160 -59q-113 0 -219 100q-63 -120 -193 -120q-48 0 -93 15.5
t-91 51.5t-85 105t-65 165l-237 -45q-8 -174 -88 -370t-230 -394z" />
    <glyph glyph-name="uniFB7DFEF0.rlig" unicode="&#xfb7d;&#xfef0;" horiz-adv-x="2168" 
d="M664 -559q-129 0 -231 30.5t-168 82.5t-109.5 124.5t-61.5 152t-18 169.5q0 220 96 477l84 -24q-51 -173 -51 -283q0 -385 491 -385q177 0 361.5 47.5t294.5 120.5q-63 51 -244 78l-246 35l-6 14l70 285q386 98 721 145q-93 18 -230 57q-242 64 -291 64q-65 0 -93 -28.5
t-34 -100.5h-88q-6 86 -6 153q0 143 58.5 213t166.5 70q58 0 131 -18.5t273 -81.5q244 -77 318 -93q88 -18 180 -18h86l6 -8l-88 -275q-86 -10 -176 -24q30 -52 103 -74t208 -22v-267l-60 -57q-180 0 -262 88t-104 307q-199 -41 -475 -127q178 -63 178 -192
q0 -84 -15 -188.5t-42 -182.5q-97 -110 -298.5 -187t-428.5 -77zM1491 -307l160 166h22l137 -138l132 138h22l166 -166l-160 -164h-22l-138 135l-131 -135h-22zM1659 -582l141 146h23l143 -146l-143 -145h-21z" />
    <glyph glyph-name="uniFB7DFEF2.rlig" unicode="&#xfb7d;&#xfef2;" horiz-adv-x="2168" 
d="M664 -559q-129 0 -231 30.5t-168 82.5t-109.5 124.5t-61.5 152t-18 169.5q0 220 96 477l84 -24q-51 -173 -51 -283q0 -385 491 -385q177 0 361.5 47.5t294.5 120.5q-63 51 -244 78l-246 35l-6 14l70 285q386 98 721 145q-93 18 -230 57q-242 64 -291 64q-65 0 -93 -28.5
t-34 -100.5h-88q-6 86 -6 153q0 143 58.5 213t166.5 70q58 0 131 -18.5t273 -81.5q244 -77 318 -93q88 -18 180 -18h86l6 -8l-88 -275q-86 -10 -176 -24q30 -52 103 -74t208 -22v-267l-60 -57q-180 0 -262 88t-104 307q-199 -41 -475 -127q178 -63 178 -192
q0 -84 -15 -188.5t-42 -182.5q-97 -110 -298.5 -187t-428.5 -77zM1491 -307l160 166h22l137 -138l132 138h22l166 -166l-160 -164h-22l-138 135l-131 -135h-22zM1659 -582l141 146h23l143 -146l-143 -145h-21zM432 -858l160 166h22l138 -137l131 137h22l166 -166l-160 -164
h-22l-137 135l-131 -135h-23z" />
    <glyph glyph-name="uniFB7DFE8A.rlig" unicode="&#xfb7d;&#xfe8a;" horiz-adv-x="2168" 
d="M27 629l116 86q-32 24 -53.5 58.5t-21.5 70.5q0 81 76 161t157 80q57 0 87 -28.5t30 -69.5q0 -56 -29 -102l-141 53q-42 -8 -75.5 -27.5t-33.5 -38.5q0 -36 86 -54.5t172 -6.5l82 12l6 -8l-30 -162l-428 -69v45zM664 -559q-129 0 -231 30.5t-168 82.5t-109.5 124.5
t-61.5 152t-18 169.5q0 220 96 477l84 -24q-51 -173 -51 -283q0 -385 491 -385q177 0 361.5 47.5t294.5 120.5q-63 51 -244 78l-246 35l-6 14l70 285q386 98 721 145q-93 18 -230 57q-242 64 -291 64q-65 0 -93 -28.5t-34 -100.5h-88q-6 86 -6 153q0 143 58.5 213t166.5 70
q58 0 131 -18.5t273 -81.5q244 -77 318 -93q88 -18 180 -18h86l6 -8l-88 -275q-86 -10 -176 -24q30 -52 103 -74t208 -22v-267l-60 -57q-180 0 -262 88t-104 307q-199 -41 -475 -127q178 -63 178 -192q0 -84 -15 -188.5t-42 -182.5q-97 -110 -298.5 -187t-428.5 -77z
M1491 -307l160 166h22l137 -138l132 138h22l166 -166l-160 -164h-22l-138 135l-131 -135h-22zM1659 -582l141 146h23l143 -146l-143 -145h-21z" />
    <glyph glyph-name="uniFC74.rlig" unicode="&#xfe98;&#xfef0;" horiz-adv-x="2043" 
d="M979 1188l160 166h22l137 -137l132 137h22l166 -166l-160 -164h-22l-138 135l-131 -135h-22zM664 -559q-129 0 -231 30.5t-168 82.5t-109.5 124.5t-61.5 152t-18 169.5q0 220 96 477l84 -24q-51 -173 -51 -283q0 -385 493 -385q183 0 362 54.5t279 137.5q-51 22 -223 48
l-137 22q-124 21 -184 79.5t-60 170.5q0 138 79 272.5t210.5 221t271.5 86.5q112 0 206 -67.5t194 -223.5l49 -82q63 -101 129.5 -140.5t169.5 -39.5v-267l-59 -57q-143 0 -243 65.5t-204 229.5l-49 82q-69 108 -131 151t-156 43q-72 0 -148.5 -25t-123.5 -59.5t-47 -62.5
q0 -23 29.5 -34t117.5 -23l137 -23q166 -27 222.5 -72.5t56.5 -156.5q0 -82 -15.5 -192t-41.5 -193q-97 -122 -306.5 -205.5t-418.5 -83.5z" />
    <glyph glyph-name="uniFE98FB8B.rlig" unicode="&#xfe98;&#xfb8b;" horiz-adv-x="1357" 
d="M238 1360l141 143h20l144 -143l-142 -146h-20zM690 1231l160 166h22l138 -137l131 137h22l166 -166l-160 -164h-22l-137 135l-131 -135h-23zM80 1069l160 166h22l137 -137l131 137h23l166 -166l-160 -164h-22l-138 135l-131 -135h-22zM-111 -317v81q329 89 488.5 187.5
t159.5 212.5q0 63 -65.5 147.5t-184.5 177.5l121 269h81q124 -160 244 -160q69 0 116 51t95 191l29 80h80l61 -345q26 -148 77.5 -199.5t166.5 -51.5v-267l-58 -57q-88 0 -145.5 19.5t-101 73t-71.5 137t-54 221.5l-13 71q-30 -131 -86.5 -189.5t-142.5 -58.5q-23 0 -51 7
q-8 -177 -88.5 -375.5t-231.5 -397.5z" />
    <glyph glyph-name="uniFC73.rlig" unicode="&#xfe98;&#xfee6;" horiz-adv-x="1982" 
d="M1276 1231l160 166h22l137 -137l131 137h23l166 -166l-160 -164h-22l-138 135l-131 -135h-22zM571 -397q-233 0 -364 129.5t-131 361.5q0 186 86 424l78 -24q-35 -128 -35 -222q0 -325 401 -325q144 0 276.5 45t231.5 127q-42 141 -205 370l123 269h80q126 -160 248 -160
q68 0 113.5 50.5t95.5 191.5l26 80h82l60 -345q26 -148 78 -199.5t167 -51.5v-267l-59 -57q-116 0 -184 39.5t-110.5 134.5t-76.5 277l-14 73q-29 -132 -84.5 -191t-142.5 -59q-47 0 -88 21q2 -23 2 -64q0 -189 -62 -378q-107 -118 -263.5 -184t-328.5 -66zM395 643l160 166
h23l165 -166l-159 -164h-23z" />
    <glyph glyph-name="uniFC70.rlig" unicode="&#xfe98;&#xfeae;" horiz-adv-x="1357" 
d="M690 1231l160 166h22l138 -137l131 137h22l166 -166l-160 -164h-22l-137 135l-131 -135h-23zM-111 -317v81q329 89 488.5 187.5t159.5 212.5q0 63 -65.5 147.5t-184.5 177.5l121 269h81q124 -160 244 -160q69 0 116 51t95 191l29 80h80l61 -345q26 -148 77.5 -199.5
t166.5 -51.5v-267l-58 -57q-88 0 -145.5 19.5t-101 73t-71.5 137t-54 221.5l-13 71q-30 -131 -86.5 -189.5t-142.5 -58.5q-23 0 -51 7q-8 -177 -88.5 -375.5t-231.5 -397.5z" />
    <glyph glyph-name="uniFE98FB8D.rlig" unicode="&#xfe98;&#xfb8d;" horiz-adv-x="1357" 
d="M66 1047v20h139q17 25 55 74l-20 209q-67 99 49 178h41v-76l47 -66v-4l-47 -30v-131q85 88 170 88q66 0 111.5 -45t45.5 -105q0 -73 -45 -174q-120 -53 -307 -53h-80zM690 1231l160 166h22l138 -137l131 137h22l166 -166l-160 -164h-22l-137 135l-131 -135h-23zM459 1169
q-51 0 -93 -23.5t-87 -78.5h38q155 0 271 27q-10 39 -46 57t-83 18zM-111 -317v81q329 89 488.5 187.5t159.5 212.5q0 63 -65.5 147.5t-184.5 177.5l121 269h81q124 -160 244 -160q69 0 116 51t95 191l29 80h80l61 -345q26 -148 77.5 -199.5t166.5 -51.5v-267l-58 -57
q-88 0 -145.5 19.5t-101 73t-71.5 137t-54 221.5l-13 71q-30 -131 -86.5 -189.5t-142.5 -58.5q-23 0 -51 7q-8 -177 -88.5 -375.5t-231.5 -397.5z" />
    <glyph glyph-name="uniFC75.rlig" unicode="&#xfe98;&#xfef2;" horiz-adv-x="2043" 
d="M979 1188l160 166h22l137 -137l132 137h22l166 -166l-160 -164h-22l-138 135l-131 -135h-22zM664 -559q-129 0 -231 30.5t-168 82.5t-109.5 124.5t-61.5 152t-18 169.5q0 220 96 477l84 -24q-51 -173 -51 -283q0 -385 493 -385q183 0 362 54.5t279 137.5q-51 22 -223 48
l-137 22q-124 21 -184 79.5t-60 170.5q0 138 79 272.5t210.5 221t271.5 86.5q112 0 206 -67.5t194 -223.5l49 -82q63 -101 129.5 -140.5t169.5 -39.5v-267l-59 -57q-143 0 -243 65.5t-204 229.5l-49 82q-69 108 -131 151t-156 43q-72 0 -148.5 -25t-123.5 -59.5t-47 -62.5
q0 -23 29.5 -34t117.5 -23l137 -23q166 -27 222.5 -72.5t56.5 -156.5q0 -82 -15.5 -192t-41.5 -193q-97 -122 -306.5 -205.5t-418.5 -83.5zM449 -866l159 166h23l137 -138l131 138h23l165 -166l-159 -164h-23l-137 135l-131 -135h-23z" />
    <glyph glyph-name="uniFE98FE8A.rlig" unicode="&#xfe98;&#xfe8a;" horiz-adv-x="2043" 
d="M979 1188l160 166h22l137 -137l132 137h22l166 -166l-160 -164h-22l-138 135l-131 -135h-22zM27 629l116 86q-32 24 -53.5 58.5t-21.5 70.5q0 81 76 161t157 80q57 0 87 -28.5t30 -69.5q0 -56 -29 -102l-141 53q-42 -8 -75.5 -27.5t-33.5 -38.5q0 -36 86 -54.5t172 -6.5
l82 12l6 -8l-30 -162l-428 -69v45zM664 -559q-129 0 -231 30.5t-168 82.5t-109.5 124.5t-61.5 152t-18 169.5q0 220 96 477l84 -24q-51 -173 -51 -283q0 -385 493 -385q183 0 362 54.5t279 137.5q-51 22 -223 48l-137 22q-124 21 -184 79.5t-60 170.5q0 138 79 272.5
t210.5 221t271.5 86.5q112 0 206 -67.5t194 -223.5l49 -82q63 -101 129.5 -140.5t169.5 -39.5v-267l-59 -57q-143 0 -243 65.5t-204 229.5l-49 82q-69 108 -131 151t-156 43q-72 0 -148.5 -25t-123.5 -59.5t-47 -62.5q0 -23 29.5 -34t117.5 -23l137 -23q166 -27 222.5 -72.5
t56.5 -156.5q0 -82 -15.5 -192t-41.5 -193q-97 -122 -306.5 -205.5t-418.5 -83.5z" />
    <glyph glyph-name="uniFC71.rlig" unicode="&#xfe98;&#xfeb0;" horiz-adv-x="1357" 
d="M690 1231l160 166h22l138 -137l131 137h22l166 -166l-160 -164h-22l-137 135l-131 -135h-23zM217 1069l160 166h22l166 -166l-159 -164h-23zM-111 -317v81q329 89 488.5 187.5t159.5 212.5q0 63 -65.5 147.5t-184.5 177.5l121 269h81q124 -160 244 -160q69 0 116 51
t95 191l29 80h80l61 -345q26 -148 77.5 -199.5t166.5 -51.5v-267l-58 -57q-88 0 -145.5 19.5t-101 73t-71.5 137t-54 221.5l-13 71q-30 -131 -86.5 -189.5t-142.5 -58.5q-23 0 -51 7q-8 -177 -88.5 -375.5t-231.5 -397.5z" />
    <glyph glyph-name="uniFC7A.rlig" unicode="&#xfe9c;&#xfef0;" horiz-adv-x="2043" 
d="M1147 1479l141 143h21l143 -143l-141 -146h-21zM989 1188l160 166h22l138 -137l131 137h22l166 -166l-160 -164h-22l-137 135l-131 -135h-23zM664 -559q-129 0 -231 30.5t-168 82.5t-109.5 124.5t-61.5 152t-18 169.5q0 220 96 477l84 -24q-51 -173 -51 -283
q0 -385 493 -385q183 0 362 54.5t279 137.5q-51 22 -223 48l-137 22q-124 21 -184 79.5t-60 170.5q0 138 79 272.5t210.5 221t271.5 86.5q112 0 206 -67.5t194 -223.5l49 -82q63 -101 129.5 -140.5t169.5 -39.5v-267l-59 -57q-143 0 -243 65.5t-204 229.5l-49 82
q-69 108 -131 151t-156 43q-72 0 -148.5 -25t-123.5 -59.5t-47 -62.5q0 -23 29.5 -34t117.5 -23l137 -23q166 -27 222.5 -72.5t56.5 -156.5q0 -82 -15.5 -192t-41.5 -193q-97 -122 -306.5 -205.5t-418.5 -83.5z" />
    <glyph glyph-name="uniFE9CFB8B.rlig" unicode="&#xfe9c;&#xfb8b;" horiz-adv-x="1357" 
d="M856 1522l141 143h21l143 -143l-141 -146h-21zM238 1360l141 143h20l144 -143l-142 -146h-20zM698 1231l160 166h23l137 -137l131 137h22l166 -166l-159 -164h-23l-137 135l-131 -135h-23zM80 1069l160 166h22l137 -137l131 137h23l166 -166l-160 -164h-22l-138 135
l-131 -135h-22zM-111 -317v81q329 89 488.5 187.5t159.5 212.5q0 63 -65.5 147.5t-184.5 177.5l121 269h81q124 -160 244 -160q69 0 116 51t95 191l29 80h80l61 -345q26 -148 77.5 -199.5t166.5 -51.5v-267l-58 -57q-88 0 -145.5 19.5t-101 73t-71.5 137t-54 221.5l-13 71
q-30 -131 -86.5 -189.5t-142.5 -58.5q-23 0 -51 7q-8 -177 -88.5 -375.5t-231.5 -397.5z" />
    <glyph glyph-name="uniFC79.rlig" unicode="&#xfe9c;&#xfee6;" horiz-adv-x="1982" 
d="M1444 1522l141 143h21l143 -143l-141 -146h-21zM1286 1231l160 166h22l138 -137l131 137h22l166 -166l-160 -164h-22l-137 135l-131 -135h-23zM571 -397q-233 0 -364 129.5t-131 361.5q0 186 86 424l78 -24q-35 -128 -35 -222q0 -325 401 -325q144 0 276.5 45t231.5 127
q-42 141 -205 370l123 269h80q126 -160 248 -160q68 0 113.5 50.5t95.5 191.5l26 80h82l60 -345q26 -148 78 -199.5t167 -51.5v-267l-59 -57q-116 0 -184 39.5t-110.5 134.5t-76.5 277l-14 73q-29 -132 -84.5 -191t-142.5 -59q-47 0 -88 21q2 -23 2 -64q0 -189 -62 -378
q-107 -118 -263.5 -184t-328.5 -66zM395 643l160 166h23l165 -166l-159 -164h-23z" />
    <glyph glyph-name="uniFC76.rlig" unicode="&#xfe9c;&#xfeae;" horiz-adv-x="1357" 
d="M856 1522l141 143h21l143 -143l-141 -146h-21zM698 1231l160 166h23l137 -137l131 137h22l166 -166l-159 -164h-23l-137 135l-131 -135h-23zM-111 -317v81q329 89 488.5 187.5t159.5 212.5q0 63 -65.5 147.5t-184.5 177.5l121 269h81q124 -160 244 -160q69 0 116 51
t95 191l29 80h80l61 -345q26 -148 77.5 -199.5t166.5 -51.5v-267l-58 -57q-88 0 -145.5 19.5t-101 73t-71.5 137t-54 221.5l-13 71q-30 -131 -86.5 -189.5t-142.5 -58.5q-23 0 -51 7q-8 -177 -88.5 -375.5t-231.5 -397.5z" />
    <glyph glyph-name="uniFE9CFB8D.rlig" unicode="&#xfe9c;&#xfb8d;" horiz-adv-x="1357" 
d="M856 1522l141 143h21l143 -143l-141 -146h-21zM66 1047v20h139q17 25 55 74l-20 209q-67 99 49 178h41v-76l47 -66v-4l-47 -30v-131q85 88 170 88q66 0 111.5 -45t45.5 -105q0 -73 -45 -174q-120 -53 -307 -53h-80zM698 1231l160 166h23l137 -137l131 137h22l166 -166
l-159 -164h-23l-137 135l-131 -135h-23zM459 1169q-51 0 -93 -23.5t-87 -78.5h38q155 0 271 27q-10 39 -46 57t-83 18zM-111 -317v81q329 89 488.5 187.5t159.5 212.5q0 63 -65.5 147.5t-184.5 177.5l121 269h81q124 -160 244 -160q69 0 116 51t95 191l29 80h80l61 -345
q26 -148 77.5 -199.5t166.5 -51.5v-267l-58 -57q-88 0 -145.5 19.5t-101 73t-71.5 137t-54 221.5l-13 71q-30 -131 -86.5 -189.5t-142.5 -58.5q-23 0 -51 7q-8 -177 -88.5 -375.5t-231.5 -397.5z" />
    <glyph glyph-name="uniFC7B.rlig" unicode="&#xfe9c;&#xfef2;" horiz-adv-x="2043" 
d="M1147 1479l141 143h21l143 -143l-141 -146h-21zM989 1188l160 166h22l138 -137l131 137h22l166 -166l-160 -164h-22l-137 135l-131 -135h-23zM664 -559q-129 0 -231 30.5t-168 82.5t-109.5 124.5t-61.5 152t-18 169.5q0 220 96 477l84 -24q-51 -173 -51 -283
q0 -385 493 -385q183 0 362 54.5t279 137.5q-51 22 -223 48l-137 22q-124 21 -184 79.5t-60 170.5q0 138 79 272.5t210.5 221t271.5 86.5q112 0 206 -67.5t194 -223.5l49 -82q63 -101 129.5 -140.5t169.5 -39.5v-267l-59 -57q-143 0 -243 65.5t-204 229.5l-49 82
q-69 108 -131 151t-156 43q-72 0 -148.5 -25t-123.5 -59.5t-47 -62.5q0 -23 29.5 -34t117.5 -23l137 -23q166 -27 222.5 -72.5t56.5 -156.5q0 -82 -15.5 -192t-41.5 -193q-97 -122 -306.5 -205.5t-418.5 -83.5zM449 -866l159 166h23l137 -138l131 138h23l165 -166l-159 -164
h-23l-137 135l-131 -135h-23z" />
    <glyph glyph-name="uniFE9CFE8A.rlig" unicode="&#xfe9c;&#xfe8a;" horiz-adv-x="2043" 
d="M1147 1479l141 143h21l143 -143l-141 -146h-21zM989 1188l160 166h22l138 -137l131 137h22l166 -166l-160 -164h-22l-137 135l-131 -135h-23zM27 629l116 86q-32 24 -53.5 58.5t-21.5 70.5q0 81 76 161t157 80q57 0 87 -28.5t30 -69.5q0 -56 -29 -102l-141 53
q-42 -8 -75.5 -27.5t-33.5 -38.5q0 -36 86 -54.5t172 -6.5l82 12l6 -8l-30 -162l-428 -69v45zM664 -559q-129 0 -231 30.5t-168 82.5t-109.5 124.5t-61.5 152t-18 169.5q0 220 96 477l84 -24q-51 -173 -51 -283q0 -385 493 -385q183 0 362 54.5t279 137.5q-51 22 -223 48
l-137 22q-124 21 -184 79.5t-60 170.5q0 138 79 272.5t210.5 221t271.5 86.5q112 0 206 -67.5t194 -223.5l49 -82q63 -101 129.5 -140.5t169.5 -39.5v-267l-59 -57q-143 0 -243 65.5t-204 229.5l-49 82q-69 108 -131 151t-156 43q-72 0 -148.5 -25t-123.5 -59.5t-47 -62.5
q0 -23 29.5 -34t117.5 -23l137 -23q166 -27 222.5 -72.5t56.5 -156.5q0 -82 -15.5 -192t-41.5 -193q-97 -122 -306.5 -205.5t-418.5 -83.5z" />
    <glyph glyph-name="uniFC77.rlig" unicode="&#xfe9c;&#xfeb0;" horiz-adv-x="1357" 
d="M856 1522l141 143h21l143 -143l-141 -146h-21zM698 1231l160 166h23l137 -137l131 137h22l166 -166l-159 -164h-23l-137 135l-131 -135h-23zM217 1069l160 166h22l166 -166l-159 -164h-23zM-111 -317v81q329 89 488.5 187.5t159.5 212.5q0 63 -65.5 147.5t-184.5 177.5
l121 269h81q124 -160 244 -160q69 0 116 51t95 191l29 80h80l61 -345q26 -148 77.5 -199.5t166.5 -51.5v-267l-58 -57q-88 0 -145.5 19.5t-101 73t-71.5 137t-54 221.5l-13 71q-30 -131 -86.5 -189.5t-142.5 -58.5q-23 0 -51 7q-8 -177 -88.5 -375.5t-231.5 -397.5z" />
    <glyph glyph-name="uniFB69FEF0.rlig" unicode="&#xfb69;&#xfef0;" horiz-adv-x="2043" 
d="M975 1165v21h139q17 25 55 74l-20 208q-67 100 49 179h41v-76l47 -66v-4l-47 -31v-131q85 88 170 88q66 0 112 -44.5t46 -104.5q0 -73 -45 -174q-120 -53 -308 -53h-79zM1368 1288q-51 0 -93 -23.5t-87 -78.5h39q158 0 270 26q-10 40 -46 58t-83 18zM664 -559
q-129 0 -231 30.5t-168 82.5t-109.5 124.5t-61.5 152t-18 169.5q0 220 96 477l84 -24q-51 -173 -51 -283q0 -385 493 -385q183 0 362 54.5t279 137.5q-51 22 -223 48l-137 22q-124 21 -184 79.5t-60 170.5q0 138 79 272.5t210.5 221t271.5 86.5q112 0 206 -67.5t194 -223.5
l49 -82q63 -101 129.5 -140.5t169.5 -39.5v-267l-59 -57q-143 0 -243 65.5t-204 229.5l-49 82q-69 108 -131 151t-156 43q-72 0 -148.5 -25t-123.5 -59.5t-47 -62.5q0 -23 29.5 -34t117.5 -23l137 -23q166 -27 222.5 -72.5t56.5 -156.5q0 -82 -15.5 -192t-41.5 -193
q-97 -122 -306.5 -205.5t-418.5 -83.5z" />
    <glyph glyph-name="uniFB69FB8B.rlig" unicode="&#xfb69;&#xfb8b;" horiz-adv-x="1357" 
d="M684 1208v21h139q11 17 56 74l-21 208q-67 100 49 179h41v-76l47 -66v-4l-47 -31v-131q85 88 170 88q66 0 112 -44.5t46 -104.5q0 -73 -45 -174q-120 -53 -307 -53h-80zM238 1360l141 143h20l144 -143l-142 -146h-20zM1077 1331q-51 0 -93 -23.5t-87 -78.5h39
q158 0 270 26q-10 40 -46 58t-83 18zM80 1069l160 166h22l137 -137l131 137h23l166 -166l-160 -164h-22l-138 135l-131 -135h-22zM-111 -317v81q329 89 488.5 187.5t159.5 212.5q0 63 -65.5 147.5t-184.5 177.5l121 269h81q124 -160 244 -160q69 0 116 51t95 191l29 80h80
l61 -345q26 -148 77.5 -199.5t166.5 -51.5v-267l-58 -57q-88 0 -145.5 19.5t-101 73t-71.5 137t-54 221.5l-13 71q-30 -131 -86.5 -189.5t-142.5 -58.5q-23 0 -51 7q-8 -177 -88.5 -375.5t-231.5 -397.5z" />
    <glyph glyph-name="uniFB69FEE6.rlig" unicode="&#xfb69;&#xfee6;" horiz-adv-x="1982" 
d="M1272 1208v21h139q17 25 55 74l-20 208q-67 100 49 179h41v-76l47 -66v-4l-47 -31v-131q85 88 170 88q66 0 112 -44.5t46 -104.5q0 -73 -45 -174q-120 -53 -308 -53h-79zM1665 1331q-51 0 -93 -23.5t-87 -78.5h39q158 0 270 26q-10 40 -46 58t-83 18zM571 -397
q-233 0 -364 129.5t-131 361.5q0 186 86 424l78 -24q-35 -128 -35 -222q0 -325 401 -325q144 0 276.5 45t231.5 127q-42 141 -205 370l123 269h80q126 -160 248 -160q68 0 113.5 50.5t95.5 191.5l26 80h82l60 -345q26 -148 78 -199.5t167 -51.5v-267l-59 -57
q-116 0 -184 39.5t-110.5 134.5t-76.5 277l-14 73q-29 -132 -84.5 -191t-142.5 -59q-47 0 -88 21q2 -23 2 -64q0 -189 -62 -378q-107 -118 -263.5 -184t-328.5 -66zM395 643l160 166h23l165 -166l-159 -164h-23z" />
    <glyph glyph-name="uniFB69FEAE.rlig" unicode="&#xfb69;&#xfeae;" horiz-adv-x="1357" 
d="M684 1208v21h139q11 17 56 74l-21 208q-67 100 49 179h41v-76l47 -66v-4l-47 -31v-131q85 88 170 88q66 0 112 -44.5t46 -104.5q0 -73 -45 -174q-120 -53 -307 -53h-80zM1077 1331q-51 0 -93 -23.5t-87 -78.5h39q158 0 270 26q-10 40 -46 58t-83 18zM-111 -317v81
q329 89 488.5 187.5t159.5 212.5q0 63 -65.5 147.5t-184.5 177.5l121 269h81q124 -160 244 -160q69 0 116 51t95 191l29 80h80l61 -345q26 -148 77.5 -199.5t166.5 -51.5v-267l-58 -57q-88 0 -145.5 19.5t-101 73t-71.5 137t-54 221.5l-13 71q-30 -131 -86.5 -189.5
t-142.5 -58.5q-23 0 -51 7q-8 -177 -88.5 -375.5t-231.5 -397.5z" />
    <glyph glyph-name="uniFB69FB8D.rlig" unicode="&#xfb69;&#xfb8d;" horiz-adv-x="1357" 
d="M684 1208v21h139q11 17 56 74l-21 208q-67 100 49 179h41v-76l47 -66v-4l-47 -31v-131q85 88 170 88q66 0 112 -44.5t46 -104.5q0 -73 -45 -174q-120 -53 -307 -53h-80zM66 1047v20h139q17 25 55 74l-20 209q-67 99 49 178h41v-76l47 -66v-4l-47 -30v-131q85 88 170 88
q66 0 111.5 -45t45.5 -105q0 -73 -45 -174q-120 -53 -307 -53h-80zM1077 1331q-51 0 -93 -23.5t-87 -78.5h39q158 0 270 26q-10 40 -46 58t-83 18zM459 1169q-51 0 -93 -23.5t-87 -78.5h38q155 0 271 27q-10 39 -46 57t-83 18zM-111 -317v81q329 89 488.5 187.5t159.5 212.5
q0 63 -65.5 147.5t-184.5 177.5l121 269h81q124 -160 244 -160q69 0 116 51t95 191l29 80h80l61 -345q26 -148 77.5 -199.5t166.5 -51.5v-267l-58 -57q-88 0 -145.5 19.5t-101 73t-71.5 137t-54 221.5l-13 71q-30 -131 -86.5 -189.5t-142.5 -58.5q-23 0 -51 7
q-8 -177 -88.5 -375.5t-231.5 -397.5z" />
    <glyph glyph-name="uniFB69FEF2.rlig" unicode="&#xfb69;&#xfef2;" horiz-adv-x="2043" 
d="M975 1165v21h139q17 25 55 74l-20 208q-67 100 49 179h41v-76l47 -66v-4l-47 -31v-131q85 88 170 88q66 0 112 -44.5t46 -104.5q0 -73 -45 -174q-120 -53 -308 -53h-79zM1368 1288q-51 0 -93 -23.5t-87 -78.5h39q158 0 270 26q-10 40 -46 58t-83 18zM664 -559
q-129 0 -231 30.5t-168 82.5t-109.5 124.5t-61.5 152t-18 169.5q0 220 96 477l84 -24q-51 -173 -51 -283q0 -385 493 -385q183 0 362 54.5t279 137.5q-51 22 -223 48l-137 22q-124 21 -184 79.5t-60 170.5q0 138 79 272.5t210.5 221t271.5 86.5q112 0 206 -67.5t194 -223.5
l49 -82q63 -101 129.5 -140.5t169.5 -39.5v-267l-59 -57q-143 0 -243 65.5t-204 229.5l-49 82q-69 108 -131 151t-156 43q-72 0 -148.5 -25t-123.5 -59.5t-47 -62.5q0 -23 29.5 -34t117.5 -23l137 -23q166 -27 222.5 -72.5t56.5 -156.5q0 -82 -15.5 -192t-41.5 -193
q-97 -122 -306.5 -205.5t-418.5 -83.5zM449 -866l159 166h23l137 -138l131 138h23l165 -166l-159 -164h-23l-137 135l-131 -135h-23z" />
    <glyph glyph-name="uniFB69FE8A.rlig" unicode="&#xfb69;&#xfe8a;" horiz-adv-x="2043" 
d="M975 1165v21h139q17 25 55 74l-20 208q-67 100 49 179h41v-76l47 -66v-4l-47 -31v-131q85 88 170 88q66 0 112 -44.5t46 -104.5q0 -73 -45 -174q-120 -53 -308 -53h-79zM1368 1288q-51 0 -93 -23.5t-87 -78.5h39q158 0 270 26q-10 40 -46 58t-83 18zM27 629l116 86
q-32 24 -53.5 58.5t-21.5 70.5q0 81 76 161t157 80q57 0 87 -28.5t30 -69.5q0 -56 -29 -102l-141 53q-42 -8 -75.5 -27.5t-33.5 -38.5q0 -36 86 -54.5t172 -6.5l82 12l6 -8l-30 -162l-428 -69v45zM664 -559q-129 0 -231 30.5t-168 82.5t-109.5 124.5t-61.5 152t-18 169.5
q0 220 96 477l84 -24q-51 -173 -51 -283q0 -385 493 -385q183 0 362 54.5t279 137.5q-51 22 -223 48l-137 22q-124 21 -184 79.5t-60 170.5q0 138 79 272.5t210.5 221t271.5 86.5q112 0 206 -67.5t194 -223.5l49 -82q63 -101 129.5 -140.5t169.5 -39.5v-267l-59 -57
q-143 0 -243 65.5t-204 229.5l-49 82q-69 108 -131 151t-156 43q-72 0 -148.5 -25t-123.5 -59.5t-47 -62.5q0 -23 29.5 -34t117.5 -23l137 -23q166 -27 222.5 -72.5t56.5 -156.5q0 -82 -15.5 -192t-41.5 -193q-97 -122 -306.5 -205.5t-418.5 -83.5z" />
    <glyph glyph-name="uniFB69FEB0.rlig" unicode="&#xfb69;&#xfeb0;" horiz-adv-x="1357" 
d="M684 1208v21h139q11 17 56 74l-21 208q-67 100 49 179h41v-76l47 -66v-4l-47 -31v-131q85 88 170 88q66 0 112 -44.5t46 -104.5q0 -73 -45 -174q-120 -53 -307 -53h-80zM1077 1331q-51 0 -93 -23.5t-87 -78.5h39q158 0 270 26q-10 40 -46 58t-83 18zM217 1069l160 166h22
l166 -166l-159 -164h-23zM-111 -317v81q329 89 488.5 187.5t159.5 212.5q0 63 -65.5 147.5t-184.5 177.5l121 269h81q124 -160 244 -160q69 0 116 51t95 191l29 80h80l61 -345q26 -148 77.5 -199.5t166.5 -51.5v-267l-58 -57q-88 0 -145.5 19.5t-101 73t-71.5 137t-54 221.5
l-13 71q-30 -131 -86.5 -189.5t-142.5 -58.5q-23 0 -51 7q-8 -177 -88.5 -375.5t-231.5 -397.5z" />
    <glyph glyph-name="uniFC68.rlig" unicode="&#xfe8c;&#xfef0;" horiz-adv-x="2043" 
d="M1069 1053l117 86q-32 24 -54 58.5t-22 70.5q0 81 76 161t157 80q57 0 87 -28.5t30 -69.5q0 -57 -28 -102l-142 53q-42 -8 -75 -27.5t-33 -38.5q0 -36 86 -54.5t172 -6.5l82 12l6 -8l-31 -162l-428 -69v45zM664 -559q-129 0 -231 30.5t-168 82.5t-109.5 124.5t-61.5 152
t-18 169.5q0 220 96 477l84 -24q-51 -173 -51 -283q0 -385 493 -385q183 0 362 54.5t279 137.5q-51 22 -223 48l-137 22q-124 21 -184 79.5t-60 170.5q0 138 79 272.5t210.5 221t271.5 86.5q112 0 206 -67.5t194 -223.5l49 -82q63 -101 129.5 -140.5t169.5 -39.5v-267
l-59 -57q-143 0 -243 65.5t-204 229.5l-49 82q-69 108 -131 151t-156 43q-72 0 -148.5 -25t-123.5 -59.5t-47 -62.5q0 -23 29.5 -34t117.5 -23l137 -23q166 -27 222.5 -72.5t56.5 -156.5q0 -82 -15.5 -192t-41.5 -193q-97 -122 -306.5 -205.5t-418.5 -83.5z" />
    <glyph glyph-name="uniFE8CFB8B.rlig" unicode="&#xfe8c;&#xfb8b;" horiz-adv-x="1357" 
d="M780 1096l117 86q-32 24 -54 58.5t-22 70.5q0 81 76.5 161t157.5 80q57 0 86.5 -28.5t29.5 -69.5q0 -57 -28 -102l-142 53q-42 -8 -75 -27.5t-33 -38.5q0 -36 86 -54.5t172 -6.5l82 12l6 -8l-31 -162l-428 -69v45zM238 1360l141 143h20l144 -143l-142 -146h-20zM80 1069
l160 166h22l137 -137l131 137h23l166 -166l-160 -164h-22l-138 135l-131 -135h-22zM-111 -317v81q329 89 488.5 187.5t159.5 212.5q0 63 -65.5 147.5t-184.5 177.5l121 269h81q124 -160 244 -160q69 0 116 51t95 191l29 80h80l61 -345q26 -148 77.5 -199.5t166.5 -51.5v-267
l-58 -57q-88 0 -145.5 19.5t-101 73t-71.5 137t-54 221.5l-13 71q-30 -131 -86.5 -189.5t-142.5 -58.5q-23 0 -51 7q-8 -177 -88.5 -375.5t-231.5 -397.5z" />
    <glyph glyph-name="uniFC67.rlig" unicode="&#xfe8c;&#xfee6;" horiz-adv-x="1982" 
d="M1366 1096l117 86q-32 24 -54 58.5t-22 70.5q0 81 76 161t157 80q57 0 87 -28.5t30 -69.5q0 -57 -28 -102l-142 53q-42 -8 -75 -27.5t-33 -38.5q0 -36 86 -54.5t172 -6.5l82 12l6 -8l-31 -162l-428 -69v45zM571 -397q-233 0 -364 129.5t-131 361.5q0 186 86 424l78 -24
q-35 -128 -35 -222q0 -325 401 -325q144 0 276.5 45t231.5 127q-42 141 -205 370l123 269h80q126 -160 248 -160q68 0 113.5 50.5t95.5 191.5l26 80h82l60 -345q26 -148 78 -199.5t167 -51.5v-267l-59 -57q-116 0 -184 39.5t-110.5 134.5t-76.5 277l-14 73
q-29 -132 -84.5 -191t-142.5 -59q-47 0 -88 21q2 -23 2 -64q0 -189 -62 -378q-107 -118 -263.5 -184t-328.5 -66zM395 643l160 166h23l165 -166l-159 -164h-23z" />
    <glyph glyph-name="uniFC64.rlig" unicode="&#xfe8c;&#xfeae;" horiz-adv-x="1357" 
d="M780 1096l117 86q-32 24 -54 58.5t-22 70.5q0 81 76.5 161t157.5 80q57 0 86.5 -28.5t29.5 -69.5q0 -57 -28 -102l-142 53q-42 -8 -75 -27.5t-33 -38.5q0 -36 86 -54.5t172 -6.5l82 12l6 -8l-31 -162l-428 -69v45zM-111 -317v81q329 89 488.5 187.5t159.5 212.5
q0 63 -65.5 147.5t-184.5 177.5l121 269h81q124 -160 244 -160q69 0 116 51t95 191l29 80h80l61 -345q26 -148 77.5 -199.5t166.5 -51.5v-267l-58 -57q-88 0 -145.5 19.5t-101 73t-71.5 137t-54 221.5l-13 71q-30 -131 -86.5 -189.5t-142.5 -58.5q-23 0 -51 7
q-8 -177 -88.5 -375.5t-231.5 -397.5z" />
    <glyph glyph-name="uniFE8CFB8D.rlig" unicode="&#xfe8c;&#xfb8d;" horiz-adv-x="1357" 
d="M780 1096l117 86q-32 24 -54 58.5t-22 70.5q0 81 76.5 161t157.5 80q57 0 86.5 -28.5t29.5 -69.5q0 -57 -28 -102l-142 53q-42 -8 -75 -27.5t-33 -38.5q0 -36 86 -54.5t172 -6.5l82 12l6 -8l-31 -162l-428 -69v45zM66 1047v20h139q17 25 55 74l-20 209q-67 99 49 178h41
v-76l47 -66v-4l-47 -30v-131q85 88 170 88q66 0 111.5 -45t45.5 -105q0 -73 -45 -174q-120 -53 -307 -53h-80zM459 1169q-51 0 -93 -23.5t-87 -78.5h38q155 0 271 27q-10 39 -46 57t-83 18zM-111 -317v81q329 89 488.5 187.5t159.5 212.5q0 63 -65.5 147.5t-184.5 177.5
l121 269h81q124 -160 244 -160q69 0 116 51t95 191l29 80h80l61 -345q26 -148 77.5 -199.5t166.5 -51.5v-267l-58 -57q-88 0 -145.5 19.5t-101 73t-71.5 137t-54 221.5l-13 71q-30 -131 -86.5 -189.5t-142.5 -58.5q-23 0 -51 7q-8 -177 -88.5 -375.5t-231.5 -397.5z" />
    <glyph glyph-name="uniFC69.rlig" unicode="&#xfe8c;&#xfef2;" horiz-adv-x="2043" 
d="M1069 1053l117 86q-32 24 -54 58.5t-22 70.5q0 81 76 161t157 80q57 0 87 -28.5t30 -69.5q0 -57 -28 -102l-142 53q-42 -8 -75 -27.5t-33 -38.5q0 -36 86 -54.5t172 -6.5l82 12l6 -8l-31 -162l-428 -69v45zM664 -559q-129 0 -231 30.5t-168 82.5t-109.5 124.5t-61.5 152
t-18 169.5q0 220 96 477l84 -24q-51 -173 -51 -283q0 -385 493 -385q183 0 362 54.5t279 137.5q-51 22 -223 48l-137 22q-124 21 -184 79.5t-60 170.5q0 138 79 272.5t210.5 221t271.5 86.5q112 0 206 -67.5t194 -223.5l49 -82q63 -101 129.5 -140.5t169.5 -39.5v-267
l-59 -57q-143 0 -243 65.5t-204 229.5l-49 82q-69 108 -131 151t-156 43q-72 0 -148.5 -25t-123.5 -59.5t-47 -62.5q0 -23 29.5 -34t117.5 -23l137 -23q166 -27 222.5 -72.5t56.5 -156.5q0 -82 -15.5 -192t-41.5 -193q-97 -122 -306.5 -205.5t-418.5 -83.5zM449 -866
l159 166h23l137 -138l131 138h23l165 -166l-159 -164h-23l-137 135l-131 -135h-23z" />
    <glyph glyph-name="uniFE8CFE8A.rlig" unicode="&#xfe8c;&#xfe8a;" horiz-adv-x="2043" 
d="M1069 1053l117 86q-32 24 -54 58.5t-22 70.5q0 81 76 161t157 80q57 0 87 -28.5t30 -69.5q0 -57 -28 -102l-142 53q-42 -8 -75 -27.5t-33 -38.5q0 -36 86 -54.5t172 -6.5l82 12l6 -8l-31 -162l-428 -69v45zM27 629l116 86q-32 24 -53.5 58.5t-21.5 70.5q0 81 76 161
t157 80q57 0 87 -28.5t30 -69.5q0 -56 -29 -102l-141 53q-42 -8 -75.5 -27.5t-33.5 -38.5q0 -36 86 -54.5t172 -6.5l82 12l6 -8l-30 -162l-428 -69v45zM664 -559q-129 0 -231 30.5t-168 82.5t-109.5 124.5t-61.5 152t-18 169.5q0 220 96 477l84 -24q-51 -173 -51 -283
q0 -385 493 -385q183 0 362 54.5t279 137.5q-51 22 -223 48l-137 22q-124 21 -184 79.5t-60 170.5q0 138 79 272.5t210.5 221t271.5 86.5q112 0 206 -67.5t194 -223.5l49 -82q63 -101 129.5 -140.5t169.5 -39.5v-267l-59 -57q-143 0 -243 65.5t-204 229.5l-49 82
q-69 108 -131 151t-156 43q-72 0 -148.5 -25t-123.5 -59.5t-47 -62.5q0 -23 29.5 -34t117.5 -23l137 -23q166 -27 222.5 -72.5t56.5 -156.5q0 -82 -15.5 -192t-41.5 -193q-97 -122 -306.5 -205.5t-418.5 -83.5z" />
    <glyph glyph-name="uniFC65.rlig" unicode="&#xfe8c;&#xfeb0;" horiz-adv-x="1357" 
d="M780 1096l117 86q-32 24 -54 58.5t-22 70.5q0 81 76.5 161t157.5 80q57 0 86.5 -28.5t29.5 -69.5q0 -57 -28 -102l-142 53q-42 -8 -75 -27.5t-33 -38.5q0 -36 86 -54.5t172 -6.5l82 12l6 -8l-31 -162l-428 -69v45zM217 1069l160 166h22l166 -166l-159 -164h-23z
M-111 -317v81q329 89 488.5 187.5t159.5 212.5q0 63 -65.5 147.5t-184.5 177.5l121 269h81q124 -160 244 -160q69 0 116 51t95 191l29 80h80l61 -345q26 -148 77.5 -199.5t166.5 -51.5v-267l-58 -57q-88 0 -145.5 19.5t-101 73t-71.5 137t-54 221.5l-13 71
q-30 -131 -86.5 -189.5t-142.5 -58.5q-23 0 -51 7q-8 -177 -88.5 -375.5t-231.5 -397.5z" />
    <glyph glyph-name="uniFC95.rlig" unicode="&#xfbff;&#xfbfd;" horiz-adv-x="2043" 
d="M664 -559q-129 0 -231 30.5t-168 82.5t-109.5 124.5t-61.5 152t-18 169.5q0 220 96 477l84 -24q-51 -173 -51 -283q0 -385 493 -385q183 0 362 54.5t279 137.5q-51 22 -223 48l-137 22q-124 21 -184 79.5t-60 170.5q0 138 79 272.5t210.5 221t271.5 86.5q112 0 206 -67.5
t194 -223.5l49 -82q63 -101 129.5 -140.5t169.5 -39.5v-267l-59 -57q-143 0 -243 65.5t-204 229.5l-49 82q-69 108 -131 151t-156 43q-72 0 -148.5 -25t-123.5 -59.5t-47 -62.5q0 -23 29.5 -34t117.5 -23l137 -23q166 -27 222.5 -72.5t56.5 -156.5q0 -82 -15.5 -192
t-41.5 -193q-97 -122 -306.5 -205.5t-418.5 -83.5zM1157 -707l160 166h22l138 -137l131 137h22l166 -166l-160 -163h-22l-137 135l-131 -135h-23z" />
    <glyph glyph-name="uniFEF4FB8B.rlig" unicode="&#xfbff;&#xfb8b;" horiz-adv-x="1357" 
d="M238 1360l141 143h20l144 -143l-142 -146h-20zM80 1069l160 166h22l137 -137l131 137h23l166 -166l-160 -164h-22l-138 135l-131 -135h-22zM-111 -317v81q329 89 488.5 187.5t159.5 212.5q0 63 -65.5 147.5t-184.5 177.5l121 269h81q124 -160 244 -160q69 0 116 51
t95 191l29 80h80l61 -345q26 -148 77.5 -199.5t166.5 -51.5v-267l-58 -57q-88 0 -145.5 19.5t-101 73t-71.5 137t-54 221.5l-13 71q-30 -131 -86.5 -189.5t-142.5 -58.5q-23 0 -51 7q-8 -177 -88.5 -375.5t-231.5 -397.5zM592 -307l160 166h22l137 -138l131 138h23l166 -166
l-160 -164h-22l-138 135l-131 -135h-22z" />
    <glyph glyph-name="uniFC94.rlig" unicode="&#xfef4;&#xfee6;" horiz-adv-x="1982" 
d="M571 -397q-233 0 -364 129.5t-131 361.5q0 186 86 424l78 -24q-35 -128 -35 -222q0 -325 401 -325q144 0 276.5 45t231.5 127q-42 141 -205 370l123 269h80q126 -160 248 -160q68 0 113.5 50.5t95.5 191.5l26 80h82l60 -345q26 -148 78 -199.5t167 -51.5v-267l-59 -57
q-116 0 -184 39.5t-110.5 134.5t-76.5 277l-14 73q-29 -132 -84.5 -191t-142.5 -59q-47 0 -88 21q2 -23 2 -64q0 -189 -62 -378q-107 -118 -263.5 -184t-328.5 -66zM395 643l160 166h23l165 -166l-159 -164h-23zM1276 -307l160 166h22l137 -138l131 138h23l166 -166
l-160 -164h-22l-138 135l-131 -135h-22z" />
    <glyph glyph-name="uniFBFFFEE6.rlig" unicode="&#xfbff;&#xfee6;" horiz-adv-x="1982" 
d="M571 -397q-233 0 -364 129.5t-131 361.5q0 186 86 424l78 -24q-35 -128 -35 -222q0 -325 401 -325q144 0 276.5 45t231.5 127q-42 141 -205 370l123 269h80q126 -160 248 -160q68 0 113.5 50.5t95.5 191.5l26 80h82l60 -345q26 -148 78 -199.5t167 -51.5v-267l-59 -57
q-116 0 -184 39.5t-110.5 134.5t-76.5 277l-14 73q-29 -132 -84.5 -191t-142.5 -59q-47 0 -88 21q2 -23 2 -64q0 -189 -62 -378q-107 -118 -263.5 -184t-328.5 -66zM395 643l160 166h23l165 -166l-159 -164h-23zM1276 -307l160 166h22l137 -138l131 138h23l166 -166
l-160 -164h-22l-138 135l-131 -135h-22z" />
    <glyph glyph-name="uniFBFFFB9F.rlig" unicode="&#xfbff;&#xfb9f;" horiz-adv-x="1982" 
d="M571 -397q-233 0 -364 129.5t-131 361.5q0 186 86 424l78 -24q-35 -128 -35 -222q0 -325 401 -325q144 0 276.5 45t231.5 127q-42 141 -205 370l123 269h80q126 -160 248 -160q68 0 113.5 50.5t95.5 191.5l26 80h82l60 -345q26 -148 78 -199.5t167 -51.5v-267l-59 -57
q-116 0 -184 39.5t-110.5 134.5t-76.5 277l-14 73q-29 -132 -84.5 -191t-142.5 -59q-47 0 -88 21q2 -23 2 -64q0 -189 -62 -378q-107 -118 -263.5 -184t-328.5 -66zM1276 -307l160 166h22l137 -138l131 138h23l166 -166l-160 -164h-22l-138 135l-131 -135h-22z" />
    <glyph glyph-name="uniFC91.rlig" unicode="&#xfbff;&#xfeae;" horiz-adv-x="1357" 
d="M-111 -317v81q329 89 488.5 187.5t159.5 212.5q0 63 -65.5 147.5t-184.5 177.5l121 269h81q124 -160 244 -160q69 0 116 51t95 191l29 80h80l61 -345q26 -148 77.5 -199.5t166.5 -51.5v-267l-58 -57q-88 0 -145.5 19.5t-101 73t-71.5 137t-54 221.5l-13 71
q-30 -131 -86.5 -189.5t-142.5 -58.5q-23 0 -51 7q-8 -177 -88.5 -375.5t-231.5 -397.5zM592 -307l160 166h22l137 -138l131 138h23l166 -166l-160 -164h-22l-138 135l-131 -135h-22z" />
    <glyph glyph-name="uniFEF4FB8D.rlig" unicode="&#xfbff;&#xfb8d;" horiz-adv-x="1357" 
d="M66 1047v20h139q17 25 55 74l-20 209q-67 99 49 178h41v-76l47 -66v-4l-47 -30v-131q85 88 170 88q66 0 111.5 -45t45.5 -105q0 -73 -45 -174q-120 -53 -307 -53h-80zM459 1169q-51 0 -93 -23.5t-87 -78.5h38q155 0 271 27q-10 39 -46 57t-83 18zM-111 -317v81
q329 89 488.5 187.5t159.5 212.5q0 63 -65.5 147.5t-184.5 177.5l121 269h81q124 -160 244 -160q69 0 116 51t95 191l29 80h80l61 -345q26 -148 77.5 -199.5t166.5 -51.5v-267l-58 -57q-88 0 -145.5 19.5t-101 73t-71.5 137t-54 221.5l-13 71q-30 -131 -86.5 -189.5
t-142.5 -58.5q-23 0 -51 7q-8 -177 -88.5 -375.5t-231.5 -397.5zM592 -307l160 166h22l137 -138l131 138h23l166 -166l-160 -164h-22l-138 135l-131 -135h-22z" />
    <glyph glyph-name="uniFC96.rlig" unicode="&#xfef4;&#xfef2;" horiz-adv-x="2043" 
d="M664 -559q-129 0 -231 30.5t-168 82.5t-109.5 124.5t-61.5 152t-18 169.5q0 220 96 477l84 -24q-51 -173 -51 -283q0 -385 493 -385q183 0 362 54.5t279 137.5q-51 22 -223 48l-137 22q-124 21 -184 79.5t-60 170.5q0 138 79 272.5t210.5 221t271.5 86.5q112 0 206 -67.5
t194 -223.5l49 -82q63 -101 129.5 -140.5t169.5 -39.5v-267l-59 -57q-143 0 -243 65.5t-204 229.5l-49 82q-69 108 -131 151t-156 43q-72 0 -148.5 -25t-123.5 -59.5t-47 -62.5q0 -23 29.5 -34t117.5 -23l137 -23q166 -27 222.5 -72.5t56.5 -156.5q0 -82 -15.5 -192
t-41.5 -193q-97 -122 -306.5 -205.5t-418.5 -83.5zM1157 -707l160 166h22l138 -137l131 137h22l166 -166l-160 -163h-22l-137 135l-131 -135h-23zM449 -866l159 166h23l137 -138l131 138h23l165 -166l-159 -164h-23l-137 135l-131 -135h-23z" />
    <glyph glyph-name="uniFEF4FE8A.rlig" unicode="&#xfef4;&#xfe8a;" horiz-adv-x="2043" 
d="M27 629l116 86q-32 24 -53.5 58.5t-21.5 70.5q0 81 76 161t157 80q57 0 87 -28.5t30 -69.5q0 -56 -29 -102l-141 53q-42 -8 -75.5 -27.5t-33.5 -38.5q0 -36 86 -54.5t172 -6.5l82 12l6 -8l-30 -162l-428 -69v45zM664 -559q-129 0 -231 30.5t-168 82.5t-109.5 124.5
t-61.5 152t-18 169.5q0 220 96 477l84 -24q-51 -173 -51 -283q0 -385 493 -385q183 0 362 54.5t279 137.5q-51 22 -223 48l-137 22q-124 21 -184 79.5t-60 170.5q0 138 79 272.5t210.5 221t271.5 86.5q112 0 206 -67.5t194 -223.5l49 -82q63 -101 129.5 -140.5t169.5 -39.5
v-267l-59 -57q-143 0 -243 65.5t-204 229.5l-49 82q-69 108 -131 151t-156 43q-72 0 -148.5 -25t-123.5 -59.5t-47 -62.5q0 -23 29.5 -34t117.5 -23l137 -23q166 -27 222.5 -72.5t56.5 -156.5q0 -82 -15.5 -192t-41.5 -193q-97 -122 -306.5 -205.5t-418.5 -83.5zM1157 -707
l160 166h22l138 -137l131 137h22l166 -166l-160 -163h-22l-137 135l-131 -135h-23z" />
    <glyph glyph-name="uniFC92.rlig" unicode="&#xfbff;&#xfeb0;" horiz-adv-x="1357" 
d="M217 1069l160 166h22l166 -166l-159 -164h-23zM-111 -317v81q329 89 488.5 187.5t159.5 212.5q0 63 -65.5 147.5t-184.5 177.5l121 269h81q124 -160 244 -160q69 0 116 51t95 191l29 80h80l61 -345q26 -148 77.5 -199.5t166.5 -51.5v-267l-58 -57q-88 0 -145.5 19.5
t-101 73t-71.5 137t-54 221.5l-13 71q-30 -131 -86.5 -189.5t-142.5 -58.5q-23 0 -51 7q-8 -177 -88.5 -375.5t-231.5 -397.5zM592 -307l160 166h22l137 -138l131 138h23l166 -166l-160 -164h-22l-138 135l-131 -135h-22z" />
    <glyph glyph-name="uniFCF7.rlig" unicode="&#xfecb;&#xfef0;" horiz-adv-x="2185" 
d="M666 -559q-130 0 -232.5 30.5t-168.5 82.5t-109.5 124.5t-61.5 152t-18 169.5q0 220 96 477l84 -24q-51 -173 -51 -283q0 -385 493 -385q181 0 363 47.5t293 122.5q-64 49 -242 76l-246 35l-6 14l74 301l426 55q-63 58 -97 139t-34 170q0 127 57 240.5t150 180.5t196 67
q123 0 217 -94.5t152 -249.5l-39 -47q-188 67 -346 67q-57 0 -106 -6.5t-92.5 -21.5t-68.5 -43.5t-24 -67.5q1 -55 55.5 -94t142 -54.5t200.5 -10t227 33.5l159 39l9 -12l-74 -328l-635 -154q39 -51 39 -114q0 -84 -15 -188.5t-42 -182.5q-99 -112 -298.5 -188t-426.5 -76z
" />
    <glyph glyph-name="uniFCF8.rlig" unicode="&#xfecb;&#xfef2;" horiz-adv-x="2185" 
d="M666 -559q-130 0 -232.5 30.5t-168.5 82.5t-109.5 124.5t-61.5 152t-18 169.5q0 220 96 477l84 -24q-51 -173 -51 -283q0 -385 493 -385q181 0 363 47.5t293 122.5q-64 49 -242 76l-246 35l-6 14l74 301l426 55q-63 58 -97 139t-34 170q0 127 57 240.5t150 180.5t196 67
q123 0 217 -94.5t152 -249.5l-39 -47q-188 67 -346 67q-57 0 -106 -6.5t-92.5 -21.5t-68.5 -43.5t-24 -67.5q1 -55 55.5 -94t142 -54.5t200.5 -10t227 33.5l159 39l9 -12l-74 -328l-635 -154q39 -51 39 -114q0 -84 -15 -188.5t-42 -182.5q-99 -112 -298.5 -188t-426.5 -76z
M432 -858l160 166h22l138 -137l131 137h22l166 -166l-160 -164h-22l-137 135l-131 -135h-23z" />
    <glyph glyph-name="uniFECBFBFD.rlig" unicode="&#xfecb;&#xfbfd;" horiz-adv-x="2168" 
d="M666 -559q-130 0 -232.5 30.5t-168.5 82.5t-109.5 124.5t-61.5 152t-18 169.5q0 220 96 477l84 -24q-51 -173 -51 -283q0 -385 493 -385q181 0 363 47.5t293 122.5q-64 49 -242 76l-246 35l-6 14l74 301l426 55q-63 58 -97 139t-34 170q0 127 57 240.5t150 180.5t196 67
q123 0 217 -94.5t152 -249.5l-39 -47q-188 67 -346 67q-57 0 -106 -6.5t-92.5 -21.5t-68.5 -43.5t-24 -67.5q1 -73 89 -116t222 -45t295 26l162 31l8 -11l-76 -311l-649 -123q72 -60 72 -145q0 -84 -15 -188.5t-42 -182.5q-99 -112 -298.5 -188t-426.5 -76z" />
    <glyph glyph-name="uniFECBFE8A.rlig" unicode="&#xfecb;&#xfe8a;" horiz-adv-x="2185" 
d="M666 -559q-130 0 -232.5 30.5t-168.5 82.5t-109.5 124.5t-61.5 152t-18 169.5q0 220 96 477l84 -24q-51 -173 -51 -283q0 -385 493 -385q181 0 363 47.5t293 122.5q-64 49 -242 76l-246 35l-6 14l74 301l426 55q-63 58 -97 139t-34 170q0 127 57 240.5t150 180.5t196 67
q123 0 217 -94.5t152 -249.5l-39 -47q-188 67 -346 67q-57 0 -106 -6.5t-92.5 -21.5t-68.5 -43.5t-24 -67.5q1 -55 55.5 -94t142 -54.5t200.5 -10t227 33.5l159 39l9 -12l-74 -328l-635 -154q39 -51 39 -114q0 -84 -15 -188.5t-42 -182.5q-99 -112 -298.5 -188t-426.5 -76z
M27 629l116 86q-32 24 -53.5 58.5t-21.5 70.5q0 81 76 161t157 80q57 0 87 -28.5t30 -69.5q0 -56 -29 -102l-141 53q-42 -8 -75.5 -27.5t-33.5 -38.5q0 -36 86 -54.5t172 -6.5l82 12l6 -8l-30 -162l-428 -69v45z" />
    <glyph glyph-name="uniFC09.rlig" unicode="&#xfe91;&#xfef0;" horiz-adv-x="1509" 
d="M645 -397q-124 0 -222.5 30.5t-162.5 82.5t-106 124.5t-60 152t-18 169.5q0 218 96 475l84 -25q-51 -173 -51 -282q0 -182 115 -282.5t358 -100.5q189 0 372 39.5t300 109.5q-56 28 -238 56l-336 49l-6 12l76 317q220 0 389 48q-50 104 -217 276l123 270h80
q57 -99 89.5 -215.5t32.5 -228.5q0 -133 -40 -258q-33 -20 -66 -37q114 -24 162.5 -67.5t48.5 -116.5q0 -76 -15 -171t-42 -165q-98 -109 -302.5 -185.5t-443.5 -76.5zM1149 -580l160 166h22l166 -166l-160 -163h-22z" />
    <glyph glyph-name="uniFC0A.rlig" unicode="&#xfe91;&#xfef2;" horiz-adv-x="1509" 
d="M645 -397q-124 0 -222.5 30.5t-162.5 82.5t-106 124.5t-60 152t-18 169.5q0 218 96 475l84 -25q-51 -173 -51 -282q0 -182 115 -282.5t358 -100.5q189 0 372 39.5t300 109.5q-56 28 -238 56l-336 49l-6 12l76 317q220 0 389 48q-50 104 -217 276l123 270h80
q57 -99 89.5 -215.5t32.5 -228.5q0 -133 -40 -258q-33 -20 -66 -37q114 -24 162.5 -67.5t48.5 -116.5q0 -76 -15 -171t-42 -165q-98 -109 -302.5 -185.5t-443.5 -76.5zM1149 -580l160 166h22l166 -166l-160 -163h-22zM449 -696l159 166h23l137 -138l131 138h23l165 -166
l-159 -164h-23l-137 135l-131 -135h-23z" />
    <glyph glyph-name="uniFE91FE8A.rlig" unicode="&#xfe91;&#xfe8a;" horiz-adv-x="1509" 
d="M27 788l116 86q-32 24 -53.5 59t-21.5 71q0 81 76 161t157 80q57 0 87 -28.5t30 -69.5q0 -57 -29 -103l-141 54q-42 -8 -75.5 -27.5t-33.5 -38.5q0 -36 86 -54.5t172 -6.5l82 12l6 -8l-30 -162l-428 -70v45zM645 -397q-124 0 -222.5 30.5t-162.5 82.5t-106 124.5t-60 152
t-18 169.5q0 218 96 475l84 -25q-51 -173 -51 -282q0 -182 115 -282.5t358 -100.5q189 0 372 39.5t300 109.5q-56 28 -238 56l-336 49l-6 12l76 317q220 0 389 48q-50 104 -217 276l123 270h80q57 -99 89.5 -215.5t32.5 -228.5q0 -133 -40 -258q-33 -20 -66 -37
q114 -24 162.5 -67.5t48.5 -116.5q0 -76 -15 -171t-42 -165q-98 -109 -302.5 -185.5t-443.5 -76.5zM1149 -580l160 166h22l166 -166l-160 -163h-22z" />
    <glyph glyph-name="uniFD07.rlig" unicode="&#xfebf;&#xfef0;" horiz-adv-x="3008" 
d="M2054 1231l160 166h22l166 -166l-159 -164h-23zM664 -559q-129 0 -231 30.5t-168 82.5t-109.5 124.5t-61.5 152t-18 169.5q0 220 96 477l84 -24q-51 -173 -51 -283q0 -385 493 -385q183 0 362 54.5t279 137.5q-51 22 -223 48l-121 18q-136 24 -198 83t-62 171
q0 138 79 272.5t210.5 221t271.5 86.5q112 0 206 -67t194 -224l49 -82q69 -106 119 -146q218 307 376 434.5t320 127.5q161 0 271 -109.5t110 -257.5q0 -168 -111 -416q-130 -80 -339.5 -127t-442.5 -47q-84 0 -149 14.5t-111.5 37t-91.5 68.5t-77 90.5t-81 121.5l-49 82
q-69 108 -131 151t-156 43q-72 0 -148.5 -25t-123.5 -59.5t-47 -62.5q0 -23 29.5 -34t117.5 -23l137 -23q166 -27 222.5 -72.5t56.5 -156.5q0 -82 -15.5 -192t-41.5 -193q-97 -122 -306.5 -205.5t-418.5 -83.5zM2458 596q-142 0 -263 -65.5t-258 -219.5q63 -24 170 -24
q204 0 396 30.5t331 85.5q-50 86 -158 139.5t-218 53.5z" />
    <glyph glyph-name="uniFEBFFB8B.rlig" unicode="&#xfebf;&#xfb8b;" horiz-adv-x="2375" 
d="M1473 1233l159 166h23l166 -166l-160 -164h-23zM367 1190l141 143h20l144 -143l-142 -146h-20zM209 899l160 166h22l137 -137l131 137h23l166 -166l-160 -164h-22l-138 135l-131 -135h-22zM-111 -317v81q329 91 488.5 198t159.5 237l-105 118l121 271l467 86l14 -6v-277
q61 -57 162 -80q232 336 397.5 473.5t333.5 137.5q105 0 193.5 -51.5t138 -135t49.5 -178.5q0 -172 -110 -418q-128 -82 -324 -129t-416 -47q-267 0 -397 79t-187 275l-241 -45q-8 -174 -88 -370t-230 -394zM1827 598q-149 0 -272 -69t-265 -234q73 -8 193 -8q428 0 717 119
q-48 85 -155 138.5t-218 53.5z" />
    <glyph glyph-name="uniFD10.rlig" unicode="&#xfebf;&#xfeae;" horiz-adv-x="2375" 
d="M1473 1233l159 166h23l166 -166l-160 -164h-23zM-111 -317v81q329 91 488.5 198t159.5 237l-105 118l121 271l467 86l14 -6v-277q61 -57 162 -80q232 336 397.5 473.5t333.5 137.5q105 0 193.5 -51.5t138 -135t49.5 -178.5q0 -172 -110 -418q-128 -82 -324 -129t-416 -47
q-267 0 -397 79t-187 275l-241 -45q-8 -174 -88 -370t-230 -394zM1827 598q-149 0 -272 -69t-265 -234q73 -8 193 -8q428 0 717 119q-48 85 -155 138.5t-218 53.5z" />
    <glyph glyph-name="uniFEBFFB8D.rlig" unicode="&#xfebf;&#xfb8d;" horiz-adv-x="2375" 
d="M1473 1233l159 166h23l166 -166l-160 -164h-23zM195 877v20h139q17 25 55 74l-20 209q-67 99 49 178h41v-76l47 -65v-5l-47 -30v-131q85 88 170 88q66 0 111.5 -45t45.5 -105q0 -73 -45 -174q-120 -53 -307 -53h-80zM588 999q-51 0 -93 -23.5t-87 -78.5h38q155 0 271 27
q-10 39 -46 57t-83 18zM-111 -317v81q329 91 488.5 198t159.5 237l-105 118l121 271l467 86l14 -6v-277q61 -57 162 -80q232 336 397.5 473.5t333.5 137.5q105 0 193.5 -51.5t138 -135t49.5 -178.5q0 -172 -110 -418q-128 -82 -324 -129t-416 -47q-267 0 -397 79t-187 275
l-241 -45q-8 -174 -88 -370t-230 -394zM1827 598q-149 0 -272 -69t-265 -234q73 -8 193 -8q428 0 717 119q-48 85 -155 138.5t-218 53.5z" />
    <glyph glyph-name="uniFD08.rlig" unicode="&#xfebf;&#xfef2;" horiz-adv-x="3008" 
d="M2054 1231l160 166h22l166 -166l-159 -164h-23zM664 -559q-129 0 -231 30.5t-168 82.5t-109.5 124.5t-61.5 152t-18 169.5q0 220 96 477l84 -24q-51 -173 -51 -283q0 -385 493 -385q183 0 362 54.5t279 137.5q-51 22 -223 48l-121 18q-136 24 -198 83t-62 171
q0 138 79 272.5t210.5 221t271.5 86.5q112 0 206 -67t194 -224l49 -82q69 -106 119 -146q218 307 376 434.5t320 127.5q161 0 271 -109.5t110 -257.5q0 -168 -111 -416q-130 -80 -339.5 -127t-442.5 -47q-84 0 -149 14.5t-111.5 37t-91.5 68.5t-77 90.5t-81 121.5l-49 82
q-69 108 -131 151t-156 43q-72 0 -148.5 -25t-123.5 -59.5t-47 -62.5q0 -23 29.5 -34t117.5 -23l137 -23q166 -27 222.5 -72.5t56.5 -156.5q0 -82 -15.5 -192t-41.5 -193q-97 -122 -306.5 -205.5t-418.5 -83.5zM2458 596q-142 0 -263 -65.5t-258 -219.5q63 -24 170 -24
q204 0 396 30.5t331 85.5q-50 86 -158 139.5t-218 53.5zM449 -858l159 166h23l137 -137l131 137h23l165 -166l-159 -164h-23l-137 135l-131 -135h-23z" />
    <glyph glyph-name="uniFEBFFE8A.rlig" unicode="&#xfebf;&#xfe8a;" horiz-adv-x="3008" 
d="M2054 1231l160 166h22l166 -166l-159 -164h-23zM27 629l116 86q-32 24 -53.5 58.5t-21.5 70.5q0 81 76 161t157 80q57 0 87 -28.5t30 -69.5q0 -56 -29 -102l-141 53q-42 -8 -75.5 -27.5t-33.5 -38.5q0 -36 86 -54.5t172 -6.5l82 12l6 -8l-30 -162l-428 -69v45zM664 -559
q-129 0 -231 30.5t-168 82.5t-109.5 124.5t-61.5 152t-18 169.5q0 220 96 477l84 -24q-51 -173 -51 -283q0 -385 493 -385q183 0 362 54.5t279 137.5q-51 22 -223 48l-121 18q-136 24 -198 83t-62 171q0 138 79 272.5t210.5 221t271.5 86.5q112 0 206 -67t194 -224l49 -82
q69 -106 119 -146q218 307 376 434.5t320 127.5q161 0 271 -109.5t110 -257.5q0 -168 -111 -416q-130 -80 -339.5 -127t-442.5 -47q-84 0 -149 14.5t-111.5 37t-91.5 68.5t-77 90.5t-81 121.5l-49 82q-69 108 -131 151t-156 43q-72 0 -148.5 -25t-123.5 -59.5t-47 -62.5
q0 -23 29.5 -34t117.5 -23l137 -23q166 -27 222.5 -72.5t56.5 -156.5q0 -82 -15.5 -192t-41.5 -193q-97 -122 -306.5 -205.5t-418.5 -83.5zM2458 596q-142 0 -263 -65.5t-258 -219.5q63 -24 170 -24q204 0 396 30.5t331 85.5q-50 86 -158 139.5t-218 53.5z" />
    <glyph glyph-name="uniFEBFFEB0.rlig" unicode="&#xfebf;&#xfeb0;" horiz-adv-x="2375" 
d="M1473 1233l159 166h23l166 -166l-160 -164h-23zM344 899l160 166h22l166 -166l-160 -164h-22zM-111 -317v81q329 91 488.5 198t159.5 237l-105 118l121 271l467 86l14 -6v-277q61 -57 162 -80q232 336 397.5 473.5t333.5 137.5q105 0 193.5 -51.5t138 -135t49.5 -178.5
q0 -172 -110 -418q-128 -82 -324 -129t-416 -47q-267 0 -397 79t-187 275l-241 -45q-8 -174 -88 -370t-230 -394zM1827 598q-149 0 -272 -69t-265 -234q73 -8 193 -8q428 0 717 119q-48 85 -155 138.5t-218 53.5z" />
    <glyph glyph-name="uniFC31.rlig" unicode="&#xfed3;&#xfef0;" horiz-adv-x="1523" 
d="M838 1630l159 166h23l166 -166l-160 -164h-22zM649 -397q-125 0 -224 30.5t-163.5 82.5t-107 124.5t-60.5 152t-18 169.5q0 218 96 475l84 -25q-51 -173 -51 -282q0 -182 115 -282.5t360 -100.5q190 0 364.5 40t292.5 117q-61 31 -225 46l-336 30l-6 15l76 266
q244 0 418 59q4 20 4 62q0 121 -51 229l-64 -174q-90 -51 -213 -51q-139 0 -218 72t-79 200q0 123 51 238.5t134.5 186.5t172.5 71q101 0 185.5 -86t132 -231.5t47.5 -317.5q0 -188 -51 -318q-37 -22 -64 -34q106 -24 151.5 -63.5t45.5 -102.5q0 -76 -15 -171t-42 -165
q-100 -111 -302 -186.5t-440 -75.5zM741 934q0 -70 201 -70q116 0 232 21q-51 75 -120 118.5t-145 43.5q-66 0 -117 -34.5t-51 -78.5z" />
    <glyph glyph-name="uniFC32.rlig" unicode="&#xfed3;&#xfef2;" horiz-adv-x="1523" 
d="M838 1630l159 166h23l166 -166l-160 -164h-22zM649 -397q-125 0 -224 30.5t-163.5 82.5t-107 124.5t-60.5 152t-18 169.5q0 218 96 475l84 -25q-51 -173 -51 -282q0 -182 115 -282.5t360 -100.5q190 0 364.5 40t292.5 117q-61 31 -225 46l-336 30l-6 15l76 266
q244 0 418 59q4 20 4 62q0 121 -51 229l-64 -174q-90 -51 -213 -51q-139 0 -218 72t-79 200q0 123 51 238.5t134.5 186.5t172.5 71q101 0 185.5 -86t132 -231.5t47.5 -317.5q0 -188 -51 -318q-37 -22 -64 -34q106 -24 151.5 -63.5t45.5 -102.5q0 -76 -15 -171t-42 -165
q-100 -111 -302 -186.5t-440 -75.5zM741 934q0 -70 201 -70q116 0 232 21q-51 75 -120 118.5t-145 43.5q-66 0 -117 -34.5t-51 -78.5zM449 -696l159 166h23l137 -138l131 138h23l165 -166l-159 -164h-23l-137 135l-131 -135h-23z" />
    <glyph glyph-name="uniFED3FE8A.rlig" unicode="&#xfed3;&#xfe8a;" horiz-adv-x="1523" 
d="M838 1630l159 166h23l166 -166l-160 -164h-22zM649 -397q-125 0 -224 30.5t-163.5 82.5t-107 124.5t-60.5 152t-18 169.5q0 218 96 475l84 -25q-51 -173 -51 -282q0 -182 115 -282.5t360 -100.5q190 0 364.5 40t292.5 117q-61 31 -225 46l-336 30l-6 15l76 266
q244 0 418 59q4 20 4 62q0 121 -51 229l-64 -174q-90 -51 -213 -51q-139 0 -218 72t-79 200q0 123 51 238.5t134.5 186.5t172.5 71q101 0 185.5 -86t132 -231.5t47.5 -317.5q0 -188 -51 -318q-37 -22 -64 -34q106 -24 151.5 -63.5t45.5 -102.5q0 -76 -15 -171t-42 -165
q-100 -111 -302 -186.5t-440 -75.5zM27 788l116 86q-32 24 -53.5 59t-21.5 71q0 81 76 161t157 80q57 0 87 -28.5t30 -69.5q0 -57 -29 -103l-141 54q-42 -8 -75.5 -27.5t-33.5 -38.5q0 -36 86 -54.5t172 -6.5l82 12l6 -8l-30 -162l-428 -70v45zM741 934q0 -70 201 -70
q116 0 232 21q-51 75 -120 118.5t-145 43.5q-66 0 -117 -34.5t-51 -78.5z" />
    <glyph glyph-name="uniFB94FEF0.rlig" unicode="&#xfb94;&#xfef0;" horiz-adv-x="1566" 
d="M815 1368l74 158l676 262l45 -117l-787 -309zM664 -559q-129 0 -231 30.5t-168 82.5t-109.5 124.5t-61.5 152t-18 169.5q0 220 96 477l84 -24q-51 -173 -51 -283q0 -385 491 -385q179 0 360 44.5t296 123.5q-68 48 -260 70l-301 34l-7 13l78 317q304 3 457 76
q-39 89 -147.5 163.5t-284.5 147.5l-80 -119h-10l-213 193l172 366l895 351l32 -80l-122 -195l-609 -235q238 -139 348.5 -261t110.5 -243q0 -100 -57 -252q-39 -27 -88 -41q87 -35 134.5 -89t47.5 -93q0 -84 -15 -188.5t-42 -182.5q-97 -110 -298.5 -187t-428.5 -77z" />
    <glyph glyph-name="uniFB94FEF2.rlig" unicode="&#xfb94;&#xfef2;" horiz-adv-x="1566" 
d="M815 1368l74 158l676 262l45 -117l-787 -309zM664 -559q-129 0 -231 30.5t-168 82.5t-109.5 124.5t-61.5 152t-18 169.5q0 220 96 477l84 -24q-51 -173 -51 -283q0 -385 491 -385q179 0 360 44.5t296 123.5q-68 48 -260 70l-301 34l-7 13l78 317q304 3 457 76
q-39 89 -147.5 163.5t-284.5 147.5l-80 -119h-10l-213 193l172 366l895 351l32 -80l-122 -195l-609 -235q238 -139 348.5 -261t110.5 -243q0 -100 -57 -252q-39 -27 -88 -41q87 -35 134.5 -89t47.5 -93q0 -84 -15 -188.5t-42 -182.5q-97 -110 -298.5 -187t-428.5 -77z
M449 -858l159 166h23l137 -137l131 137h23l165 -166l-159 -164h-23l-137 135l-131 -135h-23z" />
    <glyph glyph-name="uniFB94FE8A.rlig" unicode="&#xfb94;&#xfe8a;" horiz-adv-x="1566" 
d="M815 1368l74 158l676 262l45 -117l-787 -309zM664 -559q-129 0 -231 30.5t-168 82.5t-109.5 124.5t-61.5 152t-18 169.5q0 220 96 477l84 -24q-51 -173 -51 -283q0 -385 491 -385q179 0 360 44.5t296 123.5q-68 48 -260 70l-301 34l-7 13l78 317q304 3 457 76
q-39 89 -147.5 163.5t-284.5 147.5l-80 -119h-10l-213 193l172 366l895 351l32 -80l-122 -195l-609 -235q238 -139 348.5 -261t110.5 -243q0 -100 -57 -252q-39 -27 -88 -41q87 -35 134.5 -89t47.5 -93q0 -84 -15 -188.5t-42 -182.5q-97 -110 -298.5 -187t-428.5 -77z
M27 629l116 86q-32 24 -53.5 58.5t-21.5 70.5q0 81 76 161t157 80q57 0 87 -28.5t30 -69.5q0 -56 -29 -102l-141 53q-42 -8 -75.5 -27.5t-33.5 -38.5q0 -36 86 -54.5t172 -6.5l82 12l6 -8l-30 -162l-428 -69v45z" />
    <glyph glyph-name="uniFCF9.rlig" unicode="&#xfecf;&#xfef0;" horiz-adv-x="2185" 
d="M1417 1544l160 166h22l166 -166l-159 -164h-23zM666 -559q-130 0 -232.5 30.5t-168.5 82.5t-109.5 124.5t-61.5 152t-18 169.5q0 220 96 477l84 -24q-51 -173 -51 -283q0 -385 493 -385q181 0 363 47.5t293 122.5q-64 49 -242 76l-246 35l-6 14l74 301l426 55
q-63 58 -97 139t-34 170q0 127 57 240.5t150 180.5t196 67q123 0 217 -94.5t152 -249.5l-39 -47q-188 67 -346 67q-57 0 -106 -6.5t-92.5 -21.5t-68.5 -43.5t-24 -67.5q1 -55 55.5 -94t142 -54.5t200.5 -10t227 33.5l159 39l9 -12l-74 -328l-635 -154q39 -51 39 -114
q0 -84 -15 -188.5t-42 -182.5q-99 -112 -298.5 -188t-426.5 -76z" />
    <glyph glyph-name="uniFCFA.rlig" unicode="&#xfecf;&#xfef2;" horiz-adv-x="2185" 
d="M1417 1544l160 166h22l166 -166l-159 -164h-23zM666 -559q-130 0 -232.5 30.5t-168.5 82.5t-109.5 124.5t-61.5 152t-18 169.5q0 220 96 477l84 -24q-51 -173 -51 -283q0 -385 493 -385q181 0 363 47.5t293 122.5q-64 49 -242 76l-246 35l-6 14l74 301l426 55
q-63 58 -97 139t-34 170q0 127 57 240.5t150 180.5t196 67q123 0 217 -94.5t152 -249.5l-39 -47q-188 67 -346 67q-57 0 -106 -6.5t-92.5 -21.5t-68.5 -43.5t-24 -67.5q1 -55 55.5 -94t142 -54.5t200.5 -10t227 33.5l159 39l9 -12l-74 -328l-635 -154q39 -51 39 -114
q0 -84 -15 -188.5t-42 -182.5q-99 -112 -298.5 -188t-426.5 -76zM432 -858l160 166h22l138 -137l131 137h22l166 -166l-160 -164h-22l-137 135l-131 -135h-23z" />
    <glyph glyph-name="uniFECFFE8A.rlig" unicode="&#xfecf;&#xfe8a;" horiz-adv-x="2185" 
d="M1417 1544l160 166h22l166 -166l-159 -164h-23zM666 -559q-130 0 -232.5 30.5t-168.5 82.5t-109.5 124.5t-61.5 152t-18 169.5q0 220 96 477l84 -24q-51 -173 -51 -283q0 -385 493 -385q181 0 363 47.5t293 122.5q-64 49 -242 76l-246 35l-6 14l74 301l426 55
q-63 58 -97 139t-34 170q0 127 57 240.5t150 180.5t196 67q123 0 217 -94.5t152 -249.5l-39 -47q-188 67 -346 67q-57 0 -106 -6.5t-92.5 -21.5t-68.5 -43.5t-24 -67.5q1 -55 55.5 -94t142 -54.5t200.5 -10t227 33.5l159 39l9 -12l-74 -328l-635 -154q39 -51 39 -114
q0 -84 -15 -188.5t-42 -182.5q-99 -112 -298.5 -188t-426.5 -76zM27 629l116 86q-32 24 -53.5 58.5t-21.5 70.5q0 81 76 161t157 80q57 0 87 -28.5t30 -69.5q0 -56 -29 -102l-141 53q-42 -8 -75.5 -27.5t-33.5 -38.5q0 -36 86 -54.5t172 -6.5l82 12l6 -8l-30 -162l-428 -69
v45z" />
    <glyph glyph-name="uniFCFF.rlig" unicode="&#xfea3;&#xfef0;" horiz-adv-x="2166" 
d="M664 -559q-129 0 -231 30.5t-168 82.5t-109.5 124.5t-61.5 152t-18 169.5q0 220 96 477l84 -24q-51 -173 -51 -283q0 -385 491 -385q177 0 361.5 47.5t294.5 120.5q-63 51 -244 78l-246 35l-6 14l70 285q386 98 721 145q-93 18 -230 57q-242 64 -291 64q-65 0 -93 -28.5
t-34 -100.5h-88q-6 86 -6 153q0 143 58.5 213t166.5 70q58 0 131 -18.5t273 -81.5q244 -77 318 -93q88 -18 180 -18h86l6 -8l-88 -275q-331 -37 -766 -176q178 -63 178 -192q0 -84 -15 -188.5t-42 -182.5q-97 -110 -298.5 -187t-428.5 -77z" />
    <glyph glyph-name="uniFD00.rlig" unicode="&#xfea3;&#xfef2;" horiz-adv-x="2166" 
d="M664 -559q-129 0 -231 30.5t-168 82.5t-109.5 124.5t-61.5 152t-18 169.5q0 220 96 477l84 -24q-51 -173 -51 -283q0 -385 491 -385q177 0 361.5 47.5t294.5 120.5q-63 51 -244 78l-246 35l-6 14l70 285q386 98 721 145q-93 18 -230 57q-242 64 -291 64q-65 0 -93 -28.5
t-34 -100.5h-88q-6 86 -6 153q0 143 58.5 213t166.5 70q58 0 131 -18.5t273 -81.5q244 -77 318 -93q88 -18 180 -18h86l6 -8l-88 -275q-331 -37 -766 -176q178 -63 178 -192q0 -84 -15 -188.5t-42 -182.5q-97 -110 -298.5 -187t-428.5 -77zM432 -858l160 166h22l138 -137
l131 137h22l166 -166l-160 -164h-22l-137 135l-131 -135h-23z" />
    <glyph glyph-name="uniFEA3FE8A.rlig" unicode="&#xfea3;&#xfe8a;" horiz-adv-x="2166" 
d="M27 629l116 86q-32 24 -53.5 58.5t-21.5 70.5q0 81 76 161t157 80q57 0 87 -28.5t30 -69.5q0 -56 -29 -102l-141 53q-42 -8 -75.5 -27.5t-33.5 -38.5q0 -36 86 -54.5t172 -6.5l82 12l6 -8l-30 -162l-428 -69v45zM664 -559q-129 0 -231 30.5t-168 82.5t-109.5 124.5
t-61.5 152t-18 169.5q0 220 96 477l84 -24q-51 -173 -51 -283q0 -385 491 -385q177 0 361.5 47.5t294.5 120.5q-63 51 -244 78l-246 35l-6 14l70 285q386 98 721 145q-93 18 -230 57q-242 64 -291 64q-65 0 -93 -28.5t-34 -100.5h-88q-6 86 -6 153q0 143 58.5 213t166.5 70
q58 0 131 -18.5t273 -81.5q244 -77 318 -93q88 -18 180 -18h86l6 -8l-88 -275q-331 -37 -766 -176q178 -63 178 -192q0 -84 -15 -188.5t-42 -182.5q-97 -110 -298.5 -187t-428.5 -77z" />
    <glyph glyph-name="uniFC53.rlig" unicode="&#xfeeb;&#xfef0;" horiz-adv-x="2351" 
d="M666 -559q-130 0 -232.5 30.5t-168.5 82.5t-109.5 124.5t-61.5 152t-18 169.5q0 220 96 477l84 -24q-51 -173 -51 -283q0 -385 493 -385q182 0 363.5 47.5t292.5 122.5q-64 53 -242 76l-250 35l-6 12l74 299q269 0 473 39q-78 111 -78 243q0 106 59 218t148 172v186l10 6
l330 -156q219 -106 324.5 -233t105.5 -285q0 -168 -68 -366q-83 -45 -227 -45q-234 0 -412 96q-80 -54 -176 -90q29 -63 29 -121q0 -66 -17 -166.5t-40 -169.5q-99 -112 -298.5 -188t-426.5 -76zM1423 743q0 -65 86.5 -125t225.5 -96q110 61 110 140q0 72 -81.5 129
t-182.5 57q-64 0 -111 -30t-47 -75zM2068 479q101 0 144 4q-21 63 -88.5 120.5t-184.5 117.5q-15 -110 -92 -223q111 -19 221 -19z" />
    <glyph glyph-name="uniFC54.rlig" unicode="&#xfeeb;&#xfef2;" horiz-adv-x="2351" 
d="M666 -559q-130 0 -232.5 30.5t-168.5 82.5t-109.5 124.5t-61.5 152t-18 169.5q0 220 96 477l84 -24q-51 -173 -51 -283q0 -385 493 -385q182 0 363.5 47.5t292.5 122.5q-64 53 -242 76l-250 35l-6 12l74 299q269 0 473 39q-78 111 -78 243q0 106 59 218t148 172v186l10 6
l330 -156q219 -106 324.5 -233t105.5 -285q0 -168 -68 -366q-83 -45 -227 -45q-234 0 -412 96q-80 -54 -176 -90q29 -63 29 -121q0 -66 -17 -166.5t-40 -169.5q-99 -112 -298.5 -188t-426.5 -76zM1423 743q0 -65 86.5 -125t225.5 -96q110 61 110 140q0 72 -81.5 129
t-182.5 57q-64 0 -111 -30t-47 -75zM2068 479q101 0 144 4q-21 63 -88.5 120.5t-184.5 117.5q-15 -110 -92 -223q111 -19 221 -19zM432 -858l160 166h22l138 -137l131 137h22l166 -166l-160 -164h-22l-137 135l-131 -135h-23z" />
    <glyph glyph-name="uniFEEBFE8A.rlig" unicode="&#xfeeb;&#xfe8a;" horiz-adv-x="2351" 
d="M666 -559q-130 0 -232.5 30.5t-168.5 82.5t-109.5 124.5t-61.5 152t-18 169.5q0 220 96 477l84 -24q-51 -173 -51 -283q0 -385 493 -385q182 0 363.5 47.5t292.5 122.5q-64 53 -242 76l-250 35l-6 12l74 299q269 0 473 39q-78 111 -78 243q0 106 59 218t148 172v186l10 6
l330 -156q219 -106 324.5 -233t105.5 -285q0 -168 -68 -366q-83 -45 -227 -45q-234 0 -412 96q-80 -54 -176 -90q29 -63 29 -121q0 -66 -17 -166.5t-40 -169.5q-99 -112 -298.5 -188t-426.5 -76zM27 629l116 86q-32 24 -53.5 58.5t-21.5 70.5q0 81 76 161t157 80
q57 0 87 -28.5t30 -69.5q0 -56 -29 -102l-141 53q-42 -8 -75.5 -27.5t-33.5 -38.5q0 -36 86 -54.5t172 -6.5l82 12l6 -8l-30 -162l-428 -69v45zM1423 743q0 -65 86.5 -125t225.5 -96q110 61 110 140q0 72 -81.5 129t-182.5 57q-64 0 -111 -30t-47 -75zM2068 479q101 0 144 4
q-21 63 -88.5 120.5t-184.5 117.5q-15 -110 -92 -223q111 -19 221 -19z" />
    <glyph glyph-name="uniFD01.rlig" unicode="&#xfe9f;&#xfef0;" horiz-adv-x="2166" 
d="M664 -559q-129 0 -231 30.5t-168 82.5t-109.5 124.5t-61.5 152t-18 169.5q0 220 96 477l84 -24q-51 -173 -51 -283q0 -385 491 -385q177 0 361.5 47.5t294.5 120.5q-63 51 -244 78l-246 35l-6 14l70 285q386 98 721 145q-93 18 -230 57q-242 64 -291 64q-65 0 -93 -28.5
t-34 -100.5h-88q-6 86 -6 153q0 143 58.5 213t166.5 70q58 0 131 -18.5t273 -81.5q244 -77 318 -93q88 -18 180 -18h86l6 -8l-88 -275q-331 -37 -766 -176q178 -63 178 -192q0 -84 -15 -188.5t-42 -182.5q-97 -110 -298.5 -187t-428.5 -77zM1665 55l160 166h22l166 -166
l-160 -164h-22z" />
    <glyph glyph-name="uniFD02.rlig" unicode="&#xfe9f;&#xfef2;" horiz-adv-x="2166" 
d="M664 -559q-129 0 -231 30.5t-168 82.5t-109.5 124.5t-61.5 152t-18 169.5q0 220 96 477l84 -24q-51 -173 -51 -283q0 -385 491 -385q177 0 361.5 47.5t294.5 120.5q-63 51 -244 78l-246 35l-6 14l70 285q386 98 721 145q-93 18 -230 57q-242 64 -291 64q-65 0 -93 -28.5
t-34 -100.5h-88q-6 86 -6 153q0 143 58.5 213t166.5 70q58 0 131 -18.5t273 -81.5q244 -77 318 -93q88 -18 180 -18h86l6 -8l-88 -275q-331 -37 -766 -176q178 -63 178 -192q0 -84 -15 -188.5t-42 -182.5q-97 -110 -298.5 -187t-428.5 -77zM1665 55l160 166h22l166 -166
l-160 -164h-22zM432 -858l160 166h22l138 -137l131 137h22l166 -166l-160 -164h-22l-137 135l-131 -135h-23z" />
    <glyph glyph-name="uniFE9FFE8A.rlig" unicode="&#xfe9f;&#xfe8a;" horiz-adv-x="2166" 
d="M27 629l116 86q-32 24 -53.5 58.5t-21.5 70.5q0 81 76 161t157 80q57 0 87 -28.5t30 -69.5q0 -56 -29 -102l-141 53q-42 -8 -75.5 -27.5t-33.5 -38.5q0 -36 86 -54.5t172 -6.5l82 12l6 -8l-30 -162l-428 -69v45zM664 -559q-129 0 -231 30.5t-168 82.5t-109.5 124.5
t-61.5 152t-18 169.5q0 220 96 477l84 -24q-51 -173 -51 -283q0 -385 491 -385q177 0 361.5 47.5t294.5 120.5q-63 51 -244 78l-246 35l-6 14l70 285q386 98 721 145q-93 18 -230 57q-242 64 -291 64q-65 0 -93 -28.5t-34 -100.5h-88q-6 86 -6 153q0 143 58.5 213t166.5 70
q58 0 131 -18.5t273 -81.5q244 -77 318 -93q88 -18 180 -18h86l6 -8l-88 -275q-331 -37 -766 -176q178 -63 178 -192q0 -84 -15 -188.5t-42 -182.5q-97 -110 -298.5 -187t-428.5 -77zM1665 55l160 166h22l166 -166l-160 -164h-22z" />
    <glyph glyph-name="uniFC3D.rlig" unicode="&#xfb90;&#xfef0;" horiz-adv-x="1566" 
d="M664 -559q-129 0 -231 30.5t-168 82.5t-109.5 124.5t-61.5 152t-18 169.5q0 220 96 477l84 -24q-51 -173 -51 -283q0 -385 491 -385q179 0 360 44.5t296 123.5q-68 48 -260 70l-301 34l-7 13l78 317q304 3 457 76q-39 89 -147.5 163.5t-284.5 147.5l-80 -119h-10
l-213 193l172 366l895 351l32 -80l-122 -195l-609 -235q238 -139 348.5 -261t110.5 -243q0 -100 -57 -252q-39 -27 -88 -41q87 -35 134.5 -89t47.5 -93q0 -84 -15 -188.5t-42 -182.5q-97 -110 -298.5 -187t-428.5 -77z" />
    <glyph glyph-name="uniFC3E.rlig" unicode="&#xfb90;&#xfef2;" horiz-adv-x="1566" 
d="M664 -559q-129 0 -231 30.5t-168 82.5t-109.5 124.5t-61.5 152t-18 169.5q0 220 96 477l84 -24q-51 -173 -51 -283q0 -385 491 -385q179 0 360 44.5t296 123.5q-68 48 -260 70l-301 34l-7 13l78 317q304 3 457 76q-39 89 -147.5 163.5t-284.5 147.5l-80 -119h-10
l-213 193l172 366l895 351l32 -80l-122 -195l-609 -235q238 -139 348.5 -261t110.5 -243q0 -100 -57 -252q-39 -27 -88 -41q87 -35 134.5 -89t47.5 -93q0 -84 -15 -188.5t-42 -182.5q-97 -110 -298.5 -187t-428.5 -77zM449 -858l159 166h23l137 -137l131 137h23l165 -166
l-159 -164h-23l-137 135l-131 -135h-23z" />
    <glyph glyph-name="uniFEDBFE8A.rlig" unicode="&#xfb90;&#xfe8a;" horiz-adv-x="1566" 
d="M664 -559q-129 0 -231 30.5t-168 82.5t-109.5 124.5t-61.5 152t-18 169.5q0 220 96 477l84 -24q-51 -173 -51 -283q0 -385 491 -385q179 0 360 44.5t296 123.5q-68 48 -260 70l-301 34l-7 13l78 317q304 3 457 76q-39 89 -147.5 163.5t-284.5 147.5l-80 -119h-10
l-213 193l172 366l895 351l32 -80l-122 -195l-609 -235q238 -139 348.5 -261t110.5 -243q0 -100 -57 -252q-39 -27 -88 -41q87 -35 134.5 -89t47.5 -93q0 -84 -15 -188.5t-42 -182.5q-97 -110 -298.5 -187t-428.5 -77zM27 629l116 86q-32 24 -53.5 58.5t-21.5 70.5
q0 81 76 161t157 80q57 0 87 -28.5t30 -69.5q0 -56 -29 -102l-141 53q-42 -8 -75.5 -27.5t-33.5 -38.5q0 -36 86 -54.5t172 -6.5l82 12l6 -8l-30 -162l-428 -69v45z" />
    <glyph glyph-name="uniFD03.rlig" unicode="&#xfea7;&#xfef0;" horiz-adv-x="2166" 
d="M1262 1247l159 166h23l166 -166l-160 -164h-23zM664 -559q-129 0 -231 30.5t-168 82.5t-109.5 124.5t-61.5 152t-18 169.5q0 220 96 477l84 -24q-51 -173 -51 -283q0 -385 491 -385q177 0 361.5 47.5t294.5 120.5q-63 51 -244 78l-246 35l-6 14l70 285q386 98 721 145
q-93 18 -230 57q-242 64 -291 64q-65 0 -93 -28.5t-34 -100.5h-88q-6 86 -6 153q0 143 58.5 213t166.5 70q58 0 131 -18.5t273 -81.5q244 -77 318 -93q88 -18 180 -18h86l6 -8l-88 -275q-331 -37 -766 -176q178 -63 178 -192q0 -84 -15 -188.5t-42 -182.5
q-97 -110 -298.5 -187t-428.5 -77z" />
    <glyph glyph-name="uniFD04.rlig" unicode="&#xfea7;&#xfef2;" horiz-adv-x="2166" 
d="M1262 1247l159 166h23l166 -166l-160 -164h-23zM664 -559q-129 0 -231 30.5t-168 82.5t-109.5 124.5t-61.5 152t-18 169.5q0 220 96 477l84 -24q-51 -173 -51 -283q0 -385 491 -385q177 0 361.5 47.5t294.5 120.5q-63 51 -244 78l-246 35l-6 14l70 285q386 98 721 145
q-93 18 -230 57q-242 64 -291 64q-65 0 -93 -28.5t-34 -100.5h-88q-6 86 -6 153q0 143 58.5 213t166.5 70q58 0 131 -18.5t273 -81.5q244 -77 318 -93q88 -18 180 -18h86l6 -8l-88 -275q-331 -37 -766 -176q178 -63 178 -192q0 -84 -15 -188.5t-42 -182.5
q-97 -110 -298.5 -187t-428.5 -77zM432 -858l160 166h22l138 -137l131 137h22l166 -166l-160 -164h-22l-137 135l-131 -135h-23z" />
    <glyph glyph-name="uniFEA7FE8A.rlig" unicode="&#xfea7;&#xfe8a;" horiz-adv-x="2166" 
d="M1262 1247l159 166h23l166 -166l-160 -164h-23zM27 629l116 86q-32 24 -53.5 58.5t-21.5 70.5q0 81 76 161t157 80q57 0 87 -28.5t30 -69.5q0 -56 -29 -102l-141 53q-42 -8 -75.5 -27.5t-33.5 -38.5q0 -36 86 -54.5t172 -6.5l82 12l6 -8l-30 -162l-428 -69v45zM664 -559
q-129 0 -231 30.5t-168 82.5t-109.5 124.5t-61.5 152t-18 169.5q0 220 96 477l84 -24q-51 -173 -51 -283q0 -385 491 -385q177 0 361.5 47.5t294.5 120.5q-63 51 -244 78l-246 35l-6 14l70 285q386 98 721 145q-93 18 -230 57q-242 64 -291 64q-65 0 -93 -28.5t-34 -100.5
h-88q-6 86 -6 153q0 143 58.5 213t166.5 70q58 0 131 -18.5t273 -81.5q244 -77 318 -93q88 -18 180 -18h86l6 -8l-88 -275q-331 -37 -766 -176q178 -63 178 -192q0 -84 -15 -188.5t-42 -182.5q-97 -110 -298.5 -187t-428.5 -77z" />
    <glyph glyph-name="uniFC43.rlig" unicode="&#xfedf;&#xfef0;" horiz-adv-x="1556" 
d="M649 -559q-125 0 -224 30.5t-163.5 82.5t-107 124.5t-60.5 152t-18 169.5q0 220 96 477l84 -24q-51 -173 -51 -283q0 -385 475 -385q195 0 376 43t298 125q-63 52 -242 78l-266 41l-6 12l73 301q190 15 289 49l-43 703q-76 100 -46 207.5t161 183.5h80v-185l121 -149v-18
l-121 -93v-401q0 -260 -51 -385q-34 -22 -64 -37q113 -26 161 -68.5t48 -115.5q0 -84 -15 -188.5t-42 -182.5q-100 -113 -302 -188.5t-440 -75.5z" />
    <glyph glyph-name="uniFC44.rlig" unicode="&#xfedf;&#xfef2;" horiz-adv-x="1556" 
d="M649 -559q-125 0 -224 30.5t-163.5 82.5t-107 124.5t-60.5 152t-18 169.5q0 220 96 477l84 -24q-51 -173 -51 -283q0 -385 475 -385q195 0 376 43t298 125q-63 52 -242 78l-266 41l-6 12l73 301q190 15 289 49l-43 703q-76 100 -46 207.5t161 183.5h80v-185l121 -149v-18
l-121 -93v-401q0 -260 -51 -385q-34 -22 -64 -37q113 -26 161 -68.5t48 -115.5q0 -84 -15 -188.5t-42 -182.5q-100 -113 -302 -188.5t-440 -75.5zM449 -858l159 166h23l137 -137l131 137h23l165 -166l-159 -164h-23l-137 135l-131 -135h-23z" />
    <glyph glyph-name="uniFEDFFE8A.rlig" unicode="&#xfedf;&#xfe8a;" horiz-adv-x="1556" 
d="M649 -559q-125 0 -224 30.5t-163.5 82.5t-107 124.5t-60.5 152t-18 169.5q0 220 96 477l84 -24q-51 -173 -51 -283q0 -385 475 -385q195 0 376 43t298 125q-63 52 -242 78l-266 41l-6 12l73 301q190 15 289 49l-43 703q-76 100 -46 207.5t161 183.5h80v-185l121 -149v-18
l-121 -93v-401q0 -260 -51 -385q-34 -22 -64 -37q113 -26 161 -68.5t48 -115.5q0 -84 -15 -188.5t-42 -182.5q-100 -113 -302 -188.5t-440 -75.5zM27 629l116 86q-32 24 -53.5 58.5t-21.5 70.5q0 81 76 161t157 80q57 0 87 -28.5t30 -69.5q0 -56 -29 -102l-141 53
q-42 -8 -75.5 -27.5t-33.5 -38.5q0 -36 86 -54.5t172 -6.5l82 12l6 -8l-30 -162l-428 -69v45z" />
    <glyph glyph-name="uniFC4F.rlig" unicode="&#xfee7;&#xfef0;" horiz-adv-x="1509" 
d="M983 1415l160 166h22l166 -166l-160 -164h-22zM645 -397q-124 0 -222.5 30.5t-162.5 82.5t-106 124.5t-60 152t-18 169.5q0 218 96 475l84 -25q-51 -173 -51 -282q0 -182 115 -282.5t358 -100.5q189 0 372 39.5t300 109.5q-56 28 -238 56l-336 49l-6 12l76 317
q220 0 389 48q-50 104 -217 276l123 270h80q57 -99 89.5 -215.5t32.5 -228.5q0 -133 -40 -258q-33 -20 -66 -37q114 -24 162.5 -67.5t48.5 -116.5q0 -76 -15 -171t-42 -165q-98 -109 -302.5 -185.5t-443.5 -76.5z" />
    <glyph glyph-name="uniFC50.rlig" unicode="&#xfee7;&#xfef2;" horiz-adv-x="1509" 
d="M983 1415l160 166h22l166 -166l-160 -164h-22zM645 -397q-124 0 -222.5 30.5t-162.5 82.5t-106 124.5t-60 152t-18 169.5q0 218 96 475l84 -25q-51 -173 -51 -282q0 -182 115 -282.5t358 -100.5q189 0 372 39.5t300 109.5q-56 28 -238 56l-336 49l-6 12l76 317
q220 0 389 48q-50 104 -217 276l123 270h80q57 -99 89.5 -215.5t32.5 -228.5q0 -133 -40 -258q-33 -20 -66 -37q114 -24 162.5 -67.5t48.5 -116.5q0 -76 -15 -171t-42 -165q-98 -109 -302.5 -185.5t-443.5 -76.5zM449 -696l159 166h23l137 -138l131 138h23l165 -166
l-159 -164h-23l-137 135l-131 -135h-23z" />
    <glyph glyph-name="uniFEE7FE8A.rlig" unicode="&#xfee7;&#xfe8a;" horiz-adv-x="1509" 
d="M983 1415l160 166h22l166 -166l-160 -164h-22zM27 788l116 86q-32 24 -53.5 59t-21.5 71q0 81 76 161t157 80q57 0 87 -28.5t30 -69.5q0 -57 -29 -103l-141 54q-42 -8 -75.5 -27.5t-33.5 -38.5q0 -36 86 -54.5t172 -6.5l82 12l6 -8l-30 -162l-428 -70v45zM645 -397
q-124 0 -222.5 30.5t-162.5 82.5t-106 124.5t-60 152t-18 169.5q0 218 96 475l84 -25q-51 -173 -51 -282q0 -182 115 -282.5t358 -100.5q189 0 372 39.5t300 109.5q-56 28 -238 56l-336 49l-6 12l76 317q220 0 389 48q-50 104 -217 276l123 270h80q57 -99 89.5 -215.5
t32.5 -228.5q0 -133 -40 -258q-33 -20 -66 -37q114 -24 162.5 -67.5t48.5 -116.5q0 -76 -15 -171t-42 -165q-98 -109 -302.5 -185.5t-443.5 -76.5z" />
    <glyph glyph-name="uniFB58FEF0.rlig" unicode="&#xfb58;&#xfef0;" horiz-adv-x="1509" 
d="M645 -397q-124 0 -222.5 30.5t-162.5 82.5t-106 124.5t-60 152t-18 169.5q0 218 96 475l84 -25q-51 -173 -51 -282q0 -182 115 -282.5t358 -100.5q189 0 372 39.5t300 109.5q-56 28 -238 56l-336 49l-6 12l76 317q220 0 389 48q-50 104 -217 276l123 270h80
q57 -99 89.5 -215.5t32.5 -228.5q0 -133 -40 -258q-33 -20 -66 -37q114 -24 162.5 -67.5t48.5 -116.5q0 -76 -15 -171t-42 -165q-98 -109 -302.5 -185.5t-443.5 -76.5zM1004 -580l159 166h23l137 -137l131 137h23l165 -166l-159 -163h-23l-137 135l-131 -135h-23zM1171 -854
l142 145h22l144 -145l-144 -145h-20z" />
    <glyph glyph-name="uniFB58FEF2.rlig" unicode="&#xfb58;&#xfef2;" horiz-adv-x="1509" 
d="M645 -397q-124 0 -222.5 30.5t-162.5 82.5t-106 124.5t-60 152t-18 169.5q0 218 96 475l84 -25q-51 -173 -51 -282q0 -182 115 -282.5t358 -100.5q189 0 372 39.5t300 109.5q-56 28 -238 56l-336 49l-6 12l76 317q220 0 389 48q-50 104 -217 276l123 270h80
q57 -99 89.5 -215.5t32.5 -228.5q0 -133 -40 -258q-33 -20 -66 -37q114 -24 162.5 -67.5t48.5 -116.5q0 -76 -15 -171t-42 -165q-98 -109 -302.5 -185.5t-443.5 -76.5zM1034 -549l146 150h20l123 -123l117 123h20l150 -150l-144 -147h-20l-123 121l-119 -121h-20zM412 -666
l145 150h21l122 -123l117 123h21l149 -150l-143 -147h-21l-123 121l-118 -121h-21zM1186 -797l127 131h20l129 -131l-129 -131h-18z" />
    <glyph glyph-name="uniFB58FE8A.rlig" unicode="&#xfb58;&#xfe8a;" horiz-adv-x="1509" 
d="M27 788l116 86q-32 24 -53.5 59t-21.5 71q0 81 76 161t157 80q57 0 87 -28.5t30 -69.5q0 -57 -29 -103l-141 54q-42 -8 -75.5 -27.5t-33.5 -38.5q0 -36 86 -54.5t172 -6.5l82 12l6 -8l-30 -162l-428 -70v45zM645 -397q-124 0 -222.5 30.5t-162.5 82.5t-106 124.5t-60 152
t-18 169.5q0 218 96 475l84 -25q-51 -173 -51 -282q0 -182 115 -282.5t358 -100.5q189 0 372 39.5t300 109.5q-56 28 -238 56l-336 49l-6 12l76 317q220 0 389 48q-50 104 -217 276l123 270h80q57 -99 89.5 -215.5t32.5 -228.5q0 -133 -40 -258q-33 -20 -66 -37
q114 -24 162.5 -67.5t48.5 -116.5q0 -76 -15 -171t-42 -165q-98 -109 -302.5 -185.5t-443.5 -76.5zM1004 -580l159 166h23l137 -137l131 137h23l165 -166l-159 -163h-23l-137 135l-131 -135h-23zM1171 -854l142 145h22l144 -145l-144 -145h-20z" />
    <glyph glyph-name="uniFC35.rlig" unicode="&#xfed7;&#xfef0;" horiz-adv-x="1523" 
d="M692 1630l160 166h22l138 -137l131 137h22l166 -166l-160 -164h-22l-137 136l-131 -136h-23zM649 -397q-125 0 -224 30.5t-163.5 82.5t-107 124.5t-60.5 152t-18 169.5q0 218 96 475l84 -25q-51 -173 -51 -282q0 -182 115 -282.5t360 -100.5q190 0 364.5 40t292.5 117
q-61 31 -225 46l-336 30l-6 15l76 266q244 0 418 59q4 20 4 62q0 121 -51 229l-64 -174q-90 -51 -213 -51q-139 0 -218 72t-79 200q0 123 51 238.5t134.5 186.5t172.5 71q101 0 185.5 -86t132 -231.5t47.5 -317.5q0 -188 -51 -318q-37 -22 -64 -34q106 -24 151.5 -63.5
t45.5 -102.5q0 -76 -15 -171t-42 -165q-100 -111 -302 -186.5t-440 -75.5zM741 934q0 -70 201 -70q116 0 232 21q-51 75 -120 118.5t-145 43.5q-66 0 -117 -34.5t-51 -78.5z" />
    <glyph glyph-name="uniFC36.rlig" unicode="&#xfed7;&#xfef2;" horiz-adv-x="1523" 
d="M692 1630l160 166h22l138 -137l131 137h22l166 -166l-160 -164h-22l-137 136l-131 -136h-23zM649 -397q-125 0 -224 30.5t-163.5 82.5t-107 124.5t-60.5 152t-18 169.5q0 218 96 475l84 -25q-51 -173 -51 -282q0 -182 115 -282.5t360 -100.5q190 0 364.5 40t292.5 117
q-61 31 -225 46l-336 30l-6 15l76 266q244 0 418 59q4 20 4 62q0 121 -51 229l-64 -174q-90 -51 -213 -51q-139 0 -218 72t-79 200q0 123 51 238.5t134.5 186.5t172.5 71q101 0 185.5 -86t132 -231.5t47.5 -317.5q0 -188 -51 -318q-37 -22 -64 -34q106 -24 151.5 -63.5
t45.5 -102.5q0 -76 -15 -171t-42 -165q-100 -111 -302 -186.5t-440 -75.5zM741 934q0 -70 201 -70q116 0 232 21q-51 75 -120 118.5t-145 43.5q-66 0 -117 -34.5t-51 -78.5zM449 -696l159 166h23l137 -138l131 138h23l165 -166l-159 -164h-23l-137 135l-131 -135h-23z" />
    <glyph glyph-name="uniFED7FE8A.rlig" unicode="&#xfed7;&#xfe8a;" horiz-adv-x="1523" 
d="M692 1630l160 166h22l138 -137l131 137h22l166 -166l-160 -164h-22l-137 136l-131 -136h-23zM649 -397q-125 0 -224 30.5t-163.5 82.5t-107 124.5t-60.5 152t-18 169.5q0 218 96 475l84 -25q-51 -173 -51 -282q0 -182 115 -282.5t360 -100.5q190 0 364.5 40t292.5 117
q-61 31 -225 46l-336 30l-6 15l76 266q244 0 418 59q4 20 4 62q0 121 -51 229l-64 -174q-90 -51 -213 -51q-139 0 -218 72t-79 200q0 123 51 238.5t134.5 186.5t172.5 71q101 0 185.5 -86t132 -231.5t47.5 -317.5q0 -188 -51 -318q-37 -22 -64 -34q106 -24 151.5 -63.5
t45.5 -102.5q0 -76 -15 -171t-42 -165q-100 -111 -302 -186.5t-440 -75.5zM27 788l116 86q-32 24 -53.5 59t-21.5 71q0 81 76 161t157 80q57 0 87 -28.5t30 -69.5q0 -57 -29 -103l-141 54q-42 -8 -75.5 -27.5t-33.5 -38.5q0 -36 86 -54.5t172 -6.5l82 12l6 -8l-30 -162
l-428 -70v45zM741 934q0 -70 201 -70q116 0 232 21q-51 75 -120 118.5t-145 43.5q-66 0 -117 -34.5t-51 -78.5z" />
    <glyph glyph-name="uniFD05.rlig" unicode="&#xfebb;&#xfef0;" horiz-adv-x="3008" 
d="M664 -559q-129 0 -231 30.5t-168 82.5t-109.5 124.5t-61.5 152t-18 169.5q0 220 96 477l84 -24q-51 -173 -51 -283q0 -385 493 -385q183 0 362 54.5t279 137.5q-51 22 -223 48l-121 18q-136 24 -198 83t-62 171q0 138 79 272.5t210.5 221t271.5 86.5q112 0 206 -67
t194 -224l49 -82q69 -106 119 -146q218 307 376 434.5t320 127.5q161 0 271 -109.5t110 -257.5q0 -168 -111 -416q-130 -80 -339.5 -127t-442.5 -47q-84 0 -149 14.5t-111.5 37t-91.5 68.5t-77 90.5t-81 121.5l-49 82q-69 108 -131 151t-156 43q-72 0 -148.5 -25
t-123.5 -59.5t-47 -62.5q0 -23 29.5 -34t117.5 -23l137 -23q166 -27 222.5 -72.5t56.5 -156.5q0 -82 -15.5 -192t-41.5 -193q-97 -122 -306.5 -205.5t-418.5 -83.5zM2458 596q-142 0 -263 -65.5t-258 -219.5q63 -24 170 -24q204 0 396 30.5t331 85.5q-50 86 -158 139.5
t-218 53.5z" />
    <glyph glyph-name="uniFEBBFB8B.rlig" unicode="&#xfebb;&#xfb8b;" horiz-adv-x="2375" 
d="M367 1190l141 143h20l144 -143l-142 -146h-20zM209 899l160 166h22l137 -137l131 137h23l166 -166l-160 -164h-22l-138 135l-131 -135h-22zM-111 -317v81q329 91 488.5 198t159.5 237l-105 118l121 271l467 86l14 -6v-277q61 -57 162 -80q232 336 397.5 473.5
t333.5 137.5q105 0 193.5 -51.5t138 -135t49.5 -178.5q0 -172 -110 -418q-128 -82 -324 -129t-416 -47q-267 0 -397 79t-187 275l-241 -45q-8 -174 -88 -370t-230 -394zM1827 598q-149 0 -272 -69t-265 -234q73 -8 193 -8q428 0 717 119q-48 85 -155 138.5t-218 53.5z" />
    <glyph glyph-name="uniFD0F.rlig" unicode="&#xfebb;&#xfeae;" horiz-adv-x="2375" 
d="M-111 -317v81q329 91 488.5 198t159.5 237l-105 118l121 271l467 86l14 -6v-277q61 -57 162 -80q232 336 397.5 473.5t333.5 137.5q105 0 193.5 -51.5t138 -135t49.5 -178.5q0 -172 -110 -418q-128 -82 -324 -129t-416 -47q-267 0 -397 79t-187 275l-241 -45
q-8 -174 -88 -370t-230 -394zM1827 598q-149 0 -272 -69t-265 -234q73 -8 193 -8q428 0 717 119q-48 85 -155 138.5t-218 53.5z" />
    <glyph glyph-name="uniFEBBFB8D.rlig" unicode="&#xfebb;&#xfb8d;" horiz-adv-x="2375" 
d="M195 877v20h139q17 25 55 74l-20 209q-67 99 49 178h41v-76l47 -65v-5l-47 -30v-131q85 88 170 88q66 0 111.5 -45t45.5 -105q0 -73 -45 -174q-120 -53 -307 -53h-80zM588 999q-51 0 -93 -23.5t-87 -78.5h38q155 0 271 27q-10 39 -46 57t-83 18zM-111 -317v81
q329 91 488.5 198t159.5 237l-105 118l121 271l467 86l14 -6v-277q61 -57 162 -80q232 336 397.5 473.5t333.5 137.5q105 0 193.5 -51.5t138 -135t49.5 -178.5q0 -172 -110 -418q-128 -82 -324 -129t-416 -47q-267 0 -397 79t-187 275l-241 -45q-8 -174 -88 -370t-230 -394z
M1827 598q-149 0 -272 -69t-265 -234q73 -8 193 -8q428 0 717 119q-48 85 -155 138.5t-218 53.5z" />
    <glyph glyph-name="uniFD06.rlig" unicode="&#xfebb;&#xfef2;" horiz-adv-x="3008" 
d="M664 -559q-129 0 -231 30.5t-168 82.5t-109.5 124.5t-61.5 152t-18 169.5q0 220 96 477l84 -24q-51 -173 -51 -283q0 -385 493 -385q183 0 362 54.5t279 137.5q-51 22 -223 48l-121 18q-136 24 -198 83t-62 171q0 138 79 272.5t210.5 221t271.5 86.5q112 0 206 -67
t194 -224l49 -82q69 -106 119 -146q218 307 376 434.5t320 127.5q161 0 271 -109.5t110 -257.5q0 -168 -111 -416q-130 -80 -339.5 -127t-442.5 -47q-84 0 -149 14.5t-111.5 37t-91.5 68.5t-77 90.5t-81 121.5l-49 82q-69 108 -131 151t-156 43q-72 0 -148.5 -25
t-123.5 -59.5t-47 -62.5q0 -23 29.5 -34t117.5 -23l137 -23q166 -27 222.5 -72.5t56.5 -156.5q0 -82 -15.5 -192t-41.5 -193q-97 -122 -306.5 -205.5t-418.5 -83.5zM2458 596q-142 0 -263 -65.5t-258 -219.5q63 -24 170 -24q204 0 396 30.5t331 85.5q-50 86 -158 139.5
t-218 53.5zM449 -858l159 166h23l137 -137l131 137h23l165 -166l-159 -164h-23l-137 135l-131 -135h-23z" />
    <glyph glyph-name="uniFEBBFE8A.rlig" unicode="&#xfebb;&#xfe8a;" horiz-adv-x="3008" 
d="M27 629l116 86q-32 24 -53.5 58.5t-21.5 70.5q0 81 76 161t157 80q57 0 87 -28.5t30 -69.5q0 -56 -29 -102l-141 53q-42 -8 -75.5 -27.5t-33.5 -38.5q0 -36 86 -54.5t172 -6.5l82 12l6 -8l-30 -162l-428 -69v45zM664 -559q-129 0 -231 30.5t-168 82.5t-109.5 124.5
t-61.5 152t-18 169.5q0 220 96 477l84 -24q-51 -173 -51 -283q0 -385 493 -385q183 0 362 54.5t279 137.5q-51 22 -223 48l-121 18q-136 24 -198 83t-62 171q0 138 79 272.5t210.5 221t271.5 86.5q112 0 206 -67t194 -224l49 -82q69 -106 119 -146q218 307 376 434.5
t320 127.5q161 0 271 -109.5t110 -257.5q0 -168 -111 -416q-130 -80 -339.5 -127t-442.5 -47q-84 0 -149 14.5t-111.5 37t-91.5 68.5t-77 90.5t-81 121.5l-49 82q-69 108 -131 151t-156 43q-72 0 -148.5 -25t-123.5 -59.5t-47 -62.5q0 -23 29.5 -34t117.5 -23l137 -23
q166 -27 222.5 -72.5t56.5 -156.5q0 -82 -15.5 -192t-41.5 -193q-97 -122 -306.5 -205.5t-418.5 -83.5zM2458 596q-142 0 -263 -65.5t-258 -219.5q63 -24 170 -24q204 0 396 30.5t331 85.5q-50 86 -158 139.5t-218 53.5z" />
    <glyph glyph-name="uniFEBBFEB0.rlig" unicode="&#xfebb;&#xfeb0;" horiz-adv-x="2375" 
d="M344 899l160 166h22l166 -166l-160 -164h-22zM-111 -317v81q329 91 488.5 198t159.5 237l-105 118l121 271l467 86l14 -6v-277q61 -57 162 -80q232 336 397.5 473.5t333.5 137.5q105 0 193.5 -51.5t138 -135t49.5 -178.5q0 -172 -110 -418q-128 -82 -324 -129t-416 -47
q-267 0 -397 79t-187 275l-241 -45q-8 -174 -88 -370t-230 -394zM1827 598q-149 0 -272 -69t-265 -234q73 -8 193 -8q428 0 717 119q-48 85 -155 138.5t-218 53.5z" />
    <glyph glyph-name="uniFCFB.rlig" unicode="&#xfeb3;&#xfef0;" horiz-adv-x="2779" 
d="M664 -559q-129 0 -231 30.5t-168 82.5t-109.5 124.5t-61.5 152t-18 169.5q0 220 96 477l84 -24q-51 -173 -51 -283q0 -385 493 -385q186 0 368 56t280 141q-22 12 -53 18.5t-89 13t-88 11.5l-137 22q-124 21 -184 79.5t-60 170.5q0 138 79 272.5t210.5 221t271.5 86.5
q113 0 195.5 -59t183.5 -208l49 -71q57 -86 110 -121t128 -35q81 0 128 48.5t64 148.5l19 98h82v-164q85 -48 178 -78.5t166 -36.5q-52 77 -182 207l94 234h82q44 -84 73 -176t29 -164q0 -90 -27.5 -173t-57.5 -128.5t-73 -96.5q-93 0 -207 39.5t-210 108.5l-4 -14
q-35 -92 -94.5 -134.5t-147.5 -42.5q-92 0 -169.5 60.5t-184.5 212.5l-50 69q-71 101 -125 135.5t-143 34.5q-72 0 -148.5 -25t-123.5 -59.5t-47 -62.5q0 -23 29.5 -34t117.5 -23l137 -23q166 -27 222.5 -72.5t56.5 -156.5q0 -82 -15.5 -192t-41.5 -193
q-97 -122 -306.5 -205.5t-418.5 -83.5z" />
    <glyph glyph-name="uniFEB3FB8B.rlig" unicode="&#xfeb3;&#xfb8b;" horiz-adv-x="2091" 
d="M367 1190l141 143h20l144 -143l-142 -146h-20zM209 899l160 166h22l137 -137l131 137h23l166 -166l-160 -164h-22l-138 135l-131 -135h-22zM-111 -317v81q329 91 488.5 198t159.5 237l-105 118l121 271l467 86l14 -6v-252q104 -113 258 -113q78 0 115.5 41t58.5 156
l17 98h82v-164q86 -48 178.5 -79.5t163.5 -37.5q-42 68 -181 209l95 232h80q44 -80 73 -172.5t29 -165.5q0 -131 -44 -225.5t-112 -174.5q-95 2 -209.5 41.5t-210.5 108.5l-18 -45q-61 -145 -205 -145q-48 0 -93 15.5t-91 51.5t-85 105t-65 165l-237 -45q-8 -174 -88 -370
t-230 -394z" />
    <glyph glyph-name="uniFD0E.rlig" unicode="&#xfeb3;&#xfeae;" horiz-adv-x="2091" 
d="M-111 -317v81q329 91 488.5 198t159.5 237l-105 118l121 271l467 86l14 -6v-252q104 -113 258 -113q78 0 115.5 41t58.5 156l17 98h82v-164q86 -48 178.5 -79.5t163.5 -37.5q-42 68 -181 209l95 232h80q44 -80 73 -172.5t29 -165.5q0 -131 -44 -225.5t-112 -174.5
q-95 2 -209.5 41.5t-210.5 108.5l-18 -45q-61 -145 -205 -145q-48 0 -93 15.5t-91 51.5t-85 105t-65 165l-237 -45q-8 -174 -88 -370t-230 -394z" />
    <glyph glyph-name="uniFEB3FB8D.rlig" unicode="&#xfeb3;&#xfb8d;" horiz-adv-x="2091" 
d="M195 877v20h139q17 25 55 74l-20 209q-67 99 49 178h41v-76l47 -65v-5l-47 -30v-131q85 88 170 88q66 0 111.5 -45t45.5 -105q0 -73 -45 -174q-120 -53 -307 -53h-80zM588 999q-51 0 -93 -23.5t-87 -78.5h38q155 0 271 27q-10 39 -46 57t-83 18zM-111 -317v81
q329 91 488.5 198t159.5 237l-105 118l121 271l467 86l14 -6v-252q104 -113 258 -113q78 0 115.5 41t58.5 156l17 98h82v-164q86 -48 178.5 -79.5t163.5 -37.5q-42 68 -181 209l95 232h80q44 -80 73 -172.5t29 -165.5q0 -131 -44 -225.5t-112 -174.5q-95 2 -209.5 41.5
t-210.5 108.5l-18 -45q-61 -145 -205 -145q-48 0 -93 15.5t-91 51.5t-85 105t-65 165l-237 -45q-8 -174 -88 -370t-230 -394z" />
    <glyph glyph-name="uniFCFC.rlig" unicode="&#xfeb3;&#xfef2;" horiz-adv-x="2779" 
d="M664 -559q-129 0 -231 30.5t-168 82.5t-109.5 124.5t-61.5 152t-18 169.5q0 220 96 477l84 -24q-51 -173 -51 -283q0 -385 493 -385q186 0 368 56t280 141q-22 12 -53 18.5t-89 13t-88 11.5l-137 22q-124 21 -184 79.5t-60 170.5q0 138 79 272.5t210.5 221t271.5 86.5
q113 0 195.5 -59t183.5 -208l49 -71q57 -86 110 -121t128 -35q81 0 128 48.5t64 148.5l19 98h82v-164q85 -48 178 -78.5t166 -36.5q-52 77 -182 207l94 234h82q44 -84 73 -176t29 -164q0 -90 -27.5 -173t-57.5 -128.5t-73 -96.5q-93 0 -207 39.5t-210 108.5l-4 -14
q-35 -92 -94.5 -134.5t-147.5 -42.5q-92 0 -169.5 60.5t-184.5 212.5l-50 69q-71 101 -125 135.5t-143 34.5q-72 0 -148.5 -25t-123.5 -59.5t-47 -62.5q0 -23 29.5 -34t117.5 -23l137 -23q166 -27 222.5 -72.5t56.5 -156.5q0 -82 -15.5 -192t-41.5 -193
q-97 -122 -306.5 -205.5t-418.5 -83.5zM449 -858l159 166h23l137 -137l131 137h23l165 -166l-159 -164h-23l-137 135l-131 -135h-23z" />
    <glyph glyph-name="uniFEB3FE8A.rlig" unicode="&#xfeb3;&#xfe8a;" horiz-adv-x="2779" 
d="M27 629l116 86q-32 24 -53.5 58.5t-21.5 70.5q0 81 76 161t157 80q57 0 87 -28.5t30 -69.5q0 -56 -29 -102l-141 53q-42 -8 -75.5 -27.5t-33.5 -38.5q0 -36 86 -54.5t172 -6.5l82 12l6 -8l-30 -162l-428 -69v45zM664 -559q-129 0 -231 30.5t-168 82.5t-109.5 124.5
t-61.5 152t-18 169.5q0 220 96 477l84 -24q-51 -173 -51 -283q0 -385 493 -385q186 0 368 56t280 141q-22 12 -53 18.5t-89 13t-88 11.5l-137 22q-124 21 -184 79.5t-60 170.5q0 138 79 272.5t210.5 221t271.5 86.5q113 0 195.5 -59t183.5 -208l49 -71q57 -86 110 -121
t128 -35q81 0 128 48.5t64 148.5l19 98h82v-164q85 -48 178 -78.5t166 -36.5q-52 77 -182 207l94 234h82q44 -84 73 -176t29 -164q0 -90 -27.5 -173t-57.5 -128.5t-73 -96.5q-93 0 -207 39.5t-210 108.5l-4 -14q-35 -92 -94.5 -134.5t-147.5 -42.5q-92 0 -169.5 60.5
t-184.5 212.5l-50 69q-71 101 -125 135.5t-143 34.5q-72 0 -148.5 -25t-123.5 -59.5t-47 -62.5q0 -23 29.5 -34t117.5 -23l137 -23q166 -27 222.5 -72.5t56.5 -156.5q0 -82 -15.5 -192t-41.5 -193q-97 -122 -306.5 -205.5t-418.5 -83.5z" />
    <glyph glyph-name="uniFEB3FEB0.rlig" unicode="&#xfeb3;&#xfeb0;" horiz-adv-x="2091" 
d="M344 899l160 166h22l166 -166l-160 -164h-22zM-111 -317v81q329 91 488.5 198t159.5 237l-105 118l121 271l467 86l14 -6v-252q104 -113 258 -113q78 0 115.5 41t58.5 156l17 98h82v-164q86 -48 178.5 -79.5t163.5 -37.5q-42 68 -181 209l95 232h80q44 -80 73 -172.5
t29 -165.5q0 -131 -44 -225.5t-112 -174.5q-95 2 -209.5 41.5t-210.5 108.5l-18 -45q-61 -145 -205 -145q-48 0 -93 15.5t-91 51.5t-85 105t-65 165l-237 -45q-8 -174 -88 -370t-230 -394z" />
    <glyph glyph-name="uniFCFD.rlig" unicode="&#xfeb7;&#xfef0;" horiz-adv-x="2779" 
d="M1970 1280l141 143h21l143 -143l-141 -145h-20zM1812 989l160 166h23l137 -137l131 137h23l165 -166l-159 -164h-23l-137 136l-131 -136h-23zM664 -559q-129 0 -231 30.5t-168 82.5t-109.5 124.5t-61.5 152t-18 169.5q0 220 96 477l84 -24q-51 -173 -51 -283
q0 -385 493 -385q186 0 368 56t280 141q-22 12 -53 18.5t-89 13t-88 11.5l-137 22q-124 21 -184 79.5t-60 170.5q0 138 79 272.5t210.5 221t271.5 86.5q113 0 195.5 -59t183.5 -208l49 -71q57 -86 110 -121t128 -35q81 0 128 48.5t64 148.5l19 98h82v-164q85 -48 178 -78.5
t166 -36.5q-52 77 -182 207l94 234h82q44 -84 73 -176t29 -164q0 -90 -27.5 -173t-57.5 -128.5t-73 -96.5q-93 0 -207 39.5t-210 108.5l-4 -14q-35 -92 -94.5 -134.5t-147.5 -42.5q-92 0 -169.5 60.5t-184.5 212.5l-50 69q-71 101 -125 135.5t-143 34.5q-72 0 -148.5 -25
t-123.5 -59.5t-47 -62.5q0 -23 29.5 -34t117.5 -23l137 -23q166 -27 222.5 -72.5t56.5 -156.5q0 -82 -15.5 -192t-41.5 -193q-97 -122 -306.5 -205.5t-418.5 -83.5z" />
    <glyph glyph-name="uniFEB7FB8B.rlig" unicode="&#xfeb7;&#xfb8b;" horiz-adv-x="2091" 
d="M1253 1200l142 143h20l144 -143l-142 -145h-20zM367 1190l141 143h20l144 -143l-142 -146h-20zM1096 909l159 166h23l137 -137l131 137h23l166 -166l-160 -164h-23l-137 136l-131 -136h-22zM209 899l160 166h22l137 -137l131 137h23l166 -166l-160 -164h-22l-138 135
l-131 -135h-22zM-111 -317v81q329 91 488.5 198t159.5 237l-105 118l121 271l467 86l14 -6v-252q104 -113 258 -113q78 0 115.5 41t58.5 156l17 98h82v-164q86 -48 178.5 -79.5t163.5 -37.5q-42 68 -181 209l95 232h80q44 -80 73 -172.5t29 -165.5q0 -131 -44 -225.5
t-112 -174.5q-95 2 -209.5 41.5t-210.5 108.5l-18 -45q-61 -145 -205 -145q-48 0 -93 15.5t-91 51.5t-85 105t-65 165l-237 -45q-8 -174 -88 -370t-230 -394z" />
    <glyph glyph-name="uniFD0D.rlig" unicode="&#xfeb7;&#xfeae;" horiz-adv-x="2091" 
d="M1253 1200l142 143h20l144 -143l-142 -145h-20zM1096 909l159 166h23l137 -137l131 137h23l166 -166l-160 -164h-23l-137 136l-131 -136h-22zM-111 -317v81q329 91 488.5 198t159.5 237l-105 118l121 271l467 86l14 -6v-252q104 -113 258 -113q78 0 115.5 41t58.5 156
l17 98h82v-164q86 -48 178.5 -79.5t163.5 -37.5q-42 68 -181 209l95 232h80q44 -80 73 -172.5t29 -165.5q0 -131 -44 -225.5t-112 -174.5q-95 2 -209.5 41.5t-210.5 108.5l-18 -45q-61 -145 -205 -145q-48 0 -93 15.5t-91 51.5t-85 105t-65 165l-237 -45q-8 -174 -88 -370
t-230 -394z" />
    <glyph glyph-name="uniFEB7FB8D.rlig" unicode="&#xfeb7;&#xfb8d;" horiz-adv-x="2091" 
d="M195 877v20h139q17 25 55 74l-20 209q-67 99 49 178h41v-76l47 -65v-5l-47 -30v-131q85 88 170 88q66 0 111.5 -45t45.5 -105q0 -73 -45 -174q-120 -53 -307 -53h-80zM1253 1200l142 143h20l144 -143l-142 -145h-20zM1096 909l159 166h23l137 -137l131 137h23l166 -166
l-160 -164h-23l-137 136l-131 -136h-22zM588 999q-51 0 -93 -23.5t-87 -78.5h38q155 0 271 27q-10 39 -46 57t-83 18zM-111 -317v81q329 91 488.5 198t159.5 237l-105 118l121 271l467 86l14 -6v-252q104 -113 258 -113q78 0 115.5 41t58.5 156l17 98h82v-164
q86 -48 178.5 -79.5t163.5 -37.5q-42 68 -181 209l95 232h80q44 -80 73 -172.5t29 -165.5q0 -131 -44 -225.5t-112 -174.5q-95 2 -209.5 41.5t-210.5 108.5l-18 -45q-61 -145 -205 -145q-48 0 -93 15.5t-91 51.5t-85 105t-65 165l-237 -45q-8 -174 -88 -370t-230 -394z" />
    <glyph glyph-name="uniFCFE.rlig" unicode="&#xfeb7;&#xfef2;" horiz-adv-x="2779" 
d="M1970 1280l141 143h21l143 -143l-141 -145h-20zM1812 989l160 166h23l137 -137l131 137h23l165 -166l-159 -164h-23l-137 136l-131 -136h-23zM664 -559q-129 0 -231 30.5t-168 82.5t-109.5 124.5t-61.5 152t-18 169.5q0 220 96 477l84 -24q-51 -173 -51 -283
q0 -385 493 -385q186 0 368 56t280 141q-22 12 -53 18.5t-89 13t-88 11.5l-137 22q-124 21 -184 79.5t-60 170.5q0 138 79 272.5t210.5 221t271.5 86.5q113 0 195.5 -59t183.5 -208l49 -71q57 -86 110 -121t128 -35q81 0 128 48.5t64 148.5l19 98h82v-164q85 -48 178 -78.5
t166 -36.5q-52 77 -182 207l94 234h82q44 -84 73 -176t29 -164q0 -90 -27.5 -173t-57.5 -128.5t-73 -96.5q-93 0 -207 39.5t-210 108.5l-4 -14q-35 -92 -94.5 -134.5t-147.5 -42.5q-92 0 -169.5 60.5t-184.5 212.5l-50 69q-71 101 -125 135.5t-143 34.5q-72 0 -148.5 -25
t-123.5 -59.5t-47 -62.5q0 -23 29.5 -34t117.5 -23l137 -23q166 -27 222.5 -72.5t56.5 -156.5q0 -82 -15.5 -192t-41.5 -193q-97 -122 -306.5 -205.5t-418.5 -83.5zM449 -858l159 166h23l137 -137l131 137h23l165 -166l-159 -164h-23l-137 135l-131 -135h-23z" />
    <glyph glyph-name="uniFEB7FE8A.rlig" unicode="&#xfeb7;&#xfe8a;" horiz-adv-x="2779" 
d="M1970 1280l141 143h21l143 -143l-141 -145h-20zM1812 989l160 166h23l137 -137l131 137h23l165 -166l-159 -164h-23l-137 136l-131 -136h-23zM27 629l116 86q-32 24 -53.5 58.5t-21.5 70.5q0 81 76 161t157 80q57 0 87 -28.5t30 -69.5q0 -56 -29 -102l-141 53
q-42 -8 -75.5 -27.5t-33.5 -38.5q0 -36 86 -54.5t172 -6.5l82 12l6 -8l-30 -162l-428 -69v45zM664 -559q-129 0 -231 30.5t-168 82.5t-109.5 124.5t-61.5 152t-18 169.5q0 220 96 477l84 -24q-51 -173 -51 -283q0 -385 493 -385q186 0 368 56t280 141q-22 12 -53 18.5
t-89 13t-88 11.5l-137 22q-124 21 -184 79.5t-60 170.5q0 138 79 272.5t210.5 221t271.5 86.5q113 0 195.5 -59t183.5 -208l49 -71q57 -86 110 -121t128 -35q81 0 128 48.5t64 148.5l19 98h82v-164q85 -48 178 -78.5t166 -36.5q-52 77 -182 207l94 234h82q44 -84 73 -176
t29 -164q0 -90 -27.5 -173t-57.5 -128.5t-73 -96.5q-93 0 -207 39.5t-210 108.5l-4 -14q-35 -92 -94.5 -134.5t-147.5 -42.5q-92 0 -169.5 60.5t-184.5 212.5l-50 69q-71 101 -125 135.5t-143 34.5q-72 0 -148.5 -25t-123.5 -59.5t-47 -62.5q0 -23 29.5 -34t117.5 -23
l137 -23q166 -27 222.5 -72.5t56.5 -156.5q0 -82 -15.5 -192t-41.5 -193q-97 -122 -306.5 -205.5t-418.5 -83.5z" />
    <glyph glyph-name="uniFEB7FEB0.rlig" unicode="&#xfeb7;&#xfeb0;" horiz-adv-x="2091" 
d="M1253 1200l142 143h20l144 -143l-142 -145h-20zM1096 909l159 166h23l137 -137l131 137h23l166 -166l-160 -164h-23l-137 136l-131 -136h-22zM344 899l160 166h22l166 -166l-160 -164h-22zM-111 -317v81q329 91 488.5 198t159.5 237l-105 118l121 271l467 86l14 -6v-252
q104 -113 258 -113q78 0 115.5 41t58.5 156l17 98h82v-164q86 -48 178.5 -79.5t163.5 -37.5q-42 68 -181 209l95 232h80q44 -80 73 -172.5t29 -165.5q0 -131 -44 -225.5t-112 -174.5q-95 2 -209.5 41.5t-210.5 108.5l-18 -45q-61 -145 -205 -145q-48 0 -93 15.5t-91 51.5
t-85 105t-65 165l-237 -45q-8 -174 -88 -370t-230 -394z" />
    <glyph glyph-name="uniFB7CFEF0.rlig" unicode="&#xfb7c;&#xfef0;" horiz-adv-x="2166" 
d="M664 -559q-129 0 -231 30.5t-168 82.5t-109.5 124.5t-61.5 152t-18 169.5q0 220 96 477l84 -24q-51 -173 -51 -283q0 -385 491 -385q177 0 361.5 47.5t294.5 120.5q-63 51 -244 78l-246 35l-6 14l70 285q386 98 721 145q-93 18 -230 57q-242 64 -291 64q-65 0 -93 -28.5
t-34 -100.5h-88q-6 86 -6 153q0 143 58.5 213t166.5 70q58 0 131 -18.5t273 -81.5q244 -77 318 -93q88 -18 180 -18h86l6 -8l-88 -275q-331 -37 -766 -176q178 -63 178 -192q0 -84 -15 -188.5t-42 -182.5q-97 -110 -298.5 -187t-428.5 -77zM1546 80l148 151h20l125 -125
l119 125h22l152 -151l-147 -150h-21l-125 123l-121 -123h-20zM1700 -172l129 133h20l131 -133l-131 -131h-18z" />
    <glyph glyph-name="uniFB7CFEF2.rlig" unicode="&#xfb7c;&#xfef2;" horiz-adv-x="2166" 
d="M664 -559q-129 0 -231 30.5t-168 82.5t-109.5 124.5t-61.5 152t-18 169.5q0 220 96 477l84 -24q-51 -173 -51 -283q0 -385 491 -385q177 0 361.5 47.5t294.5 120.5q-63 51 -244 78l-246 35l-6 14l70 285q386 98 721 145q-93 18 -230 57q-242 64 -291 64q-65 0 -93 -28.5
t-34 -100.5h-88q-6 86 -6 153q0 143 58.5 213t166.5 70q58 0 131 -18.5t273 -81.5q244 -77 318 -93q88 -18 180 -18h86l6 -8l-88 -275q-331 -37 -766 -176q178 -63 178 -192q0 -84 -15 -188.5t-42 -182.5q-97 -110 -298.5 -187t-428.5 -77zM1546 80l148 151h20l125 -125
l119 125h22l152 -151l-147 -150h-21l-125 123l-121 -123h-20zM1700 -172l129 133h20l131 -133l-131 -131h-18zM432 -858l160 166h22l138 -137l131 137h22l166 -166l-160 -164h-22l-137 135l-131 -135h-23z" />
    <glyph glyph-name="uniFB7CFE8A.rlig" unicode="&#xfb7c;&#xfe8a;" horiz-adv-x="2166" 
d="M27 629l116 86q-32 24 -53.5 58.5t-21.5 70.5q0 81 76 161t157 80q57 0 87 -28.5t30 -69.5q0 -56 -29 -102l-141 53q-42 -8 -75.5 -27.5t-33.5 -38.5q0 -36 86 -54.5t172 -6.5l82 12l6 -8l-30 -162l-428 -69v45zM664 -559q-129 0 -231 30.5t-168 82.5t-109.5 124.5
t-61.5 152t-18 169.5q0 220 96 477l84 -24q-51 -173 -51 -283q0 -385 491 -385q177 0 361.5 47.5t294.5 120.5q-63 51 -244 78l-246 35l-6 14l70 285q386 98 721 145q-93 18 -230 57q-242 64 -291 64q-65 0 -93 -28.5t-34 -100.5h-88q-6 86 -6 153q0 143 58.5 213t166.5 70
q58 0 131 -18.5t273 -81.5q244 -77 318 -93q88 -18 180 -18h86l6 -8l-88 -275q-331 -37 -766 -176q178 -63 178 -192q0 -84 -15 -188.5t-42 -182.5q-97 -110 -298.5 -187t-428.5 -77zM1546 80l148 151h20l125 -125l119 125h22l152 -151l-147 -150h-21l-125 123l-121 -123
h-20zM1700 -172l129 133h20l131 -133l-131 -131h-18z" />
    <glyph glyph-name="uniFC0F.rlig" unicode="&#xfe97;&#xfef0;" horiz-adv-x="1509" 
d="M838 1415l159 166h23l137 -137l131 137h23l166 -166l-160 -164h-23l-137 135l-131 -135h-22zM645 -397q-124 0 -222.5 30.5t-162.5 82.5t-106 124.5t-60 152t-18 169.5q0 218 96 475l84 -25q-51 -173 -51 -282q0 -182 115 -282.5t358 -100.5q189 0 372 39.5t300 109.5
q-56 28 -238 56l-336 49l-6 12l76 317q220 0 389 48q-50 104 -217 276l123 270h80q57 -99 89.5 -215.5t32.5 -228.5q0 -133 -40 -258q-33 -20 -66 -37q114 -24 162.5 -67.5t48.5 -116.5q0 -76 -15 -171t-42 -165q-98 -109 -302.5 -185.5t-443.5 -76.5z" />
    <glyph glyph-name="uniFC10.rlig" unicode="&#xfe97;&#xfef2;" horiz-adv-x="1509" 
d="M838 1415l159 166h23l137 -137l131 137h23l166 -166l-160 -164h-23l-137 135l-131 -135h-22zM645 -397q-124 0 -222.5 30.5t-162.5 82.5t-106 124.5t-60 152t-18 169.5q0 218 96 475l84 -25q-51 -173 -51 -282q0 -182 115 -282.5t358 -100.5q189 0 372 39.5t300 109.5
q-56 28 -238 56l-336 49l-6 12l76 317q220 0 389 48q-50 104 -217 276l123 270h80q57 -99 89.5 -215.5t32.5 -228.5q0 -133 -40 -258q-33 -20 -66 -37q114 -24 162.5 -67.5t48.5 -116.5q0 -76 -15 -171t-42 -165q-98 -109 -302.5 -185.5t-443.5 -76.5zM449 -696l159 166h23
l137 -138l131 138h23l165 -166l-159 -164h-23l-137 135l-131 -135h-23z" />
    <glyph glyph-name="uniFE97FE8A.rlig" unicode="&#xfe97;&#xfe8a;" horiz-adv-x="1509" 
d="M838 1415l159 166h23l137 -137l131 137h23l166 -166l-160 -164h-23l-137 135l-131 -135h-22zM27 788l116 86q-32 24 -53.5 59t-21.5 71q0 81 76 161t157 80q57 0 87 -28.5t30 -69.5q0 -57 -29 -103l-141 54q-42 -8 -75.5 -27.5t-33.5 -38.5q0 -36 86 -54.5t172 -6.5
l82 12l6 -8l-30 -162l-428 -70v45zM645 -397q-124 0 -222.5 30.5t-162.5 82.5t-106 124.5t-60 152t-18 169.5q0 218 96 475l84 -25q-51 -173 -51 -282q0 -182 115 -282.5t358 -100.5q189 0 372 39.5t300 109.5q-56 28 -238 56l-336 49l-6 12l76 317q220 0 389 48
q-50 104 -217 276l123 270h80q57 -99 89.5 -215.5t32.5 -228.5q0 -133 -40 -258q-33 -20 -66 -37q114 -24 162.5 -67.5t48.5 -116.5q0 -76 -15 -171t-42 -165q-98 -109 -302.5 -185.5t-443.5 -76.5z" />
    <glyph glyph-name="uniFC13.rlig" unicode="&#xfe9b;&#xfef0;" horiz-adv-x="1509" 
d="M1006 1706l141 143h20l144 -143l-142 -145h-20zM848 1415l160 166h22l137 -137l131 137h23l166 -166l-160 -164h-22l-138 135l-131 -135h-22zM645 -397q-124 0 -222.5 30.5t-162.5 82.5t-106 124.5t-60 152t-18 169.5q0 218 96 475l84 -25q-51 -173 -51 -282
q0 -182 115 -282.5t358 -100.5q189 0 372 39.5t300 109.5q-56 28 -238 56l-336 49l-6 12l76 317q220 0 389 48q-50 104 -217 276l123 270h80q57 -99 89.5 -215.5t32.5 -228.5q0 -133 -40 -258q-33 -20 -66 -37q114 -24 162.5 -67.5t48.5 -116.5q0 -76 -15 -171t-42 -165
q-98 -109 -302.5 -185.5t-443.5 -76.5z" />
    <glyph glyph-name="uniFC14.rlig" unicode="&#xfe9b;&#xfef2;" horiz-adv-x="1509" 
d="M1006 1706l141 143h20l144 -143l-142 -145h-20zM848 1415l160 166h22l137 -137l131 137h23l166 -166l-160 -164h-22l-138 135l-131 -135h-22zM645 -397q-124 0 -222.5 30.5t-162.5 82.5t-106 124.5t-60 152t-18 169.5q0 218 96 475l84 -25q-51 -173 -51 -282
q0 -182 115 -282.5t358 -100.5q189 0 372 39.5t300 109.5q-56 28 -238 56l-336 49l-6 12l76 317q220 0 389 48q-50 104 -217 276l123 270h80q57 -99 89.5 -215.5t32.5 -228.5q0 -133 -40 -258q-33 -20 -66 -37q114 -24 162.5 -67.5t48.5 -116.5q0 -76 -15 -171t-42 -165
q-98 -109 -302.5 -185.5t-443.5 -76.5zM449 -696l159 166h23l137 -138l131 138h23l165 -166l-159 -164h-23l-137 135l-131 -135h-23z" />
    <glyph glyph-name="uniFE9BFE8A.rlig" unicode="&#xfe9b;&#xfe8a;" horiz-adv-x="1509" 
d="M1006 1706l141 143h20l144 -143l-142 -145h-20zM848 1415l160 166h22l137 -137l131 137h23l166 -166l-160 -164h-22l-138 135l-131 -135h-22zM27 788l116 86q-32 24 -53.5 59t-21.5 71q0 81 76 161t157 80q57 0 87 -28.5t30 -69.5q0 -57 -29 -103l-141 54
q-42 -8 -75.5 -27.5t-33.5 -38.5q0 -36 86 -54.5t172 -6.5l82 12l6 -8l-30 -162l-428 -70v45zM645 -397q-124 0 -222.5 30.5t-162.5 82.5t-106 124.5t-60 152t-18 169.5q0 218 96 475l84 -25q-51 -173 -51 -282q0 -182 115 -282.5t358 -100.5q189 0 372 39.5t300 109.5
q-56 28 -238 56l-336 49l-6 12l76 317q220 0 389 48q-50 104 -217 276l123 270h80q57 -99 89.5 -215.5t32.5 -228.5q0 -133 -40 -258q-33 -20 -66 -37q114 -24 162.5 -67.5t48.5 -116.5q0 -76 -15 -171t-42 -165q-98 -109 -302.5 -185.5t-443.5 -76.5z" />
    <glyph glyph-name="uniFB68FEF0.rlig" unicode="&#xfb68;&#xfef0;" horiz-adv-x="1509" 
d="M834 1393v20h139q17 25 55 74l-20 209q-67 99 49 178h41v-76l47 -65v-4l-47 -31v-131q85 88 170 88q66 0 111.5 -45t45.5 -105q0 -73 -45 -174q-120 -53 -307 -53h-80zM1227 1516q-51 0 -92.5 -24t-87.5 -79h38q155 0 271 27q-10 40 -46 58t-83 18zM645 -397
q-124 0 -222.5 30.5t-162.5 82.5t-106 124.5t-60 152t-18 169.5q0 218 96 475l84 -25q-51 -173 -51 -282q0 -182 115 -282.5t358 -100.5q189 0 372 39.5t300 109.5q-56 28 -238 56l-336 49l-6 12l76 317q220 0 389 48q-50 104 -217 276l123 270h80q57 -99 89.5 -215.5
t32.5 -228.5q0 -133 -40 -258q-33 -20 -66 -37q114 -24 162.5 -67.5t48.5 -116.5q0 -76 -15 -171t-42 -165q-98 -109 -302.5 -185.5t-443.5 -76.5z" />
    <glyph glyph-name="uniFB68FEF2.rlig" unicode="&#xfb68;&#xfef2;" horiz-adv-x="1509" 
d="M834 1393v20h139q17 25 55 74l-20 209q-67 99 49 178h41v-76l47 -65v-4l-47 -31v-131q85 88 170 88q66 0 111.5 -45t45.5 -105q0 -73 -45 -174q-120 -53 -307 -53h-80zM1227 1516q-51 0 -92.5 -24t-87.5 -79h38q155 0 271 27q-10 40 -46 58t-83 18zM645 -397
q-124 0 -222.5 30.5t-162.5 82.5t-106 124.5t-60 152t-18 169.5q0 218 96 475l84 -25q-51 -173 -51 -282q0 -182 115 -282.5t358 -100.5q189 0 372 39.5t300 109.5q-56 28 -238 56l-336 49l-6 12l76 317q220 0 389 48q-50 104 -217 276l123 270h80q57 -99 89.5 -215.5
t32.5 -228.5q0 -133 -40 -258q-33 -20 -66 -37q114 -24 162.5 -67.5t48.5 -116.5q0 -76 -15 -171t-42 -165q-98 -109 -302.5 -185.5t-443.5 -76.5zM449 -696l159 166h23l137 -138l131 138h23l165 -166l-159 -164h-23l-137 135l-131 -135h-23z" />
    <glyph glyph-name="uniFB68FE8A.rlig" unicode="&#xfb68;&#xfe8a;" horiz-adv-x="1509" 
d="M834 1393v20h139q17 25 55 74l-20 209q-67 99 49 178h41v-76l47 -65v-4l-47 -31v-131q85 88 170 88q66 0 111.5 -45t45.5 -105q0 -73 -45 -174q-120 -53 -307 -53h-80zM1227 1516q-51 0 -92.5 -24t-87.5 -79h38q155 0 271 27q-10 40 -46 58t-83 18zM27 788l116 86
q-32 24 -53.5 59t-21.5 71q0 81 76 161t157 80q57 0 87 -28.5t30 -69.5q0 -57 -29 -103l-141 54q-42 -8 -75.5 -27.5t-33.5 -38.5q0 -36 86 -54.5t172 -6.5l82 12l6 -8l-30 -162l-428 -70v45zM645 -397q-124 0 -222.5 30.5t-162.5 82.5t-106 124.5t-60 152t-18 169.5
q0 218 96 475l84 -25q-51 -173 -51 -282q0 -182 115 -282.5t358 -100.5q189 0 372 39.5t300 109.5q-56 28 -238 56l-336 49l-6 12l76 317q220 0 389 48q-50 104 -217 276l123 270h80q57 -99 89.5 -215.5t32.5 -228.5q0 -133 -40 -258q-33 -20 -66 -37q114 -24 162.5 -67.5
t48.5 -116.5q0 -76 -15 -171t-42 -165q-98 -109 -302.5 -185.5t-443.5 -76.5z" />
    <glyph glyph-name="uniFB6CFEF0.rlig" unicode="&#xfb6c;&#xfef0;" horiz-adv-x="1523" 
d="M860 1921l141 143h21l143 -143l-141 -145h-20zM702 1630l160 166h23l137 -137l131 137h23l165 -166l-159 -164h-23l-137 136l-131 -136h-23zM649 -397q-125 0 -224 30.5t-163.5 82.5t-107 124.5t-60.5 152t-18 169.5q0 218 96 475l84 -25q-51 -173 -51 -282
q0 -182 115 -282.5t360 -100.5q190 0 364.5 40t292.5 117q-61 31 -225 46l-336 30l-6 15l76 266q244 0 418 59q4 20 4 62q0 121 -51 229l-64 -174q-90 -51 -213 -51q-139 0 -218 72t-79 200q0 123 51 238.5t134.5 186.5t172.5 71q101 0 185.5 -86t132 -231.5t47.5 -317.5
q0 -188 -51 -318q-37 -22 -64 -34q106 -24 151.5 -63.5t45.5 -102.5q0 -76 -15 -171t-42 -165q-100 -111 -302 -186.5t-440 -75.5zM741 934q0 -70 201 -70q116 0 232 21q-51 75 -120 118.5t-145 43.5q-66 0 -117 -34.5t-51 -78.5z" />
    <glyph glyph-name="uniFB6CFEF2.rlig" unicode="&#xfb6c;&#xfef2;" horiz-adv-x="1523" 
d="M860 1921l141 143h21l143 -143l-141 -145h-20zM702 1630l160 166h23l137 -137l131 137h23l165 -166l-159 -164h-23l-137 136l-131 -136h-23zM649 -397q-125 0 -224 30.5t-163.5 82.5t-107 124.5t-60.5 152t-18 169.5q0 218 96 475l84 -25q-51 -173 -51 -282
q0 -182 115 -282.5t360 -100.5q190 0 364.5 40t292.5 117q-61 31 -225 46l-336 30l-6 15l76 266q244 0 418 59q4 20 4 62q0 121 -51 229l-64 -174q-90 -51 -213 -51q-139 0 -218 72t-79 200q0 123 51 238.5t134.5 186.5t172.5 71q101 0 185.5 -86t132 -231.5t47.5 -317.5
q0 -188 -51 -318q-37 -22 -64 -34q106 -24 151.5 -63.5t45.5 -102.5q0 -76 -15 -171t-42 -165q-100 -111 -302 -186.5t-440 -75.5zM741 934q0 -70 201 -70q116 0 232 21q-51 75 -120 118.5t-145 43.5q-66 0 -117 -34.5t-51 -78.5zM449 -696l159 166h23l137 -138l131 138h23
l165 -166l-159 -164h-23l-137 135l-131 -135h-23z" />
    <glyph glyph-name="uniFB6CFE8A.rlig" unicode="&#xfb6c;&#xfe8a;" horiz-adv-x="1523" 
d="M860 1921l141 143h21l143 -143l-141 -145h-20zM702 1630l160 166h23l137 -137l131 137h23l165 -166l-159 -164h-23l-137 136l-131 -136h-23zM649 -397q-125 0 -224 30.5t-163.5 82.5t-107 124.5t-60.5 152t-18 169.5q0 218 96 475l84 -25q-51 -173 -51 -282
q0 -182 115 -282.5t360 -100.5q190 0 364.5 40t292.5 117q-61 31 -225 46l-336 30l-6 15l76 266q244 0 418 59q4 20 4 62q0 121 -51 229l-64 -174q-90 -51 -213 -51q-139 0 -218 72t-79 200q0 123 51 238.5t134.5 186.5t172.5 71q101 0 185.5 -86t132 -231.5t47.5 -317.5
q0 -188 -51 -318q-37 -22 -64 -34q106 -24 151.5 -63.5t45.5 -102.5q0 -76 -15 -171t-42 -165q-100 -111 -302 -186.5t-440 -75.5zM27 788l116 86q-32 24 -53.5 59t-21.5 71q0 81 76 161t157 80q57 0 87 -28.5t30 -69.5q0 -57 -29 -103l-141 54q-42 -8 -75.5 -27.5
t-33.5 -38.5q0 -36 86 -54.5t172 -6.5l82 12l6 -8l-30 -162l-428 -70v45zM741 934q0 -70 201 -70q116 0 232 21q-51 75 -120 118.5t-145 43.5q-66 0 -117 -34.5t-51 -78.5z" />
    <glyph glyph-name="uniFC03.rlig" unicode="&#xfe8b;&#xfef0;" horiz-adv-x="1509" 
d="M928 1280l116 86q-32 24 -53.5 58.5t-21.5 70.5q0 81 76 161.5t157 80.5q57 0 87 -29t30 -70q0 -56 -29 -102l-141 53q-42 -8 -75.5 -27t-33.5 -38q0 -36 86 -55t172 -7l82 13l6 -9l-30 -161l-428 -70v45zM645 -397q-124 0 -222.5 30.5t-162.5 82.5t-106 124.5t-60 152
t-18 169.5q0 218 96 475l84 -25q-51 -173 -51 -282q0 -182 115 -282.5t358 -100.5q189 0 372 39.5t300 109.5q-56 28 -238 56l-336 49l-6 12l76 317q220 0 389 48q-50 104 -217 276l123 270h80q57 -99 89.5 -215.5t32.5 -228.5q0 -133 -40 -258q-33 -20 -66 -37
q114 -24 162.5 -67.5t48.5 -116.5q0 -76 -15 -171t-42 -165q-98 -109 -302.5 -185.5t-443.5 -76.5z" />
    <glyph glyph-name="uniFC04.rlig" unicode="&#xfe8b;&#xfef2;" horiz-adv-x="1509" 
d="M928 1280l116 86q-32 24 -53.5 58.5t-21.5 70.5q0 81 76 161.5t157 80.5q57 0 87 -29t30 -70q0 -56 -29 -102l-141 53q-42 -8 -75.5 -27t-33.5 -38q0 -36 86 -55t172 -7l82 13l6 -9l-30 -161l-428 -70v45zM645 -397q-124 0 -222.5 30.5t-162.5 82.5t-106 124.5t-60 152
t-18 169.5q0 218 96 475l84 -25q-51 -173 -51 -282q0 -182 115 -282.5t358 -100.5q189 0 372 39.5t300 109.5q-56 28 -238 56l-336 49l-6 12l76 317q220 0 389 48q-50 104 -217 276l123 270h80q57 -99 89.5 -215.5t32.5 -228.5q0 -133 -40 -258q-33 -20 -66 -37
q114 -24 162.5 -67.5t48.5 -116.5q0 -76 -15 -171t-42 -165q-98 -109 -302.5 -185.5t-443.5 -76.5zM449 -696l159 166h23l137 -138l131 138h23l165 -166l-159 -164h-23l-137 135l-131 -135h-23z" />
    <glyph glyph-name="uniFE8BFE8A.rlig" unicode="&#xfe8b;&#xfe8a;" horiz-adv-x="1509" 
d="M928 1280l116 86q-32 24 -53.5 58.5t-21.5 70.5q0 81 76 161.5t157 80.5q57 0 87 -29t30 -70q0 -56 -29 -102l-141 53q-42 -8 -75.5 -27t-33.5 -38q0 -36 86 -55t172 -7l82 13l6 -9l-30 -161l-428 -70v45zM27 788l116 86q-32 24 -53.5 59t-21.5 71q0 81 76 161t157 80
q57 0 87 -28.5t30 -69.5q0 -57 -29 -103l-141 54q-42 -8 -75.5 -27.5t-33.5 -38.5q0 -36 86 -54.5t172 -6.5l82 12l6 -8l-30 -162l-428 -70v45zM645 -397q-124 0 -222.5 30.5t-162.5 82.5t-106 124.5t-60 152t-18 169.5q0 218 96 475l84 -25q-51 -173 -51 -282
q0 -182 115 -282.5t358 -100.5q189 0 372 39.5t300 109.5q-56 28 -238 56l-336 49l-6 12l76 317q220 0 389 48q-50 104 -217 276l123 270h80q57 -99 89.5 -215.5t32.5 -228.5q0 -133 -40 -258q-33 -20 -66 -37q114 -24 162.5 -67.5t48.5 -116.5q0 -76 -15 -171t-42 -165
q-98 -109 -302.5 -185.5t-443.5 -76.5z" />
    <glyph glyph-name="uniFBFEFBFD.rlig" unicode="&#xfbfe;&#xfbfd;" horiz-adv-x="1509" 
d="M645 -397q-124 0 -222.5 30.5t-162.5 82.5t-106 124.5t-60 152t-18 169.5q0 218 96 475l84 -25q-51 -173 -51 -282q0 -182 115 -282.5t358 -100.5q189 0 372 39.5t300 109.5q-56 28 -238 56l-336 49l-6 12l76 317q220 0 389 48q-50 104 -217 276l123 270h80
q57 -99 89.5 -215.5t32.5 -228.5q0 -133 -40 -258q-33 -20 -66 -37q114 -24 162.5 -67.5t48.5 -116.5q0 -76 -15 -171t-42 -165q-98 -109 -302.5 -185.5t-443.5 -76.5zM1004 -580l159 166h23l137 -137l131 137h23l165 -166l-159 -163h-23l-137 135l-131 -135h-23z" />
    <glyph glyph-name="uniFEE0FB51" unicode="&#xfee0;&#xfb51;" horiz-adv-x="1241" 
d="M186 1321l43 242l13 10l106 -25q66 115 123.5 163t128.5 48q63 0 107.5 -45.5t44.5 -105.5q0 -81 -45 -176q-68 -41 -142.5 -50t-181.5 13l-88 16l-49 -106zM555 1618q-40 0 -72 -19t-67 -65q160 -36 268 4q-8 41 -45.5 60.5t-83.5 19.5zM86 82q358 136 516 240
q-7 142 -60 236.5t-184 205.5l-82 70h-210v376l73 43l219 -194q126 -111 196 -206.5t103 -205.5t35 -260q93 81 128.5 178t27.5 234l-29 456l127 273h82v-1026q0 -100 46.5 -139t166.5 -39v-267l-59 -57q-172 0 -241.5 94t-78.5 312l-2 38h-4q-45 -243 -194 -444h-576v82z
" />
    <glyph glyph-name="uni066E.init" unicode="&#x66e;" horiz-adv-x="589" 
d="M-57 266l59 58q221 0 373 49q-57 71 -203 196l121 271h82q59 -80 93 -177.5t34 -187.5q0 -198 -62 -375q-89 -46 -221 -73t-276 -27v266z" />
    <glyph glyph-name="uni066E.medi" unicode="&#x66e;" horiz-adv-x="626" 
d="M-57 266l57 58q163 0 244 34l55 320h82v-156q0 -52 7 -85.5t22 -56.5t45.5 -35t70 -16.5t101.5 -4.5v-269l-60 -55q-128 0 -211 67.5t-108 182.5h-6q-10 -54 -47 -178q-107 -72 -252 -72v266z" />
    <glyph glyph-name="uni066E.fina" unicode="&#x66e;" horiz-adv-x="1959" 
d="M762 -37q-357 0 -516.5 112t-159.5 351q0 208 96 422l76 -27q-37 -127 -37 -223q0 -73 23 -126t67 -88.5t115 -57t159 -30.5t208 -9q394 0 578 41t253 143l62 88l73 -43l-65 -115q97 -77 266 -77v-269l-57 -55q-210 0 -363 176q-115 -121 -289 -167t-489 -46z" />
    <glyph glyph-name="uni066F.fina" unicode="&#x66f;" horiz-adv-x="1413" 
d="M612 -559q-253 0 -394.5 129.5t-141.5 361.5q0 185 86 426l78 -24q-35 -128 -35 -221q0 -328 442 -328q162 0 307 41t244 113q4 19 8 61h-225q-185 0 -288 86.5t-103 239.5q0 128 50.5 248t133.5 193t172 73q140 0 242 -148t121 -368h104v-267l-59 -57h-56
q-20 -199 -53 -326q-106 -107 -277 -170t-356 -63zM961 324h196q-48 86 -129.5 139t-173.5 53q-66 0 -116 -33.5t-50 -76.5q0 -82 273 -82z" />
    <glyph glyph-name="uni06A1.init" unicode="&#x6a1;" horiz-adv-x="845" 
d="M-57 264l57 60q208 0 385.5 26t292.5 72q2 16 2 43q0 115 -47 211l-66 -193q-90 -51 -213 -51q-139 0 -218 77t-79 212q0 123 51.5 238.5t135 186.5t172.5 71q101 0 184.5 -79.5t130.5 -216t47 -298.5q0 -246 -82 -484q-130 -66 -329 -102.5t-424 -36.5v264zM156 797
q0 -70 200 -70q116 0 238 21q-53 75 -123 118t-147 43q-66 0 -117 -34.5t-51 -77.5z" />
    <glyph glyph-name="uni06A1.medi" unicode="&#x6a1;" horiz-adv-x="894" 
d="M-57 266l57 58q107 0 156 2q-39 76 -39 157q0 114 50.5 234t136.5 201t179 81q74 0 143 -55.5t110.5 -146.5t41.5 -189q0 -138 -100 -268q115 -16 217 -16v-267l-57 -57q-256 0 -453 104q-210 -104 -442 -104v266zM215 573q0 -61 90 -116t236 -92q137 39 137 114
t-89.5 136t-199.5 61q-71 0 -122.5 -29t-51.5 -74z" />
    <glyph glyph-name="uni06A1.fina" unicode="&#x6a1;" horiz-adv-x="1923" 
d="M721 -37q-336 0 -485.5 112t-149.5 351q0 208 96 422l76 -27q-37 -127 -37 -223q0 -177 137 -244t445 -67q244 0 420 20q-43 79 -43 176q0 114 50 233.5t135.5 201t178.5 81.5q74 0 143 -55.5t110.5 -146.5t41.5 -189q0 -140 -94 -274q95 -10 178 -10v-267l-59 -57
q-253 0 -437 104q-334 -141 -706 -141zM1278 573q0 -63 88 -120t231 -93q144 36 144 119q0 75 -89.5 136t-201.5 61q-70 0 -121 -29t-51 -74z" />
    <glyph glyph-name="uni06C2.fina" unicode="&#x6c2;" horiz-adv-x="1290" 
d="M442 934l117 86q-32 24 -54 58.5t-22 70.5q0 81 76.5 161.5t157.5 80.5q57 0 87 -29t30 -70q0 -56 -29 -102l-141 53q-42 -8 -75.5 -27t-33.5 -38q0 -36 86 -55t172 -7l82 12l6 -8l-31 -162l-428 -69v45zM1231 0q-116 0 -197 59t-207 236q-54 73 -104 106t-107 33
q-85 0 -188 -60.5t-289 -226.5l-53 46l119 286q127 131 251.5 205t215.5 74q93 0 164.5 -55t187.5 -216q70 -98 124 -130.5t142 -32.5v-267z" />
    <glyph glyph-name="uni06C3.fina" unicode="&#x6c3;" horiz-adv-x="1290" 
d="M352 1069l160 166h23l137 -137l131 137h22l166 -166l-160 -164h-22l-137 135l-131 -135h-23zM1231 0q-116 0 -197 59t-207 236q-54 73 -104 106t-107 33q-85 0 -188 -60.5t-289 -226.5l-53 46l119 286q127 131 251.5 205t215.5 74q93 0 164.5 -55t187.5 -216
q70 -98 124 -130.5t142 -32.5v-267z" />
    <glyph glyph-name="uniFB51" unicode="&#x671;" horiz-adv-x="612" arabic-form="final" 
d="M-25 1339l43 242l13 10l106 -24q66 115 123.5 163t128.5 48q63 0 107.5 -46t44.5 -106q0 -81 -45 -176q-68 -41 -142.5 -50t-181.5 13l-88 17l-49 -107zM344 1636q-40 0 -72 -19t-67 -65q160 -36 268 4q-8 41 -45.5 60.5t-83.5 19.5zM553 0q-85 0 -144 16.5t-99.5 49.5
t-65.5 93.5t-38 136t-20 189.5l-30 539l127 272h82v-794q0 -100 54.5 -139t192.5 -39v-267z" />
    <glyph glyph-name="uniFB57" unicode="&#x67e;" horiz-adv-x="1959" arabic-form="final" 
d="M762 -37q-357 0 -516.5 112t-159.5 351q0 208 96 422l76 -27q-37 -127 -37 -223q0 -73 23 -126t67 -88.5t115 -57t159 -30.5t208 -9q394 0 578 41t253 143l62 88l73 -43l-65 -115q97 -77 266 -77v-269l-57 -55q-210 0 -363 176q-115 -121 -289 -167t-489 -46zM563 -307
l160 166h22l138 -138l131 138h22l166 -166l-160 -164h-22l-137 135l-131 -135h-23zM731 -582l141 146h23l143 -146l-143 -145h-21z" />
    <glyph glyph-name="uniFB58" unicode="&#x67e;" horiz-adv-x="589" arabic-form="initial" 
d="M-57 266l59 58q221 0 373 49q-57 71 -203 196l121 271h82q59 -80 93 -177.5t34 -187.5q0 -198 -62 -375q-89 -46 -221 -73t-276 -27v266zM-23 -307l160 166h23l137 -138l131 138h23l165 -166l-159 -164h-23l-137 135l-131 -135h-23zM145 -582l142 146h22l144 -146
l-144 -145h-20z" />
    <glyph glyph-name="uniFB59" unicode="&#x67e;" horiz-adv-x="626" arabic-form="medial" 
d="M-57 266l57 58q163 0 244 34l55 320h82v-156q0 -52 7 -85.5t22 -56.5t45.5 -35t70 -16.5t101.5 -4.5v-269l-60 -55q-128 0 -211 67.5t-108 182.5h-6q-10 -54 -47 -178q-107 -72 -252 -72v266zM-29 -307l160 166h23l137 -138l131 138h22l166 -166l-159 -164h-23l-137 135
l-131 -135h-23zM139 -582l142 146h22l143 -146l-143 -145h-20z" />
    <glyph glyph-name="uniFB67" unicode="&#x679;" horiz-adv-x="1959" arabic-form="final" 
d="M530 887v20h140q17 25 55 74l-20 209q-67 99 49 178h41v-76l47 -65v-4l-47 -31v-131q85 88 170 88q66 0 111.5 -45t45.5 -105q0 -73 -45 -174q-120 -53 -307 -53h-80zM924 1010q-51 0 -93 -24t-88 -79h39q155 0 271 27q-10 40 -46 58t-83 18zM762 -37q-357 0 -516.5 112
t-159.5 351q0 208 96 422l76 -27q-37 -127 -37 -223q0 -73 23 -126t67 -88.5t115 -57t159 -30.5t208 -9q394 0 578 41t253 143l62 88l73 -43l-65 -115q97 -77 266 -77v-269l-57 -55q-210 0 -363 176q-115 -121 -289 -167t-489 -46z" />
    <glyph glyph-name="uniFB68" unicode="&#x679;" horiz-adv-x="589" arabic-form="initial" 
d="M-31 1128v21h140q17 25 55 74l-21 209q-66 99 50 178h40v-76l48 -66v-4l-48 -30v-131q85 88 170 88q66 0 112 -45t46 -105q0 -73 -45 -174q-120 -53 -307 -53h-80zM362 1251q-51 0 -93 -23.5t-87 -78.5h39q155 0 271 27q-10 39 -46.5 57t-83.5 18zM-57 266l59 58
q221 0 373 49q-57 71 -203 196l121 271h82q59 -80 93 -177.5t34 -187.5q0 -198 -62 -375q-89 -46 -221 -73t-276 -27v266z" />
    <glyph glyph-name="uniFB69" unicode="&#x679;" horiz-adv-x="626" arabic-form="medial" 
d="M10 967v20h140q17 25 55 74l-21 209q-67 99 49 178h41v-76l48 -65v-4l-48 -31v-131q85 88 170 88q66 0 112 -45t46 -105q0 -73 -45 -174q-120 -53 -307 -53h-80zM403 1090q-51 0 -92.5 -24t-87.5 -79h39q154 0 270 27q-10 40 -46 58t-83 18zM-57 266l57 58q163 0 244 34
l55 320h82v-156q0 -52 7 -85.5t22 -56.5t45.5 -35t70 -16.5t101.5 -4.5v-269l-60 -55q-128 0 -211 67.5t-108 182.5h-6q-10 -54 -47 -178q-107 -72 -252 -72v266z" />
    <glyph glyph-name="uniFB6B" unicode="&#x6a4;" horiz-adv-x="1923" arabic-form="final" 
d="M1372 1602l141 143h21l143 -143l-141 -146h-20zM1214 1311l160 166h23l137 -138l131 138h23l165 -166l-159 -164h-23l-137 135l-131 -135h-23zM721 -37q-336 0 -485.5 112t-149.5 351q0 208 96 422l76 -27q-37 -127 -37 -223q0 -177 137 -244t445 -67q244 0 420 20
q-43 79 -43 176q0 114 50 233.5t135.5 201t178.5 81.5q74 0 143 -55.5t110.5 -146.5t41.5 -189q0 -140 -94 -274q95 -10 178 -10v-267l-59 -57q-253 0 -437 104q-334 -141 -706 -141zM1278 573q0 -63 88 -120t231 -93q144 36 144 119q0 75 -89.5 136t-201.5 61
q-70 0 -121 -29t-51 -74z" />
    <glyph glyph-name="uniFB6C" unicode="&#x6a4;" horiz-adv-x="845" arabic-form="initial" 
d="M242 1819l141 143h20l144 -143l-141 -146h-21zM84 1528l160 166h22l137 -138l132 138h22l166 -166l-160 -164h-22l-138 135l-131 -135h-22zM-57 264l57 60q208 0 385.5 26t292.5 72q2 16 2 43q0 115 -47 211l-66 -193q-90 -51 -213 -51q-139 0 -218 77t-79 212
q0 123 51.5 238.5t135 186.5t172.5 71q101 0 184.5 -79.5t130.5 -216t47 -298.5q0 -246 -82 -484q-130 -66 -329 -102.5t-424 -36.5v264zM156 797q0 -70 200 -70q116 0 238 21q-53 75 -123 118t-147 43q-66 0 -117 -34.5t-51 -77.5z" />
    <glyph glyph-name="uniFB6D" unicode="&#x6a4;" horiz-adv-x="894" arabic-form="medial" 
d="M309 1602l142 143h20l143 -143l-141 -146h-20zM152 1311l159 166h23l137 -138l131 138h23l166 -166l-160 -164h-23l-137 135l-131 -135h-23zM-57 266l57 58q107 0 156 2q-39 76 -39 157q0 114 50.5 234t136.5 201t179 81q74 0 143 -55.5t110.5 -146.5t41.5 -189
q0 -138 -100 -268q115 -16 217 -16v-267l-57 -57q-256 0 -453 104q-210 -104 -442 -104v266zM215 573q0 -61 90 -116t236 -92q137 39 137 114t-89.5 136t-199.5 61q-71 0 -122.5 -29t-51.5 -74z" />
    <glyph glyph-name="uniFB7B" unicode="&#x686;" horiz-adv-x="1366" arabic-form="final" 
d="M123 483q-28 241 27.5 339t218.5 98q66 0 430 -46q257 -34 389 -34h106l6 -9l-90 -311q-76 -3 -147 -12q17 -100 87 -142t216 -42v-267l-59 -57q-182 0 -260.5 111t-85.5 385q-389 -54 -597 -198.5t-208 -358.5q0 -128 96.5 -224t262.5 -145t378 -49q233 0 430 43l25 -68
l-521 -315q-228 0 -410.5 81t-287 230.5t-104.5 341.5q0 258 163.5 452.5t473.5 307.5l-50 4q-153 14 -262 14q-68 0 -101.5 -24t-37.5 -76l-2 -29h-86zM322 84l159 166h23l137 -137l131 137h23l166 -166l-160 -164h-23l-137 135l-131 -135h-23zM489 -190l142 145h22
l144 -145l-144 -146h-20z" />
    <glyph glyph-name="uniFB7C" unicode="&#x686;" horiz-adv-x="1380" arabic-form="initial" 
d="M-57 266l57 58q186 0 389 49q258 58 465 69q-104 32 -246 90q-125 47 -182 63.5t-100 16.5q-54 0 -80.5 -30.5t-32.5 -98.5h-88q-8 76 -8 154q0 134 60.5 208.5t168.5 74.5q61 0 137 -24t246 -95q221 -95 352 -135.5t217 -40.5h31l6 -9l-90 -280h-49q-185 0 -319.5 -31.5
t-352.5 -130.5q-218 -101 -341.5 -137.5t-239.5 -36.5v266zM401 -90l160 166h23l137 -137l131 137h22l166 -166l-159 -164h-23l-137 135l-131 -135h-23zM569 -365l142 146h22l144 -146l-144 -145h-20z" />
    <glyph glyph-name="uniFB7D" unicode="&#x686;" horiz-adv-x="1431" arabic-form="medial" 
d="M-57 266l57 58q101 0 201.5 20.5t236.5 61.5q222 68 371 102q-80 15 -178 41q-239 65 -291 65q-64 0 -92.5 -29t-34.5 -100h-88q-8 76 -8 152q0 144 59 213.5t168 69.5q58 0 132 -18.5t269 -80.5q180 -57 280.5 -75.5t219.5 -18.5h88l6 -8l-88 -275h-51q-60 0 -115 -6
q29 -63 108.5 -88.5t238.5 -25.5v-267l-60 -57q-196 0 -284 93.5t-111 326.5q-89 -23 -192 -72.5t-257 -142.5q-201 -121 -322.5 -163t-262.5 -42v266zM401 -90l160 166h23l137 -137l131 137h22l166 -166l-159 -164h-23l-137 135l-131 -135h-23zM569 -365l142 146h22
l144 -146l-144 -145h-20z" />
    <glyph glyph-name="uniFB89" unicode="&#x688;" horiz-adv-x="1177" arabic-form="final" 
d="M326 1356v20h139q17 25 55 74l-20 209q-67 99 49 178h41v-76l47 -65v-4l-47 -31v-131q85 88 170 88q66 0 112 -45t46 -105q0 -71 -46 -174q-120 -53 -307 -53h-80zM719 1479q-51 0 -92.5 -24t-87.5 -79h39q154 0 270 27q-10 40 -46 58t-83 18zM406 -37q-165 0 -242.5 72
t-77.5 196q0 101 45 250h82l2 -51q5 -85 54 -114t188 -29q179 0 284 51q-16 34 -57 121l-156 340l123 268h80l139 -405q70 -201 136.5 -269.5t189.5 -68.5v-267l-59 -57q-115 0 -192.5 56t-162.5 206h-4q-16 -89 -51 -201q-133 -98 -321 -98z" />
    <glyph glyph-name="uniFB8B" unicode="&#x698;" horiz-adv-x="882" arabic-form="final" 
d="M299 1280l141 143h21l143 -143l-141 -145h-21zM141 989l160 166h23l137 -137l131 137h22l166 -166l-159 -164h-23l-137 136l-131 -136h-23zM-111 -317v81q548 149 639 349q-85 85 -198 297l121 268h81q93 -210 165 -282t186 -72v-267l-60 -57q-140 0 -225 55
q-73 -267 -283 -547z" />
    <glyph glyph-name="uniFB8D" unicode="&#x691;" horiz-adv-x="882" arabic-form="final" 
d="M127 967v20h139q11 16 56 74l-21 209q-67 99 49 178h41v-76l47 -65v-4l-47 -31v-131q85 88 170 88q66 0 112 -45t46 -105q0 -73 -45 -174q-120 -53 -307 -53h-80zM520 1090q-51 0 -92.5 -24t-87.5 -79h39q154 0 270 27q-10 40 -46 58t-83 18zM-111 -317v81
q548 149 639 349q-85 85 -198 297l121 268h81q93 -210 165 -282t186 -72v-267l-60 -57q-140 0 -225 55q-73 -267 -283 -547z" />
    <glyph glyph-name="uniFB8F" unicode="&#x6a9;" horiz-adv-x="2068" arabic-form="final" 
d="M756 -37q-241 0 -389.5 51t-214.5 151.5t-66 260.5q0 208 96 422l76 -27q-37 -127 -37 -223q0 -177 131 -244t434 -67q409 0 658 92l-6 8q-89 129 -173 222t-245 239l170 366l897 351l31 -80l-123 -195l-738 -286q110 -101 194.5 -196.5t190.5 -240.5
q108 -147 195.5 -195t243.5 -48v-267l-58 -57q-171 0 -278.5 61t-239.5 234h-8q-12 -64 -49 -193q-126 -76 -296 -107.5t-396 -31.5z" />
    <glyph glyph-name="uniFB90" unicode="&#x6a9;" horiz-adv-x="991" arabic-form="initial" 
d="M737 125q-125 -58 -346 -91.5t-448 -33.5v266l57 58q402 0 688 73q-49 88 -154.5 180t-250.5 175l-66 -97h-10l-213 193l172 366l895 351l33 -80l-123 -195l-627 -243q244 -168 347.5 -303.5t103.5 -280.5q0 -136 -58 -338z" />
    <glyph glyph-name="uniFB91" unicode="&#x6a9;" horiz-adv-x="1079" arabic-form="medial" 
d="M-57 266l57 58q251 0 440 59l-2 4q-90 129 -174.5 222t-245.5 239l170 366l897 351l31 -80l-121 -195l-739 -286q108 -99 191.5 -194t193.5 -243q108 -147 195 -195t243 -48v-267l-57 -57q-172 0 -280.5 61t-237.5 234h-8q-10 -54 -50 -193q-94 -49 -226.5 -75.5
t-276.5 -26.5v266z" />
    <glyph glyph-name="uniFB93" unicode="&#x6af;" horiz-adv-x="2068" arabic-form="final" 
d="M1249 1368l74 158l676 262l45 -117l-787 -309zM756 -37q-241 0 -389.5 51t-214.5 151.5t-66 260.5q0 208 96 422l76 -27q-37 -127 -37 -223q0 -177 131 -244t434 -67q409 0 658 92l-6 8q-89 129 -173 222t-245 239l170 366l897 351l31 -80l-123 -195l-738 -286
q110 -101 194.5 -196.5t190.5 -240.5q108 -147 195.5 -195t243.5 -48v-267l-58 -57q-171 0 -278.5 61t-239.5 234h-8q-12 -64 -49 -193q-126 -76 -296 -107.5t-396 -31.5z" />
    <glyph glyph-name="uniFB94" unicode="&#x6af;" horiz-adv-x="991" arabic-form="initial" 
d="M225 1368l74 158l676 262l45 -117l-787 -309zM737 125q-125 -58 -346 -91.5t-448 -33.5v266l57 58q402 0 688 73q-49 88 -154.5 180t-250.5 175l-66 -97h-10l-213 193l172 366l895 351l33 -80l-123 -195l-627 -243q244 -168 347.5 -303.5t103.5 -280.5q0 -136 -58 -338z
" />
    <glyph glyph-name="uniFB95" unicode="&#x6af;" horiz-adv-x="1079" arabic-form="medial" 
d="M248 1368l74 158l675 262l45 -117l-786 -309zM-57 266l57 58q251 0 440 59l-2 4q-90 129 -174.5 222t-245.5 239l170 366l897 351l31 -80l-121 -195l-739 -286q108 -99 191.5 -194t193.5 -243q108 -147 195 -195t243 -48v-267l-57 -57q-172 0 -280.5 61t-237.5 234h-8
q-10 -54 -50 -193q-94 -49 -226.5 -75.5t-276.5 -26.5v266z" />
    <glyph glyph-name="uniFB9F" unicode="&#x6ba;" horiz-adv-x="1456" arabic-form="final" 
d="M571 -559q-233 0 -364 129.5t-131 361.5q0 185 86 426l78 -24q-35 -128 -35 -221q0 -328 401 -328q146 0 279.5 45.5t230.5 128.5q-39 169 -213 451l121 268h82q95 -213 165 -283.5t185 -70.5v-267l-59 -57q-102 0 -172 37q-7 -175 -62 -346q-108 -117 -264.5 -183.5
t-327.5 -66.5z" />
    <glyph glyph-name="uniFBA7" unicode="&#x6c1;" horiz-adv-x="1290" arabic-form="final" 
d="M1231 0q-116 0 -197 59t-207 236q-54 73 -104 106t-107 33q-85 0 -188 -60.5t-289 -226.5l-53 46l119 286q127 131 251.5 205t215.5 74q93 0 164.5 -55t187.5 -216q70 -98 124 -130.5t142 -32.5v-267z" />
    <glyph glyph-name="uniFBA8" unicode="&#x6c1;" horiz-adv-x="933" arabic-form="initial" 
d="M-57 266l57 58q123 0 193 32.5t124 114.5l60 88l76 -41l-58 -100q89 -50 186 -82.5t171 -38.5q-40 65 -181 209l95 231h82q98 -191 98 -340q0 -90 -27.5 -173t-57.5 -128t-73 -96q-100 2 -223 47.5t-221 122.5q-71 -95 -140.5 -132.5t-160.5 -37.5v266zM285 -592
q-66 0 -110 49t-44 121q0 98 71.5 186t203.5 144l38 -64q-127 -62 -127 -151q0 -41 25.5 -69t81.5 -50q2 -67 -33 -116.5t-106 -49.5z" />
    <glyph glyph-name="uniFBA9" unicode="&#x6c1;" horiz-adv-x="888" arabic-form="medial" 
d="M-57 266l57 58q123 0 193 32t124 113l60 88l76 -41q-55 -113 -80 -182.5t-25 -126.5q0 -90 46 -161.5t169 -190.5v6q0 204 91.5 333.5t234.5 129.5v-267l-60 -57q-90 0 -133 -24.5t-43 -77.5q0 -73 111 -238v-10l-201 -209l-119 119q-134 132 -178.5 229.5t-44.5 245.5
q0 55 15 123q-70 -89 -136.5 -123.5t-156.5 -34.5v266z" />
    <glyph glyph-name="uniFBAB" unicode="&#x6be;" horiz-adv-x="1150" arabic-form="final" 
d="M741 -483q-163 0 -262.5 127.5t-126.5 357.5q-20 -2 -63 -2l-269 236v88h146q68 0 186 4q15 115 50 220.5t87.5 192t127.5 138t161 51.5q97 0 178.5 -98.5t81.5 -237.5q0 -138 -96 -270h209v-267l-57 -57q-23 0 -37 2q33 -67 33 -147q0 -140 -99.5 -239t-249.5 -99z
M776 602q-111 0 -198.5 -78t-131.5 -190q223 18 358.5 60.5t135.5 101.5q0 43 -48.5 74.5t-115.5 31.5zM993 -57q0 95 -303 163q-119 -65 -229 -86q45 -84 128.5 -132t192.5 -48q99 0 155 30t56 73z" />
    <glyph glyph-name="uniFBAC" unicode="&#x6be;" horiz-adv-x="1142" arabic-form="initial" 
d="M799 -20q-261 0 -443 112q-195 -92 -413 -92v266l57 58q102 0 147 2q-30 73 -30 157q0 106 59 218.5t148 172.5v185l8 8l330 -158q220 -104 326 -231t106 -287q0 -172 -70 -366q-85 -45 -225 -45zM215 567q0 -60 73 -116t195 -93q81 18 117.5 50t36.5 81
q0 70 -82.5 127.5t-183.5 57.5q-64 0 -110 -31t-46 -76zM858 303q103 0 146 6q-37 116 -271 236q-18 -119 -96 -223q114 -19 221 -19z" />
    <glyph glyph-name="uniFBAD" unicode="&#x6be;" horiz-adv-x="919" arabic-form="medial" 
d="M510 -483q-164 0 -264 130t-127 365q-83 -12 -176 -12v266l57 58q82 0 121 2q14 115 49 221t88 192.5t128 138.5t161 52q98 0 179 -98t81 -238q0 -142 -92 -270h205v-267l-58 -57q-25 0 -35 2q31 -76 31 -147q0 -140 -99 -239t-249 -99zM545 602q-111 0 -199.5 -80
t-130.5 -192q222 16 358 59t136 107q0 43 -48.5 74.5t-115.5 31.5zM762 -57q0 98 -313 166q-108 -53 -224 -78q42 -89 127.5 -140t198.5 -51q100 0 155.5 29.5t55.5 73.5z" />
    <glyph glyph-name="uniFBAF" unicode="&#x6d2;" horiz-adv-x="1579" arabic-form="final" 
d="M500 -518q-112 0 -195 23.5t-130.5 66t-70 95t-22.5 116.5q0 174 98 297.5t269 183.5t401 60h780v-269l-57 -55h-793q-300 0 -438.5 -23.5t-138.5 -82.5q0 -53 87 -70t306 -17h936v-88l-393 -237h-639z" />
    <glyph glyph-name="uniFBB1" unicode="&#x6d3;" horiz-adv-x="1579" arabic-form="final" 
d="M618 500l117 86q-32 24 -54 58.5t-22 70.5q0 81 76.5 161t157.5 80q57 0 87 -28.5t30 -69.5q0 -56 -29 -102l-141 53q-42 -8 -75.5 -27.5t-33.5 -38.5q0 -36 86 -54.5t172 -6.5l82 12l6 -8l-30 -162l-429 -69v45zM500 -518q-112 0 -195 23.5t-130.5 66t-70 95
t-22.5 116.5q0 174 98 297.5t269 183.5t401 60h780v-269l-57 -55h-793q-300 0 -438.5 -23.5t-138.5 -82.5q0 -53 87 -70t306 -17h936v-88l-393 -237h-639z" />
    <glyph glyph-name="uniFBFD" unicode="&#x6cc;" horiz-adv-x="1591" arabic-form="final" 
d="M666 -559q-130 0 -232.5 30.5t-168.5 82.5t-109.5 124.5t-61.5 152t-18 169.5q0 220 96 477l84 -24q-51 -173 -51 -283q0 -385 493 -385q182 0 363.5 47.5t292.5 122.5q-64 53 -242 76l-250 35l-6 12l74 299l123 -15q314 -38 538 -38v-267l-59 -57q-39 0 -86 8
q-11 -179 -55 -303q-99 -112 -298.5 -188t-426.5 -76z" />
    <glyph glyph-name="uniFBFE" unicode="&#x6cc;" horiz-adv-x="589" arabic-form="initial" 
d="M-57 266l59 58q221 0 373 49q-57 71 -203 196l121 271h82q59 -80 93 -177.5t34 -187.5q0 -198 -62 -375q-89 -46 -221 -73t-276 -27v266zM-23 -307l160 166h23l137 -138l131 138h23l165 -166l-159 -164h-23l-137 135l-131 -135h-23z" />
    <glyph glyph-name="uniFBFF" unicode="&#x6cc;" horiz-adv-x="626" arabic-form="medial" 
d="M-57 266l57 58q163 0 244 34l55 320h82v-156q0 -52 7 -85.5t22 -56.5t45.5 -35t70 -16.5t101.5 -4.5v-269l-60 -55q-128 0 -211 67.5t-108 182.5h-6q-10 -54 -47 -178q-107 -72 -252 -72v266zM-29 -307l160 166h23l137 -138l131 138h22l166 -166l-159 -164h-23l-137 135
l-131 -135h-23z" />
    <glyph glyph-name="uniFC00" unicode="&#xfc00;" horiz-adv-x="1345" arabic-form="isolated" 
d="M651 1550l117 86q-32 24 -54 58.5t-22 70.5q0 81 76.5 161.5t157.5 80.5q57 0 86.5 -28.5t29.5 -69.5q0 -58 -28 -103l-142 54q-42 -8 -75 -27.5t-33 -38.5q0 -36 86 -54.5t172 -6.5l82 12l6 -8l-31 -162l-428 -70v45zM823 -836q-227 0 -408.5 82.5t-285.5 235.5
t-104 350q0 245 147.5 433t429.5 304h-485l-6 9l73 278q57 12 109 47t143 123l146 141q119 116 195 161.5t149 45.5q99 0 157 -67t58 -170q0 -105 -49 -226h-82q-9 72 -63.5 114t-133.5 42q-50 0 -115 -31t-129 -84l-141 -114h866l6 -9l-90 -311q-505 -29 -779.5 -182.5
t-274.5 -401.5q0 -131 96 -230t261.5 -150.5t375.5 -51.5q235 0 432 43l25 -67zM461 -25l160 166h22l166 -166l-160 -163h-22z" />
    <glyph glyph-name="uniFC01" unicode="&#xfc01;" horiz-adv-x="1345" arabic-form="isolated" 
d="M651 1550l117 86q-32 24 -54 58.5t-22 70.5q0 81 76.5 161.5t157.5 80.5q57 0 86.5 -28.5t29.5 -69.5q0 -58 -28 -103l-142 54q-42 -8 -75 -27.5t-33 -38.5q0 -36 86 -54.5t172 -6.5l82 12l6 -8l-31 -162l-428 -70v45zM823 -836q-227 0 -408.5 82.5t-285.5 235.5
t-104 350q0 245 147.5 433t429.5 304h-485l-6 9l73 278q57 12 109 47t143 123l146 141q119 116 195 161.5t149 45.5q99 0 157 -67t58 -170q0 -105 -49 -226h-82q-9 72 -63.5 114t-133.5 42q-50 0 -115 -31t-129 -84l-141 -114h866l6 -9l-90 -311q-505 -29 -779.5 -182.5
t-274.5 -401.5q0 -131 96 -230t261.5 -150.5t375.5 -51.5q235 0 432 43l25 -67z" />
    <glyph glyph-name="uniFC02" unicode="&#xfc02;" horiz-adv-x="1171" arabic-form="isolated" 
d="M651 1171l117 86q-32 24 -54 58.5t-22 70.5q0 81 76.5 161.5t157.5 80.5q57 0 86.5 -28.5t29.5 -69.5q0 -58 -28 -103l-142 54q-42 -8 -75 -27.5t-33 -38.5q0 -36 86 -54.5t172 -6.5l82 12l6 -8l-31 -162l-428 -70v45zM362 -434l-102 -256h-88l-86 700l68 219
q25 86 99.5 144t176.5 65q-31 60 -31 129q0 120 91.5 222.5t251.5 162.5t350 60l53 -94l-98 -232q-248 0 -398.5 -28.5t-150.5 -75.5q0 -39 94.5 -103t331.5 -182l37 -18l-146 -289l-37 18q-116 58 -199 85.5t-161 27.5q-86 0 -160 -31z" />
    <glyph glyph-name="uniFC05" unicode="&#xfc05;" horiz-adv-x="1345" arabic-form="isolated" 
d="M823 -836q-227 0 -408.5 82.5t-285.5 235.5t-104 350q0 245 147.5 433t429.5 304h-485l-6 9l73 278q57 12 109 47t143 123l146 141q119 116 195 161.5t149 45.5q99 0 157 -67t58 -170q0 -105 -49 -226h-82q-9 72 -63.5 114t-133.5 42q-50 0 -115 -31t-129 -84l-141 -114
h866l6 -9l-90 -311q-505 -29 -779.5 -182.5t-274.5 -401.5q0 -131 96 -230t261.5 -150.5t375.5 -51.5q235 0 432 43l25 -67zM926 225l159 166h23l166 -166l-160 -164h-22zM461 -25l160 166h22l166 -166l-160 -163h-22z" />
    <glyph glyph-name="uniFC06" unicode="&#xfc06;" horiz-adv-x="1345" arabic-form="isolated" 
d="M823 -836q-227 0 -408.5 82.5t-285.5 235.5t-104 350q0 245 147.5 433t429.5 304h-485l-6 9l73 278q57 12 109 47t143 123l146 141q119 116 195 161.5t149 45.5q99 0 157 -67t58 -170q0 -105 -49 -226h-82q-9 72 -63.5 114t-133.5 42q-50 0 -115 -31t-129 -84l-141 -114
h866l6 -9l-90 -311q-505 -29 -779.5 -182.5t-274.5 -401.5q0 -131 96 -230t261.5 -150.5t375.5 -51.5q235 0 432 43l25 -67zM926 225l159 166h23l166 -166l-160 -164h-22z" />
    <glyph glyph-name="uniFC07" unicode="&#xfc07;" horiz-adv-x="1345" arabic-form="isolated" 
d="M72 1262l159 165h23l166 -165l-160 -164h-22zM823 -836q-227 0 -408.5 82.5t-285.5 235.5t-104 350q0 245 147.5 433t429.5 304h-485l-6 9l73 278q57 12 109 47t143 123l146 141q119 116 195 161.5t149 45.5q99 0 157 -67t58 -170q0 -105 -49 -226h-82q-9 72 -63.5 114
t-133.5 42q-50 0 -115 -31t-129 -84l-141 -114h866l6 -9l-90 -311q-505 -29 -779.5 -182.5t-274.5 -401.5q0 -131 96 -230t261.5 -150.5t375.5 -51.5q235 0 432 43l25 -67zM926 225l159 166h23l166 -166l-160 -164h-22z" />
    <glyph glyph-name="uniFC08" unicode="&#xfc08;" horiz-adv-x="1171" arabic-form="isolated" 
d="M362 -434l-102 -256h-88l-86 700l68 219q25 86 99.5 144t176.5 65q-31 60 -31 129q0 120 91.5 222.5t251.5 162.5t350 60l53 -94l-98 -232q-248 0 -398.5 -28.5t-150.5 -75.5q0 -39 94.5 -103t331.5 -182l37 -18l-146 -289l-37 18q-116 58 -199 85.5t-161 27.5
q-86 0 -160 -31zM641 -317l160 165h22l166 -165l-160 -164h-22z" />
    <glyph glyph-name="uniFC0B" unicode="&#xfc0b;" horiz-adv-x="1345" arabic-form="isolated" 
d="M561 1686l160 165h22l138 -137l131 137h22l166 -165l-160 -164h-22l-137 135l-131 -135h-23zM823 -836q-227 0 -408.5 82.5t-285.5 235.5t-104 350q0 245 147.5 433t429.5 304h-485l-6 9l73 278q57 12 109 47t143 123l146 141q119 116 195 161.5t149 45.5q99 0 157 -67
t58 -170q0 -105 -49 -226h-82q-9 72 -63.5 114t-133.5 42q-50 0 -115 -31t-129 -84l-141 -114h866l6 -9l-90 -311q-505 -29 -779.5 -182.5t-274.5 -401.5q0 -131 96 -230t261.5 -150.5t375.5 -51.5q235 0 432 43l25 -67zM461 -25l160 166h22l166 -166l-160 -163h-22z" />
    <glyph glyph-name="uniFC0C" unicode="&#xfc0c;" horiz-adv-x="1345" arabic-form="isolated" 
d="M561 1686l160 165h22l138 -137l131 137h22l166 -165l-160 -164h-22l-137 135l-131 -135h-23zM823 -836q-227 0 -408.5 82.5t-285.5 235.5t-104 350q0 245 147.5 433t429.5 304h-485l-6 9l73 278q57 12 109 47t143 123l146 141q119 116 195 161.5t149 45.5q99 0 157 -67
t58 -170q0 -105 -49 -226h-82q-9 72 -63.5 114t-133.5 42q-50 0 -115 -31t-129 -84l-141 -114h866l6 -9l-90 -311q-505 -29 -779.5 -182.5t-274.5 -401.5q0 -131 96 -230t261.5 -150.5t375.5 -51.5q235 0 432 43l25 -67z" />
    <glyph glyph-name="uniFC0D" unicode="&#xfc0d;" horiz-adv-x="1345" arabic-form="isolated" 
d="M561 1686l160 165h22l138 -137l131 137h22l166 -165l-160 -164h-22l-137 135l-131 -135h-23zM72 1262l159 165h23l166 -165l-160 -164h-22zM823 -836q-227 0 -408.5 82.5t-285.5 235.5t-104 350q0 245 147.5 433t429.5 304h-485l-6 9l73 278q57 12 109 47t143 123
l146 141q119 116 195 161.5t149 45.5q99 0 157 -67t58 -170q0 -105 -49 -226h-82q-9 72 -63.5 114t-133.5 42q-50 0 -115 -31t-129 -84l-141 -114h866l6 -9l-90 -311q-505 -29 -779.5 -182.5t-274.5 -401.5q0 -131 96 -230t261.5 -150.5t375.5 -51.5q235 0 432 43l25 -67z
" />
    <glyph glyph-name="uniFC0E" unicode="&#xfc0e;" horiz-adv-x="1171" arabic-form="isolated" 
d="M563 1307l160 166h22l138 -138l131 138h22l166 -166l-160 -164h-22l-137 135l-131 -135h-23zM362 -434l-102 -256h-88l-86 700l68 219q25 86 99.5 144t176.5 65q-31 60 -31 129q0 120 91.5 222.5t251.5 162.5t350 60l53 -94l-98 -232q-248 0 -398.5 -28.5t-150.5 -75.5
q0 -39 94.5 -103t331.5 -182l37 -18l-146 -289l-37 18q-116 58 -199 85.5t-161 27.5q-86 0 -160 -31z" />
    <glyph glyph-name="uniFC11" unicode="&#xfc11;" horiz-adv-x="1345" arabic-form="isolated" 
d="M729 1976l141 144h21l143 -144l-141 -145h-21zM571 1686l160 165h23l137 -137l131 137h22l166 -165l-159 -164h-23l-137 135l-131 -135h-23zM823 -836q-227 0 -408.5 82.5t-285.5 235.5t-104 350q0 245 147.5 433t429.5 304h-485l-6 9l73 278q57 12 109 47t143 123
l146 141q119 116 195 161.5t149 45.5q99 0 157 -67t58 -170q0 -105 -49 -226h-82q-9 72 -63.5 114t-133.5 42q-50 0 -115 -31t-129 -84l-141 -114h866l6 -9l-90 -311q-505 -29 -779.5 -182.5t-274.5 -401.5q0 -131 96 -230t261.5 -150.5t375.5 -51.5q235 0 432 43l25 -67z
M461 -25l160 166h22l166 -166l-160 -163h-22z" />
    <glyph glyph-name="uniFC12" unicode="&#xfc12;" horiz-adv-x="1171" arabic-form="isolated" 
d="M729 1597l141 144h21l143 -144l-141 -145h-21zM571 1307l160 166h23l137 -138l131 138h22l166 -166l-159 -164h-23l-137 135l-131 -135h-23zM362 -434l-102 -256h-88l-86 700l68 219q25 86 99.5 144t176.5 65q-31 60 -31 129q0 120 91.5 222.5t251.5 162.5t350 60l53 -94
l-98 -232q-248 0 -398.5 -28.5t-150.5 -75.5q0 -39 94.5 -103t331.5 -182l37 -18l-146 -289l-37 18q-116 58 -199 85.5t-161 27.5q-86 0 -160 -31z" />
    <glyph glyph-name="uniFC1F" unicode="&#xfc1f;" horiz-adv-x="2287" arabic-form="isolated" 
d="M844 877q85 0 147 -31t105 -86t92 -154l39 -74q40 -82 93.5 -115.5t145.5 -33.5q82 0 129 48t66 149l18 98h82v-164q85 -48 177 -78.5t165 -36.5q-50 75 -180 207l94 234h80q44 -82 73.5 -174.5t29.5 -165.5q0 -130 -44 -224t-112 -174q-95 0 -208 38.5t-210 107.5
l-4 -12q-36 -92 -96.5 -134.5t-149.5 -42.5q-105 0 -184 66.5t-162 220.5l-33 57q-52 95 -106.5 131.5t-149.5 36.5q-102 0 -172.5 -20t-70.5 -53q0 -34 85.5 -87.5t340.5 -179.5l37 -18l-146 -291l-37 21q-113 56 -197 83t-163 27q-81 0 -158 -28l102 -459l-102 -256h-88
l-86 633l68 221q25 86 97.5 143t172.5 64q-25 52 -25 100q0 97 64.5 192t168.5 154.5t212 59.5z" />
    <glyph glyph-name="uniFC21" unicode="&#xfc21;" horiz-adv-x="2498" arabic-form="isolated" 
d="M86 -57l68 221q25 86 97.5 143t172.5 64q-25 52 -25 100q0 97 64.5 192t168.5 154.5t212 59.5q127 0 204 -71.5t177 -268.5l41 -86q37 -72 75 -105q222 314 383 444t326 130q160 0 270.5 -109.5t110.5 -257.5q0 -168 -111 -416q-131 -82 -328.5 -128t-422.5 -46
q-143 0 -229.5 25.5t-146 85t-116.5 174.5l-45 86q-47 95 -82.5 142.5t-84.5 71t-124 23.5q-102 0 -172.5 -20t-70.5 -53q0 -34 85.5 -87.5t340.5 -179.5l37 -18l-146 -291l-37 21q-113 56 -197 83t-163 27q-81 0 -158 -28l102 -459l-102 -256h-88zM1948 596
q-145 0 -266.5 -66.5t-260.5 -224.5q55 -18 172 -18q435 0 729 116q-50 86 -157 139.5t-217 53.5z" />
    <glyph glyph-name="uniFC25" unicode="&#xfc25;" horiz-adv-x="2498" arabic-form="isolated" 
d="M1595 1231l160 166h23l166 -166l-160 -164h-23zM86 -57l68 221q25 86 97.5 143t172.5 64q-25 52 -25 100q0 97 64.5 192t168.5 154.5t212 59.5q127 0 204 -71.5t177 -268.5l41 -86q37 -72 75 -105q222 314 383 444t326 130q160 0 270.5 -109.5t110.5 -257.5
q0 -168 -111 -416q-131 -82 -328.5 -128t-422.5 -46q-143 0 -229.5 25.5t-146 85t-116.5 174.5l-45 86q-47 95 -82.5 142.5t-84.5 71t-124 23.5q-102 0 -172.5 -20t-70.5 -53q0 -34 85.5 -87.5t340.5 -179.5l37 -18l-146 -291l-37 21q-113 56 -197 83t-163 27
q-81 0 -158 -28l102 -459l-102 -256h-88zM1948 596q-145 0 -266.5 -66.5t-260.5 -224.5q55 -18 172 -18q435 0 729 116q-50 86 -157 139.5t-217 53.5z" />
    <glyph glyph-name="uniFC3F" unicode="&#xfc3f;" horiz-adv-x="1345" arabic-form="isolated" 
d="M823 -836q-227 0 -408.5 77.5t-285.5 221.5t-104 330q0 235 174 416t493 283h-575l-6 8l73 260q380 28 592 127l-49 438q-81 102 -52.5 211.5t159.5 185.5h79v-182l121 -151v-17l-121 -96v-166q0 -258 -32 -350q-34 -34 -82 -60h495l6 -8l-90 -295q-499 -23 -776.5 -155
t-277.5 -344q0 -120 96 -211t261.5 -138t375.5 -47q235 0 432 43l25 -67zM494 -25l159 166h23l166 -166l-160 -163h-23z" />
    <glyph glyph-name="uniFC40" unicode="&#xfc40;" horiz-adv-x="1345" arabic-form="isolated" 
d="M823 -836q-227 0 -408.5 77.5t-285.5 221.5t-104 330q0 235 174 416t493 283h-575l-6 8l73 260q380 28 592 127l-49 438q-81 102 -52.5 211.5t159.5 185.5h79v-182l121 -151v-17l-121 -96v-166q0 -258 -32 -350q-34 -34 -82 -60h495l6 -8l-90 -295q-499 -23 -776.5 -155
t-277.5 -344q0 -120 96 -211t261.5 -138t375.5 -47q235 0 432 43l25 -67z" />
    <glyph glyph-name="uniFC41" unicode="&#xfc41;" horiz-adv-x="1345" arabic-form="isolated" 
d="M823 -836q-227 0 -408.5 77.5t-285.5 221.5t-104 330q0 235 174 416t493 283h-575l-6 8l73 260q380 28 592 127l-49 438q-81 102 -52.5 211.5t159.5 185.5h79v-182l121 -151v-17l-121 -96v-166q0 -258 -32 -350q-34 -34 -82 -60h495l6 -8l-90 -295q-499 -23 -776.5 -155
t-277.5 -344q0 -120 96 -211t261.5 -138t375.5 -47q235 0 432 43l25 -67zM109 1290l159 166h23l166 -166l-160 -164h-23z" />
    <glyph glyph-name="uniFC42" unicode="&#xfc42;" horiz-adv-x="921" arabic-form="isolated" 
d="M86 12l68 221q27 92 108 150.5t187 58.5q-37 84 -46 234l-24 463q-75 100 -44.5 207.5t159.5 181.5h79v-185l121 -149v-18l-121 -95v-374q0 -95 30 -158t103.5 -120t217.5 -128l37 -18l-146 -289l-37 18q-114 56 -198.5 83.5t-163.5 27.5q-73 0 -158 -31l104 -526
l-102 -256h-88z" />
    </font>
</defs>
</svg>
