<?xml version="1.0" encoding="utf-8"?>
<!-- Generator: Adobe Illustrator 16.0.0, SVG Export Plug-In . SVG Version: 6.00 Build 0)  -->
<!DOCTYPE svg PUBLIC "-//W3C//DTD SVG 1.1//EN" "http://www.w3.org/Graphics/SVG/1.1/DTD/svg11.dtd">
<svg version="1.1" id="Capa_1" xmlns="http://www.w3.org/2000/svg" xmlns:xlink="http://www.w3.org/1999/xlink" x="0px" y="0px"
	 width="200px" height="200px" viewBox="0 0 200 200" enable-background="new 0 0 200 200" xml:space="preserve">
<g>
	<g>
		<circle cx="100" cy="137.72" r="7.407"/>
		<path d="M99.005,118.494c2.252,0,4.079-1.828,4.079-4.08V75.658c0-2.252-1.827-4.08-4.079-4.08s-4.08,1.827-4.08,4.08v38.756
			C94.925,116.666,96.753,118.494,99.005,118.494z"/>
		<path d="M114.871,43.417l-0.188-0.288c-3.776-5.821-7.682-11.843-14.685-11.843c-7.298,0-11.117,6.106-14.811,12.017
			c-0.018,0.028-0.132,0.212-0.149,0.243L20.441,153.006c-0.371,0.629-0.567,0.957-0.567,1.686c0,7.947,6.395,14.021,14.254,14.021
			h131.744c7.86,0,14.254-6.076,14.254-14.021c0-0.729-0.195-1.252-0.564-1.879L114.871,43.417z M165.873,160.555H34.129
			c-2.979,0-5.542-1.939-6.018-4.885L92.11,47.434c3.169-5.072,5.246-8.084,7.89-8.084c2.571,0,5.012,3.814,7.839,8.173
			l64.05,108.125C171.415,158.59,168.854,160.555,165.873,160.555z"/>
	</g>
</g>
</svg>
