<?xml version="1.0" encoding="utf-8"?>
<!-- Generator: Adobe Illustrator 16.0.0, SVG Export Plug-In . SVG Version: 6.00 Build 0)  -->
<!DOCTYPE svg PUBLIC "-//W3C//DTD SVG 1.1//EN" "http://www.w3.org/Graphics/SVG/1.1/DTD/svg11.dtd">
<svg version="1.1" id="Capa_1" xmlns="http://www.w3.org/2000/svg" xmlns:xlink="http://www.w3.org/1999/xlink" x="0px" y="0px"
	 width="200px" height="200px" viewBox="0 0 200 200" enable-background="new 0 0 200 200" xml:space="preserve">
<g>
	<g>
		<g>
			<path d="M147.291,61.441H52.709c-1.345,0-2.435,1.09-2.435,2.435c0,1.346,1.09,2.437,2.435,2.437h94.582
				c1.346,0,2.436-1.091,2.436-2.437C149.727,62.531,148.637,61.441,147.291,61.441z"/>
		</g>
	</g>
	<g>
		<g>
			<path d="M147.291,87.954H52.709c-1.345,0-2.435,1.091-2.435,2.436c0,1.346,1.09,2.436,2.435,2.436h94.582
				c1.346,0,2.436-1.09,2.436-2.436C149.727,89.044,148.637,87.954,147.291,87.954z"/>
		</g>
	</g>
	<g>
		<g>
			<path d="M116.283,105.16H83.718c-1.346,0-2.436,1.09-2.436,2.436s1.09,2.436,2.436,2.436h32.565c1.346,0,2.436-1.09,2.436-2.436
				S117.629,105.16,116.283,105.16z"/>
		</g>
	</g>
	<g>
		<g>
			<path d="M147.291,74.643H76.742c-1.345,0-2.436,1.091-2.436,2.437c0,1.345,1.091,2.435,2.436,2.435h70.549
				c1.346,0,2.436-1.09,2.436-2.435C149.727,75.733,148.637,74.643,147.291,74.643z"/>
		</g>
	</g>
	<g>
		<g>
			<path d="M65.413,74.643H52.709c-1.345,0-2.435,1.091-2.435,2.436c0,1.346,1.09,2.436,2.435,2.436h12.703
				c1.345,0,2.436-1.09,2.436-2.436S66.757,74.643,65.413,74.643z"/>
		</g>
	</g>
	<g>
		<g>
			<path d="M170.479,57.326c-0.566-0.558-1.314-0.863-2.115-0.863c0,0,0,0-0.002,0c-4.936,0-8.975-3.856-9.195-8.784
				c-0.074-1.602-1.391-2.855-2.998-2.855H43.254c-1.607,0-2.925,1.255-2.997,2.857c-0.212,4.707-4.064,8.563-8.772,8.773
				c-1.604,0.072-2.857,1.389-2.857,2.997v62.94c0,1.609,1.255,2.926,2.857,2.998c4.708,0.211,8.562,4.064,8.772,8.773
				c0.073,1.604,1.39,2.855,2.997,2.855h71.88c1.346,0,2.438-1.09,2.438-2.434c0-1.346-1.092-2.436-2.438-2.436H44.929
				c-1.007-5.865-5.567-10.428-11.434-11.434V61.122c5.865-1.006,10.427-5.568,11.434-11.433h109.565
				c1.047,6.05,5.918,10.721,12.012,11.52v41.352c0,1.346,1.09,2.436,2.436,2.436s2.436-1.09,2.436-2.436V59.461
				C171.375,58.654,171.057,57.894,170.479,57.326z"/>
		</g>
	</g>
	<g>
		<g>
			<path d="M176.289,32.667H23.711c-3.727,0-6.759,3.032-6.759,6.759v102.99c0,3.727,3.032,6.758,6.759,6.758h102.203l-3.617,7.584
				c-0.465,0.975-0.352,2.113,0.295,2.979c0.646,0.863,1.709,1.293,2.773,1.123l6.736-1.082l3.758,6.168
				c0.527,0.863,1.463,1.387,2.469,1.387c0.051,0,0.1-0.002,0.148-0.004c1.063-0.053,2.006-0.684,2.463-1.643l6.529-13.682
				l6.527,13.68c0.459,0.959,1.402,1.59,2.463,1.645c0.051,0.004,0.1,0.004,0.15,0.004c1.006,0,1.939-0.521,2.469-1.387l3.758-6.168
				l6.736,1.084c1.066,0.17,2.129-0.262,2.773-1.125c0.646-0.863,0.76-2.006,0.295-2.979l-3.619-7.582h7.268
				c3.727,0,6.758-3.031,6.758-6.76V39.426C183.049,35.7,180.016,32.667,176.289,32.667z M138.119,160.291l-2.549-4.184
				c-0.615-1.01-1.764-1.537-2.93-1.352l-4.326,0.695l4.557-9.549c1.797,1.834,4.355,2.822,7.012,2.572
				c0.908-0.086,1.818,0.158,2.563,0.688c0.244,0.174,0.5,0.328,0.758,0.475L138.119,160.291z M148.051,145.852
				c-0.008,0.002-0.016,0.002-0.021,0.004c-0.371,0.055-0.746,0.055-1.115,0c-0.01,0-0.02-0.002-0.027-0.004
				c-0.57-0.088-1.129-0.309-1.621-0.656c-1.473-1.047-3.23-1.605-5.023-1.605c-0.271,0-0.545,0.016-0.816,0.039
				c-1.613,0.152-3.145-0.732-3.816-2.203c-0.299-0.652-0.68-1.256-1.121-1.809c-0.021-0.027-0.041-0.055-0.063-0.08
				c-0.023-0.029-0.049-0.063-0.072-0.09c-0.027-0.033-0.059-0.064-0.088-0.098c-0.807-0.926-1.801-1.684-2.934-2.201
				c-1.471-0.674-2.355-2.205-2.203-3.816c0.195-2.07-0.361-4.145-1.566-5.842c-0.938-1.318-0.938-3.09,0-4.406
				c1.205-1.697,1.762-3.771,1.566-5.844c-0.152-1.609,0.732-3.145,2.203-3.816c1.893-0.865,3.41-2.385,4.275-4.275
				c0.674-1.473,2.211-2.355,3.816-2.203c2.074,0.193,4.146-0.361,5.844-1.566c1.318-0.936,3.088-0.936,4.406,0
				c1.695,1.205,3.77,1.76,5.842,1.566c1.611-0.154,3.146,0.732,3.818,2.203c0.865,1.893,2.385,3.41,4.275,4.275
				c1.471,0.674,2.355,2.207,2.203,3.816c-0.195,2.072,0.359,4.146,1.564,5.842c0.938,1.318,0.938,3.09,0,4.408
				c-1.205,1.695-1.76,3.77-1.564,5.842c0.152,1.609-0.732,3.145-2.203,3.816c-1.131,0.518-2.123,1.271-2.928,2.195
				c-0.033,0.035-0.064,0.068-0.096,0.105c-0.021,0.023-0.041,0.051-0.064,0.076c-0.023,0.031-0.049,0.063-0.07,0.094
				c-0.441,0.553-0.82,1.154-1.119,1.807c-0.674,1.471-2.207,2.355-3.816,2.203c-2.068-0.195-4.146,0.359-5.844,1.564
				C149.18,145.545,148.623,145.764,148.051,145.852z M162.297,154.756c-1.166-0.186-2.313,0.344-2.928,1.352l-2.549,4.184
				l-5.084-10.652c0.258-0.145,0.512-0.301,0.758-0.475c0.744-0.529,1.654-0.773,2.563-0.688c2.656,0.25,5.215-0.738,7.012-2.572
				l4.557,9.549L162.297,154.756z M178.18,142.416c0,1.041-0.848,1.889-1.891,1.889h-9.59l-1.256-2.631
				c0.063-0.033,0.127-0.066,0.191-0.098c3.354-1.535,5.373-5.033,5.025-8.703c-0.086-0.908,0.156-1.818,0.686-2.564
				c2.139-3.006,2.139-7.043,0-10.049c-0.527-0.744-0.771-1.652-0.686-2.563c0.348-3.67-1.672-7.168-5.025-8.703
				c-0.83-0.381-1.496-1.047-1.875-1.875c-1.535-3.355-5.035-5.373-8.705-5.025c-0.908,0.086-1.816-0.158-2.563-0.688
				c-3.004-2.135-7.043-2.137-10.049,0c-0.744,0.529-1.656,0.773-2.563,0.688c-3.676-0.346-7.17,1.672-8.705,5.025
				c-0.379,0.828-1.045,1.494-1.875,1.875c-3.354,1.533-5.373,5.031-5.023,8.703c0.086,0.908-0.158,1.816-0.688,2.563
				c-2.137,3.006-2.137,7.043,0,10.049c0.529,0.744,0.771,1.654,0.688,2.564c-0.35,3.67,1.672,7.168,5.023,8.703
				c0.066,0.029,0.129,0.063,0.191,0.098l-1.256,2.631H23.711c-1.042,0-1.89-0.848-1.89-1.889V39.426c0-1.042,0.848-1.89,1.89-1.89
				h152.578c1.043,0,1.891,0.848,1.891,1.89V142.416L178.18,142.416z"/>
		</g>
	</g>
	<g>
		<g>
			<path d="M147.291,110.156c-8.342,0-15.127,6.787-15.127,15.129s6.785,15.129,15.127,15.129s15.129-6.787,15.129-15.129
				S155.633,110.156,147.291,110.156z M147.291,135.543c-5.656,0-10.258-4.602-10.258-10.258s4.602-10.258,10.258-10.258
				s10.26,4.602,10.26,10.258S152.947,135.543,147.291,135.543z"/>
		</g>
	</g>
</g>
</svg>
