<?xml version="1.0" encoding="utf-8"?>
<!-- Generator: Adobe Illustrator 16.0.0, SVG Export Plug-In . SVG Version: 6.00 Build 0)  -->
<!DOCTYPE svg PUBLIC "-//W3C//DTD SVG 1.1//EN" "http://www.w3.org/Graphics/SVG/1.1/DTD/svg11.dtd">
<svg version="1.1" id="Capa_1" xmlns="http://www.w3.org/2000/svg" xmlns:xlink="http://www.w3.org/1999/xlink" x="0px" y="0px"
	 width="200px" height="200px" viewBox="0 0 200 200" enable-background="new 0 0 200 200" xml:space="preserve">
<g>
	<g>
		<g>
			<path d="M161.131,37.088h-14.146v-4.155c0-4.907-3.992-8.901-8.902-8.901c-4.908,0-8.902,3.994-8.902,8.901v4.155H79.327v-4.155
				c0-4.907-3.994-8.901-8.902-8.901c-4.909,0-8.902,3.994-8.902,8.901v4.266c-0.253-0.07-0.518-0.11-0.792-0.11H48.907
				c-8.183,0-14.838,6.656-14.838,14.837v50.547c0,1.639,1.329,2.969,2.968,2.969s2.967-1.33,2.967-2.969V67.654h106.983
				c1.639,0,2.967-1.329,2.967-2.968s-1.328-2.968-2.967-2.968H40.002v-9.793c0-4.909,3.994-8.901,8.903-8.901h11.822
				c0.275,0,0.539-0.041,0.793-0.11v3.819c0,4.908,3.993,8.901,8.902,8.901s8.902-3.994,8.902-8.901v-3.709h49.854v3.709
				c0,4.908,3.992,8.901,8.902,8.901c4.908,0,8.902-3.994,8.902-8.901v-3.709h14.145c4.91,0,8.902,3.993,8.902,8.901v112.766
				c0,2.945-2.396,5.342-5.344,5.342c-2.945,0-5.342-2.396-5.342-5.342v-7.678c0-1.641-1.33-2.967-2.969-2.967h-34.518
				c-1.641,0-2.969,1.326-2.969,2.967s1.328,2.967,2.969,2.967h31.551v4.711c0,1.932,0.486,3.752,1.348,5.342H35.307
				c-2.944,0-5.341-2.396-5.341-5.34v-4.713h66.421c1.64,0,2.968-1.326,2.968-2.967s-1.328-2.967-2.968-2.967h-29.65
				c5.186-4.467,8.479-11.072,8.479-18.438c0-13.418-10.916-24.334-24.333-24.334c-13.418,0-24.334,10.916-24.334,24.334
				c0,7.363,3.293,13.971,8.479,18.438H27c-1.639,0-2.968,1.326-2.968,2.967v7.68c0,6.217,5.059,11.275,11.275,11.275h129.381
				c6.219,0,11.277-5.059,11.277-11.279V51.926C175.969,43.745,169.313,37.088,161.131,37.088z M73.39,46.734
				c0,1.636-1.331,2.967-2.967,2.967c-1.637,0-2.968-1.331-2.968-2.967v-13.8c0-1.636,1.331-2.967,2.968-2.967
				c1.636,0,2.967,1.332,2.967,2.967V46.734z M141.051,46.734c0,1.636-1.332,2.967-2.969,2.967s-2.967-1.331-2.967-2.967v-13.8
				c0-1.636,1.33-2.967,2.967-2.967s2.969,1.332,2.969,2.967V46.734z M32.482,135.611c0-10.146,8.253-18.398,18.398-18.398
				s18.398,8.252,18.398,18.398c0,10.145-8.254,18.396-18.398,18.396C40.736,154.01,32.482,145.756,32.482,135.611z"/>
		</g>
	</g>
	<g>
		<g>
			<path d="M163.002,62.588c-0.551-0.552-1.316-0.87-2.098-0.87s-1.545,0.318-2.098,0.87s-0.869,1.317-0.869,2.098
				s0.316,1.547,0.869,2.099s1.316,0.869,2.098,0.869c0.779,0,1.547-0.317,2.098-0.869c0.553-0.552,0.871-1.318,0.871-2.099
				C163.873,63.907,163.555,63.14,163.002,62.588z"/>
		</g>
	</g>
	<g>
		<g>
			<path d="M112.656,154.914c-0.553-0.551-1.318-0.865-2.1-0.865c-0.779,0-1.547,0.314-2.098,0.865
				c-0.551,0.557-0.869,1.318-0.869,2.098c0,0.785,0.316,1.547,0.869,2.104c0.551,0.551,1.318,0.865,2.098,0.865
				c0.781,0,1.547-0.314,2.1-0.865c0.551-0.557,0.869-1.32,0.869-2.104C113.525,156.232,113.207,155.471,112.656,154.914z"/>
		</g>
	</g>
	<g>
		<g>
			<path d="M91.169,114.244c-6.218,0-11.275,5.059-11.275,11.275c0,6.221,5.059,11.277,11.275,11.277s11.276-5.059,11.276-11.277
				C102.445,119.303,97.387,114.244,91.169,114.244z M91.169,130.863c-2.945,0-5.341-2.396-5.341-5.344
				c0-2.943,2.396-5.34,5.341-5.34s5.342,2.396,5.342,5.34C96.511,128.467,94.115,130.863,91.169,130.863z"/>
		</g>
	</g>
	<g>
		<g>
			<path d="M118.867,114.244c-6.219,0-11.277,5.059-11.277,11.275c0,6.221,5.059,11.277,11.277,11.277
				c6.217,0,11.275-5.059,11.275-11.277C130.143,119.303,125.084,114.244,118.867,114.244z M118.867,130.863
				c-2.945,0-5.342-2.396-5.342-5.344c0-2.943,2.395-5.34,5.342-5.34c2.945,0,5.34,2.396,5.34,5.34
				C124.207,128.467,121.813,130.863,118.867,130.863z"/>
		</g>
	</g>
	<g>
		<g>
			<path d="M146.564,114.244c-6.219,0-11.277,5.059-11.277,11.275c0,6.221,5.059,11.277,11.277,11.277
				c6.217,0,11.275-5.059,11.275-11.277C157.84,119.303,152.781,114.244,146.564,114.244z M146.564,130.863
				c-2.945,0-5.344-2.396-5.344-5.344c0-2.943,2.396-5.34,5.344-5.34c2.943,0,5.342,2.396,5.342,5.34
				C151.906,128.467,149.508,130.863,146.564,130.863z"/>
		</g>
	</g>
	<g>
		<g>
			<path d="M63.472,83.382c-6.218,0-11.275,5.06-11.275,11.276c0,6.218,5.059,11.277,11.275,11.277
				c6.218,0,11.277-5.059,11.277-11.277C74.75,88.441,69.691,83.382,63.472,83.382z M63.472,100c-2.944,0-5.341-2.396-5.341-5.342
				s2.396-5.341,5.341-5.341c2.945,0,5.343,2.396,5.343,5.341S66.417,100,63.472,100z"/>
		</g>
	</g>
	<g>
		<g>
			<path d="M118.867,83.382c-6.219,0-11.277,5.06-11.277,11.276c0,6.218,5.059,11.277,11.277,11.277
				c6.217,0,11.275-5.059,11.275-11.277C130.143,88.441,125.084,83.382,118.867,83.382z M118.867,100
				c-2.945,0-5.342-2.396-5.342-5.342s2.395-5.341,5.342-5.341c2.945,0,5.34,2.396,5.34,5.341S121.813,100,118.867,100z"/>
		</g>
	</g>
	<g>
		<g>
			<path d="M146.564,83.382c-6.219,0-11.277,5.06-11.277,11.276c0,6.218,5.059,11.277,11.277,11.277
				c6.217,0,11.275-5.059,11.275-11.277C157.84,88.441,152.781,83.382,146.564,83.382z M146.564,100
				c-2.945,0-5.344-2.396-5.344-5.342s2.396-5.341,5.344-5.341c2.943,0,5.342,2.396,5.342,5.341S149.508,100,146.564,100z"/>
		</g>
	</g>
	<g>
		<g>
			<path d="M91.169,83.382c-6.218,0-11.275,5.06-11.275,11.276c0,6.218,5.059,11.277,11.275,11.277s11.276-5.059,11.276-11.277
				C102.445,88.441,97.387,83.382,91.169,83.382z M91.169,100c-2.945,0-5.341-2.396-5.341-5.342s2.396-5.341,5.341-5.341
				s5.342,2.396,5.342,5.341S94.115,100,91.169,100z"/>
		</g>
	</g>
	<g>
		<g>
			<path d="M61.453,128.379c-1.159-1.158-3.038-1.158-4.197,0l-9.665,9.664l-3.303-3.303c-1.159-1.158-3.038-1.158-4.197,0
				s-1.159,3.037,0,4.197l5.401,5.4c0.557,0.555,1.311,0.867,2.098,0.867s1.542-0.313,2.1-0.867l11.763-11.764
				C62.612,131.416,62.612,129.537,61.453,128.379z"/>
		</g>
	</g>
</g>
</svg>
