<?xml version="1.0" encoding="utf-8"?>
<!-- Generator: Adobe Illustrator 16.0.0, SVG Export Plug-In . SVG Version: 6.00 Build 0)  -->
<!DOCTYPE svg PUBLIC "-//W3C//DTD SVG 1.1//EN" "http://www.w3.org/Graphics/SVG/1.1/DTD/svg11.dtd">
<svg version="1.1" id="Capa_1" xmlns="http://www.w3.org/2000/svg" xmlns:xlink="http://www.w3.org/1999/xlink" x="0px" y="0px"
	 width="200px" height="200px" viewBox="0 0 200 200" enable-background="new 0 0 200 200" xml:space="preserve">
<g>
	<g>
		<g>
			<path d="M177.301,81.794c-0.016-0.178-0.051-0.354-0.105-0.522c-0.035-0.152-0.084-0.301-0.146-0.443
				c-0.07-0.14-0.157-0.272-0.257-0.396c-0.1-0.145-0.216-0.277-0.344-0.398c-0.041-0.036-0.061-0.085-0.104-0.122l-24.791-19.254
				V40.703c0-4.271-3.463-7.734-7.733-7.734h-27.938l-11.187-8.685c-2.764-2.155-6.639-2.155-9.401,0l-11.188,8.685H56.171
				c-4.271,0-7.734,3.462-7.734,7.734v19.956L23.653,79.913c-0.043,0.036-0.063,0.085-0.104,0.121
				c-0.128,0.121-0.244,0.254-0.342,0.399c-0.099,0.122-0.186,0.255-0.258,0.396c-0.063,0.143-0.112,0.291-0.146,0.443
				c-0.054,0.167-0.089,0.34-0.105,0.516c0,0.054-0.031,0.101-0.031,0.154v87.655c0.003,1.641,0.534,3.235,1.513,4.551
				c0.017,0.021,0.02,0.052,0.036,0.071c0.018,0.021,0.058,0.043,0.083,0.072c1.448,1.906,3.7,3.029,6.094,3.04h139.206
				c2.403-0.008,4.665-1.137,6.115-3.053c0.021-0.025,0.052-0.033,0.069-0.061c0.019-0.024,0.021-0.048,0.036-0.071
				c0.979-1.314,1.511-2.91,1.514-4.551V81.949C177.332,81.896,177.304,81.848,177.301,81.794z M98.447,28.352
				c0.9-0.715,2.176-0.715,3.076,0l5.945,4.617h-14.95L98.447,28.352z M31.041,172.176l67.407-52.358c0.9-0.717,2.175-0.717,3.075,0
				l67.425,52.358H31.041z M172.176,168.156l-67.479-52.409c-2.765-2.152-6.638-2.152-9.401,0l-67.48,52.409V85.875l42.244,32.804
				c1.125,0.873,2.745,0.668,3.617-0.458c0.873-1.124,0.668-2.745-0.458-3.618L30.302,81.279l18.137-14.094v19.92
				c0,1.424,1.153,2.577,2.576,2.577c1.425,0,2.578-1.153,2.578-2.577V40.703c0-1.423,1.154-2.578,2.578-2.578h87.649
				c1.424,0,2.577,1.154,2.577,2.578v46.402c0,1.424,1.153,2.577,2.576,2.577c1.426,0,2.578-1.153,2.578-2.577v-19.92l18.137,14.094
				l-42.992,33.384c-0.739,0.562-1.12,1.476-0.997,2.396c0.122,0.921,0.729,1.702,1.59,2.051c0.86,0.347,1.843,0.204,2.569-0.371
				l42.316-32.861L172.176,168.156L172.176,168.156z"/>
			<path d="M135.247,48.999h-71.5c-1.104,0-2-0.896-2-2s0.896-2,2-2h71.5c1.104,0,2,0.896,2,2S136.351,48.999,135.247,48.999z"/>
			<path d="M135.247,60.749h-71.5c-1.104,0-2-0.896-2-2s0.896-2,2-2h71.5c1.104,0,2,0.896,2,2S136.351,60.749,135.247,60.749z"/>
			<path d="M135.247,72.499h-71.5c-1.104,0-2-0.896-2-2s0.896-2,2-2h71.5c1.104,0,2,0.896,2,2S136.351,72.499,135.247,72.499z"/>
			<path d="M135.247,84.249h-71.5c-1.104,0-2-0.896-2-2s0.896-2,2-2h71.5c1.104,0,2,0.896,2,2S136.351,84.249,135.247,84.249z"/>
		</g>
	</g>
</g>
</svg>
