<?xml version="1.0" encoding="utf-8"?>
<!-- Generator: Adobe Illustrator 16.0.0, SVG Export Plug-In . SVG Version: 6.00 Build 0)  -->
<!DOCTYPE svg PUBLIC "-//W3C//DTD SVG 1.1//EN" "http://www.w3.org/Graphics/SVG/1.1/DTD/svg11.dtd">
<svg version="1.1" id="Capa_1" xmlns="http://www.w3.org/2000/svg" xmlns:xlink="http://www.w3.org/1999/xlink" x="0px" y="0px"
	 width="200px" height="200px" viewBox="412 284 200 200" enable-background="new 412 284 200 200" xml:space="preserve">
<g>
	<path d="M512,445.586c1.581,0,2.865-1.28,2.865-2.865v-94.525c0-1.584-1.284-2.865-2.865-2.865c-1.581,0-2.865,1.28-2.865,2.865
		v94.525C509.135,444.306,510.419,445.586,512,445.586z"/>
	<path d="M483.355,445.586c1.581,0,2.865-1.28,2.865-2.865v-94.525c0-1.584-1.285-2.865-2.865-2.865s-2.863,1.28-2.863,2.865v94.525
		C480.492,444.306,481.775,445.586,483.355,445.586z"/>
	<path d="M540.645,445.586c1.581,0,2.863-1.28,2.863-2.865v-94.525c0-1.584-1.282-2.865-2.863-2.865s-2.865,1.28-2.865,2.865v94.525
		C537.779,444.306,539.063,445.586,540.645,445.586z"/>
	<path d="M577.882,316.687h-40.229c-0.315-3.58-1.417-9.619-5.191-13.495c-2.391-2.448-5.422-3.691-9.008-3.691h-28.641
		c-3.586,0-6.617,1.243-9.005,3.691c-3.776,3.876-4.878,9.915-5.193,13.495h-34.497c-1.581,0-2.863,1.28-2.863,2.865
		c0,1.583,1.282,2.863,2.863,2.863h5.846l5.486,131.825c0.105,4.933,3.178,14.261,14.058,14.261h80.984
		c10.88,0,13.952-9.328,14.054-14.201l5.49-131.884h5.846c1.581,0,2.863-1.28,2.863-2.863
		C580.745,317.967,579.463,316.687,577.882,316.687z M489.92,307.18c1.285-1.312,2.886-1.952,4.893-1.952h28.641
		c2.01,0,3.61,0.64,4.894,1.952c2.306,2.357,3.231,6.505,3.551,9.507h-45.526C486.693,313.685,487.619,309.537,489.92,307.18z
		 M560.82,454.119c-0.017,0.884-0.412,8.652-8.328,8.652h-80.984c-7.831,0-8.301-7.782-8.332-8.715l-5.479-131.642H566.3
		L560.82,454.119z"/>
</g>
</svg>
