<?xml version="1.0" encoding="utf-8"?>
<!-- Generator: Adobe Illustrator 16.0.0, SVG Export Plug-In . SVG Version: 6.00 Build 0)  -->
<!DOCTYPE svg PUBLIC "-//W3C//DTD SVG 1.1//EN" "http://www.w3.org/Graphics/SVG/1.1/DTD/svg11.dtd">
<svg version="1.1" id="Capa_1" xmlns="http://www.w3.org/2000/svg" xmlns:xlink="http://www.w3.org/1999/xlink" x="0px" y="0px"
	 width="200px" height="200px" viewBox="0 0 200 200" enable-background="new 0 0 200 200" xml:space="preserve">
<g>
	<path d="M162.896,130.079V97.266h-60.16V69.92h19.142V26.167H78.124V69.92h19.144v27.346H37.106v32.813H17.964v43.754h43.753
		v-43.754H42.575v-27.345h54.69v27.345H78.123v43.754h43.754v-43.754h-19.142v-27.345h54.689v27.345h-19.143v43.754h43.754v-43.754
		H162.896z M83.593,31.637h32.815v32.814H83.593V31.637L83.593,31.637z M56.247,168.364H23.432V135.55h32.815V168.364z
		 M116.408,168.364H83.593V135.55h32.815V168.364z M176.568,168.364h-32.814V135.55h32.814V168.364z"/>
</g>
</svg>
