<?xml version="1.0" encoding="utf-8"?>
<!-- Generator: Adobe Illustrator 16.0.0, SVG Export Plug-In . SVG Version: 6.00 Build 0)  -->
<!DOCTYPE svg PUBLIC "-//W3C//DTD SVG 1.1//EN" "http://www.w3.org/Graphics/SVG/1.1/DTD/svg11.dtd">
<svg version="1.1" id="Capa_1" xmlns="http://www.w3.org/2000/svg" xmlns:xlink="http://www.w3.org/1999/xlink" x="0px" y="0px"
	 width="200px" height="200px" viewBox="412 284 200 200" enable-background="new 412 284 200 200" xml:space="preserve">
<path d="M580.275,315.726c-9.589-9.583-25.185-9.583-34.774,0l-98.516,98.517c-0.046,0.046-0.074,0.104-0.115,0.152
	c-0.058,0.066-0.106,0.138-0.159,0.209c-0.145,0.201-0.256,0.417-0.341,0.651c-0.024,0.071-0.06,0.135-0.08,0.206
	c-0.008,0.026-0.024,0.054-0.033,0.082l-9.657,40.567c-0.043,0.184-0.054,0.369-0.06,0.553c0,0.035-0.011,0.067-0.011,0.103
	c0.003,0.313,0.071,0.615,0.177,0.908c0.025,0.067,0.052,0.128,0.083,0.193c0.133,0.292,0.3,0.574,0.535,0.809
	c0.26,0.26,0.566,0.459,0.896,0.596s0.683,0.205,1.035,0.205c0.211,0,0.424-0.024,0.631-0.074l40.568-9.657
	c0.074-0.016,0.139-0.057,0.21-0.081c0.093-0.03,0.18-0.066,0.271-0.106c0.197-0.091,0.38-0.203,0.549-0.336
	c0.065-0.053,0.133-0.091,0.196-0.148c0.022-0.021,0.049-0.033,0.071-0.055l98.519-98.519
	C589.861,340.911,589.861,325.312,580.275,315.726z M576.413,319.588c6.797,6.799,7.376,17.476,1.774,24.961l-26.736-26.737
	C558.939,312.212,569.615,312.791,576.413,319.588z M562.89,360.157l-27.046-27.046l3.863-3.863l27.045,27.045L562.89,360.157z
	 M450.083,445.918c-1.068-1.067-2.794-1.067-3.863,0l-2.068,2.068l6.978-29.308l12.08-1.341l-1.555,13.992
	c-0.011,0.104,0.027,0.199,0.027,0.301c0,0.104-0.038,0.196-0.027,0.3c0.011,0.091,0.057,0.164,0.077,0.252
	c0.033,0.158,0.079,0.303,0.137,0.45c0.071,0.178,0.156,0.339,0.259,0.495c0.085,0.125,0.169,0.237,0.273,0.347
	c0.131,0.139,0.273,0.256,0.429,0.366c0.123,0.084,0.24,0.163,0.377,0.229c0.18,0.084,0.369,0.133,0.565,0.18
	c0.104,0.024,0.189,0.082,0.295,0.096c0.098,0.011,0.196,0.017,0.298,0.017h0.002h0.002h0.003h0.003
	c0.098,0,0.199-0.006,0.297-0.017l13.993-1.555l-1.341,12.08l-29.31,6.979l2.068-2.068
	C451.148,448.715,451.148,446.985,450.083,445.918z M484.368,430.95l61.133-61.137c1.068-1.068,1.068-2.794,0-3.863
	c-1.067-1.068-2.794-1.068-3.862,0l-61.134,61.136l-13.039,1.448l1.448-13.039l61.139-61.134c1.068-1.068,1.068-2.795,0-3.863
	c-1.068-1.068-2.795-1.068-3.862,0l-61.14,61.133l-8.696,0.968l75.626-75.626l27.045,27.045L483.4,439.646L484.368,430.95z
	 M570.615,352.431l-27.046-27.045l3.866-3.866l27.046,27.046L570.615,352.431z"/>
</svg>
