<?xml version="1.0" encoding="utf-8"?>
<!-- Generator: Adobe Illustrator 16.0.0, SVG Export Plug-In . SVG Version: 6.00 Build 0)  -->
<!DOCTYPE svg PUBLIC "-//W3C//DTD SVG 1.1//EN" "http://www.w3.org/Graphics/SVG/1.1/DTD/svg11.dtd">
<svg version="1.1" id="Layer_1" xmlns="http://www.w3.org/2000/svg" xmlns:xlink="http://www.w3.org/1999/xlink" x="0px" y="0px"
	 width="200px" height="200px" viewBox="0 0 200 200" enable-background="new 0 0 200 200" xml:space="preserve">
<path d="M181.382,51.926c-0.028-0.094-0.055-0.186-0.096-0.276c-0.146-0.32-0.345-0.613-0.591-0.863l-29.456-29.455
	c-0.25-0.248-0.544-0.447-0.865-0.59c-0.09-0.037-0.179-0.068-0.271-0.099c-0.246-0.084-0.502-0.135-0.766-0.151
	c-0.051,0.008-0.105-0.023-0.172-0.023H66.692c-1.627,0-2.944,1.318-2.944,2.945v41.711h3.892V24.36h78.584v28.512
	c0,1.625,1.315,2.945,2.942,2.945h28.513v119.824H67.639v-17.766h-3.892v18.709c0,1.627,1.317,2.947,2.944,2.947h111.934
	c1.625,0,2.945-1.32,2.945-2.947V52.871c0-0.066-0.033-0.121-0.039-0.187C181.521,52.424,181.468,52.17,181.382,51.926z
	 M150.114,51.924V26.525l24.399,25.399H150.114z"/>
<path d="M170.829,75.83H117.75c-0.828,0-1.5-0.672-1.5-1.5s0.672-1.5,1.5-1.5h53.079c0.828,0,1.5,0.672,1.5,1.5
	S171.657,75.83,170.829,75.83z"/>
<path d="M171.352,162.58h-54.123c-0.539,0-0.979-0.672-0.979-1.5s0.438-1.5,0.979-1.5h54.123c0.539,0,0.979,0.672,0.979,1.5
	S171.891,162.58,171.352,162.58z"/>
<path d="M171.352,148.121h-54.123c-0.539,0-0.979-0.672-0.979-1.5s0.438-1.5,0.979-1.5h54.123c0.539,0,0.979,0.672,0.979,1.5
	S171.891,148.121,171.352,148.121z"/>
<path d="M170.829,119.205h-45.498c-0.828,0-1.5-0.672-1.5-1.5s0.672-1.5,1.5-1.5h45.498c0.828,0,1.5,0.672,1.5,1.5
	S171.657,119.205,170.829,119.205z"/>
<path d="M170.829,104.746H117.75c-0.828,0-1.5-0.672-1.5-1.5s0.672-1.5,1.5-1.5h53.079c0.828,0,1.5,0.672,1.5,1.5
	S171.657,104.746,170.829,104.746z"/>
<path d="M170.829,90.289H117.75c-0.828,0-1.5-0.672-1.5-1.5s0.672-1.5,1.5-1.5h53.079c0.828,0,1.5,0.672,1.5,1.5
	S171.657,90.289,170.829,90.289z"/>
<path d="M135.079,45.83H82c-0.828,0-1.5-0.672-1.5-1.5s0.672-1.5,1.5-1.5h53.079c0.828,0,1.5,0.672,1.5,1.5
	S135.907,45.83,135.079,45.83z"/>
<path d="M135.079,60.289H82c-0.828,0-1.5-0.672-1.5-1.5s0.672-1.5,1.5-1.5h53.079c0.828,0,1.5,0.672,1.5,1.5
	S135.907,60.289,135.079,60.289z"/>
<path d="M171.352,133.662h-54.123c-0.539,0-0.979-0.672-0.979-1.5s0.438-1.5,0.979-1.5h54.123c0.539,0,0.979,0.672,0.979,1.5
	S171.891,133.662,171.352,133.662z"/>
<g>
	<g>
		<path d="M88.39,107.707c-0.002-0.018-0.003-0.036-0.006-0.053c-0.012-0.089-0.029-0.176-0.053-0.264c0-0.001,0-0.001,0-0.002
			c-0.022-0.081-0.051-0.161-0.083-0.239c-0.009-0.023-0.019-0.045-0.029-0.067c-0.025-0.057-0.053-0.113-0.083-0.168
			c-0.013-0.024-0.026-0.049-0.04-0.072c-0.008-0.013-0.014-0.026-0.022-0.039c-0.032-0.051-0.067-0.1-0.103-0.146
			c-0.007-0.009-0.012-0.018-0.019-0.027c-0.054-0.07-0.113-0.136-0.175-0.197c-0.011-0.013-0.023-0.023-0.036-0.034
			c-0.053-0.052-0.109-0.101-0.167-0.146c-0.015-0.012-0.029-0.023-0.044-0.034c-0.078-0.058-0.158-0.111-0.241-0.157L55.241,87.845
			l18.451-11.619l30.935,17.583l-13.029,8.203c-1.016,0.641-1.322,1.983-0.681,3c0.64,1.017,1.983,1.322,2.999,0.683l16.104-10.141
			c0.646-0.407,1.033-1.125,1.014-1.89c-0.016-0.765-0.434-1.464-1.1-1.842L74.71,71.8c-0.697-0.396-1.556-0.376-2.234,0.05
			L49.864,86.089c-0.005,0.003-0.01,0.006-0.015,0.009l-11.3,7.115c-0.005,0.004-0.01,0.007-0.015,0.011l-22.628,14.249
			c-0.647,0.407-1.033,1.125-1.015,1.89c0.017,0.765,0.434,1.464,1.1,1.842l35.224,20.022c0.334,0.189,0.704,0.284,1.075,0.284
			c0.403,0,0.806-0.112,1.159-0.334l16.103-10.141c1.016-0.64,1.321-1.982,0.682-3c-0.64-1.017-1.984-1.321-3-0.681l-15.001,9.445
			l-30.933-17.583L39.75,97.599l32.993,18.754v24.836c0,0.793,0.43,1.522,1.124,1.905c0.328,0.181,0.69,0.271,1.051,0.271
			c0.403,0,0.806-0.112,1.159-0.334l11.314-7.125c0.633-0.398,1.017-1.094,1.017-1.841v-26.103c0-0.013-0.002-0.025-0.002-0.038
			C88.403,107.852,88.399,107.779,88.39,107.707z M77.093,137.249v-22.163c0-0.782-0.421-1.504-1.101-1.89L43.927,94.97l7.138-4.495
			l30.934,17.583l-2.708,1.705c-1.017,0.64-1.322,1.983-0.682,3c0.414,0.656,1.12,1.016,1.843,1.016
			c0.396,0,0.798-0.107,1.157-0.334l2.449-1.542v20.962L77.093,137.249z"/>
		<path d="M107.701,100.573l-16.103,10.14c-1.016,0.64-1.321,1.983-0.681,3c0.414,0.656,1.12,1.017,1.843,1.017
			c0.396,0,0.797-0.109,1.157-0.336l16.103-10.139c1.016-0.641,1.322-1.983,0.682-3S108.717,99.933,107.701,100.573z"/>
		<path d="M67.233,126.056l-15.001,9.446L18.14,116.123c-1.043-0.593-2.373-0.229-2.966,0.816c-0.594,1.044-0.229,2.372,0.816,2.966
			l35.224,20.022c0.334,0.189,0.705,0.284,1.075,0.284c0.403,0,0.806-0.112,1.159-0.335l16.103-10.14
			c1.017-0.64,1.322-1.982,0.682-3C69.592,125.721,68.249,125.415,67.233,126.056z"/>
		<path d="M107.701,109.274l-16.103,10.139c-1.016,0.64-1.321,1.984-0.681,3c0.414,0.657,1.12,1.017,1.843,1.017
			c0.396,0,0.797-0.107,1.157-0.335l16.103-10.139c1.016-0.64,1.322-1.984,0.682-3C110.061,108.939,108.717,108.634,107.701,109.274
			z"/>
		<path d="M67.233,134.757l-15.001,9.445L18.14,124.824c-1.043-0.594-2.373-0.229-2.966,0.816c-0.594,1.044-0.229,2.372,0.816,2.966
			l35.224,20.021c0.334,0.19,0.705,0.284,1.075,0.284c0.403,0,0.806-0.111,1.159-0.334l16.103-10.14c1.017-0.64,1.322-1.983,0.682-3
			S68.249,134.117,67.233,134.757z"/>
		<path d="M107.701,117.976l-16.103,10.139c-1.016,0.641-1.321,1.983-0.681,2.999c0.414,0.658,1.12,1.018,1.843,1.018
			c0.396,0,0.797-0.107,1.157-0.335l16.103-10.14c1.016-0.64,1.322-1.983,0.682-3S108.717,117.336,107.701,117.976z"/>
		<path d="M67.233,143.458l-15.001,9.445L18.14,133.524c-1.043-0.593-2.373-0.229-2.966,0.816c-0.594,1.045-0.229,2.372,0.816,2.967
			l35.224,20.021c0.334,0.19,0.705,0.284,1.075,0.284c0.403,0,0.806-0.112,1.159-0.334l16.103-10.141
			c1.017-0.64,1.322-1.982,0.682-2.999C69.592,143.122,68.249,142.818,67.233,143.458z"/>
	</g>
</g>
</svg>
