<?xml version="1.0" encoding="utf-8"?>
<!-- Generator: Adobe Illustrator 16.0.0, SVG Export Plug-In . SVG Version: 6.00 Build 0)  -->
<!DOCTYPE svg PUBLIC "-//W3C//DTD SVG 1.1//EN" "http://www.w3.org/Graphics/SVG/1.1/DTD/svg11.dtd">
<svg version="1.1" id="Capa_1" xmlns="http://www.w3.org/2000/svg" xmlns:xlink="http://www.w3.org/1999/xlink" x="0px" y="0px"
	 width="200px" height="200px" viewBox="0 0 200 200" enable-background="new 0 0 200 200" xml:space="preserve">
<g>
	<path d="M159.333,138.037c-0.482,0.503-0.772,1.198-0.772,1.89c0,0.692,0.268,1.386,0.772,1.893
		c0.503,0.478,1.198,0.771,1.89,0.771c0.692,0,1.386-0.294,1.892-0.771c0.479-0.507,0.771-1.199,0.771-1.893
		c0-0.69-0.293-1.387-0.771-1.89C162.128,137.08,160.345,137.054,159.333,138.037z"/>
	<path d="M83.066,132.643l-9.685-4.946v-1.029c4.333-2.365,7.381-6.265,9.082-11.618c2.58-1.365,4.228-4.026,4.228-7.015v-2.662
		c0-2.467-1.147-4.754-3.063-6.254c-1.662-10.063-8.683-15.162-20.893-15.162c-0.578,0-1.143,0.023-1.693,0.066
		c-2.303,0.178-5.667-0.009-8.582-1.974c-1.092-0.733-1.914-1.448-2.439-2.118c-0.896-1.139-2.399-1.536-3.729-0.981
		c-1.334,0.548-2.119,1.885-1.952,3.321c0.113,0.99,0.28,2.15,0.533,3.421c0.514,2.596,0.514,2.596-0.208,4.146
		c-0.271,0.588-0.607,1.304-1.001,2.271c-0.88,2.155-1.506,4.518-1.865,7.044c-1.89,1.501-3.019,3.775-3.019,6.22v2.662
		c0,2.987,1.646,5.648,4.227,7.018c1.701,5.354,4.749,9.255,9.083,11.618v1l-10.036,4.943c-3.663,1.999-5.936,5.833-5.936,10.006
		v3.523c0,2.138,0,7.143,26.618,7.143s26.618-5.005,26.618-7.143v-3.311C89.354,138.492,86.944,134.588,83.066,132.643z
		 M84.03,145.541c-1.658,1.009-8.414,2.417-21.294,2.417s-19.637-1.408-21.294-2.417v-2.925c0-2.224,1.213-4.268,3.063-5.278
		l10.27-5.059c1.603-0.782,2.638-2.44,2.638-4.227v-4.803l-1.607-0.694c-4.038-1.735-6.663-5.056-8.025-10.151l-0.38-1.417
		l-1.4-0.437c-1.115-0.346-1.896-1.384-1.896-2.519v-2.662c0-0.965,0.552-1.861,1.44-2.334l1.248-0.665l0.146-1.405
		c0.265-2.499,0.82-4.802,1.655-6.842c0.354-0.864,0.655-1.511,0.9-2.041c0.901-1.94,1.229-2.941,1.004-4.993
		c3.128,1.789,6.886,2.553,10.972,2.241c0.412-0.035,0.835-0.054,1.271-0.054c9.966,0,14.831,3.608,15.78,11.71l0.165,1.392
		l1.241,0.652c0.889,0.471,1.443,1.363,1.443,2.339v2.662c0,1.137-0.781,2.173-1.896,2.519l-1.399,0.438l-0.381,1.416
		c-1.362,5.097-3.988,8.416-8.026,10.151l-1.607,0.694v4.823c0,1.771,0.982,3.381,2.565,4.191l10.031,5.122l0.018,0.01
		c2.071,1.035,3.356,3.119,3.356,5.435L84.03,145.541L84.03,145.541z"/>
	<path d="M102.663,97.387h26.618c1.472,0,2.661-1.189,2.661-2.662c0-1.472-1.189-2.661-2.661-2.661h-26.618
		c-1.473,0-2.662,1.189-2.662,2.661C100.001,96.197,101.19,97.387,102.663,97.387z"/>
	<path d="M105.324,137.313h-2.661c-1.473,0-2.662,1.19-2.662,2.662c0,1.474,1.189,2.662,2.662,2.662h2.661
		c1.473,0,2.662-1.188,2.662-2.662C107.986,138.504,106.797,137.313,105.324,137.313z"/>
	<path d="M121.296,137.313h-5.324c-1.472,0-2.661,1.19-2.661,2.662c0,1.474,1.189,2.662,2.661,2.662h5.324
		c1.472,0,2.662-1.188,2.662-2.662C123.958,138.504,122.768,137.313,121.296,137.313z"/>
	<path d="M134.604,137.313h-2.661c-1.473,0-2.661,1.19-2.661,2.662c0,1.474,1.188,2.662,2.661,2.662h2.661
		c1.473,0,2.662-1.188,2.662-2.662C137.267,138.504,136.076,137.313,134.604,137.313z"/>
	<path d="M150.576,137.313h-5.324c-1.472,0-2.661,1.19-2.661,2.662c0,1.474,1.189,2.662,2.661,2.662h5.324
		c1.472,0,2.661-1.188,2.661-2.662C153.237,138.504,152.048,137.313,150.576,137.313z"/>
	<path d="M161.223,108.033h-58.56c-1.473,0-2.662,1.189-2.662,2.662s1.189,2.662,2.662,2.662h58.56c1.473,0,2.662-1.189,2.662-2.662
		C163.885,109.224,162.694,108.033,161.223,108.033z"/>
	<path d="M161.223,124.005h-58.56c-1.473,0-2.662,1.189-2.662,2.661c0,1.473,1.189,2.662,2.662,2.662h58.56
		c1.473,0,2.662-1.189,2.662-2.662C163.885,125.194,162.694,124.005,161.223,124.005z"/>
	<path d="M167.403,57.412h-48.771V36.95c0-3.397-2.761-6.157-6.156-6.157H87.522c-3.395,0-6.154,2.76-6.154,6.157v20.462H32.597
		c-6.863,0-12.451,5.587-12.451,12.451v86.896c0,6.862,5.588,12.448,12.451,12.448h134.81c6.861,0,12.448-5.586,12.448-12.451
		V69.863C179.854,62.999,174.269,57.412,167.403,57.412z M86.692,36.95c0-0.458,0.376-0.833,0.83-0.833h24.955
		c0.457,0,0.833,0.375,0.833,0.833v20.462v15.14c0,0.454-0.376,0.83-0.833,0.83H87.522c-0.454,0-0.83-0.376-0.83-0.83v-15.14V36.95z
		 M174.532,156.756c0,3.933-3.197,7.128-7.129,7.128H32.598c-3.931,0-7.127-3.196-7.127-7.128V69.863
		c0-3.933,3.197-7.128,7.127-7.128h48.771v9.815c0,3.395,2.76,6.153,6.153,6.153h24.955c3.396,0,6.156-2.76,6.156-6.153v-9.815
		h48.771c3.932,0,7.129,3.195,7.129,7.128L174.532,156.756L174.532,156.756z"/>
	<path d="M100.001,60.073c5.872,0,10.646-4.775,10.646-10.647s-4.774-10.646-10.646-10.646s-10.646,4.774-10.646,10.646
		S94.129,60.073,100.001,60.073z M100.001,44.102c2.938,0,5.323,2.389,5.323,5.324c0,2.937-2.388,5.324-5.323,5.324
		s-5.323-2.389-5.323-5.324C94.678,46.489,97.063,44.102,100.001,44.102z"/>
</g>
</svg>
