<?xml version="1.0" encoding="utf-8"?>
<!-- Generator: Adobe Illustrator 16.0.0, SVG Export Plug-In . SVG Version: 6.00 Build 0)  -->
<!DOCTYPE svg PUBLIC "-//W3C//DTD SVG 1.1//EN" "http://www.w3.org/Graphics/SVG/1.1/DTD/svg11.dtd">
<svg version="1.1" id="Layer_1" xmlns="http://www.w3.org/2000/svg" xmlns:xlink="http://www.w3.org/1999/xlink" x="0px" y="0px"
	 width="200px" height="200px" viewBox="0 0 200 200" enable-background="new 0 0 200 200" xml:space="preserve">
<g>
	<path d="M181.382,51.926c-0.028-0.094-0.055-0.186-0.096-0.276c-0.146-0.32-0.345-0.613-0.591-0.863l-29.456-29.455
		c-0.25-0.248-0.544-0.447-0.865-0.59c-0.09-0.037-0.179-0.068-0.271-0.099c-0.246-0.084-0.502-0.135-0.765-0.151
		c-0.051,0.008-0.106-0.023-0.172-0.023H66.692c-1.627,0-2.944,1.318-2.944,2.945V62.25h3.892V24.36h78.584v28.512
		c0,1.625,1.316,2.945,2.943,2.945h28.512v119.824H67.639v-7.811h-3.892v8.754c0,1.627,1.317,2.947,2.944,2.947h111.934
		c1.625,0,2.945-1.32,2.945-2.947V52.871c0-0.066-0.033-0.121-0.039-0.187C181.521,52.424,181.468,52.17,181.382,51.926z
		 M150.114,51.924V26.525l24.399,25.399H150.114z"/>
	<path d="M170.829,75.83h-23.166c-0.828,0-1.5-0.672-1.5-1.5s0.672-1.5,1.5-1.5h23.166c0.828,0,1.5,0.672,1.5,1.5
		S171.657,75.83,170.829,75.83z"/>
	<path d="M170.829,162.58H87.831c-0.828,0-1.5-0.672-1.5-1.5s0.672-1.5,1.5-1.5h82.998c0.828,0,1.5,0.672,1.5,1.5
		S171.657,162.58,170.829,162.58z"/>
	<path d="M170.829,148.121H87.831c-0.828,0-1.5-0.672-1.5-1.5s0.672-1.5,1.5-1.5h82.998c0.828,0,1.5,0.672,1.5,1.5
		S171.657,148.121,170.829,148.121z"/>
	<path d="M170.829,119.205h-45.498c-0.828,0-1.5-0.672-1.5-1.5s0.672-1.5,1.5-1.5h45.498c0.828,0,1.5,0.672,1.5,1.5
		S171.657,119.205,170.829,119.205z"/>
	<path d="M170.829,104.746h-23.166c-0.828,0-1.5-0.672-1.5-1.5s0.672-1.5,1.5-1.5h23.166c0.828,0,1.5,0.672,1.5,1.5
		S171.657,104.746,170.829,104.746z"/>
	<path d="M170.829,90.289h-23.166c-0.828,0-1.5-0.672-1.5-1.5s0.672-1.5,1.5-1.5h23.166c0.828,0,1.5,0.672,1.5,1.5
		S171.657,90.289,170.829,90.289z"/>
	<path d="M133.909,34.83H81.083c-1.89,0-3.421-0.672-3.421-1.5s1.531-1.5,3.421-1.5h52.826c1.889,0,3.42,0.672,3.42,1.5
		S135.798,34.83,133.909,34.83z"/>
	<path d="M133.909,49.289H81.083c-1.89,0-3.421-0.672-3.421-1.5s1.531-1.5,3.421-1.5h52.826c1.889,0,3.42,0.672,3.42,1.5
		S135.798,49.289,133.909,49.289z"/>
	<path d="M170.829,133.662H87.831c-0.828,0-1.5-0.672-1.5-1.5s0.672-1.5,1.5-1.5h82.998c0.828,0,1.5,0.672,1.5,1.5
		S171.657,133.662,170.829,133.662z"/>
	<g>
		<path d="M47.85,122.219c1.027-0.594,1.379-1.908,0.787-2.934c-0.594-1.027-1.907-1.381-2.935-0.787
			c-1.027,0.592-1.379,1.908-0.786,2.934C45.508,122.459,46.823,122.811,47.85,122.219z"/>
		<path d="M39.047,137.043l10.818,18.74c2.334,4.047,7.585,5.545,11.738,3.145c4.108-2.375,5.521-7.625,3.144-11.736l-6.444-11.164
			l5.581-3.223c1.026-0.592,1.378-1.906,0.786-2.934l-2.794-4.838c0.333-0.064,2.524-0.494,41.144-8.07
			c4.774-0.26,7.637-5.482,5.225-9.656l-7.139-12.364l4.562-6.91c0.448-0.679,0.476-1.553,0.067-2.258l-4.295-7.441
			c-0.406-0.705-1.18-1.118-1.989-1.07l-8.265,0.497L83.26,64.033c-1.148-1.989-3.205-3.192-5.5-3.221
			c-0.027-0.001-0.054-0.001-0.082-0.001c-2.219,0-4.232,1.104-5.425,2.971L44.191,99.528l-18.243,10.533
			c-7.175,4.142-9.66,13.347-5.503,20.541C24.243,137.178,32.249,139.766,39.047,137.043z M61.027,149.34
			c1.187,2.051,0.485,4.678-1.573,5.867c-2.066,1.193-4.695,0.461-5.868-1.572L42.845,135.03l7.441-4.296
			C62.716,152.266,60.827,148.994,61.027,149.34z M56.155,132.307l-2.148-3.721l3.72-2.148l2.149,3.722L56.155,132.307z
			 M98.381,81.63l2.969,5.142l-2.646,4.009l-5.116-8.863L98.381,81.63z M75.845,66.136c0.576-0.943,1.49-1.041,1.861-1.03
			c0.368,0.004,1.281,0.118,1.831,1.073l24.984,43.276c0.814,1.408-0.174,3.18-1.807,3.221c-0.293,0.006-0.427,0.059-1.18,0.199
			L75.109,67.099C75.664,66.386,75.734,66.317,75.845,66.136z M72.25,70.74l24.832,43.01l-37.475,7.35l-11.395-19.735L72.25,70.74z
			 M24.165,128.451c-0.943-1.631-1.441-3.484-1.441-5.357c0-3.832,2.06-7.4,5.373-9.313l16.742-9.666l10.74,18.604l-16.742,9.668
			C33.708,135.344,27.126,133.58,24.165,128.451z"/>
		<path d="M41.196,123.58c-0.593-1.027-1.908-1.379-2.935-0.787l-3.72,2.15c-1.025,0.592-2.342,0.236-2.935-0.787
			c-0.593-1.027-1.907-1.379-2.934-0.787c-1.027,0.594-1.379,1.908-0.786,2.934c1.768,3.064,5.712,4.146,8.803,2.359l3.721-2.146
			C41.437,125.922,41.789,124.607,41.196,123.58z"/>
		<path d="M125.217,65.404l-11.97,6.661c-1.035,0.577-1.408,1.885-0.831,2.922c0.575,1.036,1.883,1.41,2.921,0.833l11.97-6.661
			c1.035-0.578,1.409-1.885,0.832-2.921C127.563,65.2,126.253,64.827,125.217,65.404z"/>
		<path d="M123.962,87.652l-8.299-2.224c-1.146-0.307-2.325,0.373-2.632,1.52c-0.309,1.146,0.373,2.324,1.52,2.631l8.301,2.224
			c1.153,0.31,2.325-0.381,2.631-1.519C125.788,89.136,125.109,87.958,123.962,87.652z"/>
		<path d="M103.105,57.6l-2.227,8.3c-0.309,1.146,0.372,2.324,1.52,2.631c1.146,0.306,2.322-0.372,2.631-1.519l2.226-8.3
			c0.308-1.146-0.373-2.325-1.519-2.631C104.591,55.774,103.413,56.454,103.105,57.6z"/>
	</g>
</g>
</svg>
