<?xml version="1.0" encoding="utf-8"?>
<!-- Generator: Adobe Illustrator 16.0.0, SVG Export Plug-In . SVG Version: 6.00 Build 0)  -->
<!DOCTYPE svg PUBLIC "-//W3C//DTD SVG 1.1//EN" "http://www.w3.org/Graphics/SVG/1.1/DTD/svg11.dtd">
<svg version="1.1" id="Capa_1" xmlns="http://www.w3.org/2000/svg" xmlns:xlink="http://www.w3.org/1999/xlink" x="0px" y="0px"
	 width="200px" height="200px" viewBox="0 0 200 200" enable-background="new 0 0 200 200" xml:space="preserve">
<g>
	<g>
		<g>
			<path d="M176.758,118.709h-10.46c-1.445,0-2.614,1.172-2.614,2.617h-26.148c-0.696,0-1.361,0.271-1.85,0.764l-14.729,14.73
				l-51.861-9.02c-2.486-0.43-5.027,0.25-6.967,1.881c-1.932,1.625-3.044,4.012-3.044,6.541c0,3.023,1.625,5.854,4.24,7.381
				l57.046,33.275c1.331,0.777,2.815,1.17,4.305,1.166c1.309,0,2.614-0.301,3.825-0.904l27.957-13.977h7.228
				c0,1.443,1.17,2.615,2.614,2.615h10.46c1.445,0,2.616-1.172,2.616-2.615v-41.84C179.374,119.881,178.203,118.709,176.758,118.709
				z M163.684,157.936h-7.844c-0.406,0-0.809,0.094-1.17,0.275l-28.512,14.256c-1.009,0.502-2.189,0.463-3.154-0.102l-57.043-33.277
				c-1.017-0.592-1.646-1.689-1.646-2.865c0-0.98,0.432-1.906,1.182-2.539c0.751-0.631,1.733-0.895,2.704-0.729l48.23,8.389
				l-2.117,2.117c-1.889,1.891-2.929,4.404-2.929,7.078c0,5.52,4.491,10.012,10.009,10.012c2.677,0,5.188-1.041,7.079-2.934
				l13.525-13.521l-3.698-3.699l-13.523,13.525c-0.893,0.889-2.12,1.398-3.383,1.398c-2.636,0-4.778-2.145-4.778-4.781
				c0-1.277,0.497-2.48,1.397-3.383l20.604-20.604h25.067L163.684,157.936L163.684,157.936z M174.143,160.549h-5.229v-36.609h5.229
				V160.549z"/>
		</g>
	</g>
	<g>
		<g>
			<path d="M113.998,61.179c-8.651,0-15.688,7.037-15.688,15.69s7.037,15.688,15.688,15.688c8.654,0,15.689-7.036,15.689-15.688
				C129.688,68.216,122.652,61.179,113.998,61.179z M113.998,87.33c-5.769,0-10.461-4.69-10.461-10.459
				c0-5.77,4.692-10.46,10.461-10.46c5.768,0,10.46,4.69,10.46,10.46C124.458,82.638,119.766,87.33,113.998,87.33z"/>
		</g>
	</g>
	<g>
		<g>
			<path d="M163.684,21.955H64.314c-1.446,0-2.615,1.171-2.615,2.615v10.459v10.46h-20.92c-0.695,0-1.36,0.273-1.85,0.767
				L20.625,64.559l3.698,3.698l17.539-17.539h19.837v7.847v7.845H48.624v5.229h15.69h18.305c2.884,0,5.229,2.347,5.229,5.23
				c0,1.394-0.543,2.706-1.534,3.695c-0.991,0.988-2.305,1.533-3.695,1.533H64.314c-0.352,0-0.69,0.071-1.008,0.204
				c-0.318,0.134-0.604,0.325-0.845,0.565L54.62,90.71l3.698,3.698l3.381-3.382v4.146v10.461H22.474v5.229h41.841h13.074h73.221
				h13.074c1.446,0,2.614-1.172,2.614-2.615V95.172V58.564V45.489v-10.46V24.57C166.298,23.125,165.13,21.955,163.684,21.955z
				 M66.928,48.104h7.514c-0.946,3.673-3.844,6.567-7.514,7.517V48.104z M66.928,105.635v-7.516
				c3.669,0.949,6.566,3.844,7.514,7.516H66.928z M161.069,105.635h-7.515c0.946-3.672,3.846-6.567,7.515-7.516V105.635z
				 M161.069,92.794c-6.559,1.107-11.732,6.284-12.842,12.84H79.767c-1.105-6.556-6.282-11.73-12.839-12.84V87.33h15.69
				c2.788,0,5.416-1.091,7.394-3.066c1.979-1.978,3.067-4.604,3.067-7.393c0-5.77-4.692-10.46-10.46-10.46h-15.69v-5.465
				c6.557-1.107,11.731-6.284,12.84-12.84h68.461c1.105,6.556,6.282,11.729,12.841,12.84L161.069,92.794L161.069,92.794z
				 M161.069,55.621c-3.669-0.949-6.567-3.844-7.515-7.517h7.515V55.621z M161.069,42.875h-10.461H77.388h-10.46v-5.23h94.142
				V42.875z M161.069,32.416H66.928v-5.23h94.142V32.416z"/>
		</g>
	</g>
</g>
</svg>
