<?xml version="1.0" encoding="utf-8"?>
<!-- Generator: Adobe Illustrator 16.0.0, SVG Export Plug-In . SVG Version: 6.00 Build 0)  -->
<!DOCTYPE svg PUBLIC "-//W3C//DTD SVG 1.1//EN" "http://www.w3.org/Graphics/SVG/1.1/DTD/svg11.dtd">
<svg version="1.1" id="Capa_1" xmlns="http://www.w3.org/2000/svg" xmlns:xlink="http://www.w3.org/1999/xlink" x="0px" y="0px"
	 width="200px" height="200px" viewBox="0 0 200 200" enable-background="new 0 0 200 200" xml:space="preserve">
<g>
	<g>
		<path d="M99.419,106.232c0.166,0,0.333,0,0.532,0c0.065,0,0.133,0,0.199,0c0.1,0,0.231,0,0.333,0
			c9.739-0.166,17.617-3.59,23.436-10.139c12.798-14.426,10.67-39.158,10.438-41.519c-0.831-17.717-9.208-26.194-16.122-30.149
			c-5.152-2.959-11.17-4.555-17.885-4.688h-0.231c-0.034,0-0.1,0-0.133,0h-0.199c-3.69,0-10.938,0.599-17.884,4.555
			c-6.981,3.956-15.491,12.432-16.321,30.283c-0.233,2.359-2.361,27.092,10.438,41.519
			C81.801,102.643,89.679,106.066,99.419,106.232z M74.455,55.407c0-0.1,0.033-0.199,0.033-0.267
			c1.097-23.834,18.017-26.394,25.264-26.394h0.132c0.067,0,0.167,0,0.267,0c8.975,0.2,24.232,3.855,25.264,26.394
			c0,0.101,0,0.199,0.032,0.267c0.033,0.232,2.359,22.837-8.21,34.737c-4.189,4.721-9.773,7.048-17.119,7.113
			c-0.067,0-0.101,0-0.167,0l0,0c-0.067,0-0.101,0-0.166,0c-7.313-0.065-12.932-2.393-17.086-7.113
			C72.161,78.31,74.421,55.607,74.455,55.407z"/>
		<path d="M168.262,147.254c0-0.035,0-0.066,0-0.1c0-0.268-0.033-0.533-0.033-0.832c-0.198-6.582-0.631-21.973-15.058-26.893
			c-0.101-0.033-0.232-0.066-0.333-0.1c-14.992-3.824-27.457-12.465-27.59-12.566c-2.028-1.43-4.82-0.932-6.25,1.1
			c-1.43,2.025-0.931,4.818,1.098,6.248c0.564,0.398,13.795,9.605,30.351,13.861c7.745,2.76,8.608,11.035,8.842,18.615
			c0,0.299,0,0.564,0.033,0.83c0.032,2.992-0.167,7.613-0.698,10.273c-5.386,3.057-26.494,13.627-58.605,13.627
			c-31.979,0-53.22-10.604-58.638-13.66c-0.532-2.66-0.764-7.281-0.698-10.271c0-0.268,0.033-0.533,0.033-0.832
			c0.232-7.578,1.098-15.855,8.842-18.615c16.555-4.254,29.784-13.496,30.35-13.861c2.027-1.43,2.526-4.223,1.097-6.25
			c-1.429-2.027-4.222-2.525-6.25-1.096c-0.133,0.1-12.532,8.74-27.591,12.564c-0.132,0.033-0.232,0.066-0.332,0.102
			c-14.427,4.951-14.859,20.342-15.059,26.891c0,0.299,0,0.564-0.033,0.832c0,0.033,0,0.064,0,0.098
			c-0.033,1.73-0.066,10.605,1.694,15.061c0.333,0.863,0.932,1.596,1.729,2.096c0.998,0.664,24.897,15.889,64.888,15.889
			s63.891-15.258,64.888-15.889c0.766-0.5,1.396-1.23,1.729-2.096C168.328,157.857,168.296,148.982,168.262,147.254z"/>
	</g>
</g>
</svg>
