<?xml version="1.0" encoding="utf-8"?>
<!-- Generator: Adobe Illustrator 16.0.0, SVG Export Plug-In . SVG Version: 6.00 Build 0)  -->
<!DOCTYPE svg PUBLIC "-//W3C//DTD SVG 1.1//EN" "http://www.w3.org/Graphics/SVG/1.1/DTD/svg11.dtd">
<svg version="1.1" id="Capa_1" xmlns="http://www.w3.org/2000/svg" xmlns:xlink="http://www.w3.org/1999/xlink" x="0px" y="0px"
	 width="200px" height="200px" viewBox="0 0 200 200" enable-background="new 0 0 200 200" xml:space="preserve">
<path d="M180.97,100.001c0-44.645-36.323-80.971-80.97-80.971c-44.645,0-80.97,36.326-80.97,80.971
	c0,23.581,10.141,44.836,26.28,59.647l-0.076,0.066l2.626,2.215c0.171,0.145,0.355,0.262,0.526,0.402
	c1.396,1.158,2.842,2.256,4.313,3.318c0.477,0.346,0.954,0.688,1.439,1.023c1.572,1.084,3.187,2.111,4.835,3.086
	c0.359,0.213,0.722,0.418,1.083,0.625c1.806,1.027,3.648,1.996,5.535,2.885c0.138,0.064,0.28,0.123,0.418,0.189
	c6.151,2.857,12.718,4.957,19.583,6.197c0.181,0.031,0.359,0.064,0.542,0.098c2.132,0.367,4.287,0.662,6.47,0.859
	c0.265,0.021,0.529,0.037,0.798,0.061c2.173,0.18,4.368,0.295,6.595,0.295c2.205,0,4.381-0.115,6.542-0.287
	c0.274-0.023,0.548-0.039,0.821-0.063c2.165-0.197,4.303-0.482,6.413-0.846c0.183-0.031,0.367-0.064,0.551-0.102
	c6.764-1.213,13.234-3.264,19.307-6.049c0.225-0.105,0.45-0.201,0.674-0.307c1.816-0.855,3.593-1.775,5.332-2.758
	c0.434-0.242,0.863-0.49,1.293-0.744c1.584-0.934,3.143-1.908,4.655-2.943c0.544-0.371,1.077-0.764,1.616-1.152
	c1.292-0.93,2.562-1.889,3.795-2.895c0.274-0.221,0.568-0.412,0.837-0.639l2.693-2.25l-0.079-0.066
	C170.732,145.057,180.97,123.703,180.97,100.001z M24.919,100.001c0-41.4,33.681-75.081,75.081-75.081s75.081,33.681,75.081,75.081
	c0,22.309-9.79,42.366-25.289,56.127c-0.865-0.598-1.737-1.133-2.629-1.58l-24.931-12.463c-2.237-1.119-3.628-3.369-3.628-5.869
	v-8.707c0.577-0.711,1.188-1.518,1.816-2.404c3.228-4.559,5.815-9.629,7.703-15.084c3.729-1.771,6.139-5.488,6.139-9.684V89.9
	c0-2.554-0.937-5.029-2.61-6.976V69.183c0.151-1.527,0.693-10.151-5.546-17.266c-5.427-6.195-14.209-9.331-26.106-9.331
	c-11.898,0-20.682,3.136-26.107,9.328c-6.238,7.114-5.696,15.738-5.544,17.266v13.741c-1.672,1.946-2.61,4.422-2.61,6.975v10.438
	c0,3.242,1.453,6.265,3.944,8.306c2.386,9.344,7.293,16.414,9.107,18.813v8.52c0,2.404-1.312,4.611-3.421,5.768l-23.281,12.697
	c-0.742,0.404-1.479,0.875-2.214,1.402C34.565,142.082,24.919,122.148,24.919,100.001z M144.045,160.75
	c-1.031,0.748-2.079,1.473-3.142,2.164c-0.489,0.318-0.976,0.635-1.474,0.945c-1.39,0.857-2.803,1.678-4.246,2.441
	c-0.316,0.168-0.639,0.328-0.959,0.492c-3.314,1.699-6.746,3.16-10.271,4.346c-0.123,0.041-0.247,0.086-0.374,0.127
	c-1.846,0.613-3.716,1.156-5.605,1.625c-0.006,0-0.012,0.004-0.018,0.004c-1.908,0.471-3.84,0.861-5.783,1.184
	c-0.053,0.01-0.104,0.021-0.159,0.029c-1.828,0.299-3.671,0.514-5.521,0.674c-0.327,0.029-0.653,0.051-0.983,0.074
	c-1.828,0.139-3.666,0.227-5.512,0.227c-1.867,0-3.728-0.092-5.58-0.229c-0.321-0.023-0.642-0.045-0.96-0.074
	c-1.867-0.164-3.725-0.385-5.564-0.686c-0.082-0.016-0.164-0.029-0.247-0.045c-3.894-0.65-7.724-1.607-11.454-2.857
	c-0.115-0.039-0.232-0.08-0.348-0.117c-1.852-0.631-3.684-1.328-5.481-2.102c-0.013-0.006-0.027-0.012-0.039-0.018
	c-1.702-0.732-3.371-1.545-5.021-2.402c-0.215-0.111-0.433-0.219-0.645-0.332c-1.504-0.805-2.977-1.674-4.428-2.58
	c-0.431-0.271-0.856-0.545-1.281-0.82c-1.336-0.875-2.656-1.785-3.939-2.748c-0.132-0.1-0.259-0.205-0.392-0.307
	c0.094-0.053,0.188-0.105,0.283-0.158l23.28-12.699c4.005-2.186,6.493-6.373,6.493-10.936l-0.003-10.605l-0.677-0.818
	c-0.065-0.072-6.431-7.816-8.836-18.301l-0.269-1.166l-1.004-0.65c-1.417-0.916-2.264-2.447-2.264-4.099V89.894
	c0-1.368,0.58-2.644,1.64-3.601l0.973-0.877v-16.4l-0.026-0.386c-0.009-0.071-0.877-7.152,4.11-12.837
	c4.257-4.854,11.554-7.317,21.679-7.317c10.088,0,17.36,2.444,21.629,7.262c4.982,5.627,4.167,12.841,4.161,12.898l-0.027,16.786
	l0.973,0.877c1.058,0.954,1.641,2.232,1.641,3.602v10.438c0,2.099-1.429,4.003-3.478,4.636l-1.463,0.451l-0.473,1.457
	c-1.736,5.398-4.21,10.383-7.349,14.816c-0.771,1.09-1.522,2.055-2.167,2.795l-0.73,0.832v10.893c0,4.746,2.639,9.016,6.885,11.135
	l24.93,12.465c0.159,0.078,0.314,0.16,0.472,0.242C144.688,160.299,144.362,160.52,144.045,160.75z"/>
</svg>
