<?xml version="1.0" encoding="utf-8"?>
<!-- Generator: Adobe Illustrator 16.0.0, SVG Export Plug-In . SVG Version: 6.00 Build 0)  -->
<!DOCTYPE svg PUBLIC "-//W3C//DTD SVG 1.1//EN" "http://www.w3.org/Graphics/SVG/1.1/DTD/svg11.dtd">
<svg version="1.1" id="Capa_1" xmlns="http://www.w3.org/2000/svg" xmlns:xlink="http://www.w3.org/1999/xlink" x="0px" y="0px"
	 width="200px" height="200px" viewBox="0 0 200 200" enable-background="new 0 0 200 200" xml:space="preserve">
<g>
	<g>
		<path d="M153.112,118.938h-19.374l8.242-11.906c15.57-20.751,13.317-54.864-4.816-72.996
			c-9.797-9.799-22.825-15.196-36.687-15.196c-13.855,0-26.886,5.397-36.685,15.196c-18.134,18.132-20.388,52.247-4.88,72.916
			l8.299,11.988H46.887L17.258,181.16h165.484L153.112,118.938z M63.304,103.787c-14.065-18.757-12.05-49.563,4.317-65.928
			c8.775-8.776,20.448-13.611,32.859-13.611s24.081,4.835,32.859,13.611c16.367,16.365,18.384,47.174,4.256,66.008l-37.118,53.604
			l-26.683-38.533l0,0L63.304,103.787z M50.307,124.348H70.96l29.519,42.631l29.517-42.631h19.699l24.479,51.402H25.829
			L50.307,124.348z"/>
	</g>
	<path d="M128.345,66.277l-28.214-26.198L71.918,66.277c-0.398,0.37-0.422,0.993-0.051,1.392c0.368,0.397,0.992,0.419,1.39,0.05
		l3.265-3.03v32.806H92.26H108h15.739V64.686l3.266,3.031c0.188,0.177,0.43,0.263,0.671,0.263c0.265,0,0.525-0.104,0.719-0.313
		C128.766,67.269,128.743,66.647,128.345,66.277z M106.033,95.526H94.229v-15.74c0-3.255,2.646-5.902,5.902-5.902
		c3.255,0,5.902,2.646,5.902,5.902V95.526z"/>
</g>
</svg>
