<?xml version="1.0" encoding="utf-8"?>
<!-- Generator: Adobe Illustrator 16.0.0, SVG Export Plug-In . SVG Version: 6.00 Build 0)  -->
<!DOCTYPE svg PUBLIC "-//W3C//DTD SVG 1.1//EN" "http://www.w3.org/Graphics/SVG/1.1/DTD/svg11.dtd">
<svg version="1.1" id="Layer_1" xmlns="http://www.w3.org/2000/svg" xmlns:xlink="http://www.w3.org/1999/xlink" x="0px" y="0px"
	 width="200px" height="200px" viewBox="0 0 200 200" enable-background="new 0 0 200 200" xml:space="preserve">
<g>
	<g>
		<g>
			<g>
				<path d="M128.875,73.964h-26.787l-2.081-8.324c-1.076-4.303-4.926-7.309-9.361-7.309H69.388c-4.437,0-8.285,3.006-9.361,7.309
					l-2.08,8.324H31.16c-5.321,0-9.649,4.33-9.649,9.652v70.354c0,5.322,4.328,9.65,9.649,9.65h97.717c5.32,0,9.648-4.33,9.648-9.65
					V83.617C138.525,78.294,134.197,73.964,128.875,73.964z M63.581,66.531c0.668-2.67,3.056-4.535,5.808-4.535h21.258
					c2.752,0,5.139,1.865,5.808,4.535l1.858,7.434h-4.281l-1.607-6.428c-0.204-0.816-0.936-1.389-1.777-1.389H69.39
					c-0.842,0-1.574,0.571-1.779,1.389l-1.604,6.428h-4.28L63.581,66.531z M90.252,73.964H69.781l1.037-4.151h18.396L90.252,73.964z
					 M31.159,77.628h97.716c1.83,0,3.471,0.826,4.568,2.125l-11.896,35.688c-1.082,3.248-4.107,5.43-7.531,5.43H87.711v-4.031
					c0-2.088-1.696-3.787-3.786-3.787h-7.816c-2.088,0-3.787,1.699-3.787,3.787v4.031H46.019c-3.424,0-6.449-2.182-7.531-5.43
					L26.591,79.753C27.689,78.455,29.329,77.628,31.159,77.628z M75.986,124.779v-7.939c0-0.068,0.054-0.123,0.121-0.123h7.817
					c0.067,0,0.122,0.055,0.122,0.123v7.939H75.986z M84.047,128.443v4.029c0,0.068-0.054,0.123-0.122,0.123h-7.816
					c-0.066,0-0.121-0.055-0.121-0.123v-4.029H84.047z M134.861,153.971c0,3.301-2.686,5.986-5.986,5.986H31.159
					c-3.302,0-5.986-2.686-5.986-5.986V87.089l9.838,29.512c1.582,4.746,6.007,7.934,11.009,7.934h26.303v7.939
					c0,2.088,1.699,3.787,3.787,3.787h7.816c2.089,0,3.786-1.699,3.786-3.787v-7.939h26.304c5.004,0,9.428-3.188,11.01-7.934
					l9.836-29.512V153.971L134.861,153.971z"/>
			</g>
		</g>
	</g>
	<path d="M178.301,51.927c-0.029-0.094-0.055-0.186-0.096-0.276c-0.145-0.32-0.344-0.613-0.59-0.863l-29.457-29.455
		c-0.25-0.248-0.543-0.447-0.865-0.59c-0.09-0.037-0.178-0.068-0.27-0.099c-0.246-0.084-0.502-0.135-0.764-0.151
		c-0.051,0.008-0.107-0.023-0.172-0.023H63.611c-1.627,0-2.944,1.318-2.944,2.945v29.082h3.892V24.36h78.586v28.512
		c0,1.625,1.316,2.945,2.943,2.945H174.6v119.824H64.558v-7.811h-3.892v8.754c0,1.627,1.317,2.947,2.944,2.947h111.934
		c1.625,0,2.945-1.32,2.945-2.947V52.871c0-0.066-0.033-0.121-0.039-0.187C178.439,52.425,178.387,52.171,178.301,51.927z
		 M147.033,51.925V26.526l24.4,25.399H147.033z"/>
	<path d="M167.748,75.83h-23.166c-0.828,0-1.5-0.672-1.5-1.5s0.672-1.5,1.5-1.5h23.166c0.828,0,1.5,0.672,1.5,1.5
		S168.576,75.83,167.748,75.83z"/>
	<path d="M167.748,162.58h-23.166c-0.828,0-1.5-0.672-1.5-1.5s0.672-1.5,1.5-1.5h23.166c0.828,0,1.5,0.672,1.5,1.5
		S168.576,162.58,167.748,162.58z"/>
	<path d="M167.748,148.121h-23.166c-0.828,0-1.5-0.672-1.5-1.5s0.672-1.5,1.5-1.5h23.166c0.828,0,1.5,0.672,1.5,1.5
		S168.576,148.121,167.748,148.121z"/>
	<path d="M167.748,119.205h-23.166c-0.828,0-1.5-0.672-1.5-1.5s0.672-1.5,1.5-1.5h23.166c0.828,0,1.5,0.672,1.5,1.5
		S168.576,119.205,167.748,119.205z"/>
	<path d="M167.748,104.746h-23.166c-0.828,0-1.5-0.672-1.5-1.5s0.672-1.5,1.5-1.5h23.166c0.828,0,1.5,0.672,1.5,1.5
		S168.576,104.746,167.748,104.746z"/>
	<path d="M167.748,90.289h-23.166c-0.828,0-1.5-0.672-1.5-1.5s0.672-1.5,1.5-1.5h23.166c0.828,0,1.5,0.672,1.5,1.5
		S168.576,90.289,167.748,90.289z"/>
	<path d="M130.828,34.83H78.002c-1.89,0-3.421-0.672-3.421-1.5s1.531-1.5,3.421-1.5h52.826c1.889,0,3.42,0.672,3.42,1.5
		S132.717,34.83,130.828,34.83z"/>
	<path d="M130.828,49.289H78.002c-1.89,0-3.421-0.672-3.421-1.5s1.531-1.5,3.421-1.5h52.826c1.889,0,3.42,0.672,3.42,1.5
		S132.717,49.289,130.828,49.289z"/>
	<path d="M167.748,133.662h-23.166c-0.828,0-1.5-0.672-1.5-1.5s0.672-1.5,1.5-1.5h23.166c0.828,0,1.5,0.672,1.5,1.5
		S168.576,133.662,167.748,133.662z"/>
</g>
</svg>
