<?xml version="1.0" encoding="utf-8"?>
<!-- Generator: Adobe Illustrator 16.0.0, SVG Export Plug-In . SVG Version: 6.00 Build 0)  -->
<!DOCTYPE svg PUBLIC "-//W3C//DTD SVG 1.1//EN" "http://www.w3.org/Graphics/SVG/1.1/DTD/svg11.dtd">
<svg version="1.1" id="Layer_1" xmlns="http://www.w3.org/2000/svg" xmlns:xlink="http://www.w3.org/1999/xlink" x="0px" y="0px"
	 width="200px" height="200px" viewBox="0 0 200 200" enable-background="new 0 0 200 200" xml:space="preserve">
<g>
	<path d="M163.594,183.777H36.407c-6.738,0-12.224-5.482-12.224-12.226V88.2c0-6.743,5.486-12.224,12.224-12.224h127.187
		c6.738,0,12.223,5.481,12.223,12.224v83.353C175.816,178.295,170.332,183.777,163.594,183.777z M36.407,80.867
		c-4.043,0-7.336,3.291-7.336,7.334v83.354c0,4.043,3.292,7.334,7.336,7.334h127.187c4.043,0,7.336-3.291,7.336-7.334V88.201
		c0-4.043-3.291-7.334-7.336-7.334H36.407z"/>
	<path d="M100.001,121.84c-3.252,0-6.504-0.959-8.978-2.871l-50.03-38.681c-1.018-0.786-1.125-2.157-0.24-3.063
		c0.894-0.901,2.435-0.984,3.452-0.208l50.032,38.676c3.124,2.416,8.404,2.416,11.523,0l50.605-38.933
		c1.014-0.786,2.551-0.699,3.451,0.208c0.885,0.906,0.783,2.274-0.232,3.063l-50.607,38.932
		C106.498,120.881,103.252,121.84,100.001,121.84z"/>
	<path d="M94.82,62.342c-0.654,0-1.295-0.32-1.678-0.909c-0.603-0.925-0.34-2.165,0.585-2.767l31.657-20.606
		c0.926-0.603,2.165-0.341,2.767,0.585c0.603,0.925,0.341,2.165-0.585,2.767L95.909,62.018
		C95.572,62.237,95.194,62.342,94.82,62.342z"/>
	<path d="M116.074,80.253c-0.001,0-0.001,0-0.002,0l-45.606-0.041c-0.67,0-1.296-0.337-1.666-0.896l-12.808-19.35
		c-0.292-0.442-0.397-0.983-0.292-1.503c0.106-0.52,0.414-0.976,0.856-1.269l64.42-42.639c0.44-0.292,0.981-0.398,1.502-0.292
		c0.521,0.106,0.977,0.414,1.27,0.856l26.527,40.079c0.605,0.916,0.36,2.148-0.55,2.762l-32.533,21.951
		C116.862,80.134,116.473,80.253,116.074,80.253z M71.543,76.213l43.921,0.04l30.382-20.5l-24.329-36.758L60.432,59.426
		L71.543,76.213z"/>
	<path d="M89.342,144.669H42.333c-0.916,0-1.659-0.896-1.659-2s0.743-2,1.659-2h47.008c0.916,0,1.659,0.896,1.659,2
		S90.258,144.669,89.342,144.669z"/>
	<path d="M42.159,158.688c-0.916,0-1.659-0.896-1.659-2s0.742-2,1.659-2l47.183-0.012c0.916,0,1.659,0.896,1.659,2
		c0.001,1.104-0.742,2-1.658,2L42.159,158.688z"/>
	<path d="M89.342,172.696H42.333c-0.916,0-1.659-0.896-1.659-2s0.743-2,1.659-2h47.008c0.916,0,1.659,0.896,1.659,2
		S90.258,172.696,89.342,172.696z"/>
	<g>
		<g>
			<g id="done-all">
				<path d="M148.096,137.372l-3.967-4.122l-17.841,18.547l3.965,4.121L148.096,137.372z M159.991,133.25l-29.738,31.207
					l-11.896-12.365l-3.965,4.121l15.86,16.486l33.985-35.327L159.991,133.25z M98.25,156.213l15.859,16.486l3.965-4.122
					l-15.859-16.485L98.25,156.213z"/>
			</g>
		</g>
	</g>
</g>
</svg>
