<?xml version="1.0" encoding="utf-8"?>
<!-- Generator: Adobe Illustrator 16.0.0, SVG Export Plug-In . SVG Version: 6.00 Build 0)  -->
<!DOCTYPE svg PUBLIC "-//W3C//DTD SVG 1.1//EN" "http://www.w3.org/Graphics/SVG/1.1/DTD/svg11.dtd">
<svg version="1.1" id="Capa_1" xmlns="http://www.w3.org/2000/svg" xmlns:xlink="http://www.w3.org/1999/xlink" x="0px" y="0px"
	 width="200px" height="200px" viewBox="0 0 200 200" enable-background="new 0 0 200 200" xml:space="preserve">
<g>
	<g>
		<g>
			<path d="M179.575,161.788l-43.443-43.446c20.084-29.908,12.12-70.434-17.788-90.518S47.91,15.704,27.825,45.612
				c-20.084,29.907-12.12,70.434,17.788,90.518c21.994,14.771,50.735,14.771,72.729,0l43.443,43.446
				c4.912,4.912,12.876,4.912,17.788,0C184.487,174.665,184.487,166.7,179.575,161.788z M82.036,141.66
				c-32.915-0.037-59.589-26.711-59.625-59.625c0-32.932,26.695-59.626,59.625-59.626s59.625,26.694,59.625,59.626
				C141.661,114.965,114.966,141.66,82.036,141.66z M175.656,175.652c-1.319,1.319-3.109,2.062-4.977,2.061
				c-1.864,0.006-3.655-0.734-4.972-2.058l-42.313-42.315l9.945-9.943l42.313,42.313
				C178.399,168.455,178.401,172.906,175.656,175.652z"/>
		</g>
	</g>
	<g>
		<g>
			<path d="M83.498,27.974l-0.147,5.548c14.353,0.371,27.8,7.094,36.71,18.351l4.344-3.45C114.473,35.88,99.49,28.391,83.498,27.974
				z"/>
		</g>
	</g>
	<g>
		<g>
			<path d="M128.449,54.259l-4.756,2.854c1.032,1.717,1.96,3.496,2.772,5.328l5.06-2.241
				C130.622,58.16,129.596,56.175,128.449,54.259z"/>
		</g>
	</g>
</g>
</svg>
