<?xml version="1.0" encoding="utf-8"?>
<!-- Generator: Adobe Illustrator 16.0.0, SVG Export Plug-In . SVG Version: 6.00 Build 0)  -->
<!DOCTYPE svg PUBLIC "-//W3C//DTD SVG 1.1//EN" "http://www.w3.org/Graphics/SVG/1.1/DTD/svg11.dtd">
<svg version="1.1" id="Layer_1" xmlns="http://www.w3.org/2000/svg" xmlns:xlink="http://www.w3.org/1999/xlink" x="0px" y="0px"
	 width="200px" height="200px" viewBox="0 0 200 200" enable-background="new 0 0 200 200" xml:space="preserve">
<g>
	<g>
		<g>
			<path d="M124.105,21.861c-29.124,0-52.819,23.694-52.819,52.818c0,6.477,1.15,12.768,3.422,18.742l-50.505,50.509
				c-0.722,0.723-1.127,1.7-1.127,2.722v27.638c0,2.125,1.724,3.849,3.85,3.849h22.774c1.02,0,1.998-0.403,2.72-1.125l7.674-7.664
				c0.725-0.722,1.13-1.7,1.13-2.724v-9.425h9.412c2.126,0,3.85-1.723,3.85-3.85v-3.771h3.772c2.125,0,3.849-1.724,3.849-3.85
				v-8.282h8.283c1.021,0,2-0.406,2.723-1.128l12.247-12.246c5.977,2.272,12.27,3.426,18.744,3.426
				c29.125,0,52.82-23.695,52.82-52.82C176.924,45.556,153.23,21.861,124.105,21.861z M124.105,119.801
				c-6.301,0-12.395-1.271-18.111-3.781c-1.479-0.648-3.145-0.292-4.232,0.771c-0.014,0.012-0.023,0.021-0.035,0.032L88.798,129.75
				H78.26c-2.126,0-3.849,1.724-3.849,3.85v8.282h-3.773c-2.125,0-3.849,1.725-3.849,3.851v3.772h-9.413
				c-2.125,0-3.849,1.724-3.849,3.85v11.677l-5.419,5.411H30.776V165l47.048-47.048c1.353-1.354,1.353-3.546,0-4.899
				c-1.354-1.353-3.546-1.353-4.9,0l-42.147,42.149v-6.955l51.186-51.188c0.012-0.012,0.021-0.021,0.031-0.033
				c1.063-1.09,1.421-2.754,0.771-4.234c-2.507-5.718-3.777-11.811-3.777-18.109c0-24.879,20.24-45.121,45.121-45.121
				c24.881,0,45.119,20.241,45.119,45.121C169.227,99.56,148.984,119.801,124.105,119.801z"/>
		</g>
	</g>
	<g>
		<g>
			<path d="M140.18,44.188c-7.949,0-14.418,6.468-14.418,14.418c0,7.949,6.469,14.418,14.418,14.418
				c7.951,0,14.42-6.469,14.42-14.418C154.6,50.655,148.131,44.188,140.18,44.188z M140.18,65.325c-3.705,0-6.719-3.015-6.719-6.72
				s3.014-6.72,6.719-6.72c3.707,0,6.721,3.015,6.721,6.72S143.887,65.325,140.18,65.325z"/>
		</g>
	</g>
</g>
</svg>
