<?xml version="1.0" encoding="utf-8"?>
<!-- Generator: Adobe Illustrator 16.0.0, SVG Export Plug-In . SVG Version: 6.00 Build 0)  -->
<!DOCTYPE svg PUBLIC "-//W3C//DTD SVG 1.1//EN" "http://www.w3.org/Graphics/SVG/1.1/DTD/svg11.dtd">
<svg version="1.1" id="Capa_1" xmlns="http://www.w3.org/2000/svg" xmlns:xlink="http://www.w3.org/1999/xlink" x="0px" y="0px"
	 width="200px" height="200px" viewBox="412 284 200 200" enable-background="new 412 284 200 200" xml:space="preserve">
<g>
	<path d="M512.852,374.377c9.289,0,16.85-7.56,16.85-16.848c0-9.289-7.561-16.849-16.85-16.849c-9.288,0-16.849,7.56-16.849,16.849
		C496.003,366.817,503.562,374.377,512.852,374.377z M512.852,345.494c6.637,0,12.035,5.398,12.035,12.035
		c0,6.636-5.398,12.034-12.035,12.034c-6.636,0-12.035-5.398-12.035-12.034C500.817,350.892,506.216,345.494,512.852,345.494z"/>
	<path d="M559.253,400.854h-17.236l7.334-10.592c13.853-18.463,11.848-48.813-4.286-64.944c-8.716-8.718-20.308-13.52-32.639-13.52
		c-12.328,0-23.92,4.802-32.638,13.52c-16.134,16.131-18.139,46.483-4.342,64.872l7.384,10.666h-18.083l-26.361,55.357h147.229
		L559.253,400.854z M479.352,387.375c-12.514-16.688-10.721-44.096,3.841-58.655c7.808-7.808,18.192-12.11,29.235-12.11
		c11.042,0,21.424,4.302,29.234,12.11c14.562,14.56,16.355,41.97,3.786,58.727l-33.023,47.69l-23.739-34.282l0,0L479.352,387.375z
		 M467.789,405.668h18.375l26.262,37.927l26.26-37.927h17.526l21.777,45.731H446.011L467.789,405.668z"/>
</g>
</svg>
