<?xml version="1.0" encoding="utf-8"?>
<!-- Generator: Adobe Illustrator 16.0.0, SVG Export Plug-In . SVG Version: 6.00 Build 0)  -->
<!DOCTYPE svg PUBLIC "-//W3C//DTD SVG 1.1//EN" "http://www.w3.org/Graphics/SVG/1.1/DTD/svg11.dtd">
<svg version="1.1" id="Layer_1" xmlns="http://www.w3.org/2000/svg" xmlns:xlink="http://www.w3.org/1999/xlink" x="0px" y="0px"
	 width="200px" height="200px" viewBox="412 284 200 200" enable-background="new 412 284 200 200" xml:space="preserve">
<g>
	<path fill="#000202" d="M542.454,470.119h-46.526c-13.152,0-24.782-8.382-28.939-20.856l-11.174-33.529
		c-2.063-6.19,0.118-12.9,5.428-16.695l11.066-7.905v29.61c0,0.523,0.426,0.949,0.948,0.949c0.523,0,0.949-0.426,0.949-0.949
		v-88.067c0-3.276,1.39-6.415,3.813-8.611c2.421-2.203,5.646-3.281,8.964-2.966c5.88,0.561,10.487,5.885,10.487,12.12v62.361
		c0,0.523,0.426,0.949,0.948,0.949c0.523,0,0.949-0.426,0.949-0.949v-18.871c0-3.275,1.39-6.414,3.813-8.61
		c2.424-2.205,5.645-3.282,8.967-2.965c5.877,0.56,10.484,5.883,10.484,12.118v21.475c0,0.522,0.426,0.948,0.948,0.948
		c0.523,0,0.949-0.426,0.949-0.948v-18.872c0-3.274,1.39-6.413,3.813-8.61c2.425-2.207,5.649-3.285,8.969-2.965
		c5.876,0.559,10.482,5.882,10.482,12.118v21.474c0,0.524,0.426,0.95,0.948,0.95c0.524,0,0.95-0.426,0.95-0.95V383
		c0-3.277,1.391-6.416,3.815-8.61c2.422-2.207,5.643-3.285,8.964-2.966c5.878,0.56,10.485,5.883,10.485,12.118v56.072
		C572.957,456.435,559.273,470.119,542.454,470.119z M468.309,398.906l-4.74,3.386c-3.873,2.769-5.464,7.662-3.959,12.177
		l11.174,33.53c3.611,10.838,13.717,18.12,25.145,18.12h46.526c14.614,0,26.503-11.89,26.503-26.505v-56.072
		c0-4.195-3.017-7.77-6.867-8.136c-2.238-0.221-4.278,0.474-5.894,1.944c-1.593,1.442-2.504,3.5-2.504,5.649v18.871
		c0,2.729-2.221,4.95-4.95,4.95c-2.729,0-4.948-2.221-4.948-4.95v-21.474c0-4.196-3.016-7.771-6.865-8.137
		c-2.237-0.221-4.279,0.473-5.896,1.944c-1.592,1.443-2.503,3.501-2.503,5.649v18.872c0,2.729-2.22,4.948-4.949,4.948
		c-2.729,0-4.948-2.22-4.948-4.948v-21.475c0-4.196-3.017-7.77-6.867-8.136c-2.236-0.222-4.279,0.473-5.895,1.943
		c-1.592,1.443-2.503,3.501-2.503,5.649v18.871c0,2.729-2.22,4.949-4.949,4.949c-2.729,0-4.948-2.22-4.948-4.949v-62.361
		c0-4.196-3.017-7.771-6.867-8.138c-2.209-0.215-4.281,0.477-5.895,1.945c-1.592,1.442-2.503,3.5-2.503,5.649v88.067
		c0,2.729-2.22,4.949-4.949,4.949c-2.729,0-4.948-2.22-4.948-4.949V398.906z"/>
	<g>
		<path fill="#000202" d="M501.367,363.817c11.661-5.83,19.264-17.9,19.264-31.142c0-19.187-15.607-34.795-34.795-34.795
			c-19.186,0-34.793,15.608-34.793,34.794c0,13.242,7.604,25.313,19.264,31.143v-7.71c-7.8-5.183-12.58-14.009-12.58-23.433
			c0-15.502,12.612-28.11,28.111-28.11c15.498,0,28.109,12.608,28.109,28.11c0,9.424-4.779,18.25-12.58,23.433V363.817
			L501.367,363.817z"/>
	</g>
	<g>
		<path fill="#000202" d="M501.367,348.547c4.211-4.132,6.684-9.845,6.684-15.872c0-12.247-9.967-22.214-22.213-22.214
			c-12.247,0-22.214,9.967-22.214,22.214c0,6.023,2.472,11.74,6.684,15.872v-15.872c0-4.363,1.852-8.555,5.083-11.492
			c3.232-2.937,7.593-4.38,11.961-3.967c7.858,0.751,14.016,7.776,14.016,16.002V348.547z"/>
	</g>
</g>
</svg>
