<?xml version="1.0" encoding="utf-8"?>
<!-- Generator: Adobe Illustrator 16.0.0, SVG Export Plug-In . SVG Version: 6.00 Build 0)  -->
<!DOCTYPE svg PUBLIC "-//W3C//DTD SVG 1.1//EN" "http://www.w3.org/Graphics/SVG/1.1/DTD/svg11.dtd">
<svg version="1.1" id="Layer_1" xmlns="http://www.w3.org/2000/svg" xmlns:xlink="http://www.w3.org/1999/xlink" x="0px" y="0px"
	 width="200px" height="200px" viewBox="0 0 200 200" enable-background="new 0 0 200 200" xml:space="preserve">
<path d="M181.382,51.926c-0.028-0.094-0.055-0.186-0.096-0.276c-0.146-0.32-0.345-0.613-0.591-0.863l-29.456-29.455
	c-0.25-0.248-0.544-0.447-0.865-0.59c-0.09-0.037-0.179-0.068-0.271-0.099c-0.246-0.084-0.502-0.135-0.765-0.151
	c-0.051,0.008-0.106-0.023-0.172-0.023H66.692c-1.627,0-2.944,1.318-2.944,2.945V62.25h3.892V24.36h78.584v28.512
	c0,1.625,1.316,2.945,2.943,2.945h28.512v119.824H67.639v-7.811h-3.892v8.754c0,1.627,1.317,2.947,2.944,2.947h111.934
	c1.625,0,2.945-1.32,2.945-2.947V52.871c0-0.066-0.033-0.121-0.039-0.187C181.521,52.424,181.468,52.17,181.382,51.926z
	 M150.114,51.924V26.525l24.399,25.399H150.114z"/>
<path d="M170.829,75.83H117.75c-0.828,0-1.5-0.672-1.5-1.5s0.672-1.5,1.5-1.5h53.079c0.828,0,1.5,0.672,1.5,1.5
	S171.657,75.83,170.829,75.83z"/>
<path d="M171.352,162.58h-54.123c-0.54,0-0.979-0.672-0.979-1.5s0.438-1.5,0.979-1.5h54.123c0.539,0,0.978,0.672,0.978,1.5
	S171.891,162.58,171.352,162.58z"/>
<path d="M171.352,148.121h-54.123c-0.54,0-0.979-0.672-0.979-1.5s0.438-1.5,0.979-1.5h54.123c0.539,0,0.978,0.672,0.978,1.5
	S171.891,148.121,171.352,148.121z"/>
<path d="M170.829,119.205h-45.498c-0.828,0-1.5-0.672-1.5-1.5s0.672-1.5,1.5-1.5h45.498c0.828,0,1.5,0.672,1.5,1.5
	S171.657,119.205,170.829,119.205z"/>
<path d="M170.829,104.746H117.75c-0.828,0-1.5-0.672-1.5-1.5s0.672-1.5,1.5-1.5h53.079c0.828,0,1.5,0.672,1.5,1.5
	S171.657,104.746,170.829,104.746z"/>
<path d="M170.829,90.289H117.75c-0.828,0-1.5-0.672-1.5-1.5s0.672-1.5,1.5-1.5h53.079c0.828,0,1.5,0.672,1.5,1.5
	S171.657,90.289,170.829,90.289z"/>
<path d="M135.079,45.83H82c-0.828,0-1.5-0.672-1.5-1.5s0.672-1.5,1.5-1.5h53.079c0.828,0,1.5,0.672,1.5,1.5
	S135.907,45.83,135.079,45.83z"/>
<path d="M135.079,60.289H82c-0.828,0-1.5-0.672-1.5-1.5s0.672-1.5,1.5-1.5h53.079c0.828,0,1.5,0.672,1.5,1.5
	S135.907,60.289,135.079,60.289z"/>
<path d="M171.352,133.662h-54.123c-0.54,0-0.979-0.672-0.979-1.5s0.438-1.5,0.979-1.5h54.123c0.539,0,0.978,0.672,0.978,1.5
	S171.891,133.662,171.352,133.662z"/>
<g>
	<g>
		<path d="M107.715,106.584h-3.816c-0.946-4.216-2.59-8.188-4.898-11.834l2.697-2.697c1.604-1.605,1.604-4.216,0-5.821l-5.945-5.945
			c-0.777-0.777-1.812-1.205-2.911-1.205s-2.132,0.428-2.91,1.205l-2.697,2.697c-3.646-2.309-7.619-3.953-11.833-4.899v-3.816
			c0-2.27-1.846-4.116-4.116-4.116h-8.407c-2.27,0-4.116,1.846-4.116,4.116v3.816c-4.215,0.946-8.187,2.59-11.833,4.899
			l-2.697-2.697c-0.777-0.777-1.811-1.206-2.911-1.206c-1.099,0-2.133,0.428-2.91,1.205l-5.945,5.945
			c-1.605,1.605-1.605,4.216,0,5.821l2.697,2.697c-2.309,3.647-3.953,7.619-4.899,11.834h-3.817c-2.269,0-4.116,1.847-4.116,4.115
			v8.407c0,2.27,1.847,4.116,4.116,4.116h3.817c0.946,4.215,2.59,8.186,4.899,11.833l-2.697,2.696
			c-0.777,0.777-1.205,1.813-1.205,2.91c0,1.1,0.428,2.135,1.205,2.911l5.945,5.944c0.777,0.778,1.811,1.206,2.91,1.206
			c1.1,0,2.133-0.428,2.911-1.206l2.697-2.696c3.646,2.308,7.618,3.953,11.833,4.898v3.817c0,2.269,1.846,4.115,4.116,4.115h8.408
			c2.269,0,4.115-1.847,4.115-4.115v-3.817c4.215-0.945,8.187-2.591,11.833-4.898l2.697,2.696c0.778,0.778,1.811,1.206,2.91,1.206
			s2.134-0.428,2.911-1.206l5.945-5.944c0.776-0.776,1.205-1.812,1.205-2.909c0-1.1-0.429-2.133-1.205-2.912L99,135.056
			c2.309-3.647,3.952-7.618,4.899-11.833h3.815c2.271,0,4.116-1.847,4.116-4.116v-8.407
			C111.831,108.431,109.985,106.584,107.715,106.584z M109.204,119.106c0,0.82-0.669,1.488-1.489,1.488h-4.883
			c-0.629,0-1.17,0.445-1.289,1.063c-0.9,4.619-2.689,8.938-5.316,12.838c-0.352,0.521-0.284,1.219,0.161,1.663l3.451,3.451
			c0.282,0.28,0.437,0.654,0.437,1.052c0,0.399-0.154,0.772-0.437,1.053l-5.944,5.945c-0.281,0.282-0.655,0.438-1.053,0.438
			c-0.397,0-0.771-0.155-1.052-0.438l-3.452-3.451c-0.445-0.446-1.141-0.512-1.663-0.16c-3.899,2.626-8.219,4.414-12.838,5.314
			c-0.618,0.121-1.063,0.661-1.063,1.289v4.885c0,0.82-0.668,1.489-1.489,1.489h-8.407c-0.821,0-1.489-0.669-1.489-1.489v-4.885
			c0-0.628-0.445-1.168-1.063-1.288c-4.62-0.901-8.939-2.689-12.838-5.315c-0.224-0.151-0.479-0.225-0.734-0.225
			c-0.338,0-0.675,0.131-0.929,0.385l-3.452,3.452c-0.28,0.281-0.655,0.437-1.053,0.437c-0.397,0-0.771-0.155-1.052-0.437
			l-5.945-5.944c-0.281-0.282-0.436-0.655-0.436-1.053c0-0.399,0.154-0.773,0.436-1.054l3.452-3.451
			c0.444-0.444,0.511-1.142,0.161-1.663c-2.627-3.899-4.415-8.219-5.316-12.838c-0.12-0.618-0.66-1.063-1.289-1.063h-4.884
			c-0.821,0-1.488-0.667-1.488-1.488v-8.407c0-0.82,0.667-1.489,1.488-1.489h4.884c0.628,0,1.169-0.444,1.289-1.062
			c0.9-4.62,2.688-8.939,5.316-12.839c0.351-0.521,0.284-1.218-0.161-1.662l-3.452-3.452c-0.581-0.581-0.581-1.525,0-2.105
			l5.945-5.945c0.281-0.281,0.655-0.436,1.052-0.436c0.398,0,0.772,0.155,1.053,0.436l3.451,3.451
			c0.444,0.445,1.142,0.512,1.663,0.161c3.899-2.627,8.219-4.416,12.839-5.316c0.617-0.12,1.063-0.66,1.063-1.289v-4.883
			c0-0.821,0.667-1.489,1.489-1.489h8.407c0.821,0,1.489,0.668,1.489,1.489v4.883c0,0.629,0.445,1.169,1.063,1.29
			c4.62,0.9,8.939,2.688,12.838,5.315c0.521,0.351,1.219,0.284,1.663-0.161l3.452-3.451c0.28-0.281,0.654-0.437,1.052-0.437
			c0.398,0,0.772,0.155,1.053,0.437l5.944,5.944c0.58,0.58,0.58,1.525,0,2.105l-3.451,3.451c-0.445,0.445-0.512,1.142-0.161,1.663
			c2.626,3.9,4.416,8.219,5.316,12.839c0.119,0.617,0.66,1.062,1.289,1.062h4.883c0.82,0,1.489,0.669,1.489,1.489V119.106
			L109.204,119.106z"/>
		<path d="M43.174,114.902c0-13.182,10.725-23.907,23.908-23.907c3.227,0,6.356,0.632,9.301,1.877
			c0.668,0.283,1.439-0.031,1.722-0.698c0.282-0.668-0.03-1.439-0.699-1.722c-3.271-1.383-6.745-2.083-10.325-2.083
			c-14.631,0-26.535,11.903-26.535,26.534c0,6.061,2.097,11.987,5.903,16.688c0.26,0.321,0.639,0.487,1.021,0.487
			c0.291,0,0.583-0.097,0.826-0.293c0.564-0.457,0.651-1.283,0.194-1.847C45.062,125.702,43.174,120.362,43.174,114.902z"/>
		<path d="M89.815,103.889c-0.668,0.282-0.981,1.053-0.699,1.722c1.243,2.942,1.874,6.069,1.874,9.292
			c0,13.184-10.725,23.907-23.908,23.907c-5.458,0-10.795-1.886-15.029-5.313c-0.563-0.457-1.39-0.369-1.847,0.194
			c-0.456,0.563-0.369,1.392,0.195,1.849c4.7,3.803,10.624,5.897,16.682,5.897c14.631,0,26.534-11.904,26.534-26.535
			c0-3.576-0.699-7.047-2.08-10.314C91.254,103.92,90.483,103.607,89.815,103.889z"/>
		<path d="M82.107,96.307c1.31,1.06,2.512,2.262,3.572,3.572c0.26,0.321,0.64,0.487,1.022,0.487c0.29,0,0.582-0.095,0.825-0.292
			c0.564-0.456,0.651-1.284,0.195-1.848c-1.176-1.453-2.508-2.787-3.962-3.963c-0.563-0.456-1.392-0.368-1.847,0.196
			C81.456,95.023,81.543,95.851,82.107,96.307L82.107,96.307z"/>
		<path d="M67.082,93.973c-11.541,0-20.93,9.389-20.93,20.929c0,11.541,9.389,20.931,20.93,20.931c11.541,0,20.93-9.39,20.93-20.931
			S78.622,93.973,67.082,93.973z M67.082,133.206c-10.092,0-18.303-8.211-18.303-18.304c0-10.092,8.211-18.303,18.303-18.303
			s18.302,8.211,18.302,18.303C85.384,124.995,77.173,133.206,67.082,133.206z"/>
	</g>
</g>
</svg>
