<?xml version="1.0" encoding="utf-8"?>
<!-- Generator: Adobe Illustrator 16.0.0, SVG Export Plug-In . SVG Version: 6.00 Build 0)  -->
<!DOCTYPE svg PUBLIC "-//W3C//DTD SVG 1.1//EN" "http://www.w3.org/Graphics/SVG/1.1/DTD/svg11.dtd">
<svg version="1.1" id="Capa_1" xmlns="http://www.w3.org/2000/svg" xmlns:xlink="http://www.w3.org/1999/xlink" x="0px" y="0px"
	 width="200px" height="200px" viewBox="0 0 200 200" enable-background="new 0 0 200 200" xml:space="preserve">
<g>
	<path d="M49.045,37.613c-6.482,0-11.759,5.275-11.759,11.759s5.276,11.759,11.759,11.759c6.483,0,11.759-5.275,11.759-11.759
		C60.804,42.89,55.528,37.613,49.045,37.613z M49.045,55.905c-3.601,0-6.533-2.93-6.533-6.533s2.933-6.533,6.533-6.533
		c3.602,0,6.533,2.93,6.533,6.533S52.646,55.905,49.045,55.905z"/>
	<circle cx="152.261" cy="45.453" r="2.614"/>
	<circle cx="141.809" cy="45.453" r="2.614"/>
	<circle cx="157.486" cy="53.292" r="2.613"/>
	<circle cx="147.034" cy="53.292" r="2.613"/>
	<circle cx="131.356" cy="45.453" r="2.614"/>
	<circle cx="136.582" cy="53.292" r="2.613"/>
	<circle cx="120.904" cy="45.453" r="2.614"/>
	<circle cx="126.13" cy="53.292" r="2.613"/>
	<circle cx="110.452" cy="45.453" r="2.614"/>
	<circle cx="115.678" cy="53.292" r="2.613"/>
	<path d="M49.045,87.262c-6.482,0-11.759,5.275-11.759,11.76c0,6.481,5.276,11.759,11.759,11.759
		c6.483,0,11.759-5.276,11.759-11.759C60.804,92.537,55.528,87.262,49.045,87.262z M49.045,105.554c-3.601,0-6.533-2.93-6.533-6.532
		c0-3.604,2.933-6.533,6.533-6.533c3.602,0,6.533,2.93,6.533,6.533C55.578,102.624,52.646,105.554,49.045,105.554z"/>
	<path d="M49.045,136.91c-6.482,0-11.759,5.276-11.759,11.759c0,6.483,5.276,11.759,11.759,11.759
		c6.483,0,11.759-5.274,11.759-11.759C60.804,142.187,55.528,136.91,49.045,136.91z M49.045,155.202
		c-3.601,0-6.533-2.93-6.533-6.533c0-3.603,2.933-6.533,6.533-6.533c3.602,0,6.533,2.931,6.533,6.533
		C55.578,152.272,52.646,155.202,49.045,155.202z"/>
	<g>
		<path d="M178.392,64.769V33.977c0-6.64-5.4-12.042-12.04-12.042H33.649c-6.641,0-12.041,5.401-12.041,12.042v30.79
			c0,3.839,1.837,7.223,4.643,9.429c-2.806,2.208-4.643,5.594-4.643,9.43v30.79c0,3.84,1.837,7.223,4.643,9.428
			c-2.806,2.209-4.643,5.596-4.643,9.431v30.792c0,6.639,5.4,12.039,12.041,12.039h72.839c7.009,1.291,14.689,1.961,22.256,1.961
			c22.66,0,46.555-5.877,49.374-17.124c0.174-0.348,0.272-0.744,0.272-1.165v-23.52v-0.979v-0.979v-21.558v-0.98v-0.979V88.244
			v-0.98c0-0.392-0.096-0.755-0.25-1.087c-0.906-3.826-4.308-7.047-9.309-9.629C174.284,75.398,178.392,70.556,178.392,64.769z
			 M26.834,83.624c0-3.757,3.057-6.815,6.815-6.815h54.509c-4.728,2.537-7.937,5.667-8.813,9.365
			c-0.153,0.334-0.251,0.695-0.251,1.087v0.98v22.537v0.979v0.98v8.491H33.649c-3.759,0-6.815-3.058-6.815-6.815V83.624z
			 M33.649,170.882v-0.002c-3.759,0-6.815-3.059-6.815-6.814v-30.793c0-3.758,3.057-6.813,6.815-6.813h45.445v7.84v0.979v0.979
			v23.52l0.773,2.611c0.042,0.098,0.102,0.191,0.148,0.288c0.093,0.195,0.194,0.388,0.298,0.581
			c0.215,0.387,0.457,0.769,0.728,1.144c0.266,0.381,0.567,0.745,0.886,1.108c0.162,0.184,0.324,0.362,0.498,0.544
			c1.001,1.032,2.203,1.998,3.59,2.902c0.047,0.031,0.098,0.063,0.146,0.095c1.004,0.646,2.088,1.257,3.262,1.833L33.649,170.882
			L33.649,170.882z M173.166,88.242c0,0.27-0.034,0.54-0.097,0.812c0.007,0.075,0.013,0.151,0.015,0.229
			c0.646,22.523,0.307,67.572,0.307,67.572l-0.225-0.013v2.264c-0.021,0.082-0.039,0.165-0.053,0.243
			c-1.068,6.518-19.153,13.489-44.369,13.489c-8.045,0-15.352-0.713-21.626-1.891l0.002-0.021
			c-12.994-2.46-20.187-6.611-22.198-10.112c-0.002-0.003-0.005-0.005-0.005-0.012c-0.091-0.162-0.157-0.32-0.227-0.478
			c-0.137-0.327-0.265-0.65-0.316-0.978l-0.021-15.063c0.009,0.009,0.02,0.015,0.029,0.021v-8.566
			c-0.021-0.118-0.039-0.236-0.043-0.354v-0.313c0.01-0.118,0.017-0.234,0.034-0.354c0.006-0.04,0.007-0.076,0.009-0.115v-0.128
			c-0.007-0.142-0.029-0.28-0.045-0.424l-0.016-12.821v-0.484c0.019,0.014,0.041,0.027,0.061,0.041v-8.553
			c-0.035-0.158-0.061-0.319-0.061-0.477c0-0.186,0.022-0.371,0.054-0.554c0.004-0.023,0.004-0.043,0.007-0.064v-0.577
			c-0.014-0.123-0.033-0.244-0.061-0.363V97.874c-0.205-1.38-0.812-6.15,0.002-9.585c0-0.017-0.002-0.032-0.002-0.048
			c0-0.335,0.081-0.675,0.177-1.014c0.104-0.338,0.246-0.683,0.455-1.038c0.008-0.017,0.016-0.031,0.022-0.048
			c0.87-1.452,2.623-3.015,5.323-4.522c0.115-0.063,0.232-0.125,0.351-0.188c0.462-0.25,0.951-0.499,1.466-0.744
			c0.599-0.279,1.212-0.56,1.871-0.828c0.128-0.056,0.261-0.107,0.395-0.159c3.036-1.21,6.694-2.284,10.813-3.163
			c1.288-0.271,2.599-0.527,3.947-0.752c0.357-0.061,0.709-0.123,1.071-0.18c11.697-1.805,25.347-1.805,37.046,0
			c0.367,0.057,0.724,0.123,1.087,0.183c1.341,0.222,2.645,0.476,3.921,0.748C165.008,79.248,173.166,83.906,173.166,88.242z
			 M173.166,64.769c0,3.758-3.059,6.815-6.814,6.815h-12.1c-0.15-0.034-0.318-0.055-0.47-0.089c-1.714-0.371-3.479-0.703-5.281-0.99
			c-0.175-0.025-0.351-0.055-0.525-0.081c-6.169-0.959-12.754-1.453-19.23-1.453c-6.479,0-13.058,0.494-19.229,1.453
			c-0.18,0.026-0.356,0.056-0.538,0.081c-1.798,0.288-3.557,0.619-5.266,0.987c-0.153,0.035-0.326,0.056-0.479,0.09H33.65
			c-3.759,0.002-6.815-3.055-6.815-6.813V33.978c0-3.759,3.057-6.815,6.815-6.815h132.698c3.761,0,6.818,3.058,6.818,6.815
			L173.166,64.769L173.166,64.769z"/>
	</g>
	<g>
		<g>
			<g>
				<path d="M129.465,125.784c0.083,0,0.168,0,0.27,0c0.031,0,0.065,0,0.1,0c0.05,0,0.116,0,0.168,0
					c4.9-0.084,8.864-1.808,11.792-5.104c6.439-7.259,5.369-19.701,5.253-20.891c-0.419-8.915-4.634-13.181-8.113-15.171
					c-2.592-1.488-5.619-2.292-8.999-2.358h-0.115c-0.019,0-0.051,0-0.066,0h-0.101c-1.856,0-5.504,0.303-8.999,2.292
					c-3.513,1.991-7.794,6.255-8.212,15.237c-0.117,1.188-1.188,13.632,5.252,20.893C120.601,123.978,124.564,125.7,129.465,125.784
					z M116.903,100.21c0-0.05,0.018-0.1,0.018-0.134c0.551-11.993,9.065-13.281,12.712-13.281h0.066c0.034,0,0.084,0,0.134,0
					c4.517,0.102,12.193,1.94,12.712,13.281c0,0.05,0,0.099,0.017,0.134c0.018,0.117,1.188,11.492-4.13,17.479
					c-2.107,2.375-4.919,3.546-8.613,3.577c-0.034,0-0.052,0-0.084,0l0,0c-0.034,0-0.053,0-0.086,0
					c-3.679-0.031-6.506-1.202-8.597-3.577C115.751,111.734,116.887,100.312,116.903,100.21z"/>
				<path d="M164.105,146.427c0-0.021,0-0.036,0-0.053c0-0.133-0.018-0.267-0.018-0.418c-0.101-3.313-0.317-11.057-7.577-13.532
					c-0.051-0.016-0.116-0.033-0.168-0.051c-7.543-1.924-13.815-6.271-13.881-6.322c-1.022-0.72-2.427-0.468-3.146,0.555
					c-0.721,1.02-0.47,2.425,0.552,3.145c0.283,0.199,6.94,4.831,15.271,6.975c3.897,1.39,4.332,5.554,4.449,9.366
					c0,0.151,0,0.282,0.018,0.417c0.017,1.506-0.084,3.83-0.352,5.168c-2.71,1.54-13.331,6.858-29.488,6.858
					c-16.092,0-26.779-5.336-29.505-6.874c-0.268-1.338-0.384-3.664-0.351-5.168c0-0.135,0.016-0.269,0.016-0.418
					c0.117-3.813,0.554-7.979,4.449-9.367c8.331-2.141,14.987-6.791,15.271-6.974c1.021-0.721,1.271-2.124,0.553-3.146
					c-0.719-1.02-2.124-1.27-3.145-0.551c-0.066,0.051-6.306,4.396-13.885,6.322c-0.065,0.016-0.116,0.032-0.166,0.052
					c-7.259,2.49-7.476,10.233-7.577,13.531c0,0.148,0,0.282-0.017,0.417c0,0.017,0,0.031,0,0.049
					c-0.018,0.871-0.033,5.337,0.853,7.58c0.168,0.433,0.469,0.803,0.869,1.054c0.503,0.335,12.528,7.995,32.65,7.995
					s32.147-7.678,32.648-7.995c0.386-0.251,0.703-0.619,0.871-1.054C164.138,151.76,164.122,147.295,164.105,146.427z"/>
			</g>
		</g>
	</g>
</g>
</svg>
