<?xml version="1.0" encoding="utf-8"?>
<!-- Generator: Adobe Illustrator 16.0.0, SVG Export Plug-In . SVG Version: 6.00 Build 0)  -->
<!DOCTYPE svg PUBLIC "-//W3C//DTD SVG 1.1//EN" "http://www.w3.org/Graphics/SVG/1.1/DTD/svg11.dtd">
<svg version="1.1" id="Capa_1" xmlns="http://www.w3.org/2000/svg" xmlns:xlink="http://www.w3.org/1999/xlink" x="0px" y="0px"
	 width="200px" height="200px" viewBox="0 0 200 200" enable-background="new 0 0 200 200" xml:space="preserve">
<g>
	<g>
		<g>
			<path d="M151.455,35.165h-15.896v-7.111c0-2.301-2.51-3.347-4.809-3.347h-12.342c-2.928-8.367-10.25-12.55-18.617-12.55
				c-8.275-0.313-15.801,4.763-18.616,12.55H69.043c-2.301,0-4.602,1.046-4.602,3.347v7.111H48.544
				c-9.42,0.102-17.127,7.533-17.57,16.942v119.854c0,9.203,8.367,15.896,17.57,15.896h102.911c9.203,0,17.57-6.693,17.57-15.896
				V52.109C168.582,42.698,160.877,35.266,151.455,35.165z M72.808,33.074h11.505c2.009-0.246,3.621-1.773,3.975-3.767
				c1.238-5.394,5.972-9.266,11.504-9.41c5.484,0.164,10.142,4.05,11.294,9.41c0.373,2.063,2.094,3.609,4.184,3.767h11.922v16.731
				H72.808V33.074z M160.658,171.961c0,4.602-4.602,7.531-9.203,7.531H48.544c-4.601,0-9.203-2.932-9.203-7.531V52.109
				c0.426-4.791,4.396-8.488,9.203-8.577h15.897v10.667c0.221,2.344,2.251,4.097,4.602,3.976h61.705
				c2.395,0.129,4.488-1.599,4.811-3.976V43.532h15.896c4.807,0.089,8.775,3.786,9.203,8.575V171.961L160.658,171.961z"/>
			<path d="M83.895,105.654c-1.569-1.654-4.175-1.746-5.857-0.209l-13.387,12.76l-5.647-5.857c-1.569-1.652-4.174-1.746-5.856-0.207
				c-1.62,1.697-1.62,4.365,0,6.064l8.575,8.785c0.742,0.832,1.814,1.291,2.929,1.254c1.104-0.016,2.155-0.467,2.929-1.254
				l16.313-15.479c1.618-1.484,1.727-3.998,0.242-5.615C84.059,105.813,83.979,105.732,83.895,105.654z"/>
			<path d="M143.926,114.648H95.819c-2.313,0-4.185,1.871-4.185,4.184c0,2.311,1.872,4.184,4.185,4.184h48.107
				c2.311,0,4.184-1.873,4.184-4.184C148.109,116.52,146.234,114.648,143.926,114.648z"/>
			<path d="M83.895,72.188c-1.569-1.653-4.175-1.747-5.857-0.207L64.651,84.739l-5.647-5.856c-1.569-1.654-4.174-1.748-5.856-0.21
				c-1.62,1.698-1.62,4.369,0,6.066l8.575,8.786c0.742,0.831,1.814,1.291,2.929,1.255c1.104-0.017,2.155-0.467,2.929-1.255
				l16.313-15.479c1.618-1.482,1.727-3.997,0.242-5.614C84.059,72.344,83.979,72.265,83.895,72.188z"/>
			<path d="M143.926,81.182H95.819c-2.313,0-4.185,1.872-4.185,4.184c0,2.311,1.872,4.184,4.185,4.184h48.107
				c2.311,0,4.184-1.874,4.184-4.184C148.109,83.055,146.234,81.182,143.926,81.182z"/>
			<path d="M83.895,139.121c-1.569-1.654-4.175-1.746-5.857-0.209l-13.387,12.76l-5.647-5.855c-1.569-1.654-4.174-1.748-5.856-0.209
				c-1.62,1.695-1.62,4.365,0,6.064l8.575,8.785c0.742,0.83,1.814,1.291,2.929,1.254c1.104-0.016,2.155-0.467,2.929-1.254
				l16.313-15.479c1.618-1.484,1.727-3.998,0.242-5.615C84.059,139.279,83.979,139.199,83.895,139.121z"/>
			<path d="M143.926,148.115H95.819c-2.313,0-4.185,1.873-4.185,4.186c0,2.311,1.872,4.184,4.185,4.184h48.107
				c2.311,0,4.184-1.873,4.184-4.184C148.109,149.988,146.234,148.115,143.926,148.115z"/>
		</g>
	</g>
</g>
</svg>
