<?xml version="1.0" encoding="UTF-8"?>
<svg width="176px" height="50px" viewBox="0 0 176 50" version="1.1" xmlns="http://www.w3.org/2000/svg" xmlns:xlink="http://www.w3.org/1999/xlink">
    <title>MOI_S4_ Flat version_V3</title>
    <g id="Home-page" stroke="none" stroke-width="1" fill="none" fill-rule="evenodd">
        <g id="assets" transform="translate(-916.000000, -213.000000)" fill-rule="nonzero">
            <g id="Group" transform="translate(916.000000, 213.000000)">
                <polygon id="Path" fill="#B1B1B1" points="2.64823965 8.70135886 3.42032119 7.88295244 4.23872761 8.70135886 4.37770229 8.70135886 5.31964175 7.7130945 4.33137739 6.74027177 4.21556516 6.74027177 3.42032119 7.54323657 2.60191476 6.74027177 2.47838172 6.74027177 1.52100062 7.7130945 2.50926498 8.70135886"></polygon>
                <path d="M2.02285361,15.9203212 C2.53106616,15.9235324 3.03043174,15.7873418 3.46664608,15.5265596 C3.55929586,15.2100062 3.62106238,14.8857319 3.68282891,14.5846201 L3.68282891,14.5846201 L3.68282891,14.5846201 C3.95305744,16.2909203 4.54756022,16.9857937 5.92958616,16.9857937 L32.2961705,16.9857937 C34.028843,16.9528092 35.7497513,16.6932454 37.415071,16.2137122 L38.6040766,15.8508338 L38.9901174,14.3066708 L38.9129092,14.2449043 L37.708462,14.5460161 C35.7782582,15.0324274 33.8017295,14.3915998 33.8017295,13.2257566 C33.8017295,12.2838172 34.7745522,11.8591723 35.7164917,11.8591723 C36.5517689,11.8591723 37.3645145,12.1300875 38.0327363,12.6312539 L38.3261272,12.2838172 C37.7316245,11.0021618 36.9749846,10.3227301 36.0098826,10.3227301 C34.573811,10.3227301 33.2381099,11.8668931 33.2381099,13.5577517 C33.2410892,14.2589858 33.5447075,14.9252592 34.071958,15.3875849 C33.570105,15.426189 32.983323,15.4416306 32.3270537,15.4416306 L6.26158122,15.4416306 C5.08029648,15.4416306 4.77146387,14.9474985 4.63248919,13.5809141 L4.16151946,9.55064855 L3.71371217,9.55064855 L3.21185917,10.8091414 L1.96108709,11.6815936 C0.548177888,12.6389747 0,13.295244 0,14.2371834 C0,15.1791229 0.772081532,15.9203212 2.02285361,15.9203212 Z M1.62909203,12.793391 L3.3276714,11.9518221 L3.63650401,14.0518839 C3.12930463,14.2768394 2.57727409,14.3824912 2.02285361,14.3607165 C1.17356393,14.3607165 0.60994441,14.1445337 0.60994441,13.7816553 C0.60994441,13.418777 0.941939469,13.125386 1.62909203,12.793391 Z" id="Shape" fill="#B1B1B1"></path>
                <path d="M43.5685608,16.9857937 L54.8872761,16.9857937 C55.4475757,16.9671108 55.9877985,16.7726306 56.4314392,16.429895 C56.527954,16.1570236 56.6078816,15.8785662 56.6707844,15.5960469 L56.6707844,15.5960469 C56.8715256,16.429895 57.6822112,16.9935145 58.9098209,16.9935145 L62.1988882,16.9935145 C62.8502268,16.9745828 63.467127,16.6966998 63.9129092,16.221433 C65.0282577,16.9126143 66.3228556,17.2590938 67.6343422,17.2174182 C69.0968187,17.2413625 70.5498631,16.9790802 71.9116739,16.4453366 C72.6323193,16.7960028 73.426758,16.9681312 74.2279185,16.9471896 L74.2279185,16.9471896 C75.1460417,16.9456871 76.0461042,16.6919603 76.8298332,16.2137122 C77.1085101,15.5380028 77.2502257,14.8136789 77.2467573,14.0827671 L77.2467573,8.30759728 L78.0188388,7.72853613 L78.0188388,7.72081532 L77.2467573,6.79431748 L77.2467573,5.62847437 L76.8221124,5.62847437 C75.8415689,6.28474367 75.6331069,7.04138357 76.1349599,7.85206918 L76.3588635,15.0710315 C75.7767786,15.2917362 75.1592717,15.4042481 74.5367511,15.4030266 C74.0693621,15.397032 73.6027318,15.3635171 73.1392835,15.302656 C73.3498304,14.7902501 73.4624408,14.2429114 73.4712786,13.6890056 C73.4902736,13.0327798 73.2406135,12.3972291 72.7800554,11.9293837 C72.3194974,11.4615383 71.687944,11.2019323 71.0315009,11.2106238 C69.4873379,11.2106238 67.8891291,12.4536751 65.8817171,15.4030266 C65.5269289,15.307031 65.1828585,15.1750942 64.8548487,15.009265 L65.5806053,13.9283508 L65.1868437,13.6426807 L64.6849907,14.3298332 C64.1647544,15.1226634 63.2409507,15.5531739 62.2992588,15.4416306 L59.2881408,15.4416306 C57.9678814,15.4416306 57.5432366,15.1714021 57.5432366,14.2449043 L57.5432366,12.8397159 L57.0568252,12.8397159 L56.6862261,15.0401482 C56.1466354,15.3124842 55.5447502,15.437655 54.9413218,15.4030266 L43.9082767,15.4030266 C42.5957381,15.4030266 42.14021,15.0555899 42.14021,14.0673255 L42.14021,5.62847437 L41.6924027,5.62847437 L40.9203212,7.10315009 L41.1133416,14.0982088 C41.1828289,16.2137122 41.8236566,16.9857937 43.5685608,16.9857937 Z M70.3752316,12.793391 C71.5038596,12.8529329 72.4809988,13.597274 72.8381717,14.6695491 C71.1953352,15.3333323 69.4369624,15.6640114 67.6652254,15.6423718 C67.2632893,15.6394635 66.8625539,15.5980973 66.4684991,15.5188388 C67.9431748,13.6117974 69.0935763,12.7779494 70.3752316,12.7779494 L70.3752316,12.793391 Z" id="Shape" fill="#B1B1B1"></path>
                <polygon id="Path" fill="#B1B1B1" points="57.3733786 11.6815936 58.3153181 10.6933292 57.3270537 9.72050649 57.2035207 9.72050649 56.2461396 10.6933292 57.234404 11.6815936"></polygon>
                <polygon id="Path" fill="#B1B1B1" points="80.6053119 16.9703521 81.0762817 15.2408894 81.0762817 5.62847437 80.5898703 5.62847437 79.8563928 7.10315009 80.1189006 16.9703521"></polygon>
                <polygon id="Path" fill="#B1B1B1" points="87.3533045 10.0216183 88.125386 9.20321186 88.9515133 10.0216183 89.090488 10.0216183 90.0324274 9.03335392 89.0441631 8.06053119 88.92063 8.06053119 88.125386 8.8712168 87.3069796 8.06053119 87.1834466 8.06053119 86.2260655 9.03335392 87.2143298 10.0216183"></polygon>
                <path d="M88.0558987,17.2174182 C89.6000618,17.2174182 90.4570723,16.1056208 90.4570723,14.3993206 C90.4570723,12.9092032 89.7390364,11.998147 87.0521927,10.8168623 L86.9904262,10.8631872 L86.9904262,12.4073502 C86.2957558,13.1542306 85.8763672,14.1155565 85.8014206,15.132798 C85.7740706,15.7241902 86.0091655,16.2974977 86.4438444,16.6994268 C86.8785233,17.1013559 87.4684543,17.2909148 88.0558987,17.2174182 Z M87.6158122,12.8397159 C89.2680667,13.5654725 89.8780111,14.1908586 89.8780111,14.7081532 C89.8780111,15.2254478 89.2217418,15.6500926 88.1331069,15.6500926 C87.0444719,15.6500926 86.3804818,15.2872143 86.3804818,14.6927116 C86.5254627,13.9337046 86.9709524,13.2654702 87.6158122,12.8397159 L87.6158122,12.8397159 Z" id="Shape" fill="#B1B1B1"></path>
                <path d="M90.4416306,19.2093885 L90.4416306,19.6957999 L93.3137739,20.6222977 C94.6099182,19.0522022 95.3629232,17.1046821 95.4601606,15.0710315 C95.4017943,13.8879697 95.0228221,12.7430466 94.3638048,11.7588017 L93.93916,11.7588017 L93.4218653,13.0790611 C94.5182211,14.4147622 94.8810994,15.0864731 94.8810994,15.9203212 C94.8656578,17.3255096 93.267449,18.5299568 90.4416306,19.2093885 Z" id="Path" fill="#B1B1B1"></path>
                <polygon id="Path" fill="#B1B1B1" points="98.1161211 16.9703521 98.5870908 15.2408894 98.5870908 5.62847437 98.1006794 5.62847437 97.3749228 7.10315009 97.6297097 16.9703521"></polygon>
                <path d="M103.497529,15.0710315 C103.442668,13.8873184 103.063392,12.7414781 102.401174,11.7588017 L101.976529,11.7588017 L101.443792,13.0790611 C102.540148,14.4147622 102.903027,15.0864731 102.903027,15.9203212 C102.903027,17.3255096 101.312539,18.5067943 98.4789994,19.2093885 L98.4789994,19.6957999 L101.358863,20.6222977 C102.653196,19.051774 103.403585,17.1040138 103.497529,15.0710315 Z" id="Path" fill="#B1B1B1"></path>
                <polygon id="Path" fill="#B1B1B1" points="102.069179 10.6006794 103.011118 9.61241507 102.022854 8.63959234 101.907041 8.63959234 100.941939 9.61241507 101.937925 10.6006794"></polygon>
                <path d="M109.635578,14.9166152 C109.635578,12.87832 108.61643,11.2106238 107.319333,11.2106238 C106.215256,11.2106238 105.057134,12.8397159 105.057134,14.3684373 C105.004521,14.9166233 105.198465,15.4598086 105.586377,15.8507049 C105.97429,16.2416013 106.515973,16.439702 107.064546,16.3912909 C107.555015,16.4102729 108.041971,16.3011736 108.477455,16.0747375 L108.917542,14.9320568 C108.980272,15.1845887 109.011394,15.4439345 109.010191,15.7041384 C109.010191,17.433601 107.157196,18.6534898 103.914453,19.2171093 L103.914453,19.7035207 L106.778876,20.6300185 C108.447664,19.1770786 109.474499,17.1234099 109.635578,14.9166152 Z M107.234404,14.8316862 C106.24614,14.8316862 105.690241,14.6000618 105.690241,14.0596047 C105.697661,13.3598807 106.249735,12.787485 106.948734,12.7547869 C107.720815,12.7547869 108.492897,13.588635 108.863496,14.6077826 C108.339501,14.7731746 107.791334,14.8488738 107.242125,14.8316862 L107.234404,14.8316862 Z" id="Shape" fill="#B1B1B1"></path>
                <polygon id="Path" fill="#B1B1B1" points="4.21556516 24.0503397 3.42032119 24.8533045 2.60191476 24.0503397 2.47838172 24.0503397 1.52100062 25.0231624 2.50926498 26.0114268 2.64823965 26.0114268 3.42032119 25.1852996 4.23872761 26.0114268 4.37770229 26.0114268 5.31964175 25.0231624 4.33137739 24.0503397"></polygon>
                <polygon id="Path" fill="#B1B1B1" points="22.2899938 35.6470043 22.1664608 35.6470043 21.3712168 36.4576899 20.5528104 35.6470043 20.4292773 35.6470043 19.4718962 36.6198271 20.4601606 37.6080914 20.5991353 37.6080914 21.3712168 36.789685 22.197344 37.6080914 22.3363187 37.6080914 23.2782582 36.6198271"></polygon>
                <path d="M29.6170476,34.28042 L32.6281655,34.28042 C33.6010019,34.2679811 34.5577029,34.0301273 35.4231007,33.5855466 C35.6874763,32.8983315 35.8210249,32.1677419 35.8169567,31.4314392 C35.7812677,30.590367 35.5140859,29.7754625 35.0447807,29.0765905 L34.6201359,29.0765905 L34.0873996,30.3968499 C34.5862781,30.9365396 34.9698413,31.5723089 35.2146387,32.2652872 C34.3966191,32.587199 33.5224307,32.7420852 32.6436072,32.7208153 L23.6565781,32.7208153 C22.3363187,32.7208153 21.9039531,32.4505868 21.9039531,31.5240889 L21.9039531,30.1111797 L21.4175417,30.1111797 L21.0546634,32.3193329 C20.5137777,32.587944 19.9128901,32.7129073 19.3097591,32.6822112 L6.26158122,32.6822112 C5.08029648,32.7130945 4.77146387,32.2575664 4.63248919,30.8832613 L4.16151946,26.8529957 L3.71371217,26.8529957 L3.21185917,28.1114886 L1.96108709,28.9916615 C0.548177888,29.9490426 0,30.5975911 0,31.5472514 C0,32.4969117 0.772081532,33.1995059 2.02285361,33.1995059 C2.53055757,33.1988823 3.02892299,33.0629644 3.46664608,32.8057443 C3.55929586,32.4891909 3.62106238,32.1649166 3.68282891,31.8638048 L3.68282891,31.8638048 L3.68282891,31.8638048 C3.92217418,33.5469426 4.51667696,34.2340951 5.8987029,34.2340951 L19.2557134,34.2340951 C19.8153245,34.2118521 20.3544971,34.0177499 20.7998765,33.6781964 C20.9002471,33.3925263 20.9620136,33.1145769 21.0392217,32.8443484 L21.0392217,32.8443484 C21.2399629,33.6781964 22.0506485,34.2340951 23.2705374,34.2418159 L29.5707227,34.2418159 L29.6170476,34.28042 Z M2.02285361,31.6553428 C1.17356393,31.6553428 0.60994441,31.4468808 0.60994441,31.0762817 C0.60994441,30.7056825 0.941939469,30.4277332 1.62909203,30.0880173 L3.3276714,29.2541692 L3.63650401,31.354231 C3.127511,31.5727123 2.57638724,31.6755535 2.02285361,31.6553428 Z" id="Shape" fill="#B1B1B1"></path>
                <polygon id="Path" fill="#B1B1B1" points="33.655034 26.922483 34.6432983 27.9107474 34.782273 27.9107474 35.7242125 26.922483 34.7359481 25.9496603 34.6124151 25.9496603"></polygon>
                <path d="M67.2405806,22.9385423 L66.8159358,22.9385423 C65.843113,23.5948116 65.6269302,24.3514515 66.1287832,25.1544163 L66.3604077,32.3810994 C65.7771225,32.597459 65.1604065,32.7098268 64.5382952,32.7130945 C63.8513636,32.7874732 63.1986312,32.3964644 62.9400865,31.7557134 L62.6080914,31.0994441 C61.998147,29.9490426 61.5889438,29.555281 60.9326745,29.555281 C59.9289685,29.555281 58.987029,30.7597282 58.6627548,32.3270537 C58.2129704,32.5628564 57.7113079,32.6822998 57.2035207,32.6744904 C56.3315113,32.7367503 55.4667474,32.4786937 54.7714639,31.9487338 C55.5435454,31.2924645 55.8987029,30.8060531 55.8987029,30.2887585 C55.8987029,29.4085855 55.2038295,28.9221742 54.0920321,28.9221742 C53.4132561,28.9428398 52.7501438,29.1311637 52.1618283,29.4703521 L51.7294626,30.7983323 L51.9070414,31.1920939 C52.5043876,31.1720485 53.0690389,31.4646139 53.3971587,31.9641754 L53.4434836,32.0413836 C52.6352539,32.4777789 51.7291376,32.7009864 50.8106856,32.6899321 L44.7807288,32.6899321 C43.6226065,32.6899321 43.058987,32.1417542 42.4644842,30.4277332 L41.3604077,27.215874 L40.9512044,27.215874 L40.426189,28.5670167 L41.4993823,31.2229771 C41.6846819,31.6630636 41.8545398,32.0491044 42.016677,32.3810994 C41.3815794,32.7794003 40.642828,32.9808779 39.8934527,32.9601606 C38.5191476,32.9601606 38.1562693,32.7130945 38.0945028,31.771155 L38.0945028,31.5318098 L37.6389747,31.5318098 C37.522724,31.9474685 37.4528115,32.3747116 37.4305127,32.8057443 C37.4305127,33.948425 38.0945028,34.5120445 39.5846201,34.5120445 C40.447049,34.5345275 41.2913511,34.262172 41.9780729,33.7399629 C42.0630019,33.4079679 42.14021,33.0836936 42.1865349,32.7825818 L42.2483014,32.7825818 C42.8814083,33.8943792 43.5145151,34.3267449 44.4332922,34.3267449 L50.7257566,34.3267449 C51.9382015,34.1987696 53.0683117,33.6528226 53.9221742,32.7825818 C54.5909926,33.7516139 55.6940982,34.3291561 56.8715256,34.3267449 L56.8715256,34.3267449 C57.5355862,34.3021972 58.172023,34.054694 58.6781964,33.6241507 C59.7686879,34.1615626 60.9310929,34.5386291 62.1294009,34.7436689 C62.2792495,34.3676333 62.4081277,33.9835764 62.5154416,33.5932674 C62.9211122,34.0997379 63.5518127,34.3716913 64.1985794,34.3190241 L64.1985794,34.3190241 C65.1258137,34.3207708 66.0360042,34.0698679 66.8313774,33.5932674 C67.1032029,32.9157761 67.2421295,32.1923096 67.2405806,31.4623224 L67.2405806,25.6176652 L68.0126621,25.0386041 L68.0126621,24.9922792 L67.2405806,24.0657813 L67.2405806,22.9385423 Z M59.2418159,32.2035207 C59.3671596,31.594561 59.8739185,31.1378523 60.492588,31.0762817 C60.9326745,31.0762817 61.2646695,31.3387894 61.6738728,32.0954293 L62.0290303,32.7516986 C62.0968321,32.8817261 62.1715745,33.0080149 62.2529339,33.1300185 C61.2164074,32.9595601 60.204996,32.6613234 59.2418159,32.2421248 L59.2418159,32.2035207 Z" id="Shape" fill="#B1B1B1"></path>
                <polygon id="Path" fill="#B1B1B1" points="70.5991353 34.28042 71.070105 32.5509574 71.070105 22.9385423 70.5836936 22.9385423 69.857937 24.413218 70.1127239 34.28042"></polygon>
                <path d="M78.0497221,34.5274861 C79.5938851,34.5274861 80.4508956,33.4156887 80.4508956,31.7093885 C80.4508956,30.2192712 79.7405806,29.3082149 77.0460161,28.1192094 L76.9842495,28.1655343 L76.9842495,29.7096973 C76.2939917,30.4556335 75.877492,31.4138552 75.8029648,32.4274243 C75.7712446,33.0199203 76.0032651,33.5960958 76.4367353,34.0012639 C76.8702056,34.4064319 77.4607127,34.5990795 78.0497221,34.5274861 Z M77.6096356,30.1111797 C79.2696109,30.8832613 79.8718345,31.4700432 79.8718345,31.9873379 C79.8718345,32.5046325 79.223286,32.9292773 78.1269302,32.9292773 C77.0305744,32.9292773 76.3743051,32.5586782 76.3743051,31.9718962 C76.5238738,31.2127243 76.9680419,30.5436961 77.6096356,30.1111797 L77.6096356,30.1111797 Z" id="Shape" fill="#B1B1B1"></path>
                <polygon id="Path" fill="#B1B1B1" points="77.1849907 25.3705991 76.2276096 26.3434219 77.215874 27.3316862 77.3548487 27.3316862 78.1269302 26.5132798 78.9453366 27.3316862 79.0843113 27.3316862 80.0262508 26.3434219 79.0379864 25.3705991 78.9144534 25.3705991 78.1269302 26.1735639 77.3085238 25.3705991"></polygon>
                <path d="M84.2958616,28.5206918 C83.1917851,28.5206918 82.0336628,30.142063 82.0336628,31.6785053 C81.9781855,32.2273796 82.1711947,32.7722857 82.5597875,33.1638676 C82.9483802,33.5554496 83.4917914,33.7526286 84.0410747,33.7013589 C84.5311898,33.7165362 85.0171961,33.6076495 85.4539839,33.3848054 L85.8940704,32.2421248 C85.956801,32.4946567 85.9879225,32.7540024 85.9867202,33.0142063 C85.9867202,34.7436689 84.1337245,35.9635578 80.8909821,36.5271773 L80.8909821,37.0135886 L83.7476838,37.9400865 C85.4067284,36.4855572 86.4249526,34.4352366 86.581223,32.234404 C86.581223,30.1883879 85.5620754,28.5206918 84.2958616,28.5206918 Z M84.156887,32.1340334 C83.1686226,32.1340334 82.6127239,31.9101297 82.6127239,31.3619518 C82.6162549,30.6606402 83.1704908,30.086003 83.8712168,30.057134 C84.6432983,30.057134 85.4153799,30.8909821 85.785979,31.9101297 C85.2593944,32.0758051 84.7086429,32.1515008 84.156887,32.1340334 Z" id="Shape" fill="#B1B1B1"></path>
                <polygon id="Path" fill="#B1B1B1" points="94.147622 25.4941322 95.0509574 24.583076 94.1244595 23.6720198 94.0009265 23.6720198 93.0975911 24.583076 94.0318098 25.4941322"></polygon>
                <polygon id="Path" fill="#B1B1B1" points="94.8965411 25.4014824 94.1090179 26.2044472 93.2828907 25.4014824 93.1593576 25.4014824 92.2019765 26.3743051 93.1902409 27.3625695 93.3292156 27.3625695 94.1090179 26.5441631 94.9274243 27.3625695 95.066399 27.3625695 96.0083385 26.3743051 95.0200741 25.4014824"></polygon>
                <path d="M96.3017295,34.28042 L96.3017295,34.28042 C97.2234601,34.2774594 98.12745,34.0267956 98.9190859,33.5546634 C99.1909114,32.877172 99.3298379,32.1537055 99.3282891,31.4237183 L99.3282891,25.6176652 L100.100371,25.0386041 L100.100371,24.9922792 L99.3282891,24.0657813 L99.3282891,22.9385423 L98.9036442,22.9385423 C97.9308215,23.5948116 97.7146387,24.3514515 98.2164917,25.1544163 L98.4481161,32.3810994 C97.8623546,32.5981934 97.2429748,32.7105704 96.6182829,32.7130945 C95.4524398,32.7130945 95.0741198,32.2575664 94.8116121,30.8909821 L94.4332922,28.5206918 L94.0240889,28.5206918 L93.8233477,29.0688697 C93.3832613,30.3582458 92.8350834,30.6902409 92.2096973,30.6902409 C91.4969749,30.6168455 90.8611571,30.2101512 90.4956763,29.5938851 L90.0710315,29.5938851 L89.5614577,30.937307 C90.5497221,31.8638048 91.0206918,32.6050031 91.0206918,33.2535516 C91.0206918,34.6201359 89.422483,35.8091414 86.5966646,36.496294 L86.5966646,36.9827054 L89.4688079,37.9092032 C90.7635009,36.3382587 91.5163122,34.3912395 91.6151946,32.357937 L91.6151946,32.1880791 C91.7544606,32.2199765 91.8969715,32.2355232 92.0398394,32.234404 C92.8119209,32.234404 93.4836319,31.6862261 93.769302,30.4740581 L93.93916,31.4314392 C94.3329216,33.5778258 94.8656578,34.2495368 96.3094503,34.2572576 L96.3094503,34.2572576 L96.3017295,34.28042 Z" id="Path" fill="#B1B1B1"></path>
                <polygon id="Path" fill="#B1B1B1" points="103.165534 32.5509574 103.165534 22.9385423 102.679123 22.9385423 101.945645 24.413218 102.208153 34.28042 102.694565 34.28042"></polygon>
                <path d="M104.122915,36.5194565 L104.122915,37.0058678 L106.979617,37.9323657 C108.638662,36.4778364 109.656886,34.4275158 109.813156,32.2266831 C109.813156,30.1883879 108.794009,28.5206918 107.496912,28.5206918 C106.385114,28.5206918 105.234713,30.142063 105.234713,31.6785053 C105.179236,32.2273796 105.372245,32.7722857 105.760838,33.1638676 C106.14943,33.5554496 106.692841,33.7526286 107.242125,33.7013589 C107.73224,33.7165362 108.218246,33.6076495 108.655034,33.3848054 L109.09512,32.2421248 C109.157851,32.4946567 109.188972,32.7540024 109.18777,33.0142063 C109.218653,34.7436689 107.365658,35.9558369 104.122915,36.5194565 Z M107.404262,32.1340334 C106.415998,32.1340334 105.860099,31.9101297 105.860099,31.3619518 C105.86363,30.6606402 106.417866,30.086003 107.118592,30.057134 C107.890673,30.057134 108.662755,30.8909821 109.033354,31.9101297 C108.506705,32.0755173 107.956002,32.1512063 107.404262,32.1340334 Z" id="Shape" fill="#B1B1B1"></path>
                <polygon id="Path" fill="#B1B1B1" points="4.41630636 41.7310068 4.91043854 41.5920321 4.91043854 41.3835701 3.59789994 41.3835701 3.56701668 41.6537986 2.54786905 44.1553428 1.32025942 41.3835701 0.0463248919 41.3835701 0.0463248919 41.5920321 0.540457072 41.7310068 0.517294626 44.9042619 0.023162446 45.0432366 0.023162446 45.2516986 1.52100062 45.2516986 1.52100062 45.0432366 0.864731316 44.8347746 0.872452131 41.9085855 2.13094503 44.7189623 2.25447807 45.0741198 2.48610253 45.0741198 2.60191476 44.7112415 3.80636195 41.8390982 3.79092032 44.9119827 3.27362569 45.0355158 3.27362569 45.2516986 4.92588017 45.2516986 4.92588017 45.0432366 4.43946881 44.9119827"></polygon>
                <polygon id="Path" fill="#B1B1B1" points="6.22297715 42.4104385 5.31192094 42.5957381 5.31192094 42.8273626 5.65163681 42.935454 5.65163681 44.9119827 5.27331686 45.0355158 5.27331686 45.2516986 6.64762199 45.2516986 6.64762199 45.0355158 6.22297715 44.9197035"></polygon>
                <path d="M6.3001853,41.2831995 C6.29597964,41.0687521 6.12091241,40.8971175 5.90642372,40.8971587 C5.69358138,40.9010964 5.52081336,41.0704769 5.51266214,41.2831995 C5.54962139,41.4670787 5.71114617,41.5993679 5.8987029,41.5993679 C6.08625963,41.5993679 6.24778442,41.4670787 6.28474367,41.2831995 L6.3001853,41.2831995 Z" id="Path" fill="#B1B1B1"></path>
                <path d="M9.64329833,43.3909821 C9.64329833,42.6189006 9.38851143,42.4104385 8.83261272,42.4104385 C8.45744499,42.4477723 8.11408978,42.6375947 7.88295244,42.935454 L7.88295244,42.935454 L7.72081532,42.4104385 L7.72081532,42.4104385 L6.94873379,42.6961087 L6.94873379,42.8736875 L7.33477455,42.9663372 L7.33477455,44.9197035 L6.94873379,45.0355158 L6.94873379,45.2516986 L8.26127239,45.2516986 L8.26127239,45.0355158 L7.88295244,44.9274243 L7.88295244,43.1284744 C8.05881144,42.9542117 8.29209087,42.8499221 8.53922174,42.8350834 C8.92526251,42.8350834 9.05651637,43.058987 9.071958,43.4681902 L9.071958,44.9274243 L8.74768376,45.0355158 L8.74768376,45.2516986 L10.0370599,45.2516986 L10.0370599,45.0432366 L9.65873996,44.9274243 L9.64329833,43.3909821 Z" id="Path" fill="#B1B1B1"></path>
                <polygon id="Path" fill="#B1B1B1" points="11.2801112 42.4104385 10.369055 42.5957381 10.369055 42.8273626 10.7087708 42.935454 10.7087708 44.9119827 10.3304509 45.0355158 10.3304509 45.2516986 11.6970352 45.2516986 11.6970352 45.0355158 11.2801112 44.9197035"></polygon>
                <path d="M11.3573193,41.2831995 C11.3203601,41.0993204 11.1588353,40.9670312 10.9712786,40.9670312 C10.7837218,40.9670312 10.6221971,41.0993204 10.5852378,41.2831995 C10.5852378,41.4964039 10.7580741,41.6692403 10.9712786,41.6692403 C11.1827582,41.6651327 11.3532118,41.4946792 11.3573193,41.2831995 L11.3573193,41.2831995 Z" id="Path" fill="#B1B1B1"></path>
                <path d="M13.418777,43.6689314 L13.125386,43.5531192 C12.7702285,43.3987029 12.6621371,43.2597282 12.6621371,43.0358246 C12.663765,42.925694 12.7114448,42.8212794 12.7936043,42.7479226 C12.8757638,42.6745659 12.984892,42.6389735 13.0945028,42.6497838 C13.2380196,42.6483385 13.3774493,42.697549 13.4882644,42.7887585 L13.7353305,43.3060531 L13.92063,43.3060531 L13.92063,42.5880173 C13.6822672,42.4641165 13.4171807,42.4004958 13.1485485,42.4027177 C12.6486498,42.374653 12.2128354,42.7395209 12.1525633,43.2365658 C12.1525633,43.6071649 12.3378629,43.8233477 12.7547869,44.0086473 L13.0095738,44.1244595 C13.4264978,44.3097591 13.5500309,44.4718962 13.5500309,44.6957999 C13.5464172,44.818302 13.491885,44.9337486 13.399562,45.0143481 C13.307239,45.0949476 13.1854884,45.1333986 13.0636195,45.1204447 C12.8886904,45.1240385 12.7184683,45.0636371 12.584929,44.9505868 L12.2838172,44.2943175 L12.0753552,44.2943175 L12.1680049,45.1358863 C12.4036232,45.2715043 12.6684684,45.3483094 12.9400865,45.35979 C13.4921784,45.4107382 13.9875324,45.0205621 14.0673255,44.4718962 C14.1059296,44.147622 13.9360716,43.8928351 13.418777,43.6689314 Z" id="Path" fill="#B1B1B1"></path>
                <path d="M15.7736257,44.9197035 C15.5497221,44.9197035 15.3798641,44.9197035 15.3798641,44.4332922 L15.3798641,42.8196418 L16.1519456,42.8196418 L16.1519456,42.4644842 L15.3798641,42.4644842 L15.3798641,41.6924027 L15.1714021,41.6924027 L14.8471279,42.4104385 L14.422483,42.5262508 L14.422483,42.7810377 L14.8316862,42.7810377 L14.8316862,44.649475 C14.8316862,45.0277949 14.9629401,45.3134651 15.4416306,45.3134651 C15.7183938,45.2994569 15.9857677,45.2085498 16.2137122,45.0509574 L16.2137122,44.8888203 C16.0677944,44.9081852 15.9208179,44.9184993 15.7736257,44.9197035 L15.7736257,44.9197035 Z" id="Path" fill="#B1B1B1"></path>
                <path d="M18.1670784,42.4027177 C17.9508956,42.4027177 17.8042001,42.5416924 17.5957381,42.8273626 L17.3795553,43.1130327 L17.3795553,43.1130327 L17.3255096,42.4104385 L17.3255096,42.4104385 L16.4839407,42.6961087 L16.4839407,42.8814083 L16.8699815,42.9663372 L16.8699815,44.9119827 L16.5071032,45.0355158 L16.5071032,45.2516986 L17.9122915,45.2516986 L17.9122915,45.0355158 L17.3949969,44.9351452 L17.3949969,43.3446572 C17.5076597,43.2005281 17.6402399,43.0731471 17.7887585,42.9663372 L18.267449,43.143916 C18.3914137,43.0354171 18.4688322,42.883345 18.4836319,42.7192712 C18.493636,42.6326336 18.4635158,42.546172 18.4018467,42.4845029 C18.3401776,42.4228338 18.253716,42.3927136 18.1670784,42.4027177 L18.1670784,42.4027177 Z" id="Path" fill="#B1B1B1"></path>
                <path d="M20.4910439,42.6961087 L20.8848054,42.8273626 L20.1667696,44.7807288 L20.1667696,44.7807288 L19.4718962,42.7964793 L19.8888203,42.6961087 L19.8888203,42.4644842 L18.5299568,42.4644842 L18.5299568,42.6729463 L18.7924645,42.7733169 L19.857937,45.5528104 L19.5336628,46.3248919 L19.5336628,46.3248919 C19.4867185,46.1881001 19.3615168,46.0934355 19.2171093,46.0855466 C19.1317369,46.0831009 19.049342,46.1170248 18.9904403,46.1788716 C18.9315386,46.2407185 18.9016719,46.3246691 18.9082767,46.4098209 C18.9102663,46.5094983 18.9523328,46.6041701 19.024975,46.6724538 C19.0976172,46.7407374 19.1947076,46.7768731 19.2943175,46.7726992 C19.6185917,46.7726992 19.7652872,46.5410747 19.9505868,46.0392217 L21.2245213,42.8350834 L21.4947498,42.726992 L21.4947498,42.4644842 L20.4910439,42.4644842 L20.4910439,42.6961087 Z" id="Path" fill="#B1B1B1"></path>
                <path d="M24.1815936,42.4027177 C23.7914645,42.4184544 23.4243419,42.5915277 23.1639517,42.8824664 C22.9035616,43.1734051 22.772107,43.5574013 22.7995676,43.9468808 C22.7728071,44.324436 22.9084268,44.6954697 23.1723569,44.9667721 C23.436287,45.2380745 23.8034445,45.3838622 24.1815936,45.3675108 C24.5724857,45.3539183 24.9409223,45.1814751 25.2017673,44.8900282 C25.4626123,44.5985812 25.5932955,44.2133487 25.5636195,43.8233477 C25.6009419,43.4432024 25.4688106,43.0659323 25.2024605,42.7921422 C24.9361103,42.5183521 24.5626227,42.3758798 24.1815936,42.4027177 L24.1815936,42.4027177 Z M24.2588017,45.0741198 C23.6874614,45.0741198 23.4249537,44.4024089 23.409512,43.7538604 C23.3940704,43.1053119 23.6565781,42.6806671 24.1043854,42.6806671 C24.5521927,42.6806671 24.9382335,43.143916 24.9459543,43.9777641 C24.9691167,44.5877085 24.706609,45.066399 24.2588017,45.0741198 Z" id="Shape" fill="#B1B1B1"></path>
                <path d="M27.6173564,40.9203212 C26.8437869,41.0054948 26.2769236,41.6884627 26.3357011,42.4644842 L26.3357011,42.4644842 L25.9264978,42.5802965 L25.9264978,42.8350834 L26.3357011,42.8350834 L26.3357011,44.9583076 L25.9728227,45.0741198 L25.9728227,45.2903027 L27.4320568,45.2903027 L27.4320568,45.0741198 L26.9070414,44.9583076 L26.9070414,42.8042001 L27.6791229,42.8042001 L27.6791229,42.4644842 L26.9070414,42.4644842 L26.9070414,42.0089561 C26.9070414,41.3681285 27.1772699,41.1442248 27.4938233,41.1442248 C27.5824267,41.1445006 27.6697169,41.1656618 27.7486103,41.2059914 L27.8953057,41.7155652 C27.9489828,41.7244925 28.0037658,41.7244925 28.0574429,41.7155652 C28.1447438,41.7200512 28.2298565,41.6873297 28.2916691,41.6255171 C28.3534816,41.5637046 28.3862031,41.4785919 28.3817171,41.3912909 C28.3817171,41.1751081 28.0883261,40.9203212 27.6173564,40.9203212 Z" id="Path" fill="#B1B1B1"></path>
                <polygon id="Path" fill="#B1B1B1" points="30.350525 41.7310068 30.8446572 41.5920321 30.8446572 41.3835701 29.2155652 41.3835701 29.2155652 41.5920321 29.7096973 41.7310068 29.7096973 44.9119827 29.2155652 45.0355158 29.2155652 45.2516986 30.852378 45.2516986 30.852378 45.0432366 30.350525 44.9119827"></polygon>
                <path d="M33.9715874,43.3909821 C33.9715874,42.6189006 33.7090797,42.4104385 33.153181,42.4104385 C32.7788314,42.4503812 32.4364323,42.639675 32.2035207,42.935454 L32.2035207,42.935454 L32.0799876,42.4104385 L32.0799876,42.4104385 L31.3079061,42.6961087 L31.3079061,42.8736875 L31.6939469,42.9663372 L31.6939469,44.9197035 L31.3310686,45.0355158 L31.3310686,45.2516986 L32.6436072,45.2516986 L32.6436072,45.0355158 L32.2652872,44.9274243 L32.2652872,43.1284744 C32.439892,42.9523895 32.6739041,42.8477724 32.9215565,42.8350834 C33.2998765,42.8350834 33.4311303,43.058987 33.4542928,43.4681902 L33.4542928,44.9274243 L33.1222977,45.0355158 L33.1222977,45.2516986 L34.4039531,45.2516986 L34.4039531,45.0432366 L33.9715874,44.9274243 L33.9715874,43.3909821 Z" id="Path" fill="#B1B1B1"></path>
                <path d="M37.1834466,40.9203212 L36.0716492,41.0747375 L36.0716492,41.2754787 L36.6121062,41.3835701 L36.6121062,42.4644842 C36.4560417,42.4224862 36.2950293,42.4017104 36.1334157,42.4027177 C35.7193955,42.4059057 35.3251621,42.5803252 35.0443322,42.8845577 C34.7635022,43.1887901 34.6211282,43.5956952 34.6510191,44.0086473 C34.6164147,44.3435782 34.7235904,44.6777025 34.9465615,44.930012 C35.1695326,45.1823214 35.487939,45.3297768 35.8245831,45.3366275 C36.1529167,45.3287751 36.4609787,45.1761573 36.6661519,44.9197035 L36.8205683,45.3211859 L37.6466955,45.2053737 L37.6466955,44.9969117 L37.1834466,44.8810994 L37.1834466,40.9203212 Z M36.6121062,44.7807288 C36.4808526,44.8723543 36.3243654,44.9209193 36.1642989,44.9197258 C35.4694256,44.9197258 35.2300803,44.3174799 35.2300803,43.7152563 C35.2300803,43.1130327 35.577517,42.6883879 36.0021618,42.6883879 C36.2580988,42.7041028 36.4895354,42.8458577 36.6198271,43.0667078 L36.6121062,44.7807288 Z" id="Shape" fill="#B1B1B1"></path>
                <path d="M40.5883261,42.4644842 L39.5460161,42.5648548 L39.5460161,42.7887585 L40.009265,42.8891291 L40.009265,44.6957999 C39.8521161,44.8449282 39.646606,44.9326126 39.4302038,44.942866 C39.0441631,44.942866 38.8588635,44.7266831 38.8434219,44.2634342 L38.8434219,42.4644842 L37.8319951,42.5339716 L37.8319951,42.7578752 L38.2411983,42.8659666 L38.2411983,44.3329216 C38.2411983,45.0046325 38.5423101,45.3520692 39.0132798,45.3520692 C39.3896464,45.33506 39.740818,45.1580696 39.9783817,44.8656578 L40.1636813,45.3366275 L40.9898085,45.2130945 L40.9898085,44.9969117 L40.5342804,44.8888203 L40.5883261,42.4644842 Z" id="Path" fill="#B1B1B1"></path>
                <path d="M42.7115503,43.6689314 L42.4644842,43.5531192 C42.1170476,43.3987029 42.0012353,43.2597282 42.0012353,43.0358246 C42.0028632,42.925694 42.050543,42.8212794 42.1327025,42.7479226 C42.214862,42.6745659 42.3239902,42.6389735 42.433601,42.6497838 C42.5771178,42.6483385 42.7165475,42.697549 42.8273626,42.7887585 L43.0744287,43.3060531 L43.2365658,43.3060531 L43.2365658,42.5880173 C43.0098976,42.4698218 42.7586962,42.4063604 42.5030883,42.4027177 C41.9815414,42.343725 41.5097364,42.7156589 41.4453366,43.2365658 C41.4453366,43.6071649 41.6306362,43.8233477 42.0475602,44.0086473 L42.3023471,44.1244595 C42.7192712,44.3097591 42.8428042,44.4718962 42.8428042,44.6957999 C42.8415699,44.8191323 42.7877218,44.9360667 42.6948088,45.0171813 C42.6018957,45.0982959 42.4787633,45.1358682 42.3563928,45.1204447 C42.1822388,45.1194345 42.0135417,45.0595743 41.8777023,44.9505868 L41.5765905,44.2943175 L41.3681285,44.2943175 L41.4684991,45.1358863 C41.7031152,45.2738447 41.9685571,45.3508228 42.2405806,45.35979 C42.7926725,45.4107382 43.2880265,45.0205621 43.3678196,44.4718962 C43.3987029,44.147622 43.2365658,43.8928351 42.7115503,43.6689314 Z" id="Path" fill="#B1B1B1"></path>
                <path d="M45.066399,44.9197035 C44.8502162,44.9197035 44.6726374,44.9197035 44.6726374,44.4332922 L44.6726374,42.8196418 L45.444719,42.8196418 L45.444719,42.4644842 L44.6726374,42.4644842 L44.6726374,41.6924027 L44.4641754,41.6924027 L44.1399012,42.4104385 L43.7152563,42.5262508 L43.7152563,42.7810377 L44.1244595,42.7810377 L44.1244595,44.649475 C44.1244595,45.0277949 44.2557134,45.3134651 44.734404,45.3134651 C45.0270677,45.3082434 45.3117122,45.2169423 45.5528104,45.0509574 L45.5142063,44.8888203 C45.3657336,44.9085057 45.2161684,44.9188206 45.066399,44.9197035 L45.066399,44.9197035 Z" id="Path" fill="#B1B1B1"></path>
                <path d="M47.4598518,42.4027177 C47.2436689,42.4027177 47.1046943,42.5416924 46.8885114,42.8273626 L46.6723286,43.1130327 L46.6723286,43.1130327 L46.6182829,42.4104385 L46.6182829,42.4104385 L45.7689932,42.6961087 L45.7689932,42.8814083 L46.155034,42.9663372 L46.155034,44.9119827 L45.7921557,45.0355158 L45.7921557,45.2516986 L47.2513897,45.2516986 L47.2513897,45.0355158 L46.7263743,44.9351452 L46.7263743,43.3446572 C46.8390371,43.2005281 46.9716173,43.0731471 47.1201359,42.9663372 L47.6065473,43.143916 C47.7276484,43.0341339 47.8022217,42.8822254 47.8150093,42.7192712 C47.8284641,42.624589 47.7936486,42.5294549 47.722257,42.4658232 C47.6508654,42.4021916 47.5523691,42.3785043 47.4598518,42.4027177 L47.4598518,42.4027177 Z" id="Path" fill="#B1B1B1"></path>
                <path d="M49.7838172,42.6961087 L50.1775788,42.8273626 L49.4595429,44.7807288 L49.4595429,44.7807288 L48.7723904,42.7964793 L49.1893144,42.6961087 L49.1893144,42.4644842 L47.869055,42.4644842 L47.869055,42.6729463 L48.1315627,42.7733169 L49.1507103,45.5528104 L48.8341569,46.3248919 L48.8341569,46.3248919 C48.7872126,46.1881001 48.6620109,46.0934355 48.5176035,46.0855466 C48.432231,46.0831009 48.3498362,46.1170248 48.2909344,46.1788716 C48.2320327,46.2407185 48.202166,46.3246691 48.2087708,46.4098209 C48.2127837,46.5101866 48.256545,46.6048365 48.3304085,46.6729068 C48.404272,46.7409771 48.5021735,46.7768792 48.6025324,46.7726992 C48.9190859,46.7726992 49.0657813,46.5410747 49.2588017,46.0392217 L50.5250154,42.8350834 L50.795244,42.726992 L50.795244,42.4644842 L49.7838172,42.4644842 L49.7838172,42.6961087 Z" id="Path" fill="#B1B1B1"></path>
                <path d="M54.2850525,44.8193329 L54.2850525,43.2751699 C54.2850525,42.6806671 54.0302656,42.3949969 53.4126004,42.3949969 C52.7949351,42.3949969 52.2467573,42.8273626 52.2467573,43.1130327 C52.2435571,43.1891906 52.2746229,43.2627809 52.3314289,43.3136073 C52.388235,43.3644338 52.4648135,43.3871569 52.5401482,43.3755405 C52.6273791,43.3852932 52.7154251,43.3852932 52.802656,43.3755405 L52.802656,42.7887585 C52.908471,42.7282608 53.0282044,42.6963319 53.1500926,42.6961087 C53.4666461,42.6961087 53.6673873,42.9122915 53.6828289,43.3755405 L53.6828289,43.6612106 L53.0728845,43.8156269 C52.4861025,43.9700432 52.1386658,44.1785053 52.1386658,44.649475 C52.1364519,44.8391871 52.2119056,45.0215548 52.3475117,45.1542446 C52.4831178,45.2869344 52.6670825,45.3584063 52.8567017,45.3520692 C53.2350216,45.3520692 53.3894379,45.1744904 53.6828289,44.8733786 L53.6828289,44.8733786 C53.6692011,44.9965256 53.7100363,45.1194826 53.7946276,45.2100101 C53.8792188,45.3005375 53.9991282,45.3496055 54.1229154,45.3443484 C54.3289334,45.3248979 54.5300509,45.2700477 54.7174182,45.1822112 L54.7174182,45.0046325 L54.4471896,45.0046325 C54.3236566,44.9891909 54.2850525,44.9505868 54.2850525,44.8193329 Z M53.7059914,44.6340334 C53.6039088,44.801887 53.4236831,44.9065342 53.2273008,44.9119827 C53.1060252,44.9206929 52.986687,44.8779365 52.8985357,44.7941928 C52.8103845,44.7104491 52.7615683,44.5934589 52.7640519,44.4718962 C52.7640519,44.232551 52.926189,44.1244595 53.2118592,44.0163681 L53.7059914,43.854231 L53.7059914,44.6340334 Z" id="Shape" fill="#B1B1B1"></path>
                <path d="M57.7362569,43.3909821 C57.7362569,42.6189006 57.48147,42.4104385 56.9641754,42.4104385 C56.5890077,42.4477723 56.2456525,42.6375947 56.0145151,42.935454 L56.0145151,42.935454 L55.8909821,42.4104385 L55.8909821,42.4104385 L55.1189006,42.6961087 L55.1189006,42.8736875 L55.5049413,42.9663372 L55.5049413,44.9197035 L55.142063,45.0355158 L55.142063,45.2516986 L56.3619518,45.2516986 L56.3619518,45.0355158 L55.9836319,44.9274243 L55.9836319,43.1284744 C56.1569062,42.950475 56.3917094,42.8455042 56.6399012,42.8350834 C57.0182211,42.8350834 57.149475,43.058987 57.1649166,43.4681902 L57.1649166,44.9274243 L56.8406424,45.0355158 L56.8406424,45.2516986 L58.1222977,45.2516986 L58.1222977,45.0432366 L57.7362569,44.9274243 L57.7362569,43.3909821 Z" id="Path" fill="#B1B1B1"></path>
                <path d="M60.994441,40.9203212 L59.8826436,41.0747375 L59.8826436,41.2754787 L60.4231007,41.3835701 L60.4231007,42.4644842 C60.2644869,42.4220748 60.1008687,42.4012979 59.9366893,42.4027177 C59.5232653,42.4057506 59.1296843,42.5804084 58.8500509,42.8849306 C58.5704175,43.1894528 58.4298702,43.5964636 58.4620136,44.0086473 C58.4274091,44.3435782 58.5345848,44.6777025 58.757556,44.930012 C58.9805271,45.1823214 59.2989335,45.3297768 59.6355775,45.3366275 C59.9639111,45.3287751 60.2719731,45.1761573 60.4771464,44.9197035 L60.6238419,45.3211859 L61.4499691,45.2053737 L61.4499691,44.9969117 L60.994441,44.8888203 L60.994441,40.9203212 Z M60.4231007,44.7807288 C60.2896963,44.8738982 60.1302662,44.9225379 59.9675726,44.9197035 C59.28042,44.9197035 59.0333539,44.3174799 59.0333539,43.7152563 C59.0333539,43.1130327 59.3885114,42.6883879 59.8054355,42.6883879 C60.0613725,42.7041028 60.292809,42.8458577 60.4231007,43.0667078 L60.4231007,44.7807288 Z" id="Shape" fill="#B1B1B1"></path>
                <polygon id="Path" fill="#B1B1B1" points="67.3795553 41.7310068 67.8659666 41.5920321 67.8659666 41.3835701 66.553428 41.3835701 66.5225448 41.6537986 65.5033972 44.1553428 64.2757875 41.3835701 63.001853 41.3835701 63.001853 41.5920321 63.4959852 41.7310068 63.4805435 44.9042619 62.9864114 45.0432366 62.9864114 45.2516986 64.4765287 45.2516986 64.4765287 45.0432366 63.8202594 44.8347746 63.8279802 41.9085855 65.0864731 44.7189623 65.217727 45.0741198 65.4416306 45.0741198 65.5651637 44.7112415 66.7618901 41.8390982 66.7464484 44.9119827 66.2291538 45.0355158 66.2291538 45.2516986 67.8814083 45.2516986 67.8814083 45.0432366 67.3949969 44.9119827"></polygon>
                <path d="M68.4759111,41.2831995 C68.4727746,41.4431265 68.5666974,41.5890588 68.7135598,41.6524457 C68.8604223,41.7158326 69.0310367,41.6840766 69.1452582,41.5720948 C69.2594796,41.4601129 69.2946076,41.2901607 69.234141,41.142072 C69.1736744,40.9939834 69.0296303,40.8971895 68.8696726,40.8971587 C68.655184,40.8971175 68.4801167,41.0687521 68.4759111,41.2831995 L68.4759111,41.2831995 Z" id="Path" fill="#B1B1B1"></path>
                <polygon id="Path" fill="#B1B1B1" points="69.1785053 42.4104385 68.267449 42.5957381 68.267449 42.8273626 68.6148857 42.935454 68.6148857 44.9119827 68.228845 45.0355158 68.228845 45.2516986 69.6031501 45.2516986 69.6031501 45.0355158 69.1785053 44.9197035"></polygon>
                <path d="M72.575664,43.3909821 C72.575664,42.6189006 72.3131563,42.4104385 71.7572576,42.4104385 C71.382908,42.4503812 71.0405089,42.639675 70.8075973,42.935454 L70.8075973,42.935454 L70.6840642,42.4104385 L70.6840642,42.4104385 L69.9119827,42.6961087 L69.9119827,42.8736875 L70.2980235,42.9663372 L70.2980235,44.9197035 L69.9351452,45.0355158 L69.9351452,45.2516986 L71.2476838,45.2516986 L71.2476838,45.0355158 L70.8693638,44.9274243 L70.8693638,43.1284744 C71.0439686,42.9523895 71.2779807,42.8477724 71.5256331,42.8350834 C71.9039531,42.8350834 72.0352069,43.058987 72.0583694,43.4681902 L72.0583694,44.9274243 L71.7263743,45.0355158 L71.7263743,45.2516986 L73.0080296,45.2516986 L73.0080296,45.0432366 L72.575664,44.9274243 L72.575664,43.3909821 Z" id="Path" fill="#B1B1B1"></path>
                <path d="M74.8919086,44.8656578 C74.2974058,44.8656578 73.8804818,44.4332922 73.8804818,43.6843731 L75.8029648,43.6843731 C75.8029648,42.9122915 75.4246448,42.4104385 74.7452131,42.4104385 C74.3428985,42.423344 73.9640076,42.6027322 73.699049,42.9057512 C73.4340903,43.2087702 73.3068582,43.6082077 73.3477455,44.0086473 C73.306158,44.6385347 73.7294153,45.2049096 74.3452775,45.3434786 C74.9611398,45.4820476 75.586195,45.151543 75.8184064,44.564546 L75.6639901,44.4487338 C75.4746746,44.6876839 75.1955453,44.8384137 74.8919086,44.8656578 L74.8919086,44.8656578 Z M74.6062384,42.6883879 C74.9845584,42.6883879 75.1544163,43.0435454 75.1544163,43.4604694 L73.8881961,43.4604694 C73.8865768,43.059786 74.1917358,42.7244464 74.5907968,42.6883879 L74.6062384,42.6883879 Z" id="Shape" fill="#B1B1B1"></path>
                <path d="M77.9802347,42.4027177 C77.7640519,42.4027177 77.6173564,42.5416924 77.4088944,42.8273626 L77.1849907,43.1130327 L77.1849907,43.1130327 L77.130945,42.4104385 L77.130945,42.4104385 L76.2893762,42.6961087 L76.2893762,42.8814083 L76.6754169,42.9663372 L76.6754169,44.9119827 L76.3125386,45.0355158 L76.3125386,45.2516986 L77.7640519,45.2516986 L77.7640519,45.0355158 L77.2081532,44.9351452 L77.2081532,43.3446572 C77.320816,43.2005281 77.4533962,43.0731471 77.6019148,42.9663372 L78.0806053,43.143916 C78.2017065,43.0341339 78.2762798,42.8822254 78.2890673,42.7192712 C78.2986596,42.6341124 78.2695143,42.5491459 78.2096699,42.4878053 C78.1498254,42.4264647 78.0656043,42.3952308 77.9802347,42.4027177 L77.9802347,42.4027177 Z" id="Path" fill="#B1B1B1"></path>
                <path d="M80.6361952,44.8193329 L80.6361952,43.2751699 C80.6361952,42.6806671 80.3814083,42.3949969 79.7560222,42.3949969 C79.1306362,42.3949969 78.5978999,42.8273626 78.5978999,43.1130327 C78.5978999,43.2751699 78.6982705,43.3755405 78.8912909,43.3755405 C78.9785513,43.3847482 79.0665383,43.3847482 79.1537986,43.3755405 L79.1537986,42.7887585 C79.2566355,42.7278648 79.3740014,42.695856 79.4935145,42.6961087 C79.8177888,42.6961087 80.0108091,42.9122915 80.0339716,43.3755405 L80.0339716,43.6612106 L79.4240272,43.8156269 C78.8295244,43.9700432 78.4898085,44.1785053 78.4898085,44.649475 C78.4875946,44.8391871 78.5630483,45.0215548 78.6986544,45.1542446 C78.8342605,45.2869344 79.0182252,45.3584063 79.2078443,45.3520692 C79.5861643,45.3520692 79.7328598,45.1744904 80.0339716,44.8733786 L80.0339716,44.8733786 C80.0339716,45.1281655 80.1652254,45.3443484 80.4817789,45.3443484 C80.6851636,45.3240303 80.8835982,45.2691996 81.0685608,45.1822112 L81.0685608,45.0046325 L80.7983323,45.0046325 C80.6670784,44.9891909 80.6361952,44.9505868 80.6361952,44.8193329 Z M80.057134,44.6340334 C79.9496523,44.8000675 79.7683351,44.9036773 79.5707227,44.9119827 C79.449447,44.9206929 79.3301088,44.8779365 79.2419576,44.7941928 C79.1538063,44.7104491 79.1049901,44.5934589 79.1074737,44.4718962 C79.1074737,44.232551 79.2696109,44.1244595 79.5630019,44.0163681 L80.057134,43.854231 L80.057134,44.6340334 Z" id="Shape" fill="#B1B1B1"></path>
                <polygon id="Path" fill="#B1B1B1" points="82.3116121 40.9048796 81.3619518 41.0978999 81.3619518 41.306362 81.7402718 41.4144534 81.7402718 44.9197035 81.3773935 45.0355158 81.3773935 45.2516986 82.7130945 45.2516986 82.7130945 45.0355158 82.3116121 44.9274243"></polygon>
                <path d="M86.4731316,43.3369364 L86.4731316,43.3369364 C86.9749846,43.1593576 87.3378629,42.850525 87.3378629,42.3409512 C87.3378629,41.8313774 86.7665225,41.3526868 85.662446,41.3681285 L84.2649784,41.3681285 L84.2649784,41.5765905 L84.7591106,41.7155652 L84.7591106,44.8965411 L84.2649784,45.0200741 L84.2649784,45.2362569 L85.870908,45.2362569 L85.870908,45.0277949 L85.3922174,44.8965411 L85.3922174,43.5299568 L85.8631872,43.5299568 L86.1102532,43.9005559 L87.0753552,45.274861 L88.0790611,45.274861 L88.0790611,45.066399 L87.5772082,44.942866 L86.4731316,43.3369364 Z M85.8400247,43.2751699 L85.3922174,43.2751699 L85.3922174,41.5843113 C86.2106238,41.5843113 86.6661519,41.9085855 86.6661519,42.4567634 C86.6500053,42.9048775 86.2882706,43.2632314 85.8400247,43.2751699 L85.8400247,43.2751699 Z" id="Shape" fill="#B1B1B1"></path>
                <path d="M89.6618283,44.8656578 C89.0673255,44.8656578 88.6504015,44.4332922 88.6504015,43.6843731 L90.5728845,43.6843731 C90.5728845,42.9122915 90.1945645,42.4104385 89.5151328,42.4104385 C89.1224083,42.4243125 88.7518788,42.5959964 88.4873943,42.8866388 C88.2229098,43.1772811 88.0868282,43.5623126 88.1099444,43.9546016 C88.0908514,44.3104866 88.2190332,44.6585491 88.4643861,44.917046 C88.7097391,45.1755428 89.0506449,45.3216977 89.4070414,45.3211873 C89.9157164,45.3098218 90.3737563,45.0104493 90.5883261,44.5491044 L90.4647931,44.4641754 C90.2654691,44.704919 89.9740175,44.8506448 89.6618283,44.8656578 L89.6618283,44.8656578 Z M89.3761581,42.6883879 C89.7544781,42.6883879 89.924336,43.0435454 89.924336,43.4604694 L88.6735575,43.4604694 C88.6719381,43.059786 88.9770972,42.7244464 89.3761581,42.6883879 L89.3761581,42.6883879 Z" id="Shape" fill="#B1B1B1"></path>
                <path d="M92.4258802,43.6689314 L92.1556516,43.5531192 C91.8082149,43.3987029 91.7001235,43.2597282 91.7001235,43.0358246 C91.6995748,42.9263867 91.7455019,42.8218588 91.8264803,42.748242 C91.9074588,42.6746252 92.0158779,42.6388385 92.1247684,42.6497838 C92.2708189,42.6471773 92.4130668,42.696417 92.5262508,42.7887585 L92.765596,43.3060531 L92.9508956,43.3060531 L92.9508956,42.5880173 C92.7126441,42.463819 92.4474822,42.4001801 92.1788141,42.4027177 C91.6702637,42.3617777 91.2202402,42.7299787 91.1596665,43.2365658 C91.1596665,43.6071649 91.344966,43.8233477 91.7618901,44.0086473 L92.016677,44.1244595 C92.4258802,44.3097591 92.557134,44.4718962 92.557134,44.6957999 C92.5535204,44.818302 92.4989882,44.9337486 92.4066651,45.0143481 C92.3143421,45.0949476 92.1925915,45.1333986 92.0707227,45.1204447 C91.8955601,45.1255022 91.72483,45.0649205 91.5920321,44.9505868 L91.2909203,44.2943175 L91.1056208,44.2943175 L91.1982705,45.1358863 C91.4333989,45.2726521 91.6985338,45.3495412 91.9703521,45.35979 C92.522444,45.4107382 93.017798,45.0205621 93.0975911,44.4718962 C93.1130327,44.147622 92.9431748,43.8928351 92.4258802,43.6689314 Z" id="Path" fill="#B1B1B1"></path>
                <path d="M94.9660284,42.4027177 C94.5758993,42.4184544 94.2087767,42.5915277 93.9483866,42.8824664 C93.6879964,43.1734051 93.5565419,43.5574013 93.5840025,43.9468808 C93.5664951,44.3198967 93.7059376,44.683209 93.968519,44.9487243 C94.2311004,45.2142396 94.592841,45.3577102 94.9660284,45.3443484 C95.3582824,45.3328156 95.7287304,45.1612644 95.9912479,44.8695783 C96.2537653,44.5778922 96.3854819,44.1914827 96.3557752,43.8001853 C96.3834918,43.4231053 96.2462792,43.0525434 95.9796657,42.7844487 C95.7130522,42.516354 95.3432562,42.3770906 94.9660284,42.4027177 L94.9660284,42.4027177 Z M95.0509574,45.0741198 C94.4718962,45.0741198 94.2171093,44.4024089 94.1939469,43.7538604 C94.1707844,43.1053119 94.441013,42.6806671 94.8965411,42.6806671 C95.3520692,42.6806671 95.7381099,43.143916 95.7381099,44.0086473 C95.7381099,44.5877085 95.4910439,45.066399 95.0509574,45.0741198 Z" id="Shape" fill="#B1B1B1"></path>
                <path d="M99.3514515,42.4644842 L98.3091414,42.5648548 L98.3091414,42.7887585 L98.7723904,42.8891291 L98.7723904,44.6957999 C98.6152415,44.8449282 98.4097314,44.9326126 98.1933292,44.942866 C97.8072884,44.942866 97.6219889,44.7266831 97.6065473,44.2634342 L97.6065473,42.4644842 L96.6337245,42.5725757 L96.6337245,42.7964793 L97.0352069,42.9045707 L97.0352069,44.3715256 C97.0352069,45.0432366 97.3363187,45.3906733 97.8072884,45.3906733 C98.1836551,45.3736641 98.5348267,45.1966736 98.7723904,44.9042619 L98.9576899,45.3752316 L99.7838172,45.2516986 L99.7838172,45.0355158 L99.3282891,44.9274243 L99.3514515,42.4644842 Z" id="Path" fill="#B1B1B1"></path>
                <path d="M101.744904,42.4027177 C101.528721,42.4027177 101.382026,42.5416924 101.165843,42.8273626 L100.94966,43.1130327 L100.94966,43.1130327 L100.895615,42.4104385 L100.895615,42.4104385 L100.054046,42.6961087 L100.054046,42.8814083 L100.432366,42.9663372 L100.432366,44.9119827 L100.077208,45.0355158 L100.077208,45.2516986 L101.528721,45.2516986 L101.528721,45.0355158 L101.011427,44.9351452 L101.011427,43.3446572 C101.121649,43.2010001 101.251613,43.0736349 101.397468,42.9663372 L101.883879,43.143916 C102.00498,43.0341339 102.079553,42.8822254 102.092341,42.7192712 C102.104894,42.6262903 102.07099,42.5330728 102.001635,42.4698829 C101.932281,42.4066931 101.836318,42.3815878 101.744904,42.4027177 L101.744904,42.4027177 Z" id="Path" fill="#B1B1B1"></path>
                <path d="M103.814083,44.8888203 C103.524701,44.8674137 103.256321,44.7297373 103.070129,44.5071791 C102.883936,44.2846209 102.795802,43.9961509 102.825818,43.7075355 C102.825818,43.1361952 103.150093,42.6806671 103.5979,42.6806671 C103.71264,42.6696603 103.82756,42.6997584 103.922174,42.765596 L104.007103,43.3369364 C104.079081,43.3418157 104.151308,43.3418157 104.223286,43.3369364 C104.313485,43.34192 104.401344,43.307161 104.463719,43.2418155 C104.526094,43.17647 104.556731,43.0870903 104.54756,42.9972205 C104.54756,42.6652254 104.192403,42.3949969 103.69055,42.3949969 C102.864984,42.4321846 102.215037,43.1127579 102.215874,43.93916 C102.183076,44.2938483 102.302119,44.6458228 102.543479,44.9077865 C102.784838,45.1697502 103.125905,45.3171636 103.482088,45.3134651 C103.95496,45.3102268 104.381581,45.0288384 104.570723,44.5954293 L104.45491,44.5027795 C104.30506,44.7158151 104.072459,44.8559362 103.814083,44.8888203 L103.814083,44.8888203 Z" id="Path" fill="#B1B1B1"></path>
                <path d="M106.547251,44.8656578 C105.945028,44.8656578 105.535825,44.4332922 105.535825,43.6843731 L107.458308,43.6843731 C107.458308,42.9122915 107.072267,42.4104385 106.392835,42.4104385 C105.991885,42.4254293 105.615025,42.6057159 105.351747,42.9084863 C105.088468,43.2112566 104.962258,43.6095003 105.003088,44.0086473 C104.983995,44.3645323 105.112177,44.7125948 105.35753,44.9710917 C105.602883,45.2295885 105.943789,45.3757434 106.300185,45.375233 C106.808351,45.3683772 107.266301,45.0670945 107.473749,44.6031501 L107.357937,44.5182211 C107.147168,44.7408519 106.853824,44.8665708 106.547251,44.8656578 L106.547251,44.8656578 Z M106.261581,42.6883879 C106.63218,42.6883879 106.802038,43.0435454 106.809759,43.4604694 L105.558987,43.4604694 C105.55615,43.0677689 105.848545,42.7355029 106.238419,42.6883879 L106.261581,42.6883879 Z" id="Shape" fill="#B1B1B1"></path>
                <path d="M109.28042,43.6689314 L109.017912,43.5531192 C108.670476,43.3987029 108.562384,43.2597282 108.562384,43.0358246 C108.561835,42.9263867 108.607763,42.8218588 108.688741,42.748242 C108.769719,42.6746252 108.878139,42.6388385 108.987029,42.6497838 C109.132869,42.6484821 109.274686,42.6975726 109.388511,42.7887585 L109.627857,43.3060531 L109.813156,43.3060531 L109.813156,42.5880173 C109.586488,42.4698218 109.335287,42.4063604 109.079679,42.4027177 C108.555306,42.3391505 108.078524,42.7122841 108.014206,43.2365658 C108.014206,43.6071649 108.207227,43.8233477 108.61643,44.0086473 L108.871217,44.1244595 C109.288141,44.3097591 109.411674,44.4718962 109.411674,44.6957999 C109.41044,44.8191323 109.356592,44.9360667 109.263678,45.0171813 C109.170765,45.0982959 109.047633,45.1358682 108.925263,45.1204447 C108.75262,45.1243135 108.584723,45.0637604 108.454293,44.9505868 L108.153181,44.2943175 L107.936998,44.2943175 L108.037369,45.1358863 C108.271985,45.2738447 108.537427,45.3508228 108.80945,45.35979 C109.362741,45.4148164 109.86058,45.0226824 109.936689,44.4718962 C109.967573,44.147622 109.797715,43.8928351 109.28042,43.6689314 Z" id="Path" fill="#B1B1B1"></path>
                <path d="M172.174182,40.2563311 C173.718345,37.8397159 174.891909,33.3925263 175.447807,29.9953675 C174.435199,31.2222877 173.255252,32.3008731 171.942557,33.1995059 C165.889438,37.5617665 155.497221,41.6924027 148.540766,43.3214947 L148.695182,43.4759111 L148.695182,43.4759111 L148.895923,43.6689314 L148.95769,43.730698 L149.52903,44.2788758 L150.100371,44.8116121 L150.100371,44.8116121 L150.100371,44.8116121 L150.640828,45.3057443 L150.679432,45.3057443 L151.080914,45.653181 L151.412909,45.9388511 C151.840128,46.2940086 152.272493,46.6337245 152.710006,46.9579988 C152.710006,46.9579988 152.910747,47.1124151 153.235022,47.3363187 C153.559296,47.5602224 153.713712,47.6528721 153.953057,47.7918468 L154.007103,47.7918468 C155.349067,48.6520111 156.860619,49.2129181 158.438851,49.4363805 C159.083261,49.5027678 159.734384,49.4263202 160.345893,49.2124768 L160.345893,49.2124768 L160.430821,49.1738728 L160.430821,49.1738728 L160.430821,49.1738728 L160.592959,49.1738728 C164.955219,47.5525015 170.498765,42.9277332 172.174182,40.2563311 Z" id="Path" fill="#CACACA"></path>
                <path d="M153.644225,48.6797406 L153.574737,48.6334157 C153.335392,48.494441 153.088326,48.3323039 152.802656,48.162446 C152.516986,47.992588 152.254478,47.7609636 152.246757,47.7609636 C151.79895,47.4289685 151.351143,47.073811 150.918777,46.7109327 L150.57134,46.4175417 L150.162137,46.0623842 L149.544472,45.5064855 C149.189314,45.1822112 148.77239,44.8193329 148.301421,44.3329216 L147.367202,43.3987029 C138.310686,34.1877702 132.025942,19.8656578 129.941322,10.1528721 C128.456417,11.1968768 127.176562,12.5055215 126.165843,14.0132798 L126.019148,14.2371834 L126.019148,14.2371834 L125.94966,14.337554 C125.356558,15.3066333 124.999521,16.401545 124.90735,17.5339716 L124.90735,17.5339716 C124.837863,24.7683755 129.902718,37.3687461 134.102841,42.5957381 C135.264502,43.9272446 136.675652,45.018394 138.25664,45.8075973 L138.25664,45.8075973 L138.495985,45.9234095 L138.642681,45.9928968 L138.758493,46.0469426 C144.039531,48.4867202 152.323965,49.9459543 156.609018,50 C155.57205,49.678627 154.57684,49.2354476 153.644225,48.6797406 L153.644225,48.6797406 Z" id="Path" fill="#CACACA"></path>
                <path d="M125.710315,13.125386 C126.864151,11.5210346 128.310015,10.148512 129.972205,9.07967881 C131.729851,7.92436774 133.783091,7.29981813 135.88635,7.28072884 C136.110253,7.28072884 136.334157,7.28072884 136.55034,7.28072884 C141.622915,7.64360716 145.815318,12.0599135 150.648548,17.1710933 C153.675108,20.35979 156.825201,23.6642989 160.477146,26.3202594 C163.886845,28.858507 167.630786,30.9136472 171.602841,32.4274243 C174.112106,30.5898703 175.548178,28.8835701 175.748919,27.4938233 L175.748919,27.3702903 L175.748919,27.3702903 C175.818406,26.1426807 175.208462,25.2779494 173.432674,24.1121062 L173.370908,24.1121062 L173.278258,24.0194565 C172.722359,23.6565781 172.081532,23.2473749 171.4021,22.8767758 C167.664738,20.7434157 164.176593,18.200462 161.002162,15.2949351 C159.573811,13.9746757 158.137739,12.4845584 156.616739,10.9017912 C151.791229,5.86009883 146.30945,0.162137122 140.356702,0 L140.171402,0 C134.797715,0 128.072884,6.36967264 125.710315,13.125386 Z" id="Path" fill="#CACACA"></path>
            </g>
        </g>
    </g>
</svg>