<?xml version="1.0" encoding="UTF-8"?>
<svg width="100px" height="50px" viewBox="0 0 100 50" version="1.1" xmlns="http://www.w3.org/2000/svg" xmlns:xlink="http://www.w3.org/1999/xlink">
    <title>Logo-Ibtdaa</title>
    <g id="Home-page" stroke="none" stroke-width="1" fill="none" fill-rule="evenodd">
        <g id="assets" transform="translate(-1232.000000, -213.000000)" fill-rule="nonzero">
            <g id="Group" transform="translate(1232.000000, 213.000000)">
                <polyline id="Path" fill="#84CBC5" points="85.1038062 50 75.6401384 45.2941176 85.1038062 39.6193772"></polyline>
                <g fill="#CACACA" id="Combined-Shape">
                    <path d="M50.8477509,10.3806228 L54.1349481,19.9307958 C56.3347609,26.2490552 57.8704556,28.0449867 61.4630441,28.1907696 L61.4705882,28.183391 C64.1176471,28.183391 65.9688581,27.9411765 67.3010381,27.4048443 L68.6678201,19.6712803 L70.7266436,19.6712803 L70.7266436,23.2525952 C70.7266436,27.5086505 71.9031142,28.200692 76.6435986,28.200692 L76.643,28.235 L76.6955017,28.183391 C80.1211073,28.183391 83.2525952,27.7854671 85.6055363,27.1107266 C84.5847751,25.9342561 82.9584775,24.5155709 80.6055363,22.6643599 L83.7889273,15.7612457 L85.8477509,15.7612457 C87.8546713,18.4083045 89.083045,21.6782007 89.083045,24.6712803 C89.083045,27.9584775 88.3564014,31.6262976 87.5605536,34.0657439 C84.6193772,35.5882353 80.017301,36.5051903 75.2249135,36.5051903 L75.224,36.471 L75.1730104,36.5224913 C70.9688581,36.5224913 68.16609,34.0311419 67.4394464,30.2076125 L67.3010381,30.2076125 C67.0069204,31.7301038 66.6089965,33.1487889 66.0726644,34.8096886 C64.3446942,35.945669 62.5871314,36.4454089 60.5126253,36.514159 L60.5017301,36.5224913 C60.4081888,36.5224913 60.3156431,36.5215942 60.2240562,36.5197633 L60,36.5224913 L60,36.5224913 C56.5838434,36.3846709 54.5042893,34.86836 51.7474048,29.9653979 L51.6435986,29.9653979 C51.2975779,31.6782007 50.916955,33.2525952 50.3287197,35.1038062 C47.9757785,36.7647059 45.3806228,37.4048443 42.6470588,37.4048443 C36.9377163,37.3875433 34.7923875,34.550173 34.7923875,30.8304498 C34.7923875,28.5294118 35.4844291,25.9861592 36.0207612,24.4117647 L38.0795848,24.4117647 L38.1314879,25.7266436 C38.2352941,28.3737024 39.4117647,29.0484429 43.9100346,29.0484429 C46.8512111,29.0484429 49.0484429,28.650519 50.6574394,27.9238754 C50.2595156,27.1453287 49.8269896,26.2629758 49.3771626,25.2768166 L45.6055363,17.2491349 L48.7889273,10.3806228 L50.8477509,10.3806228 Z M12.1280277,15.2768166 C15.6055363,15.2768166 17.3183391,17.4740484 17.3183391,19.982699 C17.3183391,21.349481 16.8858131,23.0103806 16.0899654,24.100346 L11.0553633,21.9723183 C6.55709343,22.9065744 4.20415225,24.1176471 4.20415225,25.5536332 C4.20415225,27.266436 9.34256055,28.0968858 15.7612457,27.2145329 L18.8927336,26.7820069 L19.083045,26.9723183 L18.200692,34.3598616 L0,36.7474048 L0,34.3079585 L4.34256055,31.2802768 C2.62975779,29.6193772 1.79930796,27.8546713 1.74740484,25.899654 C1.60899654,20.4152249 6.64359862,15.2768166 12.1280277,15.2768166 Z M29.1695502,0 L29.1695502,29.2214533 L27.4048443,36.5051903 L25.3460208,36.5051903 L23.9273356,6.88581315 L27.1107266,0 L29.1695502,0 Z M99.9480969,0 L99.9480969,29.2214533 L98.183391,36.5051903 L96.1245675,36.5051903 L94.7058824,6.88581315 L97.8892734,0 L99.9480969,0 Z"></path>
                </g>
                <polygon id="Path" fill="#84CBC5" points="65.6228374 7.97577855 66.1591696 7.97577855 69.5847751 11.349481 72.8719723 7.97577855 73.4083045 7.97577855 77.5778547 12.0934256 73.5640138 16.1937716 73.0103806 16.1937716 69.5847751 12.8200692 66.3148789 16.1937716 65.7785467 16.1937716 61.6089965 12.0934256"></polygon>
            </g>
        </g>
    </g>
</svg>