<?xml version="1.0" encoding="UTF-8"?>
<svg width="31px" height="35px" viewBox="0 0 31 35" version="1.1" xmlns="http://www.w3.org/2000/svg" xmlns:xlink="http://www.w3.org/1999/xlink">
    <title>modon-new -Icon</title>
    <g id="Home-page" stroke="none" stroke-width="1" fill="none" fill-rule="evenodd">
        <g id="assets" transform="translate(-1046.000000, -323.000000)" fill-rule="nonzero">
            <g id="Group" transform="translate(1032.000000, 323.000000)">
                <g id="Path" transform="translate(14.000000, 0.000000)">
                    <polygon fill="#5BB5D9" points="9.94600575 9.43743602 9.94600575 20.5751131 3.9067402 23.5514019 3.9067402 12.4056339"></polygon>
                    <polygon fill="#5BB5D9" points="25.5521614 13.28754 25.5521614 22.1643935 27.1865196 21.3691754 27.1865196 14.090849"></polygon>
                    <polygon fill="#296A90" points="15.4836366 0 11.0544566 2.96241868 11.0544566 8.97163238 14.1405502 10.4857832 14.1405502 28.3030613 15.4836366 28.7064496"></polygon>
                    <polygon fill="#94C749" points="24.2391268 8.86760675 24.2391268 12.6263994 22.6290413 11.8381163 22.6290413 22.1875103 18.4691721 20.177504 18.4691721 12.426439 21.1530333 11.1087811 21.1530333 7.35576764"></polygon>
                    <polygon fill="#296A90" points="16.1054787 32.452528 22.0719263 35 31.0620521 35 19.1048843 31.1707011"></polygon>
                    <polygon fill="#5BB5D9" points="5.83699349 27.2223506 3.85703907 27.2223506 11.9675704 30.6852482 14.7196262 29.8657574"></polygon>
                    <polygon fill="#94C749" points="25.2030977 27.2223506 16.4707242 29.8206796 15.5194677 30.1038605 12.6240877 30.9661174 12.3489977 31.0470262 0 35 8.96700902 35 15.104521 32.37971 15.5194677 32.2017106 18.4160034 30.9661174 19.2308708 30.6170536 27.1830521 27.2223506"></polygon>
                </g>
            </g>
        </g>
    </g>
</svg>