<?xml version="1.0" encoding="UTF-8"?>
<svg width="75px" height="70px" viewBox="0 0 75 70" version="1.1" xmlns="http://www.w3.org/2000/svg" xmlns:xlink="http://www.w3.org/1999/xlink">
    <title>noun_Online Registration_4101739</title>
    <g id="Home-page" stroke="none" stroke-width="1" fill="none" fill-rule="evenodd">
        <g id="Ibtdaa--Home-Page" transform="translate(-1184.000000, -646.000000)" fill-rule="nonzero">
            <g id="Group-8" transform="translate(165.000000, 558.000000)">
                <g id="Group-5-Copy" transform="translate(16.000000, 24.000000)">
                    <g id="Services-Card-Copy-6" transform="translate(735.000000, 64.000000)">
                        <g id="Group" transform="translate(268.000000, 0.000000)">
                            <rect id="Rectangle" fill="#413157" x="72.5" y="50" width="2.5" height="7.5"></rect>
                            <path d="M73.75,0 L15,0 L15,2.5 L72.5,2.5 L72.5,10 L2.5,10 L2.5,2.5 L12.5,2.5 L12.5,0 L1.25,0 C0.559644063,0 0,0.559644063 0,1.25 L0,57.5 L2.5,57.5 L2.5,12.5 L72.5,12.5 L72.5,47.5 L75,47.5 L75,1.25 C75,0.559644063 74.4403559,0 73.75,0 Z" id="Path" fill="#413157"></path>
                            <path d="M53.5404688,55.815625 L55.5378125,57.2623437 C55.9730052,57.5775928 56.5609843,57.5794173 56.998125,57.266875 L58.8326563,55.9553125 C63.5948438,52.5504687 66.790625,47.5959375 67.8315625,42.0029687 C67.8334375,41.9928125 67.8351563,41.9825 67.836875,41.9717187 L68.734375,36.38125 C68.8245772,35.8191366 68.5235609,35.2670806 68.0021875,35.0384375 L56.7521875,30.1051562 C56.4321728,29.9650021 56.0681397,29.9650021 55.748125,30.1051562 L44.498125,35.0385937 C43.976943,35.2671911 43.6759654,35.8189834 43.7659375,36.3809375 L44.6526563,41.9176562 C44.654375,41.928125 44.65625,41.93875 44.6582813,41.9489062 C45.6915625,47.4909375 48.8460938,52.4154687 53.5404688,55.815625 Z M46.3870313,36.940625 L56.25,32.6148437 L66.1123438,36.9396875 L65.370625,41.560625 C64.445625,46.5082812 61.6076563,50.8978125 57.3782813,53.9215625 L56.275625,54.71 L55.0067188,53.7909375 C50.8376563,50.7714062 48.0367188,46.4092187 47.1182813,41.50625 L46.3870313,36.940625 Z" id="Shape" fill="#76E8DD"></path>
                            <path d="M55,47.500001 C55.3316073,47.5004255 55.6497107,47.3686743 55.8839062,47.1339063 L63.3839062,39.6339063 L61.6160937,37.8660938 L55,44.4823438 L52.1339062,41.6160938 L50.3660937,43.3839063 L54.1160937,47.1339063 C54.3502893,47.3686743 54.6683927,47.5004255 55,47.500001 Z" id="Path" fill="#76E8DD"></path>
                            <rect id="Rectangle" fill="#413157" x="67.5" y="5" width="2.5" height="2.5"></rect>
                            <rect id="Rectangle" fill="#413157" x="15" y="5" width="2.5" height="2.5"></rect>
                            <rect id="Rectangle" fill="#413157" x="5" y="5" width="2.5" height="2.5"></rect>
                            <rect id="Rectangle" fill="#413157" x="10" y="5" width="2.5" height="2.5"></rect>
                            <path d="M73.75,60 L50,60 C49.6684748,60 49.3505235,60.131676 49.1160938,60.3660938 L46.9823437,62.5 L28.0176562,62.5 L25.8839062,60.3660938 C25.6494765,60.131676 25.3315252,60 25,60 L1.25,60 C0.559644063,60 0,60.5596441 0,61.25 L0,65.625 C0.00275539748,68.0401035 1.95989646,69.9972446 4.375,70 L70.625,70 C73.0401035,69.9972446 74.9972446,68.0401035 75,65.625 L75,61.25 C75,60.9184794 74.8683039,60.600537 74.6338835,60.3661165 C74.399463,60.1316961 74.0815206,60 73.75,60 Z M72.5,65.625 C72.4988805,66.6600698 71.6600698,67.4988805 70.625,67.5 L4.375,67.5 C3.33993016,67.4988805 2.50111951,66.6600698 2.5,65.625 L2.5,62.5 L24.4823438,62.5 L26.6160938,64.6339063 C26.8505235,64.868324 27.1684748,65.0000121 27.5,65 L47.5,65 C47.8315252,65.0000121 48.1494765,64.868324 48.3839063,64.6339063 L50.5176563,62.5 L72.5,62.5 L72.5,65.625 Z" id="Shape" fill="#413157"></path>
                            <path d="M67.5,15 L7.5,15 C6.80964406,15 6.25,15.5596441 6.25,16.25 L6.25,26.25 C6.25,26.9403559 6.80964406,27.5 7.5,27.5 L67.5,27.5 C68.1903559,27.5 68.75,26.9403559 68.75,26.25 L68.75,16.25 C68.75,15.5596441 68.1903559,15 67.5,15 Z M66.25,25 L8.75,25 L8.75,17.5 L66.25,17.5 L66.25,25 Z" id="Shape" fill="#413157"></path>
                            <rect id="Rectangle" fill="#413157" x="41.25" y="30" width="5" height="2.5"></rect>
                            <rect id="Rectangle" fill="#413157" x="16.25" y="30" width="22.5" height="2.5"></rect>
                            <rect id="Rectangle" fill="#413157" x="16.25" y="35" width="5" height="2.5"></rect>
                            <rect id="Rectangle" fill="#413157" x="23.75" y="35" width="17.5" height="2.5"></rect>
                            <path d="M10,37.5 C12.0710678,37.5 13.75,35.8210678 13.75,33.75 C13.75,31.6789322 12.0710678,30 10,30 C7.92893219,30 6.25,31.6789322 6.25,33.75 C6.25232495,35.820104 7.92989598,37.4976751 10,37.5 L10,37.5 Z M10,32.5 C10.6903559,32.5 11.25,33.0596441 11.25,33.75 C11.25,34.4403559 10.6903559,35 10,35 C9.30964406,35 8.75,34.4403559 8.75,33.75 C8.75077498,33.0599653 9.30996533,32.500775 10,32.5 L10,32.5 Z" id="Shape" fill="#413157"></path>
                            <rect id="Rectangle" fill="#413157" x="38.75" y="40" width="2.5" height="2.5"></rect>
                            <rect id="Rectangle" fill="#413157" x="16.25" y="40" width="20" height="2.5"></rect>
                            <rect id="Rectangle" fill="#413157" x="16.25" y="45" width="12.5" height="2.5"></rect>
                            <rect id="Rectangle" fill="#413157" x="31.25" y="45" width="11.25" height="2.5"></rect>
                            <path d="M10,47.5 C12.0710678,47.5 13.75,45.8210678 13.75,43.75 C13.75,41.6789322 12.0710678,40 10,40 C7.92893219,40 6.25,41.6789322 6.25,43.75 C6.25232495,45.820104 7.92989598,47.4976751 10,47.5 L10,47.5 Z M10,42.5 C10.6903559,42.5 11.25,43.0596441 11.25,43.75 C11.25,44.4403559 10.6903559,45 10,45 C9.30964406,45 8.75,44.4403559 8.75,43.75 C8.75077498,43.0599653 9.30996533,42.500775 10,42.5 L10,42.5 Z" id="Shape" fill="#413157"></path>
                            <rect id="Rectangle" fill="#413157" x="37.5" y="50" width="7.5" height="2.5"></rect>
                            <rect id="Rectangle" fill="#413157" x="16.25" y="50" width="18.75" height="2.5"></rect>
                            <rect id="Rectangle" fill="#413157" x="16.25" y="55" width="8.75" height="2.5"></rect>
                            <rect id="Rectangle" fill="#413157" x="27.5" y="55" width="21.25" height="2.5"></rect>
                            <path d="M10,57.5 C11.5167334,57.5 12.8841195,56.5863418 13.4645482,55.1850629 C14.044977,53.7837839 13.7241429,52.1708421 12.6516504,51.0983496 C11.5791579,50.0258571 9.96621609,49.705023 8.56493713,50.2854518 C7.16365817,50.8658805 6.25,52.2332666 6.25,53.75 C6.25232495,55.820104 7.92989598,57.4976751 10,57.5 L10,57.5 Z M10,52.5 C10.6903559,52.5 11.25,53.0596441 11.25,53.75 C11.25,54.4403559 10.6903559,55 10,55 C9.30964406,55 8.75,54.4403559 8.75,53.75 C8.75077498,53.0599653 9.30996533,52.500775 10,52.5 L10,52.5 Z" id="Shape" fill="#413157"></path>
                        </g>
                    </g>
                </g>
            </g>
        </g>
    </g>
</svg>