<?xml version="1.0" encoding="UTF-8"?>
<svg width="75px" height="70px" viewBox="0 0 75 70" version="1.1" xmlns="http://www.w3.org/2000/svg" xmlns:xlink="http://www.w3.org/1999/xlink">
    <title>noun_lcd screen_3200205</title>
    <g id="Home-page" stroke="none" stroke-width="1" fill="none" fill-rule="evenodd">
        <g id="Ibtdaa--Home-Page" transform="translate(-817.000000, -646.000000)" fill-rule="nonzero">
            <g id="Group-8" transform="translate(165.000000, 558.000000)">
                <g id="Group-5-Copy" transform="translate(16.000000, 24.000000)">
                    <g id="Services-Card-Copy-4" transform="translate(368.000000, 64.000000)">
                        <g id="noun_lcd-screen_3200205" transform="translate(268.000000, 0.000000)">
                            <path d="M36.445103,56.1971831 L38.554897,56.1971831 C39.3536551,56.1971831 40,55.5350118 40,54.7183099 C40,53.9016079 39.3536551,53.2394366 38.554897,53.2394366 L36.445103,53.2394366 C35.6463449,53.2394366 35,53.9016079 35,54.7183099 C35,55.5350118 35.6463449,56.1971831 36.445103,56.1971831 Z" id="Path" fill="#413157"></path>
                            <path d="M0.0015259375,54.0350747 C0.0015259375,54.0477999 0.0052453125,54.0594023 0.005340625,54.0721275 C0.00886921875,54.5389377 0.0547409375,54.9991045 0.147056563,55.4473881 C0.211048125,55.7603727 0.322532656,56.0540823 0.426673906,56.3509731 C0.475978906,56.4910442 0.503063281,56.6385072 0.561237344,56.7753034 C1.66149141,59.3764903 4.27284234,61.2128535 7.31658938,61.2128535 L25.8377075,61.2128535 L25.8377075,66.9339678 L19.013977,66.9339678 C18.1503295,66.9339678 17.451477,67.6203817 17.451477,68.4669839 C17.451477,69.3135861 18.1503295,70 19.013977,70 L27.4002075,70 L47.5952148,70 L55.9814453,70 C56.8450928,70 57.5439453,69.3135861 57.5439453,68.4669839 C57.5439453,67.6203817 56.8450928,66.9339678 55.9814453,66.9339678 L49.1577148,66.9339678 L49.1577148,61.2128538 L67.678833,61.2128538 C70.2217102,61.2128538 72.4611281,59.9305996 73.7728119,57.9936509 C73.7811089,57.9815807 73.7857819,57.967639 73.7939834,57.9554753 C74.0400314,57.5873793 74.2568016,57.1992598 74.4315147,56.7885903 C74.5467186,56.5194891 74.61586,56.2343879 74.6965408,55.9529356 C74.7436523,55.7875075 74.8133659,55.6320913 74.8483658,55.4621721 C74.9464034,54.9917127 75,54.5093704 75,54.0186069 L75,7.18975568 C75,3.22547185 71.7193603,0 67.6879883,0 L7.29675297,0 C3.27301031,0 0,3.21873486 0,7.1747847 L0,54.0186067 C0,54.0237529 0.0015259375,54.028712 0.0015259375,54.0338582 L0.0015259375,54.0350747 Z M72,54.1367387 C72,54.41139 71.9702303,54.6792189 71.9158597,54.9386578 C71.8859942,55.07815 71.8322938,55.2102666 71.7873998,55.3453335 C71.7512166,55.4555996 71.7259458,55.5703834 71.6804775,55.6764085 C71.4715149,56.1567487 71.1654893,56.5992884 70.7701545,56.9800571 C69.9737414,57.7463885 68.9200257,58.1690141 67.8019844,58.1690141 L7.20107885,58.1690141 C6.08303751,58.1690141 5.02932181,57.7463885 4.23290877,56.9800571 C3.63837489,56.4074289 3.24457167,55.6959539 3.0826088,54.9241831 C3.03292878,54.682538 3.00698781,54.433056 3.00430755,54.1781347 C3.00411606,54.1636599 3,54.150015 3,54.1355403 L3,51.2676056 L72,51.2676056 L72,54.1367387 Z M46,67.0422535 L29,67.0422535 L29,61.1267606 L46,61.1267606 L46,67.0422535 Z M7.18692298,2.95774648 L67.7977628,2.95774648 C70.1148127,2.95774648 72,4.82223469 72,7.11455188 L72,48.3098592 L3,48.3098592 L3,7.0994608 C3,4.81544381 4.87753015,2.95774648 7.18692298,2.95774648 Z" id="Shape" fill="#413157"></path>
                            <path d="M7.60316414,22.6760563 L23.3968359,22.6760563 C24.2829598,22.6760563 25,22.0113931 25,21.1916175 L25,10.3576783 C25,9.53790272 24.2829598,8.87323944 23.3968359,8.87323944 L7.60316414,8.87323944 C6.71704017,8.87323944 6,9.53790272 6,10.3576783 L6,21.1916175 C6,22.0113931 6.71704033,22.6760563 7.60316414,22.6760563 Z M9,11.8309859 L22,11.8309859 L22,19.7183099 L9,19.7183099 L9,11.8309859 L9,11.8309859 Z" id="Shape" fill="#76E8DD"></path>
                            <path d="M7.60316414,29.5774648 L23.3968359,29.5774648 C24.2829598,29.5774648 25,28.9152935 25,28.0985915 C25,27.2818896 24.2829598,26.6197183 23.3968359,26.6197183 L7.60316414,26.6197183 C6.71704017,26.6197183 6,27.2818896 6,28.0985915 C6,28.9152935 6.71704033,29.5774648 7.60316414,29.5774648 Z" id="Path" fill="#413157"></path>
                            <path d="M7.60316414,36.4788732 L23.3968359,36.4788732 C24.2829598,36.4788732 25,35.816702 25,35 C25,34.183298 24.2829598,33.5211268 23.3968359,33.5211268 L7.60316414,33.5211268 C6.71704017,33.5211268 6,34.183298 6,35 C6,35.816702 6.71704033,36.4788732 7.60316414,36.4788732 Z" id="Path" fill="#413157"></path>
                            <path d="M29.6031641,22.6760563 L45.3968359,22.6760563 C46.2829598,22.6760563 47,22.0113931 47,21.1916175 L47,10.3576783 C47,9.53790272 46.2829598,8.87323944 45.3968359,8.87323944 L29.6031641,8.87323944 C28.7170402,8.87323944 28,9.53790272 28,10.3576783 L28,21.1916175 C28,22.0113931 28.7170402,22.6760563 29.6031641,22.6760563 Z M31,11.8309859 L44,11.8309859 L44,19.7183099 L31,19.7183099 L31,11.8309859 L31,11.8309859 Z" id="Shape" fill="#76E8DD"></path>
                            <path d="M29.6031641,29.5774648 L45.3968359,29.5774648 C46.2829598,29.5774648 47,28.9152935 47,28.0985915 C47,27.2818896 46.2829598,26.6197183 45.3968359,26.6197183 L29.6031641,26.6197183 C28.7170402,26.6197183 28,27.2818896 28,28.0985915 C28,28.9152935 28.7170402,29.5774648 29.6031641,29.5774648 Z" id="Path" fill="#413157"></path>
                            <path d="M29.6031641,36.4788732 L45.3968359,36.4788732 C46.2829598,36.4788732 47,35.816702 47,35 C47,34.183298 46.2829598,33.5211268 45.3968359,33.5211268 L29.6031641,33.5211268 C28.7170402,33.5211268 28,34.183298 28,35 C28,35.816702 28.7170402,36.4788732 29.6031641,36.4788732 Z" id="Path" fill="#413157"></path>
                            <path d="M51.6031641,22.6760563 L67.3968359,22.6760563 C68.2829598,22.6760563 69,22.0113931 69,21.1916175 L69,10.3576783 C69,9.53790272 68.2829598,8.87323944 67.3968359,8.87323944 L51.6031641,8.87323944 C50.7170402,8.87323944 50,9.53790272 50,10.3576783 L50,21.1916175 C50,22.0113931 50.7170402,22.6760563 51.6031641,22.6760563 Z M53,11.8309859 L66,11.8309859 L66,19.7183099 L53,19.7183099 L53,11.8309859 Z" id="Shape" fill="#76E8DD"></path>
                            <path d="M51.6031641,29.5774648 L67.3968359,29.5774648 C68.2829598,29.5774648 69,28.9152935 69,28.0985915 C69,27.2818896 68.2829598,26.6197183 67.3968359,26.6197183 L51.6031641,26.6197183 C50.7170402,26.6197183 50,27.2818896 50,28.0985915 C50,28.9152935 50.7170402,29.5774648 51.6031641,29.5774648 Z" id="Path" fill="#413157"></path>
                            <path d="M51.6031641,36.4788732 L67.3968359,36.4788732 C68.2829598,36.4788732 69,35.816702 69,35 C69,34.183298 68.2829598,33.5211268 67.3968359,33.5211268 L51.6031641,33.5211268 C50.7170402,33.5211268 50,34.183298 50,35 C50,35.816702 50.7170402,36.4788732 51.6031641,36.4788732 Z" id="Path" fill="#413157"></path>
                            <path d="M7.60316414,42.3943662 L23.3968359,42.3943662 C24.2829598,42.3943662 25,41.7321949 25,40.915493 C25,40.098791 24.2829598,39.4366197 23.3968359,39.4366197 L7.60316414,39.4366197 C6.71704017,39.4366197 6,40.098791 6,40.915493 C6,41.7321949 6.71704033,42.3943662 7.60316414,42.3943662 Z" id="Path" fill="#413157"></path>
                            <path d="M29.6031641,42.3943662 L45.3968359,42.3943662 C46.2829598,42.3943662 47,41.7321949 47,40.915493 C47,40.098791 46.2829598,39.4366197 45.3968359,39.4366197 L29.6031641,39.4366197 C28.7170402,39.4366197 28,40.098791 28,40.915493 C28,41.7321949 28.7170402,42.3943662 29.6031641,42.3943662 Z" id="Path" fill="#413157"></path>
                            <path d="M51.6031641,42.3943662 L67.3968359,42.3943662 C68.2829598,42.3943662 69,41.7321949 69,40.915493 C69,40.098791 68.2829598,39.4366197 67.3968359,39.4366197 L51.6031641,39.4366197 C50.7170402,39.4366197 50,40.098791 50,40.915493 C50,41.7321949 50.7170402,42.3943662 51.6031641,42.3943662 Z" id="Path" fill="#413157"></path>
                        </g>
                    </g>
                </g>
            </g>
        </g>
    </g>
</svg>